<?xml version="1.0" encoding="utf-8"?>
<!-- Generator: Adobe Illustrator 26.5.2, SVG Export Plug-In . SVG Version: 6.00 Build 0)  -->
<svg version="1.1" id="Layer_3" xmlns="http://www.w3.org/2000/svg" xmlns:xlink="http://www.w3.org/1999/xlink" x="0px" y="0px"
	 viewBox="0 0 841.9 1190.6" style="enable-background:new 0 0 841.9 1190.6;" xml:space="preserve">
<style type="text/css">
	.st0{fill:#1B9DD9;}
	.st1{fill:#48AC35;stroke:#020203;stroke-miterlimit:10;}
	.st2{fill:none;}
	.st3{fill:#FFFFFF;}
</style>
<g id="Layer_16">
	<rect x="0.6" y="0" class="st0" width="841.4" height="812.3"/>
	<rect x="0.6" y="812.3" class="st1" width="844.7" height="378.2"/>
</g>
<rect x="119.2" y="-39.2" class="st2" width="482.5" height="88.1"/>
<g>
	<g>
		<path class="st3" d="M164,196.6c-1.7,0.2-3.8-1.1-3.5-3.1c0.3-1.9,2.3-2.7,4-2.3c2.8,0.7,5.9,0.7,7.4-2.2c1.1-2,0.5-4.4,0.9-6.3
			c0.1-0.6,0.3-1,0.9-1.3c1-0.4,2.2-0.3,3.3-0.2c2.4,0.2,4.7,0.5,7-0.4c1.2-0.5,2.2-1.2,2.9-2.3c0.9-1.4,0.9-2.8,1-4.3
			c0.1-0.8,0.1-0.9,0.7-1.2c0.8-0.3,1.6-0.2,2.4,0.1c2.5,1.1,4.2,3.8,6.4,5.5c2.6,1.9,5.3,2.4,8.4,1.7c0.5-0.1,1.2-0.1,1.6-0.3
			c0.2-0.1,0.3,0.1,0.1-0.1c0.3,0.3,0.2,1.1,0.2,1.4c0,0.9,0.1,1.7,0.2,2.6c0.4,2.9,1.9,5.5,3.5,8c1.3,2.1,2.6,4.2,3.1,6.6
			c0.3,1.7,0.2,3.8-1.2,4.9c-2,1.5-5.4,0.9-7.7,0.8c-1.6,0-3.3-0.1-4.9-0.1c-0.8,0-1.6,0-2.5,0c-0.7,0-1.5-0.2-2.1-0.1
			c-0.1,0-0.1,0-0.2,0c-0.4-0.1-0.2,0,0.3,0.3c0,0-0.2-0.7-0.3-0.8c-0.3-0.8-0.6-1.5-1.2-2.1c-1.2-1.3-3-1.6-4.7-1.4
			c-3.2,0.5-4.6,3.6-7.3,4.9c-2.5,1.3-5.6,1.2-8.3,1.2c-1.2,0-6.7,0.2-5.8-2.3c0.4-1.3-0.5-2.7-1.8-3.1c-1.4-0.4-2.6,0.5-3.1,1.8
			c-1.3,3.6,1.5,6.9,4.8,8c1.6,0.5,3.4,0.6,5.1,0.6c1.6,0,3.2,0.1,4.8-0.1c3.4-0.3,6.7-1.2,9.3-3.4c0.9-0.8,1.7-2,2.8-2.5
			c-0.1,0.1,0.9-0.3,0.6-0.1c0.3-0.1,0.4,0.1,0.2,0c-0.2,0-0.3-0.7-0.1,0.1c0.1,0.3,0.2,0.6,0.3,1c1.5,3.9,6.3,3.1,9.7,3.2
			c3.7,0.1,7.5,0.4,11.1-0.1c3.2-0.5,5.9-2.6,6.9-5.8c0.9-2.6,0.5-5.7-0.4-8.2c-1.1-3.1-3.1-5.6-4.6-8.5c-0.6-1.1-1.1-2.4-1.3-3.7
			c-0.2-1.8,0.1-3.5-0.8-5.2c-0.8-1.5-2.3-2.5-4-2.6c-1.6-0.1-3.1,0.6-4.8,0.6c-2.8,0.1-5-3.2-6.9-4.9c-2.4-2.1-5.4-3.6-8.7-2.7
			c-1.2,0.3-2.4,1-3.3,2c-0.5,0.6-0.9,1.3-1.2,2.1c-0.3,1-0.1,2-0.3,3c-0.1,0.8-0.5,0.9-1.4,1.1c-1.1,0.2-2.4,0.1-3.5,0
			c-2.8-0.3-6.1-0.3-8.2,1.8c-1.2,1.2-1.7,2.8-1.9,4.5c-0.1,0.7-0.1,1.4-0.1,2.2c0,0.6,0,1.3-0.1,1.7c-0.1,0.3,0.1,0.2-0.1,0.4
			c0.1-0.1,0.1-0.1,0.2-0.2c-0.7,0.1-1.4-0.2-2.1-0.4c-1.9-0.4-3.6-0.3-5.4,0.5c-3.3,1.6-5.3,5.5-4.2,9.1c1,3.5,4.6,6.1,8.2,5.7
			c1.3-0.1,2.5-1.1,2.5-2.5C166.5,197.8,165.3,196.4,164,196.6L164,196.6z"/>
	</g>
</g>
<g>
	<g>
		<path class="st3" d="M164.2,200.5c0,0.6,0,1.2,0,1.8c0,0.3,0.1,0.7,0.2,1c0.1,0.3,0.3,0.6,0.5,0.8s0.5,0.4,0.8,0.5
			c0.3,0.2,0.6,0.2,1,0.2c0.2,0,0.4-0.1,0.7-0.1c0.4-0.1,0.8-0.3,1.1-0.6c0.1-0.2,0.3-0.3,0.4-0.5c0.2-0.4,0.3-0.8,0.3-1.3
			c0-0.6,0-1.2,0-1.8c0-0.3-0.1-0.7-0.2-1c-0.1-0.3-0.3-0.6-0.5-0.8s-0.5-0.4-0.8-0.5c-0.3-0.2-0.6-0.2-1-0.2
			c-0.2,0-0.4,0.1-0.7,0.1c-0.4,0.1-0.8,0.3-1.1,0.6c-0.1,0.2-0.3,0.3-0.4,0.5C164.3,199.7,164.2,200.1,164.2,200.5L164.2,200.5z"/>
	</g>
</g>
<g>
	<g>
		<path class="st3" d="M60.8,50.5c-3.5-1.9-7.6-3.6-11.5-1.8c-3.1,1.4-5.3,5.1-4,8.5c0.8-1,1.6-2.1,2.4-3.2c-2.8,0.3-5-1.9-7.4-3.1
			c-2.4-1.2-5.4-2-8-0.9c-3,1.2-4.1,4.2-4,7.2c0,1.2,0.3,2.5,0.1,3.6c-0.2,1-0.6,1.2-1.5,1.6c-1.9,1-4.4,1.5-5.9,3.3
			c-2,2.3-2,5.7-0.3,8.2c1.8,2.8,4.9,3.9,8.1,4.3c3.1,0.4,6.5,0.7,9.5-0.7c2.1-1,3.8-3.2,5.7-3.9c0.7-0.3,1.1-0.1,1.6,0.4
			c0.6,0.6,1.1,1.7,1.6,2.6c1.1,2.2,2.5,4.1,4.8,5.2c2.2,1,4.8,1.2,7.1,0.6s4.4-2.1,5.7-4.1c0.7-1.1,1-2.3,1.3-3.6
			c0.2-0.9,0.3-2.4,1-3.2c0.6-0.6,2-0.4,2.9-0.5c1.4-0.1,2.8-0.4,4.1-1.2c2.2-1.4,3.8-3.7,4.3-6.3c0.5-3.2-0.7-6.3-3.3-8.2
			c-2.2-1.6-5.3-2.2-7.9-1.3c-1.7,0.5-2.9,1.5-4.1,2.7c-0.4,0.4-0.9,1-1.5,1.3c-0.3,0.1-1,0-0.3,0.3c0.2,0.1-0.1,0.2,0,0
			c0,0,0-0.4,0-0.6c0-0.6,0.1-1.2,0.1-1.8c0-1.8-0.6-3.2-2.1-4.2c-2.7-1.8-5.2,2.5-2.5,4.3c-0.8-0.5-0.2-0.6-0.3-0.3
			c0,0,0-0.8,0,0.2c0,0.5-0.1,1-0.1,1.5c-0.1,1.2,0.1,2.5,0.7,3.5c1.5,2.6,5,2.8,7.4,1.3c1.1-0.7,1.9-1.7,2.9-2.6
			c0.7-0.6,1.4-0.9,2-1c1.5-0.1,3.2,0.5,4,1.9c0.7,1.3,0.3,2.9-0.6,4c-1.4,1.8-3.5,1.3-5.7,1.7c-2.9,0.5-4.5,2.8-5.2,5.4
			c-0.3,1.1-0.5,2.2-0.8,3.3c-0.2,0.6-0.5,1.1-1.2,1.7c-1,0.8-2.7,1.2-4.2,1c-0.3,0-1.2-0.3-1.6-0.6c-0.7-0.4-1.1-1-1.6-1.9
			c-1.1-1.9-1.9-4-3.7-5.4c-2-1.6-4.6-1.8-7-0.6c-2,1-3.5,2.8-5.5,3.8c-1.1,0.5-2.3,0.4-3.5,0.4c-1.3-0.1-2.6-0.1-3.9-0.3
			c-1.8-0.3-4.3-1.3-4.2-3.4c0-0.6,0.4-0.9,0.7-1.1c0.9-0.6,1.7-0.8,2.7-1.2c2.5-1,4.8-2.5,5.5-5.3c0.3-1.4,0.2-2.8,0.1-4.2
			c-0.1-0.8-0.3-2.1,0.2-2.8c0.4-0.6,1.2-0.6,1.9-0.6c1.2,0.1,2.2,0.7,3.2,1.3c2.7,1.7,5.6,3.7,9,3.3c1.4-0.2,3.1-1.5,2.4-3.2
			c-0.5-1.2,0.4-2.4,1.8-2.8c2.1-0.7,4.6,0.8,6.4,1.8C61.1,56.4,63.6,52.1,60.8,50.5L60.8,50.5z"/>
	</g>
</g>
<g>
	<g>
		<path class="st3" d="M177.2,199.1c5.2,0,10.2-4.6,10-10s-4.4-10-10-10c-5.2,0-10.2,4.6-10,10C167.4,194.6,171.6,199.1,177.2,199.1
			L177.2,199.1z"/>
	</g>
</g>
<g>
	<g>
		<path class="st3" d="M184.6,181.7c-0.6-0.5-1.2-1.1-1.7-1.8c0.5,0.7,1,1.4,1.6,2c-0.4-0.5-0.7-1-0.9-1.5c0.3,0.8,0.7,1.6,1,2.4
			c-0.2-0.4-0.3-0.8-0.4-1.2c0.1,0.9,0.2,1.8,0.4,2.7c0-0.2,0-0.4,0-0.6c-0.1,0.9-0.2,1.8-0.4,2.7c0-0.3,0.1-0.5,0.2-0.8
			c-0.3,0.8-0.7,1.6-1,2.4c0.1-0.1,0.1-0.2,0.1-0.2c-0.5,0.7-1,1.4-1.6,2c0.1-0.2,0.3-0.3,0.4-0.5c-0.7,0.5-1.4,1-2,1.6
			c0.2-0.1,0.3-0.3,0.5-0.4c-0.8,0.3-1.6,0.7-2.4,1c0.2-0.1,0.4-0.1,0.6-0.2c-0.9,0.1-1.8,0.2-2.7,0.4c0.3,0,0.6-0.1,0.9,0
			c-0.9-0.1-1.8-0.2-2.7-0.4c0.3,0.1,0.6,0.1,0.9,0.3c-0.8-0.3-1.6-0.7-2.4-1c0.4,0.2,0.8,0.4,1.2,0.7c-0.7-0.5-1.4-1-2-1.6
			c0.4,0.3,0.7,0.6,1,1c-0.5-0.7-1-1.4-1.6-2c0.6,0.9,1.2,1.8,1.8,2.7c1.5,2.2,2.9,3.8,5.1,5.3c3.1,2.2,7.5,2.9,11.2,1.8
			c2.9-0.8,5.4-2.7,7-5.3c1.4-2.3,1.8-4.5,2-7.1c0.1-2.6,0.1-5.1,0.1-7.7c-5,2.9-10,5.8-15.1,8.6c0.3,0.2,0.6,0.5,0.9,0.7
			c-0.7-0.5-1.4-1-2-1.6c1.4,1.1,2.7,2.4,3.9,3.9c-0.5-0.7-1-1.4-1.6-2c1.2,1.6,2.2,3.2,3,5.1c-0.3-0.8-0.7-1.6-1-2.4
			c0.1,0.4,0.3,0.7,0.4,1.1c0.9,2.4,2.2,4.7,4.6,6c2,1.1,4.1,1.5,6.4,1.2c2.1-0.3,4.3-1.1,5.7-2.8c1.9-2.1,2.6-4.3,2.9-7.1
			c0.5-4.5-1-9.8-3.7-13.4c-3.2-4.5-7.4-8-12.8-9.3c-4.1-1.1-9.2,0.7-11.3,4.6c-2.1,4-1.6,8.8,1.6,12.1c0.3,0.3,0.5,0.6,0.8,0.9
			c-0.5-0.7-1-1.4-1.6-2c1.3,1.7,2.1,3.7,3.1,5.6c1.6,3,4,5.6,6.8,7.4c3.5,2.3,7.8,2.9,11.8,1.9c2.5-0.6,4.7-2.1,7-3.1
			c-0.8,0.3-1.6,0.7-2.4,1c0.5-0.2,0.9-0.3,1.4-0.4c-0.9,0.1-1.8,0.2-2.7,0.4c0.3,0,0.5,0,0.8,0c-0.9-0.1-1.8-0.2-2.7-0.4
			c0.2,0,0.3,0.1,0.5,0.1c-0.8-0.3-1.6-0.7-2.4-1c0.2,0.1,0.3,0.2,0.5,0.3c-0.7-0.5-1.4-1-2-1.6c0.1,0.1,0.2,0.1,0.2,0.2
			c-0.9-3.2-1.7-6.5-2.6-9.7c-0.2,0.6-0.4,1.1-0.5,1.7c-0.2,1.3-0.5,2.7-0.4,4.1c0.2,2.9,0.8,5,2,7.6c0.8,1.7,2,3.2,3.3,4.4
			c0.8,0.8,1.7,1.4,2.4,2.2c-0.5-0.7-1-1.4-1.6-2c0.2,0.3,0.3,0.5,0.5,0.8c-0.3-0.8-0.7-1.6-1-2.4c0.1,0.2,0.1,0.4,0.2,0.6
			c-0.1-0.9-0.2-1.8-0.4-2.7c0,0.2,0,0.4,0,0.6c0.1-0.9,0.2-1.8,0.4-2.7c0,0.3-0.1,0.5-0.2,0.8c0.3-0.8,0.7-1.6,1-2.4
			c-0.1,0.2-0.3,0.5-0.4,0.7c0.5-0.7,1-1.4,1.6-2c-0.2,0.2-0.4,0.4-0.6,0.6c0.7-0.5,1.4-1,2-1.6c-0.4,0.3-0.9,0.6-1.3,0.8
			c0.8-0.3,1.6-0.7,2.4-1c-1,0.4-2,0.7-3.1,0.8c0.9-0.1,1.8-0.2,2.7-0.4c-2.2,0.3-4.4,0.5-6.7,0.2c0.9,0.1,1.8,0.2,2.7,0.4
			c-0.9-0.1-1.7-0.4-2.6-0.7c0.8,0.3,1.6,0.7,2.4,1c-0.6-0.3-1.1-0.6-1.6-0.9c0.7,0.5,1.4,1,2,1.6c-0.7-0.6-1.4-1.3-2.1-1.9
			c-2-1.7-3.6-2.8-6.1-3.6c-3.1-1.1-6.4-0.9-9.6-0.2c-4.6,1.1-7.9,4.1-12.1,5.9c0.8-0.3,1.6-0.7,2.4-1c-0.9,0.4-1.8,0.6-2.8,0.8
			c0.9-0.1,1.8-0.2,2.7-0.4c-0.4,0-0.8,0.1-1.2,0c2.4,5.7,4.7,11.4,7.1,17.1c2.3-2,4.2-5,5-7.9c1.4-5.1-0.6-10.8-5.1-13.5
			c-3.2-1.9-6.6-1.9-10.2-1.9c-2.4,0-4.8,0-7.2,0c-5.2,0-10.2,4.6-10,10s4.4,10,10,10c3.6,0,7.3-0.2,11,0c-0.9-0.1-1.8-0.2-2.7-0.4
			c0.3,0,0.5,0.1,0.8,0.2c-0.8-0.3-1.6-0.7-2.4-1c0.2,0.1,0.4,0.2,0.6,0.4c-0.7-0.5-1.4-1-2-1.6c0.1,0.1,0.3,0.2,0.4,0.4
			c-0.5-0.7-1-1.4-1.6-2c0,0.1,0.1,0.1,0.1,0.2c-0.3-0.8-0.7-1.6-1-2.4c0.1,0.2,0.1,0.3,0.1,0.5c-0.1-0.9-0.2-1.8-0.4-2.7
			c0,0.3,0,0.5,0,0.8c0.1-0.9,0.2-1.8,0.4-2.7c-0.1,0.3-0.1,0.6-0.3,0.9c0.3-0.8,0.7-1.6,1-2.4c-0.3,0.6-0.6,1.2-1.1,1.7
			c0.5-0.7,1-1.4,1.6-2c-0.4,0.4-0.7,0.8-1.2,1.2c-1.2,1-2.2,2.9-2.6,4.4c-0.6,2.2-0.4,4.5,0.5,6.5c1.6,3.7,5.1,6.1,9.1,6.1
			c3.8,0.1,7.5-1.2,10.8-3c2-1.1,3.9-2.5,6-3.4c-0.8,0.3-1.6,0.7-2.4,1c0.9-0.4,1.8-0.6,2.8-0.8c-0.9,0.1-1.8,0.2-2.7,0.4
			c0.7-0.1,1.3-0.1,1.9,0c-0.9-0.1-1.8-0.2-2.7-0.4c0.5,0.1,1,0.2,1.5,0.4c-0.8-0.3-1.6-0.7-2.4-1c0.5,0.2,0.9,0.5,1.4,0.8
			c-0.7-0.5-1.4-1-2-1.6c1.8,1.5,3.4,3.2,5.4,4.3c2.8,1.5,5.3,2.1,8.5,2.4c1.5,0.2,3,0.1,4.5,0c2.2-0.2,4.4-0.4,6.5-1
			c5.9-1.7,11-6.4,11.1-12.9c0.1-3.6-1.5-7-4-9.6c-0.9-1-2.1-1.7-3-2.8c0.5,0.7,1,1.4,1.6,2c-0.4-0.5-0.6-1-0.9-1.6
			c0.3,0.8,0.7,1.6,1,2.4c-0.2-0.6-0.4-1.1-0.5-1.7c0.1,0.9,0.2,1.8,0.4,2.7c-0.1-0.7-0.1-1.4,0-2.1c-0.1,0.9-0.2,1.8-0.4,2.7
			c0.1-0.6,0.2-1.1,0.5-1.7c1.2-3-0.1-7.7-2.6-9.7c-1.9-1.5-3.3-2.6-5.6-3.2c-2.2-0.6-4.7-0.5-6.8,0.2c-2.3,0.7-4.3,2-6.4,2.9
			c0.8-0.3,1.6-0.7,2.4-1c-0.6,0.3-1.2,0.5-1.9,0.6c0.9-0.1,1.8-0.2,2.7-0.4c-0.4,0-0.7,0-1.1,0c0.9,0.1,1.8,0.2,2.7,0.4
			c-0.4-0.1-0.7-0.2-1.1-0.3c0.8,0.3,1.6,0.7,2.4,1c-0.6-0.2-1.1-0.6-1.6-0.9c0.7,0.5,1.4,1,2,1.6c-0.6-0.5-1.1-1-1.6-1.6
			c0.5,0.7,1,1.4,1.6,2c-1.1-1.4-1.8-2.9-2.5-4.5c-1.1-2.2-2.5-4.2-4.2-6c-3.2,5.6-6.5,11.1-9.7,16.7c0.6,0.1,1.1,0.3,1.6,0.5
			c-0.8-0.3-1.6-0.7-2.4-1c1,0.4,1.9,0.9,2.7,1.6c-0.7-0.5-1.4-1-2-1.6c0.8,0.7,1.6,1.4,2.2,2.2c-0.5-0.7-1-1.4-1.6-2
			c0.7,0.9,1.3,1.9,1.8,3c-0.3-0.8-0.7-1.6-1-2.4c0.4,1,0.7,2,0.8,3c-0.1-0.9-0.2-1.8-0.4-2.7c0.1,0.9,0.1,1.8,0,2.8
			c6.6-0.9,13.1-1.8,19.6-2.7c-1.1-3.1-2.4-6-4.4-8.6c-2.5-3.3-5-5.8-8.4-8.2c-2.9-2-7.2-1.7-10.1,0c-3.1,1.8-4.9,5.1-4.9,8.6
			c0,2.8,0.2,5.7-0.1,8.5c0.1-0.9,0.2-1.8,0.4-2.7c0,0.3-0.1,0.5-0.2,0.7c0.3-0.8,0.7-1.6,1-2.4c-0.1,0.2-0.2,0.4-0.3,0.6
			c0.5-0.7,1-1.4,1.6-2c-0.1,0.1-0.2,0.3-0.4,0.4c0.7-0.5,1.4-1,2-1.6c-0.1,0.1-0.3,0.2-0.5,0.2c0.8-0.3,1.6-0.7,2.4-1
			c-0.2,0.1-0.4,0.1-0.5,0.1c0.9-0.1,1.8-0.2,2.7-0.4c-0.3,0-0.6,0-0.9,0c0.9,0.1,1.8,0.2,2.7,0.4c-0.4-0.1-0.8-0.2-1.2-0.3
			c0.8,0.3,1.6,0.7,2.4,1c-0.4-0.2-0.7-0.4-1.1-0.6c0.7,0.5,1.4,1,2,1.6c-0.4-0.3-0.7-0.7-1-1.1c0.5,0.7,1,1.4,1.6,2
			c-0.6-0.9-1.1-1.8-1.7-2.7c-1.5-2.2-2.9-3.7-5.1-5.2c-3.9-2.8-9.8-3.2-13.9-0.6c-4.8,2.9-7.2,8.7-5.7,14.2
			c0.9,3.2,2.9,6.3,5.5,8.5c2.1,1.7,4.3,2.9,7.1,2.9c2.4,0,5.4-1.1,7.1-2.9c1.8-1.9,3.1-4.4,2.9-7.1
			C187.4,186.2,186.6,183.4,184.6,181.7L184.6,181.7z"/>
	</g>
</g>
<g>
	<g>
		<path class="st3" d="M200.8,204.4c5.2,0,10.2-4.6,10-10s-4.4-10-10-10c-5.2,0-10.2,4.6-10,10C191.1,199.8,195.2,204.4,200.8,204.4
			L200.8,204.4z"/>
	</g>
</g>
<g>
	<g>
		<path class="st3" d="M172.8,213.2c5.2,0,10.2-4.6,10-10s-4.4-10-10-10c-5.2,0-10.2,4.6-10,10C163.1,208.6,167.2,213.2,172.8,213.2
			L172.8,213.2z"/>
	</g>
</g>
<g>
	<g>
		<path class="st3" d="M213.9,202.6c5.2,0,10.2-4.6,10-10s-4.4-10-10-10c-5.2,0-10.2,4.6-10,10C204.2,198.1,208.4,202.6,213.9,202.6
			L213.9,202.6z"/>
	</g>
</g>
<g>
	<g>
		<path class="st3" d="M210.4,191.3c5.2,0,10.2-4.6,10-10s-4.4-10-10-10c-5.2,0-10.2,4.6-10,10C200.7,186.7,204.9,191.3,210.4,191.3
			L210.4,191.3z"/>
	</g>
</g>
<g>
	<g>
		<path class="st3" d="M30.9,78.8c1.4,0,2.8,0.1,4.2,0.1c-0.9-6.6-1.8-13.1-2.7-19.6c-3.2,0.8-6.5,1.6-9.7,2.4
			c-7,1.7-10.1,11.8-4.4,16.7c3,2.6,6.6,4.3,10.6,4s7.7-1.8,10.6-4.6c2.3-2.3,4.1-5.6,4.8-8.8c0.6-2.7,0.6-5.4,0.8-8.1
			c-0.1,0.9-0.2,1.8-0.4,2.7c0.1-0.5,0.2-1,0.4-1.5c-0.3,0.8-0.7,1.6-1,2.4c0.1-0.2,0.2-0.5,0.4-0.7c-0.5,0.7-1,1.3-1.6,2
			c0.2-0.3,0.4-0.5,0.7-0.7c-0.7,0.5-1.3,1-2,1.6c0.3-0.2,0.6-0.3,0.9-0.5c-0.8,0.3-1.6,0.7-2.4,1c0.4-0.2,0.9-0.3,1.3-0.3
			c-0.9,0.1-1.8,0.2-2.7,0.4c0.7-0.1,1.4-0.1,2.1,0c-0.9-0.1-1.8-0.2-2.7-0.4c0.8,0.1,1.6,0.4,2.4,0.7c-0.8-0.3-1.6-0.7-2.4-1
			c0.9,0.4,1.7,0.9,2.5,1.4c-0.7-0.5-1.3-1-2-1.6c0.8,0.6,1.4,1.3,2,2c-0.5-0.7-1-1.3-1.6-2c0.5,0.7,0.9,1.4,1.3,2.2
			c-0.3-0.8-0.7-1.6-1-2.4c0,0.1,0.1,0.2,0.1,0.3c0.7,1.6,1.3,3.2,2.6,4.4c1.6,1.6,3.6,2.5,5.7,2.8c4,0.5,7.8-1.3,10-4.8
			c2.6-4.2,4-9,5.1-13.7c-6.5-0.9-13.1-1.8-19.6-2.7c0.1,8.3-1.2,19.2,7.4,23.9c5.8,3.1,11.8,1,17.2-1.6c3.4-1.6,6.5-4,9.3-6.5
			c-5.2-4-10.5-8.1-15.7-12.1c-0.5,0.8-1,1.6-1.5,2.3c0.5-0.7,1-1.3,1.6-2c-1.7,2.2-3.8,4.1-6,5.8c0.7-0.5,1.3-1,2-1.6
			c-2.3,1.8-4.8,3.8-7.5,5c0.8-0.3,1.6-0.7,2.4-1c-0.5,0.2-1,0.4-1.6,0.5c0.9-0.1,1.8-0.2,2.7-0.4c-0.4,0.1-0.8,0.1-1.2,0
			c0.9,0.1,1.8,0.2,2.7,0.4c-0.5-0.1-1-0.2-1.4-0.4c0.8,0.3,1.6,0.7,2.4,1c-0.3-0.2-0.7-0.4-1-0.6c0.7,0.5,1.3,1,2,1.6
			c-0.6-0.5-1.2-1-1.6-1.6c0.5,0.7,1,1.3,1.6,2c-1-1.3-1.7-2.7-2.6-4.1c-1.7-2.5-3.6-4.8-6.3-6.3c-3.3-1.8-6.8-2.2-10.5-1.5
			c-3.6,0.6-6.5,3.1-8.4,6.1c-2.8,4.4-1.1,11.2,3.6,13.7c4.9,2.6,10.7,1.1,13.7-3.6c0-0.1,0.1-0.2,0.2-0.3c-0.5,0.7-1,1.3-1.6,2
			c0.2-0.2,0.4-0.4,0.6-0.6c-0.7,0.5-1.3,1-2,1.6c0.2-0.1,0.3-0.2,0.5-0.3c-0.8,0.3-1.6,0.7-2.4,1c0.4-0.2,0.8-0.2,1.2-0.3
			c-0.9,0.1-1.8,0.2-2.7,0.4c0.4,0,0.8,0,1.2,0c-0.9-0.1-1.8-0.2-2.7-0.4c0.4,0.1,0.8,0.2,1.2,0.4c-0.8-0.3-1.6-0.7-2.4-1
			c0.4,0.2,0.8,0.4,1.1,0.7c-0.7-0.5-1.3-1-2-1.6c0.5,0.4,0.9,0.9,1.3,1.4c-0.5-0.7-1-1.3-1.6-2c0.9,1.2,1.6,2.6,2.5,3.9
			c1.7,2.5,3.5,4.5,5.9,6.2c5.3,3.6,12.2,2.7,17.3-0.7c6.4-4.2,12.7-8.9,16.6-15.6c2.5-4.3,1.3-9.9-2.6-12.9
			c-4.1-3.1-9.4-2.6-13.1,0.8c-0.6,0.6-1.3,1.1-1.9,1.6c0.7-0.5,1.3-1,2-1.6c-2.1,1.6-4.4,3-6.9,4c0.8-0.3,1.6-0.7,2.4-1
			c-1.2,0.5-2.4,0.9-3.6,1.2c0.9-0.1,1.8-0.2,2.7-0.4c-0.4,0-0.8,0-1.2,0c0.9,0.1,1.8,0.2,2.7,0.4c-0.2,0-0.5-0.1-0.7-0.2
			c0.8,0.3,1.6,0.7,2.4,1c-0.2-0.1-0.4-0.2-0.5-0.3c0.7,0.5,1.3,1,2,1.6c-0.2-0.2-0.4-0.4-0.6-0.6c0.5,0.7,1,1.3,1.6,2
			c-0.2-0.3-0.4-0.7-0.6-1.1c0.3,0.8,0.7,1.6,1,2.4c-0.2-0.6-0.4-1.2-0.5-1.9c0.1,0.9,0.2,1.8,0.4,2.7c-0.5-3.7-0.2-7.6-0.2-11.4
			c0-5-3.8-9.2-8.7-9.8c-4.7-0.6-9.8,2.3-11,7.2c-0.7,2.8-1.4,5.6-2.5,8.3c0.3-0.8,0.7-1.6,1-2.4c-0.5,1-1,2.1-1.6,3
			c6.1,0.8,12.2,1.6,18.3,2.4c-1-2.3-1.7-3.9-3.2-5.9c-1.2-1.5-2.3-2.6-3.8-3.8c-3.4-2.6-7.2-3.9-11.5-4.3c-1.8-0.2-3.7,0.1-5.4,0.7
			c-3.2,1.1-5.9,3-7.7,5.9c-2.2,3.6-1.9,7.5-2.4,11.4c0.1-0.9,0.2-1.8,0.4-2.7c-0.2,1-0.4,2-0.8,3c0.3-0.8,0.7-1.6,1-2.4
			c-0.3,0.7-0.7,1.4-1.2,2c0.5-0.7,1-1.3,1.6-2c-0.3,0.4-0.6,0.7-1,1c0.7-0.5,1.4-1,2-1.6c-0.5,0.3-0.9,0.6-1.4,0.8
			c0.8-0.3,1.6-0.7,2.4-1c-0.5,0.2-1,0.3-1.6,0.4c0.9-0.1,1.8-0.2,2.7-0.4c-0.4,0-0.9,0-1.3,0c0.9,0.1,1.8,0.2,2.7,0.4
			c-0.4-0.1-0.8-0.2-1.2-0.3c0.8,0.3,1.6,0.7,2.4,1c-0.3-0.2-0.5-0.3-0.8-0.5c0.7,0.5,1.4,1,2,1.6c-0.1-0.1-0.2-0.1-0.2-0.2
			c-1.5,5.6-2.9,11.1-4.4,16.7c3.2-0.8,6.5-1.6,9.7-2.4c4.8-1.2,7.8-6.2,7.2-11c-0.7-5-4.8-8.5-9.8-8.7c-1.4,0-2.8-0.1-4.2-0.1
			c-5.2-0.1-10.2,4.7-10,10C21.2,74.4,25.3,78.7,30.9,78.8L30.9,78.8z"/>
	</g>
</g>
<g>
	<g>
		<path class="st3" d="M57.2,61.3c5.2,0,10.2-4.6,10-10c-0.2-5.4-4.4-10-10-10c-5.2,0-10.2,4.6-10,10C47.4,56.7,51.6,61.3,57.2,61.3
			L57.2,61.3z"/>
	</g>
</g>
<g>
	<g>
		<path class="st3" d="M52.8,62.2c5.2,0,10.2-4.6,10-10s-4.4-10-10-10c-5.2,0-10.2,4.6-10,10S47.2,62.2,52.8,62.2L52.8,62.2z"/>
	</g>
</g>
<g>
	<g>
		<path class="st3" d="M65.9,82.3c5.2,0,10.2-4.6,10-10s-4.4-10-10-10c-5.2,0-10.2,4.6-10,10C56.2,77.8,60.3,82.3,65.9,82.3
			L65.9,82.3z"/>
	</g>
</g>
<g>
	<g>
		<path class="st3" d="M60.7,70.1c5.2,0,10.2-4.6,10-10c-0.2-5.4-4.4-10-10-10c-5.2,0-10.2,4.6-10,10C50.9,65.5,55.1,70.1,60.7,70.1
			L60.7,70.1z"/>
	</g>
</g>
<rect x="186.7" y="-47.5" class="st2" width="246.2" height="11.5"/>
<g>
	<g>
		<path class="st3" d="M554.1,127.9c-1.7,0.2-3.8-1.1-3.5-3.1c0.3-1.9,2.3-2.7,4-2.3c2.8,0.7,5.8,0.7,7.4-2.2c1-2,0.5-4.4,0.9-6.3
			c0.1-0.7,0.3-1,0.9-1.3c1-0.4,2.2-0.3,3.3-0.2c2.4,0.2,4.7,0.5,7-0.4c1.2-0.5,2.2-1.2,3-2.3c0.9-1.4,0.9-2.8,1-4.3
			c0.1-0.8,0.2-0.9,0.7-1.2c0.8-0.3,1.5-0.2,2.4,0.1c2.5,1.1,4.2,3.8,6.4,5.5c2.6,1.9,5.3,2.4,8.4,1.7c0.5-0.1,1.2-0.1,1.6-0.3
			c0.2-0.1,0.3,0.1,0.1-0.1c0.3,0.3,0.2,1.1,0.2,1.4c0,0.9,0.1,1.7,0.2,2.6c0.4,2.9,2,5.5,3.5,8c1.3,2.1,2.6,4.2,3.1,6.6
			c0.3,1.7,0.2,3.8-1.2,4.9c-2,1.5-5.4,0.9-7.7,0.8c-1.7,0-3.3-0.1-5-0.1c-0.8,0-1.7,0-2.5,0c-0.7,0-1.5-0.2-2.2-0.1
			c0,0-0.1,0-0.2,0c-0.3-0.1-0.2,0,0.3,0.3c0,0-0.2-0.7-0.3-0.8c-0.3-0.8-0.6-1.5-1.2-2.1c-1.2-1.3-3-1.6-4.7-1.4
			c-3.2,0.5-4.6,3.6-7.3,4.9c-2.5,1.3-5.6,1.2-8.3,1.2c-1.2,0-6.7,0.2-5.8-2.3c0.5-1.3-0.5-2.7-1.8-3.1c-1.4-0.4-2.6,0.5-3.1,1.8
			c-1.3,3.6,1.5,6.9,4.8,8c1.6,0.5,3.4,0.6,5.1,0.6c1.6,0,3.2,0.1,4.8-0.1c3.4-0.3,6.7-1.2,9.3-3.4c0.9-0.8,1.7-2,2.8-2.5
			c-0.1,0.1,0.9-0.3,0.6-0.1c0.3-0.1,0.4,0.1,0.2,0c-0.2,0-0.3-0.7-0.1,0.1c0.1,0.3,0.2,0.6,0.3,1c1.5,3.9,6.3,3.1,9.7,3.2
			c3.7,0.1,7.5,0.4,11.1-0.1c3.2-0.5,5.9-2.6,6.9-5.8c0.9-2.6,0.5-5.7-0.5-8.2c-1.1-3.1-3.1-5.6-4.6-8.5c-0.6-1.2-1.1-2.4-1.3-3.7
			c-0.2-1.8,0.1-3.5-0.8-5.2c-0.8-1.5-2.3-2.5-4-2.6c-1.7-0.2-3.2,0.6-4.8,0.6c-2.8,0.1-5-3.2-6.9-4.9c-2.5-2.1-5.5-3.6-8.7-2.7
			c-1.2,0.3-2.4,1-3.3,2c-0.5,0.6-0.9,1.3-1.2,2.1c-0.3,1-0.1,2-0.3,3c-0.1,0.8-0.5,0.9-1.4,1.1c-1.1,0.2-2.4,0.1-3.5,0
			c-2.8-0.3-6.1-0.3-8.2,1.8c-1.2,1.2-1.7,2.8-1.9,4.5c-0.1,0.7-0.1,1.4-0.1,2.2c0,0.6,0,1.3-0.1,1.7c-0.1,0.3,0.1,0.2-0.2,0.3
			c0.1-0.1,0.1-0.2,0.2-0.2c-0.7,0.1-1.4-0.2-2.1-0.4c-1.9-0.4-3.6-0.3-5.4,0.5c-3.3,1.6-5.3,5.5-4.2,9.1c1,3.5,4.6,6.1,8.2,5.7
			c1.3-0.1,2.5-1.1,2.5-2.5C556.6,129.1,555.4,127.7,554.1,127.9L554.1,127.9z"/>
	</g>
</g>
<g>
	<g>
		<path class="st3" d="M567.3,130.4c5.2,0,10.2-4.6,10-10s-4.4-10-10-10c-5.2,0-10.2,4.6-10,10C557.6,125.9,561.7,130.4,567.3,130.4
			L567.3,130.4z"/>
	</g>
</g>
<g>
	<g>
		<path class="st3" d="M574.7,113c-0.6-0.5-1.2-1.1-1.7-1.8c0.5,0.7,1,1.3,1.6,2c-0.3-0.5-0.7-1-0.9-1.5c0.3,0.8,0.7,1.6,1,2.4
			c-0.2-0.4-0.3-0.8-0.4-1.2c0.1,0.9,0.2,1.8,0.4,2.7c0-0.2,0-0.4,0-0.6c-0.1,0.9-0.2,1.8-0.4,2.7c0-0.3,0.1-0.5,0.2-0.8
			c-0.3,0.8-0.7,1.6-1,2.4c0-0.1,0.1-0.2,0.2-0.2c-0.5,0.7-1,1.3-1.6,2c0.1-0.2,0.3-0.3,0.4-0.5c-0.7,0.5-1.3,1-2,1.6
			c0.2-0.1,0.3-0.3,0.5-0.3c-0.8,0.3-1.6,0.7-2.4,1c0.2-0.1,0.4-0.2,0.6-0.2c-0.9,0.1-1.8,0.2-2.7,0.4c0.3,0,0.6-0.1,0.9,0
			c-0.9-0.1-1.8-0.2-2.7-0.4c0.3,0.1,0.6,0.1,1,0.3c-0.8-0.3-1.6-0.7-2.4-1c0.4,0.2,0.8,0.4,1.2,0.7c-0.7-0.5-1.3-1-2-1.6
			c0.4,0.3,0.7,0.6,1,1c-0.5-0.7-1-1.3-1.6-2c0.6,0.9,1.2,1.8,1.8,2.7c1.5,2.2,2.9,3.8,5.1,5.3c3.1,2.2,7.5,2.9,11.2,1.8
			c2.9-0.8,5.4-2.7,7-5.3c1.4-2.3,1.8-4.5,2-7.2c0.1-2.6,0-5.1,0.1-7.7c-5,2.9-10,5.8-15,8.6c0.3,0.2,0.6,0.5,1,0.7
			c-0.7-0.5-1.3-1-2-1.6c1.5,1.1,2.7,2.4,3.9,3.9c-0.5-0.7-1-1.3-1.6-2c1.2,1.6,2.2,3.2,3,5.1c-0.3-0.8-0.7-1.6-1-2.4
			c0.2,0.4,0.3,0.7,0.4,1.1c0.9,2.4,2.2,4.7,4.6,6c2,1.1,4.1,1.5,6.4,1.2c2.1-0.3,4.3-1.1,5.7-2.8c1.9-2.1,2.6-4.3,2.9-7.1
			c0.5-4.5-1-9.8-3.7-13.4c-3.2-4.5-7.4-8-12.8-9.3c-4.2-1.1-9.2,0.7-11.3,4.6c-2.1,4-1.6,8.8,1.6,12.1c0.3,0.3,0.5,0.6,0.8,0.9
			c-0.5-0.7-1-1.3-1.6-2c1.3,1.7,2.1,3.7,3.1,5.6c1.6,3,4,5.6,6.8,7.4c3.5,2.3,7.8,2.9,11.8,1.9c2.5-0.6,4.7-2.1,7-3.1
			c-0.8,0.3-1.6,0.7-2.4,1c0.5-0.2,0.9-0.3,1.4-0.4c-0.9,0.1-1.8,0.2-2.7,0.4c0.3,0,0.5,0,0.8,0c-0.9-0.1-1.8-0.2-2.7-0.4
			c0.2,0,0.3,0.1,0.5,0.1c-0.8-0.3-1.6-0.7-2.4-1c0.2,0.1,0.3,0.2,0.5,0.3c-0.7-0.5-1.3-1-2-1.6c0.1,0.1,0.2,0.1,0.2,0.2
			c-0.9-3.2-1.7-6.5-2.6-9.7c-0.2,0.6-0.4,1.1-0.5,1.7c-0.2,1.3-0.5,2.7-0.4,4.1c0.2,2.9,0.8,5,2,7.6c0.8,1.7,2,3.2,3.3,4.4
			c0.8,0.8,1.7,1.4,2.5,2.2c-0.5-0.7-1-1.4-1.6-2c0.2,0.3,0.3,0.5,0.5,0.8c-0.3-0.8-0.7-1.6-1-2.4c0.1,0.2,0.1,0.4,0.2,0.6
			c-0.1-0.9-0.2-1.8-0.4-2.7c0,0.2,0,0.4,0,0.6c0.1-0.9,0.2-1.8,0.4-2.7c0,0.3-0.1,0.5-0.2,0.8c0.3-0.8,0.7-1.6,1-2.4
			c-0.1,0.2-0.3,0.5-0.4,0.7c0.5-0.7,1-1.3,1.6-2c-0.2,0.2-0.4,0.4-0.6,0.6c0.7-0.5,1.3-1,2-1.6c-0.4,0.3-0.9,0.6-1.3,0.8
			c0.8-0.3,1.6-0.7,2.4-1c-1,0.4-2,0.7-3.1,0.8c0.9-0.1,1.8-0.2,2.7-0.4c-2.2,0.3-4.5,0.5-6.7,0.2c0.9,0.1,1.8,0.2,2.7,0.4
			c-0.9-0.1-1.7-0.3-2.6-0.7c0.8,0.3,1.6,0.7,2.4,1c-0.6-0.3-1.1-0.6-1.7-0.9c0.7,0.5,1.3,1,2,1.6c-0.7-0.6-1.4-1.3-2.1-1.9
			c-2-1.7-3.6-2.8-6.1-3.6c-3.1-1.1-6.4-0.9-9.5-0.2c-4.5,1.1-7.9,4.1-12.1,5.9c0.8-0.3,1.6-0.7,2.4-1c-0.9,0.4-1.8,0.6-2.8,0.8
			c0.9-0.1,1.8-0.2,2.7-0.4c-0.4,0-0.8,0.1-1.2,0c2.4,5.7,4.7,11.4,7.1,17.1c2.3-2,4.2-5,5-7.9c1.4-5.1-0.6-10.8-5.2-13.5
			c-3.2-1.9-6.6-1.9-10.2-1.9c-2.4,0-4.8,0-7.2,0c-5.2,0-10.2,4.6-10,10s4.4,10,10,10c3.7,0,7.3-0.2,11,0c-0.9-0.1-1.8-0.2-2.7-0.4
			c0.3,0,0.5,0.1,0.8,0.2c-0.8-0.3-1.6-0.7-2.4-1c0.2,0.1,0.4,0.2,0.6,0.4c-0.7-0.5-1.3-1-2-1.6c0.1,0.1,0.3,0.2,0.4,0.4
			c-0.5-0.7-1-1.4-1.6-2c0,0.1,0.1,0.1,0.1,0.2c-0.3-0.8-0.7-1.6-1-2.4c0.1,0.2,0.1,0.3,0.2,0.5c-0.1-0.9-0.2-1.8-0.4-2.7
			c0,0.3,0,0.5,0,0.8c0.1-0.9,0.2-1.8,0.4-2.7c-0.1,0.3-0.2,0.6-0.3,0.9c0.3-0.8,0.7-1.6,1-2.4c-0.3,0.6-0.6,1.2-1,1.7
			c0.5-0.7,1-1.3,1.6-2c-0.4,0.4-0.7,0.8-1.2,1.2c-1.2,1-2.2,2.9-2.6,4.4c-0.6,2.2-0.4,4.5,0.5,6.5c1.6,3.7,5.1,6.1,9.1,6.1
			c3.8,0.1,7.5-1.2,10.8-3c2-1.1,3.9-2.5,6-3.4c-0.8,0.3-1.6,0.7-2.4,1c0.9-0.4,1.8-0.6,2.8-0.8c-0.9,0.1-1.8,0.2-2.7,0.4
			c0.7-0.1,1.3-0.1,2,0c-0.9-0.1-1.8-0.2-2.7-0.4c0.5,0.1,1,0.2,1.5,0.4c-0.8-0.3-1.6-0.7-2.4-1c0.5,0.2,0.9,0.5,1.4,0.8
			c-0.7-0.5-1.3-1-2-1.6c1.8,1.5,3.3,3.2,5.4,4.3c2.8,1.5,5.3,2.1,8.5,2.4c1.5,0.2,3,0.1,4.5,0c2.2-0.2,4.4-0.4,6.5-1
			c5.9-1.7,11-6.4,11.1-12.9c0.1-3.6-1.5-7-4-9.6c-1-1-2.1-1.7-3-2.8c0.5,0.7,1,1.3,1.6,2c-0.3-0.5-0.6-1-0.9-1.6
			c0.3,0.8,0.7,1.6,1,2.4c-0.2-0.6-0.4-1.1-0.5-1.7c0.1,0.9,0.2,1.8,0.4,2.7c-0.1-0.7-0.1-1.4,0-2.1c-0.1,0.9-0.2,1.8-0.4,2.7
			c0.1-0.6,0.2-1.2,0.5-1.7c1.2-3-0.1-7.7-2.6-9.7c-1.8-1.5-3.3-2.6-5.6-3.2c-2.2-0.6-4.7-0.5-6.8,0.2c-2.3,0.7-4.3,2-6.5,2.9
			c0.8-0.3,1.6-0.7,2.4-1c-0.6,0.3-1.2,0.5-1.9,0.6c0.9-0.1,1.8-0.2,2.7-0.4c-0.4,0-0.7,0-1.1,0c0.9,0.1,1.8,0.2,2.7,0.4
			c-0.4-0.1-0.7-0.2-1-0.3c0.8,0.3,1.6,0.7,2.4,1c-0.6-0.2-1.1-0.6-1.6-0.9c0.7,0.5,1.3,1,2,1.6c-0.6-0.5-1.2-1-1.7-1.6
			c0.5,0.7,1,1.3,1.6,2c-1-1.4-1.8-2.9-2.5-4.5c-1.1-2.2-2.5-4.2-4.2-6c-3.2,5.6-6.5,11.1-9.7,16.7c0.6,0.1,1.1,0.3,1.7,0.5
			c-0.8-0.3-1.6-0.7-2.4-1c1,0.4,1.8,0.9,2.7,1.6c-0.7-0.5-1.3-1-2-1.6c0.8,0.7,1.5,1.4,2.2,2.2c-0.5-0.7-1-1.3-1.6-2
			c0.7,0.9,1.3,1.9,1.8,3c-0.3-0.8-0.7-1.6-1-2.4c0.4,1,0.7,2,0.8,3c-0.1-0.9-0.2-1.8-0.4-2.7c0.1,0.9,0.1,1.8,0,2.8
			c6.5-0.9,13.1-1.8,19.6-2.7c-1.1-3.1-2.4-6-4.4-8.6c-2.5-3.3-5-5.8-8.4-8.2c-2.9-2-7.2-1.7-10.1,0c-3.1,1.8-4.9,5.1-5,8.6
			c0,2.8,0.2,5.7-0.1,8.5c0.1-0.9,0.2-1.8,0.4-2.7c0,0.3-0.1,0.5-0.2,0.7c0.3-0.8,0.7-1.6,1-2.4c-0.1,0.2-0.2,0.4-0.3,0.6
			c0.5-0.7,1-1.3,1.6-2c-0.1,0.1-0.2,0.3-0.4,0.4c0.7-0.5,1.3-1,2-1.6c-0.2,0.1-0.3,0.2-0.5,0.2c0.8-0.3,1.6-0.7,2.4-1
			c-0.2,0.1-0.3,0.1-0.5,0.1c0.9-0.1,1.8-0.2,2.7-0.4c-0.3,0-0.6,0-0.9,0c0.9,0.1,1.8,0.2,2.7,0.4c-0.4-0.1-0.8-0.2-1.2-0.3
			c0.8,0.3,1.6,0.7,2.4,1c-0.4-0.2-0.7-0.4-1-0.6c0.7,0.5,1.3,1,2,1.6c-0.4-0.3-0.7-0.7-1-1.1c0.5,0.7,1,1.3,1.6,2
			c-0.6-0.9-1.1-1.8-1.7-2.7c-1.5-2.2-2.9-3.7-5-5.2c-3.9-2.8-9.8-3.2-13.9-0.7c-4.8,2.9-7.2,8.7-5.7,14.2c0.9,3.2,2.9,6.3,5.5,8.5
			c2.1,1.7,4.3,2.9,7.1,2.9c2.5,0,5.4-1.1,7.1-2.9c1.8-1.9,3-4.4,2.9-7.1C577.5,117.5,576.7,114.7,574.7,113L574.7,113z"/>
	</g>
</g>
<g>
	<g>
		<path class="st3" d="M590.9,135.7c5.2,0,10.2-4.6,10-10c-0.2-5.4-4.4-10-10-10c-5.2,0-10.2,4.6-10,10
			C581.2,131.1,585.3,135.7,590.9,135.7L590.9,135.7z"/>
	</g>
</g>
<g>
	<g>
		<path class="st3" d="M604.1,133.9c5.2,0,10.2-4.6,10-10c-0.2-5.4-4.4-10-10-10c-5.2,0-10.2,4.6-10,10
			C594.3,129.4,598.5,133.9,604.1,133.9L604.1,133.9z"/>
	</g>
</g>
<g>
	<g>
		<path class="st3" d="M600.6,122.6c5.2,0,10.2-4.6,10-10s-4.4-10-10-10c-5.2,0-10.2,4.6-10,10S595,122.6,600.6,122.6L600.6,122.6z"
			/>
	</g>
</g>
<g>
	<g>
		<path class="st3" d="M757.2,32.9c-3.5-1.9-7.6-3.6-11.5-1.8c-3.1,1.4-5.3,5.1-4,8.5c0.8-1,1.6-2.1,2.4-3.2c-2.8,0.3-5-1.9-7.4-3.1
			c-2.4-1.2-5.4-2-8-0.9c-3,1.2-4.1,4.2-4,7.2c0,1.2,0.3,2.5,0.1,3.6c-0.2,1-0.6,1.2-1.5,1.6c-1.9,1-4.4,1.5-5.9,3.3
			c-2,2.3-2,5.7-0.3,8.2c1.8,2.8,4.9,4,8.1,4.3c3.1,0.4,6.5,0.7,9.5-0.7c2.1-1,3.8-3.2,5.7-3.9c0.7-0.3,1.1-0.1,1.6,0.4
			c0.6,0.6,1.1,1.7,1.6,2.6c1.1,2.2,2.5,4.1,4.8,5.2c2.2,1,4.8,1.2,7.1,0.6s4.4-2.1,5.7-4.1c0.7-1.1,1-2.3,1.3-3.6
			c0.2-1,0.3-2.4,1-3.2c0.6-0.6,2-0.4,2.9-0.5c1.5-0.1,2.8-0.4,4.1-1.2c2.2-1.4,3.8-3.7,4.3-6.3c0.5-3.2-0.7-6.3-3.3-8.2
			c-2.2-1.6-5.3-2.2-8-1.3c-1.7,0.5-2.9,1.5-4.1,2.7c-0.4,0.4-0.9,1-1.5,1.3c-0.3,0.1-1,0-0.3,0.3c0.2,0.1-0.1,0.2,0,0
			c0,0,0-0.4,0-0.6c0-0.6,0.1-1.2,0.1-1.8c0-1.8-0.6-3.2-2.1-4.2c-2.7-1.8-5.2,2.5-2.5,4.3c-0.8-0.5-0.2-0.6-0.3-0.3
			c0,0,0-0.8,0,0.2c0,0.5-0.1,1-0.1,1.5c-0.1,1.2,0.1,2.5,0.7,3.5c1.5,2.6,5,2.8,7.4,1.3c1.1-0.7,2-1.7,2.9-2.6c0.7-0.6,1.4-0.9,2-1
			c1.5-0.1,3.2,0.5,4,1.9c0.7,1.3,0.3,2.9-0.6,4c-1.5,1.8-3.5,1.3-5.7,1.7c-2.9,0.5-4.5,2.8-5.2,5.4c-0.3,1.1-0.5,2.2-0.8,3.3
			c-0.2,0.6-0.5,1.1-1.2,1.7c-1,0.8-2.7,1.2-4.2,1c-0.3,0-1.2-0.3-1.6-0.6c-0.7-0.4-1.1-1-1.6-1.9c-1.1-1.9-1.9-4-3.7-5.4
			c-2-1.6-4.6-1.8-7-0.6c-2,1-3.5,2.8-5.5,3.8c-1.1,0.5-2.3,0.5-3.5,0.4c-1.3,0-2.6-0.1-3.9-0.3c-1.8-0.3-4.3-1.3-4.2-3.4
			c0-0.6,0.3-0.9,0.7-1.1c0.9-0.6,1.7-0.8,2.7-1.2c2.5-1,4.8-2.5,5.5-5.3c0.3-1.4,0.2-2.8,0.1-4.2c-0.1-0.8-0.3-2.1,0.2-2.8
			c0.4-0.6,1.2-0.6,1.9-0.6c1.2,0.1,2.2,0.7,3.2,1.3c2.7,1.7,5.6,3.7,9,3.3c1.4-0.2,3.1-1.5,2.4-3.2c-0.5-1.2,0.4-2.4,1.8-2.8
			c2.1-0.7,4.6,0.8,6.4,1.8C757.5,38.8,760,34.4,757.2,32.9L757.2,32.9z"/>
	</g>
</g>
<g>
	<g>
		<path class="st3" d="M727.3,61.2c1.4,0,2.8,0.1,4.2,0.1c-0.9-6.5-1.8-13.1-2.7-19.6c-3.2,0.8-6.5,1.6-9.7,2.4
			c-7,1.7-10,11.8-4.4,16.7c3,2.6,6.6,4.3,10.6,4c4-0.3,7.7-1.8,10.6-4.6c2.3-2.3,4.1-5.6,4.8-8.8c0.6-2.7,0.6-5.4,0.8-8.1
			c-0.1,0.9-0.2,1.8-0.4,2.7c0.1-0.5,0.2-1,0.4-1.5c-0.3,0.8-0.7,1.6-1,2.4c0.1-0.2,0.2-0.5,0.4-0.7c-0.5,0.7-1,1.3-1.6,2
			c0.2-0.3,0.4-0.5,0.7-0.7c-0.7,0.5-1.3,1-2,1.6c0.3-0.2,0.6-0.3,0.9-0.5c-0.8,0.3-1.6,0.7-2.4,1c0.4-0.2,0.9-0.3,1.3-0.3
			c-0.9,0.1-1.8,0.2-2.7,0.4c0.7-0.1,1.4,0,2.1,0c-0.9-0.1-1.8-0.2-2.7-0.4c0.8,0.1,1.6,0.4,2.4,0.7c-0.8-0.3-1.6-0.7-2.4-1
			c0.9,0.4,1.7,0.9,2.5,1.4c-0.7-0.5-1.3-1-2-1.6c0.8,0.6,1.4,1.3,2,2c-0.5-0.7-1-1.3-1.6-2c0.5,0.7,0.9,1.4,1.3,2.2
			c-0.3-0.8-0.7-1.6-1-2.4c0,0.1,0.1,0.2,0.1,0.3c0.7,1.6,1.3,3.2,2.6,4.4c1.6,1.6,3.6,2.5,5.7,2.8c4,0.5,7.8-1.3,10-4.8
			c2.6-4.2,4-9,5.1-13.7c-6.5-0.9-13.1-1.8-19.6-2.7c0.1,8.3-1.2,19.2,7.4,23.9c5.8,3.1,11.8,1,17.2-1.6c3.4-1.6,6.5-4,9.3-6.5
			c-5.2-4-10.5-8.1-15.7-12.1c-0.5,0.8-1,1.6-1.5,2.3c0.5-0.7,1-1.3,1.6-2c-1.7,2.2-3.8,4.1-6,5.8c0.7-0.5,1.3-1,2-1.6
			c-2.3,1.8-4.8,3.8-7.5,5c0.8-0.3,1.6-0.7,2.4-1c-0.5,0.2-1,0.4-1.6,0.5c0.9-0.1,1.8-0.2,2.7-0.4c-0.4,0-0.8,0.1-1.2,0
			c0.9,0.1,1.8,0.2,2.7,0.4c-0.5-0.1-1-0.2-1.4-0.4c0.8,0.3,1.6,0.7,2.4,1c-0.3-0.2-0.7-0.4-1-0.6c0.7,0.5,1.3,1,2,1.6
			c-0.6-0.5-1.2-1-1.6-1.6c0.5,0.7,1,1.3,1.6,2c-1-1.3-1.7-2.7-2.6-4.1c-1.7-2.5-3.6-4.8-6.3-6.3c-3.3-1.8-6.8-2.2-10.5-1.5
			c-3.6,0.6-6.5,3.1-8.4,6.1c-2.8,4.4-1.1,11.2,3.6,13.7c4.9,2.6,10.7,1.1,13.7-3.6c0-0.1,0.1-0.2,0.2-0.3c-0.5,0.7-1,1.3-1.6,2
			c0.2-0.2,0.4-0.4,0.6-0.6c-0.7,0.5-1.3,1-2,1.6c0.2-0.1,0.3-0.2,0.5-0.3c-0.8,0.3-1.6,0.7-2.4,1c0.4-0.2,0.8-0.2,1.2-0.3
			c-0.9,0.1-1.8,0.2-2.7,0.4c0.4,0,0.8,0,1.2,0c-0.9-0.1-1.8-0.2-2.7-0.4c0.4,0.1,0.8,0.2,1.2,0.4c-0.8-0.3-1.6-0.7-2.4-1
			c0.4,0.2,0.8,0.4,1.1,0.7c-0.7-0.5-1.3-1-2-1.6c0.5,0.4,0.9,0.9,1.3,1.4c-0.5-0.7-1-1.3-1.6-2c0.9,1.2,1.6,2.6,2.5,3.9
			c1.7,2.5,3.5,4.5,5.9,6.2c5.3,3.6,12.2,2.7,17.3-0.7c6.4-4.2,12.7-8.9,16.6-15.6c2.5-4.3,1.3-9.9-2.6-12.9
			c-4-3.1-9.4-2.6-13.1,0.8c-0.6,0.6-1.3,1.1-1.9,1.6c0.7-0.5,1.3-1,2-1.6c-2.1,1.6-4.4,3-6.9,4c0.8-0.3,1.6-0.7,2.4-1
			c-1.2,0.5-2.4,0.9-3.6,1.2c0.9-0.1,1.8-0.2,2.7-0.4c-0.4,0-0.8,0-1.2,0c0.9,0.1,1.8,0.2,2.7,0.4c-0.2,0-0.5-0.1-0.7-0.2
			c0.8,0.3,1.6,0.7,2.4,1c-0.2-0.1-0.4-0.2-0.5-0.3c0.7,0.5,1.3,1,2,1.6c-0.2-0.2-0.4-0.4-0.6-0.6c0.5,0.7,1,1.3,1.6,2
			c-0.2-0.3-0.4-0.7-0.6-1.1c0.3,0.8,0.7,1.6,1,2.4c-0.2-0.6-0.4-1.2-0.5-1.9c0.1,0.9,0.2,1.8,0.4,2.7c-0.5-3.7-0.2-7.6-0.2-11.4
			c0-5-3.8-9.2-8.7-9.8c-4.7-0.6-9.8,2.3-11,7.2c-0.7,2.8-1.4,5.6-2.5,8.3c0.3-0.8,0.7-1.6,1-2.4c-0.5,1-1,2.1-1.6,3
			c6.1,0.8,12.2,1.6,18.3,2.4c-1-2.3-1.7-3.9-3.2-5.9c-1.2-1.5-2.3-2.6-3.8-3.8c-3.4-2.6-7.2-3.9-11.5-4.3c-1.8-0.2-3.7,0.1-5.4,0.7
			c-3.2,1.1-5.9,3-7.7,5.9c-2.2,3.6-1.8,7.5-2.3,11.4c0.1-0.9,0.2-1.8,0.4-2.7c-0.2,1-0.4,2-0.8,3c0.3-0.8,0.7-1.6,1-2.4
			c-0.3,0.7-0.7,1.4-1.2,2c0.5-0.7,1-1.3,1.6-2c-0.3,0.4-0.6,0.7-1,1c0.7-0.5,1.3-1,2-1.6c-0.5,0.3-0.9,0.6-1.4,0.8
			c0.8-0.3,1.6-0.7,2.4-1c-0.5,0.2-1,0.3-1.6,0.4c0.9-0.1,1.8-0.2,2.7-0.4c-0.4,0-0.8,0-1.3,0c0.9,0.1,1.8,0.2,2.7,0.4
			c-0.4-0.1-0.8-0.2-1.2-0.3c0.8,0.3,1.6,0.7,2.4,1c-0.3-0.2-0.5-0.3-0.8-0.5c0.7,0.5,1.3,1,2,1.6c-0.1-0.1-0.2-0.1-0.2-0.2
			c-1.5,5.6-2.9,11.1-4.4,16.7c3.2-0.8,6.5-1.6,9.7-2.4c4.8-1.2,7.8-6.2,7.2-11c-0.7-5-4.8-8.5-9.8-8.7c-1.4,0-2.8-0.1-4.2-0.1
			c-5.2-0.1-10.2,4.7-10,10C717.6,56.8,721.7,61.1,727.3,61.2L727.3,61.2z"/>
	</g>
</g>
<g>
	<g>
		<path class="st3" d="M753.6,43.7c5.2,0,10.2-4.6,10-10s-4.4-10-10-10c-5.2,0-10.2,4.6-10,10S748,43.7,753.6,43.7L753.6,43.7z"/>
	</g>
</g>
<g>
	<g>
		<path class="st3" d="M749.2,44.6c5.2,0,10.2-4.6,10-10s-4.4-10-10-10c-5.2,0-10.2,4.6-10,10C739.5,40,743.6,44.6,749.2,44.6
			L749.2,44.6z"/>
	</g>
</g>
<g>
	<g>
		<path class="st3" d="M762.3,64.7c5.2,0,10.2-4.6,10-10s-4.4-10-10-10c-5.2,0-10.2,4.6-10,10C752.6,60.1,756.7,64.7,762.3,64.7
			L762.3,64.7z"/>
	</g>
</g>
<g>
	<g>
		<path class="st3" d="M757.1,52.5c5.2,0,10.2-4.6,10-10s-4.4-10-10-10c-5.2,0-10.2,4.6-10,10S751.5,52.5,757.1,52.5L757.1,52.5z"/>
	</g>
</g>
<g>
	<g>
		<path class="st3" d="M258.7,67.5c-2.5-1.9-6.1-3.5-9-1.5c-2.5,1.7-3.7,5-2.9,7.9c0.6-1,1.2-2.1,1.8-3.1c-0.5,0.1-1.5-0.9-1.9-1.2
			c-0.9-0.8-1.8-1.6-2.8-2.1c-2.1-1.1-4.8-1.4-6.7,0.3c-1.9,1.6-2.2,4.2-2,6.6c0.1,1,0.2,2,0.1,3c-0.1,0.8-0.4,1-0.9,1.4
			c-1.7,1.2-3.6,1.8-4.6,3.7c-1.2,2.2-0.9,4.9,0.2,7.1c1.1,2.2,3.4,3.6,5.8,4.1c2.5,0.4,5.5,0.8,7.7-0.8c0.8-0.6,1.5-1.3,2.2-2
			c0.3-0.3,0.6-0.7,1-1c0.1-0.1,0.3-0.3,0.4-0.4c-0.2,0.1,0.2-0.3,0.1-0.1c0.1-0.1,0.5,0,0.1,0H247c-0.1,0.1,0-0.2,0.1,0.1
			c-0.1-0.2,0.1,0.2,0.1,0.2c0.5,0.8,0.8,1.7,1.1,2.6c0.8,2,1.8,3.9,3.8,4.9c1.7,0.9,3.7,1,5.5,0.3c2-0.8,3.5-2.2,4.4-4.1
			c0.5-1.1,0.7-2.2,0.9-3.3c0.1-0.8,0.2-2.1,0.6-2.7c0.3-0.4,1.1-0.2,1.8-0.3c1.2-0.2,2.3-0.7,3.2-1.5c1.6-1.4,2.5-3.5,2.8-5.6
			c0.4-2.6-0.3-5.3-2.1-7.2c-1.6-1.7-4.2-2.5-6.5-1.8c-1.2,0.4-2.2,1.2-3,2.2c-0.4,0.5-0.7,1-1.2,1.5c0,0.1-0.1,0.1-0.1,0.1
			c-0.4,0.3-0.4,0.3,0,0.1c0.2,0.2,1.1,0.5,1,0.6s0-0.4,0-0.2c0-0.2,0-0.6,0-0.8c0-0.5,0.1-1.1,0.1-1.6c0-1.3-0.3-2.6-1.3-3.6
			c-2.4-2.2-5.9,1.3-3.5,3.5c-0.2-0.2-0.1-0.7-0.1-0.1c0,0.4,0,0.8,0,1.3c0,0.9-0.1,1.9,0.2,2.8c0.6,2.4,3.1,3.6,5.4,2.8
			c1.1-0.4,1.9-1.2,2.6-2.1c0.5-0.7,1.1-1.5,1.6-1.8c-0.1,0.1,0.2,0,0.2,0s0.3,0,0.5,0.1c0.4,0.2,0.9,0.6,1.2,1.2
			c0.6,1.2,0.4,2.7-0.1,3.8c-0.2,0.5-0.7,1.1-0.9,1.2c-0.3,0.2-0.1,0.1-0.5,0.2c-0.7,0.1-1.3,0.1-2,0.2c-2.3,0.4-3.6,2.3-4.2,4.5
			c-0.4,1.6-0.4,3.5-1.2,4.9c-0.6,1-1.4,1.3-2.3,1.3c0.4,0-0.4-0.1-0.6-0.2c0.4,0.2-0.5-0.4-0.2-0.2c-0.5-0.4-0.8-1.1-1.1-1.8
			c-0.7-1.7-1.2-3.5-2.5-4.9c-1.5-1.6-3.7-1.9-5.6-1c-1.5,0.8-2.6,2.2-3.8,3.3c-1.1,1.1-3.2,0.8-4.8,0.4c-1.5-0.3-2.5-1.3-2.6-2.9
			c-0.1-1.4,1.2-1.7,2.4-2.4c1.9-1.1,3.4-2.7,3.7-5c0.2-1.2,0.2-2.4,0.1-3.6c-0.1-0.9-0.2-2,0.1-2.9c0.1-0.2,0.3-0.4,0.1-0.2
			c0,0.1-0.1,0-0.1,0c0.2-0.1,0.3,0,0.5,0c0.8,0.2,1.5,0.8,2.1,1.3c2.1,1.8,4.2,3.2,7.1,2.8c1.3-0.2,2.1-1.9,1.8-3.1
			c-0.2-0.9,0.1-2,0.8-2.4c0.9-0.5,2.9,1,3.7,1.6c1.1,0.8,2.8,0.2,3.4-0.9C260.4,69.7,259.8,68.3,258.7,67.5L258.7,67.5z"/>
	</g>
</g>
<g>
	<g>
		<path class="st3" d="M237.6,94.7c1,0,1.9,0.1,2.9,0.1c-0.9-6.6-1.8-13.1-2.7-19.6c-2.2,0.7-4.5,1.5-6.7,2.2c-3.4,1.1-6,3.5-7,7
			c-1,3.6,0.2,7,2.6,9.7c3,3.4,7.9,4.6,12.2,3.6c3.6-0.8,6.5-3.2,8.5-6.2c1.3-2,2.2-4.3,2.6-6.7c0.4-2.6,0.4-5.2,0.7-7.8
			c-0.1,0.9-0.2,1.8-0.4,2.7c0.1-0.4,0.2-0.8,0.3-1.2c-0.3,0.8-0.7,1.6-1,2.4c0.1-0.2,0.2-0.5,0.4-0.7c-0.5,0.7-1,1.3-1.6,2
			c0.1-0.2,0.3-0.3,0.4-0.5c-0.7,0.5-1.4,1-2,1.6c0.3-0.2,0.5-0.3,0.8-0.5c-0.8,0.3-1.6,0.7-2.4,1c0.2-0.1,0.4-0.1,0.6-0.2
			c-0.9,0.1-1.8,0.2-2.7,0.4c0.4-0.1,0.8-0.1,1.2,0c-0.9-0.1-1.8-0.2-2.7-0.4c0.4,0.1,0.8,0.2,1.2,0.3c-0.8-0.3-1.6-0.7-2.4-1
			c0.6,0.3,1.1,0.6,1.7,1c-0.7-0.5-1.4-1-2-1.6c0.5,0.4,1,0.9,1.4,1.5c-0.5-0.7-1-1.3-1.6-2c0.5,0.7,0.9,1.4,1.3,2.2
			c-0.3-0.8-0.7-1.6-1-2.4c0.1,0.4,0.3,0.7,0.4,1.1c1.2,3.8,4.3,6.6,8.3,7.2c1.8,0.2,3.5,0,5.2-0.7c1.8-0.8,3.9-2.2,4.8-4.1
			c2-4.2,3-8.3,3.8-12.8c-6.5-0.9-13.1-1.8-19.6-2.7c0,2.9,0,5.9,0.1,8.9c0.1,4.3,1,8.9,4.2,12.1c2.7,2.7,6.4,3.7,10.1,3.2
			c2.4-0.3,4.6-1.3,6.6-2.5c2.9-1.7,5.6-3.9,7.7-6.5c-5.2-4-10.5-8.1-15.7-12.1c-0.8,1.8-1.8,3.4-3,4.9c0.5-0.7,1-1.3,1.6-2
			c-1.9,2.4-4.3,4.7-6.7,6.7c0.7-0.5,1.4-1,2-1.6c-0.4,0.3-0.9,0.6-1.4,0.8c0.8-0.3,1.6-0.7,2.4-1c-0.2,0.1-0.5,0.2-0.7,0.2
			c0.9-0.1,1.8-0.2,2.7-0.4c-0.2,0-0.5,0.1-0.7,0c0.9,0.1,1.8,0.2,2.7,0.4c-0.2,0-0.4-0.1-0.6-0.2c0.8,0.3,1.6,0.7,2.4,1
			c-0.2-0.1-0.4-0.2-0.6-0.3c0.7,0.5,1.4,1,2,1.6c-0.4-0.3-0.7-0.6-1-1c0.5,0.7,1,1.3,1.6,2c-0.9-1.2-1.4-2.6-2.1-3.9
			c-1.1-2.3-2.6-4.3-4.7-5.9c-2.8-2.1-6-3-9.5-2.6c-3.7,0.5-7.3,2.7-9,6.1c-1.2,2.4-1.8,5-1,7.7c0.6,2.3,2.4,4.8,4.6,6
			c2.3,1.2,5.1,1.8,7.7,1c2.4-0.8,4.8-2.3,6-4.6c0.1-0.2,0.2-0.4,0.3-0.6c-0.5,0.7-1,1.3-1.6,2c0.1-0.2,0.2-0.3,0.4-0.4
			c-0.7,0.5-1.4,1-2,1.6c0.1-0.1,0.3-0.2,0.5-0.3c-0.8,0.3-1.6,0.7-2.4,1c0.2-0.1,0.3-0.1,0.5-0.1c-0.9,0.1-1.8,0.2-2.7,0.4
			c0.3,0,0.5,0,0.8,0c-0.9-0.1-1.8-0.2-2.7-0.4c0.2,0,0.4,0.1,0.5,0.2c-0.8-0.3-1.6-0.7-2.4-1c0.3,0.1,0.5,0.3,0.7,0.4
			c-0.7-0.5-1.4-1-2-1.6c0.3,0.2,0.5,0.5,0.7,0.7c-0.5-0.7-1-1.3-1.6-2c0.8,1.1,1.3,2.3,1.9,3.5c0.9,1.9,1.9,3.6,3.4,5.1
			c4.3,4.7,11.7,5.6,16.9,1.7c5.3-3.9,10.6-9.1,13.2-15.2c1.1-2.4,1.9-5,1-7.7c-0.7-2.1-1.8-3.8-3.6-5.2c-3.6-2.8-9.9-3.1-13.1,0.8
			c-1.1,1.3-2.3,2.5-3.7,3.6c0.7-0.5,1.4-1,2-1.6c-1.2,0.9-2.4,1.7-3.8,2.3c0.8-0.3,1.6-0.7,2.4-1c-0.4,0.2-0.7,0.3-1.1,0.4
			c0.9-0.1,1.8-0.2,2.7-0.4c-0.3,0.1-0.5,0.1-0.8,0c0.9,0.1,1.8,0.2,2.7,0.4c-0.1,0-0.2-0.1-0.4-0.1c0.8,0.3,1.6,0.7,2.4,1
			c-0.2-0.1-0.3-0.2-0.5-0.3c0.7,0.5,1.4,1,2,1.6c-0.1-0.1-0.3-0.2-0.4-0.4c0.5,0.7,1,1.3,1.6,2c-0.2-0.2-0.3-0.5-0.4-0.8
			c0.3,0.8,0.7,1.6,1,2.4c-0.2-0.6-0.4-1.3-0.5-2c0.1,0.9,0.2,1.8,0.4,2.7c-0.4-3.6-0.2-7.2-0.2-10.8c0-5-3.8-9.2-8.7-9.8
			c-2.1-0.3-4.5,0-6.4,1.2c-2.1,1.3-4.1,3.5-4.6,6c-0.6,3.3-1.2,6.6-2.5,9.7c0.3-0.8,0.7-1.6,1-2.4c-0.1,0.3-0.2,0.5-0.4,0.8
			c6.1,0.8,12.2,1.6,18.3,2.4c-2.3-7.2-8.1-13.3-15.9-13.5c-4.8-0.2-9.6,2.5-11.8,6.8c-1.8,3.5-1.5,7.2-1.9,11
			c0.1-0.9,0.2-1.8,0.4-2.7c-0.1,1.1-0.4,2.2-0.8,3.2c0.3-0.8,0.7-1.6,1-2.4c-0.3,0.6-0.6,1.1-0.9,1.7c0.5-0.7,1-1.3,1.6-2
			c-0.2,0.3-0.5,0.5-0.7,0.7c0.7-0.5,1.4-1,2-1.6c-0.3,0.2-0.5,0.4-0.8,0.5c0.8-0.3,1.6-0.7,2.4-1c-0.3,0.1-0.6,0.2-0.9,0.3
			c0.9-0.1,1.8-0.2,2.7-0.4c-0.3,0-0.6,0-0.9,0c0.9,0.1,1.8,0.2,2.7,0.4c-0.2,0-0.4-0.1-0.6-0.2c0.8,0.3,1.6,0.7,2.4,1
			c-0.2-0.1-0.4-0.2-0.5-0.3c0.7,0.5,1.4,1,2,1.6c-0.2-0.1-0.3-0.3-0.5-0.5c-1.5,5.6-2.9,11.1-4.4,16.7c2.2-0.7,4.5-1.5,6.7-2.2
			c4.8-1.6,7.8-5.9,7.2-11c-0.7-5-4.8-8.5-9.8-8.7c-1,0-1.9-0.1-2.9-0.1c-5.2-0.2-10.2,4.7-10,10C227.9,90.2,232,94.5,237.6,94.7
			L237.6,94.7z"/>
	</g>
</g>
<g>
	<g>
		<path class="st3" d="M255.8,78.4c5.2,0,10.2-4.6,10-10s-4.4-10-10-10c-5.2,0-10.2,4.6-10,10C246.1,73.9,250.2,78.4,255.8,78.4
			L255.8,78.4z"/>
	</g>
</g>
<g>
	<g>
		<path class="st3" d="M252.8,79.2c5.2,0,10.2-4.6,10-10s-4.4-10-10-10c-5.2,0-10.2,4.6-10,10C243,74.7,247.2,79.2,252.8,79.2
			L252.8,79.2z"/>
	</g>
</g>
<g>
	<g>
		<path class="st3" d="M261.9,97.9c5.2,0,10.2-4.6,10-10s-4.4-10-10-10c-5.2,0-10.2,4.6-10,10C252.1,93.3,256.3,97.9,261.9,97.9
			L261.9,97.9z"/>
	</g>
</g>
<g>
	<g>
		<path class="st3" d="M258.3,86.6c5.2,0,10.2-4.6,10-10s-4.4-10-10-10c-5.2,0-10.2,4.6-10,10C248.5,82,252.7,86.6,258.3,86.6
			L258.3,86.6z"/>
	</g>
</g>
<g>
	<g>
		<path class="st3" d="M709.4,231.8c-2.5-1.9-6.1-3.5-9-1.5c-2.5,1.7-3.7,5-2.9,7.9c0.6-1,1.2-2.1,1.8-3.1c-0.5,0.1-1.5-0.9-1.9-1.2
			c-0.9-0.8-1.8-1.6-2.8-2.1c-2.1-1.1-4.8-1.4-6.7,0.3c-1.9,1.6-2.2,4.2-2,6.6c0,1,0.2,2,0,3c-0.1,0.8-0.4,1-0.9,1.4
			c-1.7,1.1-3.5,1.8-4.6,3.7c-1.2,2.2-0.9,4.9,0.2,7.1c1.2,2.2,3.3,3.6,5.8,4.1c2.5,0.4,5.5,0.8,7.7-0.8c0.8-0.6,1.5-1.3,2.2-2
			c0.3-0.3,0.7-0.7,1-1c0.1-0.1,0.3-0.3,0.5-0.4c-0.2,0.1,0.2-0.3,0-0.1c0-0.1,0.5,0,0.1,0h-0.3c-0.1,0.1,0-0.2,0.1,0.1
			c-0.1-0.2,0.1,0.2,0.1,0.2c0.5,0.8,0.8,1.7,1.2,2.6c0.8,2,1.8,3.9,3.8,5c1.7,0.9,3.7,1,5.5,0.3c2-0.8,3.5-2.2,4.4-4.1
			c0.5-1.1,0.7-2.2,0.9-3.3c0.1-0.8,0.2-2.1,0.6-2.7c0.3-0.4,1.2-0.2,1.8-0.3c1.2-0.2,2.3-0.6,3.2-1.5c1.6-1.4,2.5-3.5,2.8-5.6
			c0.3-2.6-0.3-5.3-2.1-7.2c-1.7-1.7-4.2-2.5-6.5-1.8c-1.2,0.4-2.2,1.2-3,2.2c-0.4,0.5-0.7,1-1.2,1.5c0,0.1-0.1,0.1-0.1,0.1
			c-0.4,0.3-0.3,0.3,0,0.1c0.2,0.2,1.1,0.5,1,0.6s0-0.4,0-0.2c0-0.2,0-0.6,0-0.8c0-0.5,0.1-1.1,0.1-1.6c0-1.3-0.3-2.6-1.3-3.6
			c-2.4-2.2-5.9,1.3-3.5,3.5c-0.2-0.2-0.1-0.7-0.1-0.1c0,0.4,0,0.8,0,1.3c0,0.9,0,1.9,0.2,2.8c0.6,2.4,3.1,3.6,5.4,2.8
			c1.1-0.4,1.9-1.2,2.6-2.1c0.5-0.7,1.1-1.5,1.7-1.8c-0.1,0.1,0.2,0,0.2,0s0.3,0,0.5,0.1c0.4,0.2,0.9,0.6,1.2,1.2
			c0.6,1.2,0.4,2.7-0.1,3.8c-0.2,0.5-0.7,1.1-0.9,1.2c-0.3,0.2-0.1,0.1-0.5,0.1c-0.7,0.1-1.3,0.1-2,0.2c-2.3,0.4-3.6,2.4-4.2,4.5
			c-0.4,1.6-0.3,3.5-1.2,4.9c-0.6,1-1.4,1.3-2.3,1.3c0.4,0-0.4-0.1-0.6-0.2c0.4,0.2-0.5-0.4-0.2-0.2c-0.5-0.4-0.8-1.1-1.1-1.8
			c-0.7-1.7-1.2-3.5-2.5-4.9c-1.5-1.6-3.7-1.9-5.6-1c-1.5,0.8-2.6,2.2-3.8,3.3c-1.1,1.1-3.2,0.8-4.8,0.4c-1.5-0.4-2.5-1.3-2.5-2.9
			c-0.1-1.4,1.2-1.7,2.4-2.4c2-1.1,3.4-2.7,3.7-5c0.2-1.2,0.2-2.4,0.1-3.6c0-0.9-0.2-2,0.1-2.9c0.1-0.2,0.3-0.4,0.1-0.2
			c0,0.1-0.1,0-0.2,0c0.2-0.1,0.3,0,0.5,0c0.8,0.2,1.5,0.8,2.1,1.3c2.2,1.8,4.2,3.2,7.1,2.8c1.3-0.2,2.1-1.9,1.8-3.1
			c-0.2-0.9,0.1-2,0.8-2.4c0.9-0.5,2.9,1,3.7,1.6c1.1,0.8,2.8,0.2,3.4-0.9C711,233.9,710.5,232.6,709.4,231.8L709.4,231.8z"/>
	</g>
</g>
<g>
	<g>
		<path class="st3" d="M688.3,258.9c1,0,2,0.1,2.9,0.1c-0.9-6.6-1.8-13.1-2.7-19.6c-2.2,0.7-4.5,1.5-6.7,2.2c-3.4,1.1-6,3.5-7,7
			c-1,3.6,0.2,7,2.6,9.7c3,3.4,7.9,4.6,12.2,3.6c3.6-0.8,6.5-3.2,8.5-6.2c1.3-2,2.2-4.4,2.5-6.7c0.4-2.6,0.4-5.2,0.7-7.8
			c-0.1,0.9-0.2,1.8-0.4,2.7c0.1-0.4,0.2-0.8,0.3-1.2c-0.3,0.8-0.7,1.6-1,2.4c0.1-0.2,0.2-0.5,0.3-0.7c-0.5,0.7-1,1.4-1.6,2
			c0.1-0.2,0.3-0.4,0.5-0.5c-0.7,0.5-1.3,1-2,1.6c0.3-0.2,0.5-0.3,0.8-0.5c-0.8,0.3-1.6,0.7-2.4,1c0.2-0.1,0.4-0.1,0.6-0.2
			c-0.9,0.1-1.8,0.2-2.7,0.4c0.4-0.1,0.8-0.1,1.2,0c-0.9-0.1-1.8-0.2-2.7-0.4c0.4,0.1,0.8,0.2,1.2,0.3c-0.8-0.3-1.6-0.7-2.4-1
			c0.6,0.3,1.2,0.6,1.7,1c-0.7-0.5-1.3-1-2-1.6c0.5,0.4,1,0.9,1.5,1.5c-0.5-0.7-1-1.4-1.6-2c0.5,0.7,0.9,1.4,1.3,2.2
			c-0.3-0.8-0.7-1.6-1-2.4c0.2,0.4,0.3,0.7,0.4,1.1c1.2,3.8,4.3,6.6,8.3,7.2c1.8,0.2,3.5,0,5.2-0.7c1.8-0.8,3.9-2.2,4.8-4.1
			c2-4.2,3-8.3,3.8-12.8c-6.5-0.9-13.1-1.8-19.6-2.7c0,2.9,0,5.9,0.1,8.9c0.1,4.3,1,8.9,4.2,12.1c2.7,2.7,6.4,3.7,10.1,3.2
			c2.4-0.3,4.6-1.3,6.6-2.5c2.9-1.7,5.6-3.9,7.7-6.5c-5.2-4-10.5-8.1-15.7-12.1c-0.8,1.8-1.8,3.4-3,4.9c0.5-0.7,1-1.4,1.6-2
			c-2,2.4-4.3,4.7-6.7,6.7c0.7-0.5,1.3-1,2-1.6c-0.4,0.3-0.9,0.6-1.3,0.9c0.8-0.3,1.6-0.7,2.4-1c-0.2,0.1-0.5,0.2-0.7,0.2
			c0.9-0.1,1.8-0.2,2.7-0.4c-0.2,0-0.5,0.1-0.7,0c0.9,0.1,1.8,0.2,2.7,0.4c-0.2,0-0.4-0.1-0.6-0.2c0.8,0.3,1.6,0.7,2.4,1
			c-0.2-0.1-0.4-0.2-0.6-0.3c0.7,0.5,1.3,1,2,1.6c-0.4-0.3-0.7-0.6-1-1c0.5,0.7,1,1.4,1.6,2c-0.9-1.2-1.4-2.6-2.1-3.9
			c-1.1-2.3-2.6-4.4-4.7-5.9c-2.8-2.1-6-3-9.5-2.6c-3.7,0.5-7.3,2.7-9,6.1c-1.2,2.4-1.8,5-1,7.7c0.6,2.3,2.4,4.8,4.6,6
			c2.3,1.2,5.1,1.8,7.7,1c2.4-0.8,4.8-2.3,6-4.6c0.1-0.2,0.2-0.4,0.3-0.6c-0.5,0.7-1,1.4-1.6,2c0.1-0.1,0.2-0.3,0.4-0.4
			c-0.7,0.5-1.3,1-2,1.6c0.1-0.1,0.3-0.2,0.5-0.3c-0.8,0.3-1.6,0.7-2.4,1c0.2-0.1,0.3-0.1,0.5-0.1c-0.9,0.1-1.8,0.2-2.7,0.4
			c0.3,0,0.5,0,0.8,0c-0.9-0.1-1.8-0.2-2.7-0.4c0.2,0,0.4,0.1,0.5,0.1c-0.8-0.3-1.6-0.7-2.4-1c0.3,0.1,0.5,0.3,0.7,0.4
			c-0.7-0.5-1.3-1-2-1.6c0.3,0.2,0.5,0.5,0.7,0.7c-0.5-0.7-1-1.4-1.6-2c0.8,1.1,1.3,2.3,1.9,3.5c0.9,1.9,1.9,3.6,3.3,5.1
			c4.3,4.7,11.7,5.6,16.9,1.7c5.3-3.9,10.6-9.1,13.2-15.2c1.1-2.4,1.9-5,1-7.7c-0.7-2.1-1.8-3.8-3.6-5.2c-3.6-2.8-9.9-3.1-13.1,0.8
			c-1.1,1.3-2.3,2.5-3.7,3.6c0.7-0.5,1.3-1,2-1.6c-1.2,0.9-2.5,1.7-3.8,2.3c0.8-0.3,1.6-0.7,2.4-1c-0.4,0.2-0.7,0.3-1.2,0.4
			c0.9-0.1,1.8-0.2,2.7-0.4c-0.3,0.1-0.5,0.1-0.8,0c0.9,0.1,1.8,0.2,2.7,0.4c-0.1,0-0.2-0.1-0.4-0.1c0.8,0.3,1.6,0.7,2.4,1
			c-0.2-0.1-0.3-0.2-0.5-0.3c0.7,0.5,1.3,1,2,1.6c-0.1-0.1-0.3-0.2-0.4-0.4c0.5,0.7,1,1.4,1.6,2c-0.2-0.2-0.3-0.5-0.4-0.8
			c0.3,0.8,0.7,1.6,1,2.4c-0.2-0.6-0.4-1.3-0.5-2c0.1,0.9,0.2,1.8,0.4,2.7c-0.4-3.6-0.2-7.2-0.2-10.8c0-5-3.8-9.2-8.7-9.8
			c-2.1-0.3-4.5,0-6.4,1.2c-2.1,1.3-4.2,3.4-4.6,6c-0.6,3.3-1.2,6.6-2.5,9.7c0.3-0.8,0.7-1.6,1-2.4c-0.1,0.3-0.2,0.5-0.3,0.8
			c6.1,0.8,12.2,1.6,18.3,2.4c-2.3-7.1-8.1-13.3-16-13.5c-4.8-0.2-9.5,2.5-11.8,6.8c-1.8,3.5-1.5,7.2-1.9,11
			c0.1-0.9,0.2-1.8,0.4-2.7c-0.2,1.1-0.4,2.2-0.8,3.2c0.3-0.8,0.7-1.6,1-2.4c-0.3,0.6-0.5,1.1-0.9,1.7c0.5-0.7,1-1.4,1.6-2
			c-0.2,0.3-0.5,0.5-0.7,0.7c0.7-0.5,1.3-1,2-1.6c-0.3,0.2-0.5,0.4-0.8,0.5c0.8-0.3,1.6-0.7,2.4-1c-0.3,0.1-0.6,0.2-0.9,0.3
			c0.9-0.1,1.8-0.2,2.7-0.4c-0.3,0-0.6,0-0.9,0c0.9,0.1,1.8,0.2,2.7,0.4c-0.2,0-0.4-0.1-0.6-0.2c0.8,0.3,1.6,0.7,2.4,1
			c-0.2-0.1-0.4-0.2-0.5-0.3c0.7,0.5,1.3,1,2,1.6c-0.2-0.1-0.3-0.3-0.5-0.5c-1.5,5.6-2.9,11.1-4.4,16.7c2.2-0.7,4.5-1.5,6.7-2.2
			c4.8-1.6,7.8-5.9,7.2-11c-0.7-5-4.8-8.5-9.8-8.7c-1,0-2-0.1-2.9-0.1c-5.2-0.2-10.2,4.7-10,10C678.5,254.5,682.7,258.7,688.3,258.9
			L688.3,258.9z"/>
	</g>
</g>
<g>
	<g>
		<path class="st3" d="M706.5,242.7c5.2,0,10.2-4.6,10-10s-4.4-10-10-10c-5.2,0-10.2,4.6-10,10C696.7,238.1,700.9,242.7,706.5,242.7
			L706.5,242.7z"/>
	</g>
</g>
<g>
	<g>
		<path class="st3" d="M703.5,243.5c5.2,0,10.2-4.6,10-10s-4.4-10-10-10c-5.2,0-10.2,4.6-10,10S697.9,243.5,703.5,243.5L703.5,243.5
			z"/>
	</g>
</g>
<g>
	<g>
		<path class="st3" d="M712.6,262.1c5.2,0,10.2-4.6,10-10s-4.4-10-10-10c-5.2,0-10.2,4.6-10,10C702.8,257.6,707,262.1,712.6,262.1
			L712.6,262.1z"/>
	</g>
</g>
<g>
	<g>
		<path class="st3" d="M708.9,250.8c5.2,0,10.2-4.6,10-10s-4.4-10-10-10c-5.2,0-10.2,4.6-10,10C699.2,246.2,703.3,250.8,708.9,250.8
			L708.9,250.8z"/>
	</g>
</g>
<g>
	<g>
		<path class="st3" d="M442.4,172.6c-2.5-1.9-6.1-3.5-9-1.5c-2.5,1.7-3.7,5-2.9,7.9c0.6-1,1.2-2.1,1.8-3.1c-0.5,0.1-1.5-0.9-1.9-1.2
			c-0.9-0.8-1.8-1.6-2.8-2.1c-2.1-1.1-4.8-1.4-6.7,0.3c-1.9,1.6-2.2,4.2-2,6.6c0,1,0.2,2,0,3c-0.1,0.8-0.4,1-0.9,1.4
			c-1.7,1.1-3.5,1.8-4.6,3.7c-1.2,2.2-0.9,4.9,0.2,7.1c1.2,2.2,3.3,3.6,5.8,4.1c2.5,0.4,5.5,0.8,7.7-0.8c0.8-0.6,1.5-1.3,2.2-2
			c0.3-0.3,0.7-0.7,1-1c0.1-0.1,0.3-0.3,0.5-0.4c-0.2,0.1,0.2-0.3,0-0.1c0-0.1,0.5,0,0.1,0h-0.3c-0.1,0.1,0-0.2,0.1,0.1
			c-0.1-0.2,0.1,0.2,0.1,0.2c0.5,0.8,0.8,1.7,1.2,2.6c0.8,2,1.8,3.9,3.8,5c1.7,0.9,3.7,1,5.5,0.3c2-0.8,3.5-2.2,4.4-4.1
			c0.5-1.1,0.7-2.2,0.9-3.3c0.1-0.8,0.2-2.1,0.6-2.7c0.3-0.4,1.2-0.2,1.8-0.3c1.2-0.2,2.3-0.6,3.2-1.5c1.6-1.4,2.5-3.5,2.8-5.6
			c0.3-2.6-0.3-5.3-2.1-7.2c-1.7-1.7-4.2-2.5-6.5-1.8c-1.2,0.4-2.2,1.2-3,2.2c-0.4,0.5-0.7,1-1.2,1.5c0,0.1-0.1,0.1-0.1,0.1
			c-0.4,0.3-0.3,0.3,0,0.1c0.2,0.2,1.1,0.5,1,0.6s0-0.4,0-0.2c0-0.2,0-0.6,0-0.8c0-0.5,0.1-1.1,0.1-1.6c0-1.3-0.3-2.6-1.3-3.6
			c-2.4-2.2-5.9,1.3-3.5,3.5c-0.2-0.2-0.1-0.7-0.1-0.1c0,0.4,0,0.8,0,1.3c0,0.9,0,1.9,0.2,2.8c0.6,2.4,3.1,3.6,5.4,2.8
			c1.1-0.4,1.9-1.2,2.6-2.1c0.5-0.7,1.1-1.5,1.7-1.8c-0.1,0.1,0.2,0,0.2,0s0.3,0,0.5,0.1c0.4,0.2,0.9,0.6,1.2,1.2
			c0.6,1.2,0.4,2.7-0.1,3.8c-0.2,0.5-0.7,1.1-0.9,1.2c-0.3,0.2-0.1,0.1-0.5,0.1c-0.7,0.1-1.3,0.1-2,0.2c-2.3,0.4-3.6,2.4-4.2,4.5
			c-0.4,1.6-0.3,3.5-1.2,4.9c-0.6,1-1.4,1.3-2.3,1.3c0.4,0-0.4-0.1-0.6-0.2c0.4,0.2-0.5-0.4-0.2-0.2c-0.5-0.4-0.8-1.1-1.1-1.8
			c-0.7-1.7-1.2-3.5-2.5-4.9c-1.5-1.6-3.7-1.9-5.6-1c-1.5,0.8-2.6,2.2-3.8,3.3c-1.1,1.1-3.2,0.8-4.8,0.4c-1.5-0.4-2.5-1.3-2.5-2.9
			c-0.1-1.4,1.2-1.7,2.4-2.4c2-1.1,3.4-2.7,3.7-5c0.2-1.2,0.2-2.4,0.1-3.6c0-0.9-0.2-2,0.1-2.9c0.1-0.2,0.3-0.4,0.1-0.2
			c0,0.1-0.1,0-0.2,0c0.2-0.1,0.3,0,0.5,0c0.8,0.2,1.5,0.8,2.1,1.3c2.2,1.8,4.2,3.2,7.1,2.8c1.3-0.2,2.1-1.9,1.8-3.1
			c-0.2-0.9,0.1-2,0.8-2.4c0.9-0.5,2.9,1,3.7,1.6c1.1,0.8,2.8,0.2,3.4-0.9C444,174.7,443.5,173.4,442.4,172.6L442.4,172.6z"/>
	</g>
</g>
<g>
	<g>
		<path class="st3" d="M421.3,199.7c1,0,2,0.1,2.9,0.1c-0.9-6.6-1.8-13.1-2.7-19.6c-2.2,0.7-4.5,1.5-6.7,2.2c-3.4,1.1-6,3.5-7,7
			c-1,3.6,0.2,7,2.6,9.7c3,3.4,7.9,4.6,12.2,3.6c3.6-0.8,6.5-3.2,8.5-6.2c1.3-2,2.2-4.4,2.5-6.7c0.4-2.6,0.4-5.2,0.7-7.8
			c-0.1,0.9-0.2,1.8-0.4,2.7c0.1-0.4,0.2-0.8,0.3-1.2c-0.3,0.8-0.7,1.6-1,2.4c0.1-0.2,0.2-0.5,0.3-0.7c-0.5,0.7-1,1.4-1.6,2
			c0.1-0.2,0.3-0.4,0.5-0.5c-0.7,0.5-1.3,1-2,1.6c0.3-0.2,0.5-0.3,0.8-0.5c-0.8,0.3-1.6,0.7-2.4,1c0.2-0.1,0.4-0.1,0.6-0.2
			c-0.9,0.1-1.8,0.2-2.7,0.4c0.4-0.1,0.8-0.1,1.2,0c-0.9-0.1-1.8-0.2-2.7-0.4c0.4,0.1,0.8,0.2,1.2,0.3c-0.8-0.3-1.6-0.7-2.4-1
			c0.6,0.3,1.2,0.6,1.7,1c-0.7-0.5-1.3-1-2-1.6c0.5,0.4,1,0.9,1.5,1.5c-0.5-0.7-1-1.4-1.6-2c0.5,0.7,0.9,1.4,1.3,2.2
			c-0.3-0.8-0.7-1.6-1-2.4c0.2,0.4,0.3,0.7,0.4,1.1c1.2,3.8,4.3,6.6,8.3,7.2c1.8,0.2,3.5,0,5.2-0.7c1.8-0.8,3.9-2.2,4.8-4.1
			c2-4.2,3-8.3,3.8-12.8c-6.5-0.9-13.1-1.8-19.6-2.7c0,2.9,0,5.9,0.1,8.9c0.1,4.3,1,8.9,4.2,12.1c2.7,2.7,6.4,3.7,10.1,3.2
			c2.4-0.3,4.6-1.3,6.6-2.5c2.9-1.7,5.6-3.9,7.7-6.5c-5.2-4-10.5-8.1-15.7-12.1c-0.8,1.8-1.8,3.4-3,4.9c0.5-0.7,1-1.4,1.6-2
			c-2,2.4-4.3,4.7-6.7,6.7c0.7-0.5,1.3-1,2-1.6c-0.4,0.3-0.9,0.6-1.3,0.9c0.8-0.3,1.6-0.7,2.4-1c-0.2,0.1-0.5,0.2-0.7,0.2
			c0.9-0.1,1.8-0.2,2.7-0.4c-0.2,0-0.5,0.1-0.7,0c0.9,0.1,1.8,0.2,2.7,0.4c-0.2,0-0.4-0.1-0.6-0.2c0.8,0.3,1.6,0.7,2.4,1
			c-0.2-0.1-0.4-0.2-0.6-0.3c0.7,0.5,1.3,1,2,1.6c-0.4-0.3-0.7-0.6-1-1c0.5,0.7,1,1.4,1.6,2c-0.9-1.2-1.4-2.6-2.1-3.9
			c-1.1-2.3-2.6-4.4-4.7-5.9c-2.8-2.1-6-3-9.5-2.6c-3.7,0.5-7.3,2.7-9,6.1c-1.2,2.4-1.8,5-1,7.7c0.6,2.3,2.4,4.8,4.6,6
			c2.3,1.2,5.1,1.8,7.7,1c2.4-0.8,4.8-2.3,6-4.6c0.1-0.2,0.2-0.4,0.3-0.6c-0.5,0.7-1,1.4-1.6,2c0.1-0.1,0.2-0.3,0.4-0.4
			c-0.7,0.5-1.3,1-2,1.6c0.1-0.1,0.3-0.2,0.5-0.3c-0.8,0.3-1.6,0.7-2.4,1c0.2-0.1,0.3-0.1,0.5-0.1c-0.9,0.1-1.8,0.2-2.7,0.4
			c0.3,0,0.5,0,0.8,0c-0.9-0.1-1.8-0.2-2.7-0.4c0.2,0,0.4,0.1,0.5,0.1c-0.8-0.3-1.6-0.7-2.4-1c0.3,0.1,0.5,0.3,0.7,0.4
			c-0.7-0.5-1.3-1-2-1.6c0.3,0.2,0.5,0.5,0.7,0.7c-0.5-0.7-1-1.4-1.6-2c0.8,1.1,1.3,2.3,1.9,3.5c0.9,1.9,1.9,3.6,3.3,5.1
			c4.3,4.7,11.7,5.6,16.9,1.7c5.3-3.9,10.6-9.1,13.2-15.2c1.1-2.4,1.9-5,1-7.7c-0.7-2.1-1.8-3.8-3.6-5.2c-3.6-2.8-9.9-3.1-13.1,0.8
			c-1.1,1.3-2.3,2.5-3.7,3.6c0.7-0.5,1.3-1,2-1.6c-1.2,0.9-2.5,1.7-3.8,2.3c0.8-0.3,1.6-0.7,2.4-1c-0.4,0.2-0.7,0.3-1.2,0.4
			c0.9-0.1,1.8-0.2,2.7-0.4c-0.3,0.1-0.5,0.1-0.8,0c0.9,0.1,1.8,0.2,2.7,0.4c-0.1,0-0.2-0.1-0.4-0.1c0.8,0.3,1.6,0.7,2.4,1
			c-0.2-0.1-0.3-0.2-0.5-0.3c0.7,0.5,1.3,1,2,1.6c-0.1-0.1-0.3-0.2-0.4-0.4c0.5,0.7,1,1.4,1.6,2c-0.2-0.2-0.3-0.5-0.4-0.8
			c0.3,0.8,0.7,1.6,1,2.4c-0.2-0.6-0.4-1.3-0.5-2c0.1,0.9,0.2,1.8,0.4,2.7c-0.4-3.6-0.2-7.2-0.2-10.8c0-5-3.8-9.2-8.7-9.8
			c-2.1-0.3-4.5,0-6.4,1.2c-2.1,1.3-4.2,3.4-4.6,6c-0.6,3.3-1.2,6.6-2.5,9.7c0.3-0.8,0.7-1.6,1-2.4c-0.1,0.3-0.2,0.5-0.3,0.8
			c6.1,0.8,12.2,1.6,18.3,2.4c-2.3-7.1-8.1-13.3-16-13.5c-4.8-0.2-9.5,2.5-11.8,6.8c-1.8,3.5-1.5,7.2-1.9,11
			c0.1-0.9,0.2-1.8,0.4-2.7c-0.2,1.1-0.4,2.2-0.8,3.2c0.3-0.8,0.7-1.6,1-2.4c-0.3,0.6-0.5,1.1-0.9,1.7c0.5-0.7,1-1.4,1.6-2
			c-0.2,0.3-0.5,0.5-0.7,0.7c0.7-0.5,1.3-1,2-1.6c-0.3,0.2-0.5,0.4-0.8,0.5c0.8-0.3,1.6-0.7,2.4-1c-0.3,0.1-0.6,0.2-0.9,0.3
			c0.9-0.1,1.8-0.2,2.7-0.4c-0.3,0-0.6,0-0.9,0c0.9,0.1,1.8,0.2,2.7,0.4c-0.2,0-0.4-0.1-0.6-0.2c0.8,0.3,1.6,0.7,2.4,1
			c-0.2-0.1-0.4-0.2-0.5-0.3c0.7,0.5,1.3,1,2,1.6c-0.2-0.1-0.3-0.3-0.5-0.5c-1.5,5.6-2.9,11.1-4.4,16.7c2.2-0.7,4.5-1.5,6.7-2.2
			c4.8-1.6,7.8-5.9,7.2-11c-0.7-5-4.8-8.5-9.8-8.7c-1,0-2-0.1-2.9-0.1c-5.2-0.2-10.2,4.7-10,10C411.5,195.3,415.7,199.5,421.3,199.7
			L421.3,199.7z"/>
	</g>
</g>
<g>
	<g>
		<path class="st3" d="M439.5,183.5c5.2,0,10.2-4.6,10-10s-4.4-10-10-10c-5.2,0-10.2,4.6-10,10C429.7,178.9,433.9,183.5,439.5,183.5
			L439.5,183.5z"/>
	</g>
</g>
<g>
	<g>
		<path class="st3" d="M436.5,184.3c5.2,0,10.2-4.6,10-10s-4.4-10-10-10c-5.2,0-10.2,4.6-10,10S430.9,184.3,436.5,184.3L436.5,184.3
			z"/>
	</g>
</g>
<g>
	<g>
		<path class="st3" d="M445.6,202.9c5.2,0,10.2-4.6,10-10s-4.4-10-10-10c-5.2,0-10.2,4.6-10,10C435.8,198.4,440,202.9,445.6,202.9
			L445.6,202.9z"/>
	</g>
</g>
<g>
	<g>
		<path class="st3" d="M441.9,191.6c5.2,0,10.2-4.6,10-10s-4.4-10-10-10c-5.2,0-10.2,4.6-10,10C432.2,187,436.3,191.6,441.9,191.6
			L441.9,191.6z"/>
	</g>
</g>
<g>
	<g>
		<path class="st3" d="M443.4,53.3c-2.5-1.9-6.1-3.5-9-1.5c-2.5,1.7-3.7,5-2.9,7.9c0.6-1,1.2-2.1,1.8-3.1c-0.5,0.1-1.5-0.9-1.9-1.2
			c-0.9-0.8-1.8-1.6-2.8-2.1c-2.1-1.1-4.8-1.4-6.7,0.3c-1.9,1.6-2.2,4.2-2,6.6c0,1,0.2,2,0,3c-0.1,0.8-0.4,1-0.9,1.4
			c-1.7,1.1-3.5,1.8-4.6,3.7c-1.2,2.2-0.9,4.9,0.2,7.1c1.2,2.2,3.3,3.6,5.8,4.1c2.5,0.4,5.5,0.8,7.7-0.8c0.8-0.6,1.5-1.3,2.2-2
			c0.3-0.3,0.7-0.7,1-1c0.1-0.1,0.3-0.3,0.5-0.4c-0.2,0.1,0.2-0.3,0-0.1c0-0.1,0.5,0,0.1,0h-0.3c-0.1,0.1,0-0.2,0.1,0.1
			c-0.1-0.2,0.1,0.2,0.1,0.2c0.5,0.8,0.8,1.7,1.2,2.6c0.8,2,1.8,3.9,3.8,5c1.7,0.9,3.7,1,5.5,0.3c2-0.8,3.5-2.2,4.4-4.1
			c0.5-1.1,0.7-2.2,0.9-3.3c0.1-0.8,0.2-2.1,0.6-2.7c0.3-0.4,1.2-0.2,1.8-0.3c1.2-0.2,2.3-0.6,3.2-1.5c1.6-1.4,2.5-3.5,2.8-5.6
			c0.3-2.6-0.3-5.3-2.1-7.2c-1.7-1.7-4.2-2.5-6.5-1.8c-1.2,0.4-2.2,1.2-3,2.2c-0.4,0.5-0.7,1-1.2,1.5c0,0.1-0.1,0.1-0.1,0.1
			c-0.4,0.3-0.3,0.3,0,0.1c0.2,0.2,1.1,0.5,1,0.6s0-0.4,0-0.2c0-0.2,0-0.6,0-0.8c0-0.5,0.1-1.1,0.1-1.6c0-1.3-0.3-2.6-1.3-3.6
			c-2.4-2.2-5.9,1.3-3.5,3.5c-0.2-0.2-0.1-0.7-0.1-0.1c0,0.4,0,0.8,0,1.3c0,0.9,0,1.9,0.2,2.8c0.6,2.4,3.1,3.6,5.4,2.8
			c1.1-0.4,1.9-1.2,2.6-2.1c0.5-0.7,1.1-1.5,1.7-1.8c-0.1,0.1,0.2,0,0.2,0s0.3,0,0.5,0.1c0.4,0.2,0.9,0.6,1.2,1.2
			c0.6,1.2,0.4,2.7-0.1,3.8c-0.2,0.5-0.7,1.1-0.9,1.2c-0.3,0.2-0.1,0.1-0.5,0.1c-0.7,0.1-1.3,0.1-2,0.2c-2.3,0.4-3.6,2.4-4.2,4.5
			c-0.4,1.6-0.3,3.5-1.2,4.9c-0.6,1-1.4,1.3-2.3,1.3c0.4,0-0.4-0.1-0.6-0.2c0.4,0.2-0.5-0.4-0.2-0.2c-0.5-0.4-0.8-1.1-1.1-1.8
			c-0.7-1.7-1.2-3.5-2.5-4.9c-1.5-1.6-3.7-1.9-5.6-1c-1.5,0.8-2.6,2.2-3.8,3.3c-1.1,1.1-3.2,0.8-4.8,0.4c-1.5-0.4-2.5-1.3-2.5-2.9
			c-0.1-1.4,1.2-1.7,2.4-2.4c2-1.1,3.4-2.7,3.7-5c0.2-1.2,0.2-2.4,0.1-3.6c0-0.9-0.2-2,0.1-2.9c0.1-0.2,0.3-0.4,0.1-0.2
			c0,0.1-0.1,0-0.2,0c0.2-0.1,0.3,0,0.5,0c0.8,0.2,1.5,0.8,2.1,1.3c2.2,1.8,4.2,3.2,7.1,2.8c1.3-0.2,2.1-1.9,1.8-3.1
			c-0.2-0.9,0.1-2,0.8-2.4c0.9-0.5,2.9,1,3.7,1.6c1.1,0.8,2.8,0.2,3.4-0.9C445,55.4,444.5,54.1,443.4,53.3L443.4,53.3z"/>
	</g>
</g>
<g>
	<g>
		<path class="st3" d="M422.3,80.4c1,0,2,0.1,2.9,0.1c-0.9-6.6-1.8-13.1-2.7-19.6c-2.2,0.7-4.5,1.5-6.7,2.2c-3.4,1.1-6,3.5-7,7
			c-1,3.6,0.2,7,2.6,9.7c3,3.4,7.9,4.6,12.2,3.6c3.6-0.8,6.5-3.2,8.5-6.2c1.3-2,2.2-4.4,2.5-6.7c0.4-2.6,0.4-5.2,0.7-7.8
			c-0.1,0.9-0.2,1.8-0.4,2.7c0.1-0.4,0.2-0.8,0.3-1.2c-0.3,0.8-0.7,1.6-1,2.4c0.1-0.2,0.2-0.5,0.3-0.7c-0.5,0.7-1,1.4-1.6,2
			c0.1-0.2,0.3-0.4,0.5-0.5c-0.7,0.5-1.3,1-2,1.6c0.3-0.2,0.5-0.3,0.8-0.5c-0.8,0.3-1.6,0.7-2.4,1c0.2-0.1,0.4-0.1,0.6-0.2
			c-0.9,0.1-1.8,0.2-2.7,0.4c0.4-0.1,0.8-0.1,1.2,0c-0.9-0.1-1.8-0.2-2.7-0.4c0.4,0.1,0.8,0.2,1.2,0.3c-0.8-0.3-1.6-0.7-2.4-1
			c0.6,0.3,1.2,0.6,1.7,1c-0.7-0.5-1.3-1-2-1.6c0.5,0.4,1,0.9,1.5,1.5c-0.5-0.7-1-1.4-1.6-2c0.5,0.7,0.9,1.4,1.3,2.2
			c-0.3-0.8-0.7-1.6-1-2.4c0.2,0.4,0.3,0.7,0.4,1.1c1.2,3.8,4.3,6.6,8.3,7.2c1.8,0.2,3.5,0,5.2-0.7c1.8-0.8,3.9-2.2,4.8-4.1
			c2-4.2,3-8.3,3.8-12.8c-6.5-0.9-13.1-1.8-19.6-2.7c0,2.9,0,5.9,0.1,8.9c0.1,4.3,1,8.9,4.2,12.1c2.7,2.7,6.4,3.7,10.1,3.2
			c2.4-0.3,4.6-1.3,6.6-2.5c2.9-1.7,5.6-3.9,7.7-6.5c-5.2-4-10.5-8.1-15.7-12.1c-0.8,1.8-1.8,3.4-3,4.9c0.5-0.7,1-1.4,1.6-2
			c-2,2.4-4.3,4.7-6.7,6.7c0.7-0.5,1.3-1,2-1.6c-0.4,0.3-0.9,0.6-1.3,0.9c0.8-0.3,1.6-0.7,2.4-1c-0.2,0.1-0.5,0.2-0.7,0.2
			c0.9-0.1,1.8-0.2,2.7-0.4c-0.2,0-0.5,0.1-0.7,0c0.9,0.1,1.8,0.2,2.7,0.4c-0.2,0-0.4-0.1-0.6-0.2c0.8,0.3,1.6,0.7,2.4,1
			c-0.2-0.1-0.4-0.2-0.6-0.3c0.7,0.5,1.3,1,2,1.6c-0.4-0.3-0.7-0.6-1-1c0.5,0.7,1,1.4,1.6,2c-0.9-1.2-1.4-2.6-2.1-3.9
			c-1.1-2.3-2.6-4.4-4.7-5.9c-2.8-2.1-6-3-9.5-2.6c-3.7,0.5-7.3,2.7-9,6.1c-1.2,2.4-1.8,5-1,7.7c0.6,2.3,2.4,4.8,4.6,6
			c2.3,1.2,5.1,1.8,7.7,1c2.4-0.8,4.8-2.3,6-4.6c0.1-0.2,0.2-0.4,0.3-0.6c-0.5,0.7-1,1.4-1.6,2c0.1-0.1,0.2-0.3,0.4-0.4
			c-0.7,0.5-1.3,1-2,1.6c0.1-0.1,0.3-0.2,0.5-0.3c-0.8,0.3-1.6,0.7-2.4,1c0.2-0.1,0.3-0.1,0.5-0.1c-0.9,0.1-1.8,0.2-2.7,0.4
			c0.3,0,0.5,0,0.8,0c-0.9-0.1-1.8-0.2-2.7-0.4c0.2,0,0.4,0.1,0.5,0.1c-0.8-0.3-1.6-0.7-2.4-1c0.3,0.1,0.5,0.3,0.7,0.4
			c-0.7-0.5-1.3-1-2-1.6c0.3,0.2,0.5,0.5,0.7,0.7c-0.5-0.7-1-1.4-1.6-2c0.8,1.1,1.3,2.3,1.9,3.5c0.9,1.9,1.9,3.6,3.3,5.1
			c4.3,4.7,11.7,5.6,16.9,1.7c5.3-3.9,10.6-9.1,13.2-15.2c1.1-2.4,1.9-5,1-7.7c-0.7-2.1-1.8-3.8-3.6-5.2c-3.6-2.8-9.9-3.1-13.1,0.8
			c-1.1,1.3-2.3,2.5-3.7,3.6c0.7-0.5,1.3-1,2-1.6c-1.2,0.9-2.5,1.7-3.8,2.3c0.8-0.3,1.6-0.7,2.4-1c-0.4,0.2-0.7,0.3-1.2,0.4
			c0.9-0.1,1.8-0.2,2.7-0.4c-0.3,0.1-0.5,0.1-0.8,0c0.9,0.1,1.8,0.2,2.7,0.4c-0.1,0-0.2-0.1-0.4-0.1c0.8,0.3,1.6,0.7,2.4,1
			c-0.2-0.1-0.3-0.2-0.5-0.3c0.7,0.5,1.3,1,2,1.6c-0.1-0.1-0.3-0.2-0.4-0.4c0.5,0.7,1,1.4,1.6,2c-0.2-0.2-0.3-0.5-0.4-0.8
			c0.3,0.8,0.7,1.6,1,2.4c-0.2-0.6-0.4-1.3-0.5-2c0.1,0.9,0.2,1.8,0.4,2.7c-0.4-3.6-0.2-7.2-0.2-10.8c0-5-3.8-9.2-8.7-9.8
			c-2.1-0.3-4.5,0-6.4,1.2c-2.1,1.3-4.2,3.4-4.6,6c-0.6,3.3-1.2,6.6-2.5,9.7c0.3-0.8,0.7-1.6,1-2.4c-0.1,0.3-0.2,0.5-0.3,0.8
			c6.1,0.8,12.2,1.6,18.3,2.4c-2.3-7.1-8.1-13.3-16-13.5c-4.8-0.2-9.5,2.5-11.8,6.8c-1.8,3.5-1.5,7.2-1.9,11
			c0.1-0.9,0.2-1.8,0.4-2.7c-0.2,1.1-0.4,2.2-0.8,3.2c0.3-0.8,0.7-1.6,1-2.4c-0.3,0.6-0.5,1.1-0.9,1.7c0.5-0.7,1-1.4,1.6-2
			c-0.2,0.3-0.5,0.5-0.7,0.7c0.7-0.5,1.3-1,2-1.6c-0.3,0.2-0.5,0.4-0.8,0.5c0.8-0.3,1.6-0.7,2.4-1c-0.3,0.1-0.6,0.2-0.9,0.3
			c0.9-0.1,1.8-0.2,2.7-0.4c-0.3,0-0.6,0-0.9,0c0.9,0.1,1.8,0.2,2.7,0.4c-0.2,0-0.4-0.1-0.6-0.2c0.8,0.3,1.6,0.7,2.4,1
			c-0.2-0.1-0.4-0.2-0.5-0.3c0.7,0.5,1.3,1,2,1.6c-0.2-0.1-0.3-0.3-0.5-0.5c-1.5,5.6-2.9,11.1-4.4,16.7c2.2-0.7,4.5-1.5,6.7-2.2
			c4.8-1.6,7.8-5.9,7.2-11c-0.7-5-4.8-8.5-9.8-8.7c-1,0-2-0.1-2.9-0.1c-5.2-0.2-10.2,4.7-10,10C412.5,76,416.7,80.2,422.3,80.4
			L422.3,80.4z"/>
	</g>
</g>
<g>
	<g>
		<path class="st3" d="M440.5,64.2c5.2,0,10.2-4.6,10-10s-4.4-10-10-10c-5.2,0-10.2,4.6-10,10C430.7,59.6,434.9,64.2,440.5,64.2
			L440.5,64.2z"/>
	</g>
</g>
<g>
	<g>
		<path class="st3" d="M437.5,65c5.2,0,10.2-4.6,10-10s-4.4-10-10-10c-5.2,0-10.2,4.6-10,10S431.9,65,437.5,65L437.5,65z"/>
	</g>
</g>
<g>
	<g>
		<path class="st3" d="M446.6,83.6c5.2,0,10.2-4.6,10-10s-4.4-10-10-10c-5.2,0-10.2,4.6-10,10C436.8,79.1,441,83.6,446.6,83.6
			L446.6,83.6z"/>
	</g>
</g>
<g>
	<g>
		<path class="st3" d="M442.9,72.3c5.2,0,10.2-4.6,10-10s-4.4-10-10-10c-5.2,0-10.2,4.6-10,10C433.2,67.7,437.3,72.3,442.9,72.3
			L442.9,72.3z"/>
	</g>
</g>
<g>
	<g>
		<path class="st3" d="M319.3,252.7c-2.5-1.9-6.1-3.5-9-1.5c-2.5,1.7-3.7,5-2.9,7.9c0.6-1,1.2-2.1,1.8-3.1c-0.5,0.1-1.5-0.9-1.9-1.2
			c-0.9-0.8-1.8-1.6-2.8-2.1c-2.1-1.1-4.8-1.4-6.7,0.3c-1.9,1.6-2.2,4.2-2,6.6c0,1,0.2,2,0,3c-0.1,0.8-0.4,1-0.9,1.4
			c-1.7,1.1-3.5,1.8-4.6,3.7c-1.2,2.2-0.9,4.9,0.2,7.1c1.2,2.2,3.3,3.6,5.8,4.1c2.5,0.4,5.5,0.8,7.7-0.8c0.8-0.6,1.5-1.3,2.2-2
			c0.3-0.3,0.7-0.7,1-1c0.1-0.1,0.3-0.3,0.5-0.4c-0.2,0.1,0.2-0.3,0-0.1c0-0.1,0.5,0,0.1,0h-0.3c-0.1,0.1,0-0.2,0.1,0.1
			c-0.1-0.2,0.1,0.2,0.1,0.2c0.5,0.8,0.8,1.7,1.2,2.6c0.8,2,1.8,3.9,3.8,5c1.7,0.9,3.7,1,5.5,0.3c2-0.8,3.5-2.2,4.4-4.1
			c0.5-1.1,0.7-2.2,0.9-3.3c0.1-0.8,0.2-2.1,0.6-2.7c0.3-0.4,1.2-0.2,1.8-0.3c1.2-0.2,2.3-0.6,3.2-1.5c1.6-1.4,2.5-3.5,2.8-5.6
			c0.3-2.6-0.3-5.3-2.1-7.2c-1.7-1.7-4.2-2.5-6.5-1.8c-1.2,0.4-2.2,1.2-3,2.2c-0.4,0.5-0.7,1-1.2,1.5c0,0.1-0.1,0.1-0.1,0.1
			c-0.4,0.3-0.3,0.3,0,0.1c0.2,0.2,1.1,0.5,1,0.6s0-0.4,0-0.2c0-0.2,0-0.6,0-0.8c0-0.5,0.1-1.1,0.1-1.6c0-1.3-0.3-2.6-1.3-3.6
			c-2.4-2.2-5.9,1.3-3.5,3.5c-0.2-0.2-0.1-0.7-0.1-0.1c0,0.4,0,0.8,0,1.3c0,0.9,0,1.9,0.2,2.8c0.6,2.4,3.1,3.6,5.4,2.8
			c1.1-0.4,1.9-1.2,2.6-2.1c0.5-0.7,1.1-1.5,1.7-1.8c-0.1,0.1,0.2,0,0.2,0s0.3,0,0.5,0.1c0.4,0.2,0.9,0.6,1.2,1.2
			c0.6,1.2,0.4,2.7-0.1,3.8c-0.2,0.5-0.7,1.1-0.9,1.2c-0.3,0.2-0.1,0.1-0.5,0.1c-0.7,0.1-1.3,0.1-2,0.2c-2.3,0.4-3.6,2.4-4.2,4.5
			c-0.4,1.6-0.3,3.5-1.2,4.9c-0.6,1-1.4,1.3-2.3,1.3c0.4,0-0.4-0.1-0.6-0.2c0.4,0.2-0.5-0.4-0.2-0.2c-0.5-0.4-0.8-1.1-1.1-1.8
			c-0.7-1.7-1.2-3.5-2.5-4.9c-1.5-1.6-3.7-1.9-5.6-1c-1.5,0.8-2.6,2.2-3.8,3.3c-1.1,1.1-3.2,0.8-4.8,0.4c-1.5-0.4-2.5-1.3-2.5-2.9
			c-0.1-1.4,1.2-1.7,2.4-2.4c2-1.1,3.4-2.7,3.7-5c0.2-1.2,0.2-2.4,0.1-3.6c0-0.9-0.2-2,0.1-2.9c0.1-0.2,0.3-0.4,0.1-0.2
			c0,0.1-0.1,0-0.2,0c0.2-0.1,0.3,0,0.5,0c0.8,0.2,1.5,0.8,2.1,1.3c2.2,1.8,4.2,3.2,7.1,2.8c1.3-0.2,2.1-1.9,1.8-3.1
			c-0.2-0.9,0.1-2,0.8-2.4c0.9-0.5,2.9,1,3.7,1.6c1.1,0.8,2.8,0.2,3.4-0.9C320.9,254.8,320.4,253.5,319.3,252.7L319.3,252.7z"/>
	</g>
</g>
<g>
	<g>
		<path class="st3" d="M298.2,279.8c1,0,2,0.1,2.9,0.1c-0.9-6.6-1.8-13.1-2.7-19.6c-2.2,0.7-4.5,1.5-6.7,2.2c-3.4,1.1-6,3.5-7,7
			c-1,3.6,0.2,7,2.6,9.7c3,3.4,7.9,4.6,12.2,3.6c3.6-0.8,6.5-3.2,8.5-6.2c1.3-2,2.2-4.4,2.5-6.7c0.4-2.6,0.4-5.2,0.7-7.8
			c-0.1,0.9-0.2,1.8-0.4,2.7c0.1-0.4,0.2-0.8,0.3-1.2c-0.3,0.8-0.7,1.6-1,2.4c0.1-0.2,0.2-0.5,0.3-0.7c-0.5,0.7-1,1.4-1.6,2
			c0.1-0.2,0.3-0.4,0.5-0.5c-0.7,0.5-1.3,1-2,1.6c0.3-0.2,0.5-0.3,0.8-0.5c-0.8,0.3-1.6,0.7-2.4,1c0.2-0.1,0.4-0.1,0.6-0.2
			c-0.9,0.1-1.8,0.2-2.7,0.4c0.4-0.1,0.8-0.1,1.2,0c-0.9-0.1-1.8-0.2-2.7-0.4c0.4,0.1,0.8,0.2,1.2,0.3c-0.8-0.3-1.6-0.7-2.4-1
			c0.6,0.3,1.2,0.6,1.7,1c-0.7-0.5-1.3-1-2-1.6c0.5,0.4,1,0.9,1.5,1.5c-0.5-0.7-1-1.4-1.6-2c0.5,0.7,0.9,1.4,1.3,2.2
			c-0.3-0.8-0.7-1.6-1-2.4c0.2,0.4,0.3,0.7,0.4,1.1c1.2,3.8,4.3,6.6,8.3,7.2c1.8,0.2,3.5,0,5.2-0.7c1.8-0.8,3.9-2.2,4.8-4.1
			c2-4.2,3-8.3,3.8-12.8c-6.5-0.9-13.1-1.8-19.6-2.7c0,2.9,0,5.9,0.1,8.9c0.1,4.3,1,8.9,4.2,12.1c2.7,2.7,6.4,3.7,10.1,3.2
			c2.4-0.3,4.6-1.3,6.6-2.5c2.9-1.7,5.6-3.9,7.7-6.5c-5.2-4-10.5-8.1-15.7-12.1c-0.8,1.8-1.8,3.4-3,4.9c0.5-0.7,1-1.4,1.6-2
			c-2,2.4-4.3,4.7-6.7,6.7c0.7-0.5,1.3-1,2-1.6c-0.4,0.3-0.9,0.6-1.3,0.9c0.8-0.3,1.6-0.7,2.4-1c-0.2,0.1-0.5,0.2-0.7,0.2
			c0.9-0.1,1.8-0.2,2.7-0.4c-0.2,0-0.5,0.1-0.7,0c0.9,0.1,1.8,0.2,2.7,0.4c-0.2,0-0.4-0.1-0.6-0.2c0.8,0.3,1.6,0.7,2.4,1
			c-0.2-0.1-0.4-0.2-0.6-0.3c0.7,0.5,1.3,1,2,1.6c-0.4-0.3-0.7-0.6-1-1c0.5,0.7,1,1.4,1.6,2c-0.9-1.2-1.4-2.6-2.1-3.9
			c-1.1-2.3-2.6-4.4-4.7-5.9c-2.8-2.1-6-3-9.5-2.6c-3.7,0.5-7.3,2.7-9,6.1c-1.2,2.4-1.8,5-1,7.7c0.6,2.3,2.4,4.8,4.6,6
			c2.3,1.2,5.1,1.8,7.7,1c2.4-0.8,4.8-2.3,6-4.6c0.1-0.2,0.2-0.4,0.3-0.6c-0.5,0.7-1,1.4-1.6,2c0.1-0.1,0.2-0.3,0.4-0.4
			c-0.7,0.5-1.3,1-2,1.6c0.1-0.1,0.3-0.2,0.5-0.3c-0.8,0.3-1.6,0.7-2.4,1c0.2-0.1,0.3-0.1,0.5-0.1c-0.9,0.1-1.8,0.2-2.7,0.4
			c0.3,0,0.5,0,0.8,0c-0.9-0.1-1.8-0.2-2.7-0.4c0.2,0,0.4,0.1,0.5,0.1c-0.8-0.3-1.6-0.7-2.4-1c0.3,0.1,0.5,0.3,0.7,0.4
			c-0.7-0.5-1.3-1-2-1.6c0.3,0.2,0.5,0.5,0.7,0.7c-0.5-0.7-1-1.4-1.6-2c0.8,1.1,1.3,2.3,1.9,3.5c0.9,1.9,1.9,3.6,3.3,5.1
			c4.3,4.7,11.7,5.6,16.9,1.7c5.3-3.9,10.6-9.1,13.2-15.2c1.1-2.4,1.9-5,1-7.7c-0.7-2.1-1.8-3.8-3.6-5.2c-3.6-2.8-9.9-3.1-13.1,0.8
			c-1.1,1.3-2.3,2.5-3.7,3.6c0.7-0.5,1.3-1,2-1.6c-1.2,0.9-2.5,1.7-3.8,2.3c0.8-0.3,1.6-0.7,2.4-1c-0.4,0.2-0.7,0.3-1.2,0.4
			c0.9-0.1,1.8-0.2,2.7-0.4c-0.3,0.1-0.5,0.1-0.8,0c0.9,0.1,1.8,0.2,2.7,0.4c-0.1,0-0.2-0.1-0.4-0.1c0.8,0.3,1.6,0.7,2.4,1
			c-0.2-0.1-0.3-0.2-0.5-0.3c0.7,0.5,1.3,1,2,1.6c-0.1-0.1-0.3-0.2-0.4-0.4c0.5,0.7,1,1.4,1.6,2c-0.2-0.2-0.3-0.5-0.4-0.8
			c0.3,0.8,0.7,1.6,1,2.4c-0.2-0.6-0.4-1.3-0.5-2c0.1,0.9,0.2,1.8,0.4,2.7c-0.4-3.6-0.2-7.2-0.2-10.8c0-5-3.8-9.2-8.7-9.8
			c-2.1-0.3-4.5,0-6.4,1.2c-2.1,1.3-4.2,3.4-4.6,6c-0.6,3.3-1.2,6.6-2.5,9.7c0.3-0.8,0.7-1.6,1-2.4c-0.1,0.3-0.2,0.5-0.3,0.8
			c6.1,0.8,12.2,1.6,18.3,2.4c-2.3-7.1-8.1-13.3-16-13.5c-4.8-0.2-9.5,2.5-11.8,6.8c-1.8,3.5-1.5,7.2-1.9,11
			c0.1-0.9,0.2-1.8,0.4-2.7c-0.2,1.1-0.4,2.2-0.8,3.2c0.3-0.8,0.7-1.6,1-2.4c-0.3,0.6-0.5,1.1-0.9,1.7c0.5-0.7,1-1.4,1.6-2
			c-0.2,0.3-0.5,0.5-0.7,0.7c0.7-0.5,1.3-1,2-1.6c-0.3,0.2-0.5,0.4-0.8,0.5c0.8-0.3,1.6-0.7,2.4-1c-0.3,0.1-0.6,0.2-0.9,0.3
			c0.9-0.1,1.8-0.2,2.7-0.4c-0.3,0-0.6,0-0.9,0c0.9,0.1,1.8,0.2,2.7,0.4c-0.2,0-0.4-0.1-0.6-0.2c0.8,0.3,1.6,0.7,2.4,1
			c-0.2-0.1-0.4-0.2-0.5-0.3c0.7,0.5,1.3,1,2,1.6c-0.2-0.1-0.3-0.3-0.5-0.5c-1.5,5.6-2.9,11.1-4.4,16.7c2.2-0.7,4.5-1.5,6.7-2.2
			c4.8-1.6,7.8-5.9,7.2-11c-0.7-5-4.8-8.5-9.8-8.7c-1,0-2-0.1-2.9-0.1c-5.2-0.2-10.2,4.7-10,10C288.4,275.4,292.6,279.6,298.2,279.8
			L298.2,279.8z"/>
	</g>
</g>
<g>
	<g>
		<path class="st3" d="M316.4,263.6c5.2,0,10.2-4.6,10-10s-4.4-10-10-10c-5.2,0-10.2,4.6-10,10C306.6,259,310.8,263.6,316.4,263.6
			L316.4,263.6z"/>
	</g>
</g>
<g>
	<g>
		<path class="st3" d="M313.4,264.4c5.2,0,10.2-4.6,10-10c-0.2-5.4-4.4-10-10-10c-5.2,0-10.2,4.6-10,10
			C303.6,259.8,307.8,264.4,313.4,264.4L313.4,264.4z"/>
	</g>
</g>
<g>
	<g>
		<path class="st3" d="M322.5,283c5.2,0,10.2-4.6,10-10s-4.4-10-10-10c-5.2,0-10.2,4.6-10,10C312.7,278.5,316.9,283,322.5,283
			L322.5,283z"/>
	</g>
</g>
<g>
	<g>
		<path class="st3" d="M318.8,271.7c5.2,0,10.2-4.6,10-10s-4.4-10-10-10c-5.2,0-10.2,4.6-10,10C309.1,267.1,313.2,271.7,318.8,271.7
			L318.8,271.7z"/>
	</g>
</g>
<g>
	<g>
		<path class="st3" d="M566.8,259.9c-2.5-1.9-6.1-3.5-9-1.5c-2.5,1.7-3.7,5-2.9,7.9c0.6-1,1.2-2.1,1.8-3.1c-0.5,0.1-1.5-0.9-1.9-1.2
			c-0.9-0.8-1.8-1.6-2.8-2.1c-2.1-1.1-4.8-1.4-6.7,0.3c-1.9,1.6-2.2,4.2-2,6.6c0,1,0.2,2,0,3c-0.1,0.8-0.4,1-0.9,1.4
			c-1.7,1.1-3.5,1.8-4.6,3.7c-1.2,2.2-0.9,4.9,0.2,7.1c1.2,2.2,3.3,3.6,5.8,4.1c2.5,0.4,5.5,0.8,7.7-0.8c0.8-0.6,1.5-1.3,2.2-2
			c0.3-0.3,0.7-0.7,1-1c0.1-0.1,0.3-0.3,0.5-0.4c-0.2,0.1,0.2-0.3,0-0.1c0-0.1,0.5,0,0.1,0H555c-0.1,0.1,0-0.2,0.1,0.1
			c-0.1-0.2,0.1,0.2,0.1,0.2c0.5,0.8,0.8,1.7,1.2,2.6c0.8,2,1.8,3.9,3.8,5c1.7,0.9,3.7,1,5.5,0.3c2-0.8,3.5-2.2,4.4-4.1
			c0.5-1.1,0.7-2.2,0.9-3.3c0.1-0.8,0.2-2.1,0.6-2.7c0.3-0.4,1.2-0.2,1.8-0.3c1.2-0.2,2.3-0.6,3.2-1.5c1.6-1.4,2.5-3.5,2.8-5.6
			c0.3-2.6-0.3-5.3-2.1-7.2c-1.7-1.7-4.2-2.5-6.5-1.8c-1.2,0.4-2.2,1.2-3,2.2c-0.4,0.5-0.7,1-1.2,1.5c0,0.1-0.1,0.1-0.1,0.1
			c-0.4,0.3-0.3,0.3,0,0.1c0.2,0.2,1.1,0.5,1,0.6s0-0.4,0-0.2c0-0.2,0-0.6,0-0.8c0-0.5,0.1-1.1,0.1-1.6c0-1.3-0.3-2.6-1.3-3.6
			c-2.4-2.2-5.9,1.3-3.5,3.5c-0.2-0.2-0.1-0.7-0.1-0.1c0,0.4,0,0.8,0,1.3c0,0.9,0,1.9,0.2,2.8c0.6,2.4,3.1,3.6,5.4,2.8
			c1.1-0.4,1.9-1.2,2.6-2.1c0.5-0.7,1.1-1.5,1.7-1.8c-0.1,0.1,0.2,0,0.2,0s0.3,0,0.5,0.1c0.4,0.2,0.9,0.6,1.2,1.2
			c0.6,1.2,0.4,2.7-0.1,3.8c-0.2,0.5-0.7,1.1-0.9,1.2c-0.3,0.2-0.1,0.1-0.5,0.1c-0.7,0.1-1.3,0.1-2,0.2c-2.3,0.4-3.6,2.4-4.2,4.5
			c-0.4,1.6-0.3,3.5-1.2,4.9c-0.6,1-1.4,1.3-2.3,1.3c0.4,0-0.4-0.1-0.6-0.2c0.4,0.2-0.5-0.4-0.2-0.2c-0.5-0.4-0.8-1.1-1.1-1.8
			c-0.7-1.7-1.2-3.5-2.5-4.9c-1.5-1.6-3.7-1.9-5.6-1c-1.5,0.8-2.6,2.2-3.8,3.3c-1.1,1.1-3.2,0.8-4.8,0.4c-1.5-0.4-2.5-1.3-2.5-2.9
			c-0.1-1.4,1.2-1.7,2.4-2.4c2-1.1,3.4-2.7,3.7-5c0.2-1.2,0.2-2.4,0.1-3.6c0-0.9-0.2-2,0.1-2.9c0.1-0.2,0.3-0.4,0.1-0.2
			c0,0.1-0.1,0-0.2,0c0.2-0.1,0.3,0,0.5,0c0.8,0.2,1.5,0.8,2.1,1.3c2.2,1.8,4.2,3.2,7.1,2.8c1.3-0.2,2.1-1.9,1.8-3.1
			c-0.2-0.9,0.1-2,0.8-2.4c0.9-0.5,2.9,1,3.7,1.6c1.1,0.8,2.8,0.2,3.4-0.9C568.4,262,567.9,260.7,566.8,259.9L566.8,259.9z"/>
	</g>
</g>
<g>
	<g>
		<path class="st3" d="M545.7,287c1,0,2,0.1,2.9,0.1c-0.9-6.6-1.8-13.1-2.7-19.6c-2.2,0.7-4.5,1.5-6.7,2.2c-3.4,1.1-6,3.5-7,7
			c-1,3.6,0.2,7,2.6,9.7c3,3.4,7.9,4.6,12.2,3.6c3.6-0.8,6.5-3.2,8.5-6.2c1.3-2,2.2-4.4,2.5-6.7c0.4-2.6,0.4-5.2,0.7-7.8
			c-0.1,0.9-0.2,1.8-0.4,2.7c0.1-0.4,0.2-0.8,0.3-1.2c-0.3,0.8-0.7,1.6-1,2.4c0.1-0.2,0.2-0.5,0.3-0.7c-0.5,0.7-1,1.4-1.6,2
			c0.1-0.2,0.3-0.4,0.5-0.5c-0.7,0.5-1.3,1-2,1.6c0.3-0.2,0.5-0.3,0.8-0.5c-0.8,0.3-1.6,0.7-2.4,1c0.2-0.1,0.4-0.1,0.6-0.2
			c-0.9,0.1-1.8,0.2-2.7,0.4c0.4-0.1,0.8-0.1,1.2,0c-0.9-0.1-1.8-0.2-2.7-0.4c0.4,0.1,0.8,0.2,1.2,0.3c-0.8-0.3-1.6-0.7-2.4-1
			c0.6,0.3,1.2,0.6,1.7,1c-0.7-0.5-1.3-1-2-1.6c0.5,0.4,1,0.9,1.5,1.5c-0.5-0.7-1-1.4-1.6-2c0.5,0.7,0.9,1.4,1.3,2.2
			c-0.3-0.8-0.7-1.6-1-2.4c0.2,0.4,0.3,0.7,0.4,1.1c1.2,3.8,4.3,6.6,8.3,7.2c1.8,0.2,3.5,0,5.2-0.7c1.8-0.8,3.9-2.2,4.8-4.1
			c2-4.2,3-8.3,3.8-12.8c-6.5-0.9-13.1-1.8-19.6-2.7c0,2.9,0,5.9,0.1,8.9c0.1,4.3,1,8.9,4.2,12.1c2.7,2.7,6.4,3.7,10.1,3.2
			c2.4-0.3,4.6-1.3,6.6-2.5c2.9-1.7,5.6-3.9,7.7-6.5c-5.2-4-10.5-8.1-15.7-12.1c-0.8,1.8-1.8,3.4-3,4.9c0.5-0.7,1-1.4,1.6-2
			c-2,2.4-4.3,4.7-6.7,6.7c0.7-0.5,1.3-1,2-1.6c-0.4,0.3-0.9,0.6-1.3,0.9c0.8-0.3,1.6-0.7,2.4-1c-0.2,0.1-0.5,0.2-0.7,0.2
			c0.9-0.1,1.8-0.2,2.7-0.4c-0.2,0-0.5,0.1-0.7,0c0.9,0.1,1.8,0.2,2.7,0.4c-0.2,0-0.4-0.1-0.6-0.2c0.8,0.3,1.6,0.7,2.4,1
			c-0.2-0.1-0.4-0.2-0.6-0.3c0.7,0.5,1.3,1,2,1.6c-0.4-0.3-0.7-0.6-1-1c0.5,0.7,1,1.4,1.6,2c-0.9-1.2-1.4-2.6-2.1-3.9
			c-1.1-2.3-2.6-4.4-4.7-5.9c-2.8-2.1-6-3-9.5-2.6c-3.7,0.5-7.3,2.7-9,6.1c-1.2,2.4-1.8,5-1,7.7c0.6,2.3,2.4,4.8,4.6,6
			c2.3,1.2,5.1,1.8,7.7,1c2.4-0.8,4.8-2.3,6-4.6c0.1-0.2,0.2-0.4,0.3-0.6c-0.5,0.7-1,1.4-1.6,2c0.1-0.1,0.2-0.3,0.4-0.4
			c-0.7,0.5-1.3,1-2,1.6c0.1-0.1,0.3-0.2,0.5-0.3c-0.8,0.3-1.6,0.7-2.4,1c0.2-0.1,0.3-0.1,0.5-0.1c-0.9,0.1-1.8,0.2-2.7,0.4
			c0.3,0,0.5,0,0.8,0c-0.9-0.1-1.8-0.2-2.7-0.4c0.2,0,0.4,0.1,0.5,0.1c-0.8-0.3-1.6-0.7-2.4-1c0.3,0.1,0.5,0.3,0.7,0.4
			c-0.7-0.5-1.3-1-2-1.6c0.3,0.2,0.5,0.5,0.7,0.7c-0.5-0.7-1-1.4-1.6-2c0.8,1.1,1.3,2.3,1.9,3.5c0.9,1.9,1.9,3.6,3.3,5.1
			c4.3,4.7,11.7,5.6,16.9,1.7c5.3-3.9,10.6-9.1,13.2-15.2c1.1-2.4,1.9-5,1-7.7c-0.7-2.1-1.8-3.8-3.6-5.2c-3.6-2.8-9.9-3.1-13.1,0.8
			c-1.1,1.3-2.3,2.5-3.7,3.6c0.7-0.5,1.3-1,2-1.6c-1.2,0.9-2.5,1.7-3.8,2.3c0.8-0.3,1.6-0.7,2.4-1c-0.4,0.2-0.7,0.3-1.2,0.4
			c0.9-0.1,1.8-0.2,2.7-0.4c-0.3,0.1-0.5,0.1-0.8,0c0.9,0.1,1.8,0.2,2.7,0.4c-0.1,0-0.2-0.1-0.4-0.1c0.8,0.3,1.6,0.7,2.4,1
			c-0.2-0.1-0.3-0.2-0.5-0.3c0.7,0.5,1.3,1,2,1.6c-0.1-0.1-0.3-0.2-0.4-0.4c0.5,0.7,1,1.4,1.6,2c-0.2-0.2-0.3-0.5-0.4-0.8
			c0.3,0.8,0.7,1.6,1,2.4c-0.2-0.6-0.4-1.3-0.5-2c0.1,0.9,0.2,1.8,0.4,2.7c-0.4-3.6-0.2-7.2-0.2-10.8c0-5-3.8-9.2-8.7-9.8
			c-2.1-0.3-4.5,0-6.4,1.2c-2.1,1.3-4.2,3.4-4.6,6c-0.6,3.3-1.2,6.6-2.5,9.7c0.3-0.8,0.7-1.6,1-2.4c-0.1,0.3-0.2,0.5-0.3,0.8
			c6.1,0.8,12.2,1.6,18.3,2.4c-2.3-7.1-8.1-13.3-16-13.5c-4.8-0.2-9.5,2.5-11.8,6.8c-1.8,3.5-1.5,7.2-1.9,11
			c0.1-0.9,0.2-1.8,0.4-2.7c-0.2,1.1-0.4,2.2-0.8,3.2c0.3-0.8,0.7-1.6,1-2.4c-0.3,0.6-0.5,1.1-0.9,1.7c0.5-0.7,1-1.4,1.6-2
			c-0.2,0.3-0.5,0.5-0.7,0.7c0.7-0.5,1.3-1,2-1.6c-0.3,0.2-0.5,0.4-0.8,0.5c0.8-0.3,1.6-0.7,2.4-1c-0.3,0.1-0.6,0.2-0.9,0.3
			c0.9-0.1,1.8-0.2,2.7-0.4c-0.3,0-0.6,0-0.9,0c0.9,0.1,1.8,0.2,2.7,0.4c-0.2,0-0.4-0.1-0.6-0.2c0.8,0.3,1.6,0.7,2.4,1
			c-0.2-0.1-0.4-0.2-0.5-0.3c0.7,0.5,1.3,1,2,1.6c-0.2-0.1-0.3-0.3-0.5-0.5c-1.5,5.6-2.9,11.1-4.4,16.7c2.2-0.7,4.5-1.5,6.7-2.2
			c4.8-1.6,7.8-5.9,7.2-11c-0.7-5-4.8-8.5-9.8-8.7c-1,0-2-0.1-2.9-0.1c-5.2-0.2-10.2,4.7-10,10C535.9,282.6,540.1,286.8,545.7,287
			L545.7,287z"/>
	</g>
</g>
<g>
	<g>
		<path class="st3" d="M563.9,270.8c5.2,0,10.2-4.6,10-10c-0.2-5.4-4.4-10-10-10c-5.2,0-10.2,4.6-10,10
			C554.1,266.2,558.3,270.8,563.9,270.8L563.9,270.8z"/>
	</g>
</g>
<g>
	<g>
		<path class="st3" d="M560.9,271.6c5.2,0,10.2-4.6,10-10s-4.4-10-10-10c-5.2,0-10.2,4.6-10,10S555.3,271.6,560.9,271.6L560.9,271.6
			z"/>
	</g>
</g>
<g>
	<g>
		<path class="st3" d="M570,290.2c5.2,0,10.2-4.6,10-10s-4.4-10-10-10c-5.2,0-10.2,4.6-10,10C560.2,285.7,564.4,290.2,570,290.2
			L570,290.2z"/>
	</g>
</g>
<g>
	<g>
		<path class="st3" d="M566.3,278.9c5.2,0,10.2-4.6,10-10s-4.4-10-10-10c-5.2,0-10.2,4.6-10,10C556.6,274.3,560.7,278.9,566.3,278.9
			L566.3,278.9z"/>
	</g>
</g>
</svg>
