<?xml version="1.0" encoding="utf-8"?>
<!-- Generator: Adobe Illustrator 26.5.2, SVG Export Plug-In . SVG Version: 6.00 Build 0)  -->
<svg version="1.1" id="Layer_3" xmlns="http://www.w3.org/2000/svg" xmlns:xlink="http://www.w3.org/1999/xlink" x="0px" y="0px"
	 viewBox="0 0 841.9 1190.6" style="enable-background:new 0 0 841.9 1190.6;" xml:space="preserve">
<style type="text/css">
	.st0{fill:#1B9DD9;}
	.st1{fill:#48AC35;stroke:#020203;stroke-miterlimit:10;}
	.st2{fill:none;stroke:#644F42;stroke-width:11;stroke-miterlimit:10;}
	.st3{fill:#644F42;}
	.st4{fill:#9FC242;}
	.st5{fill:none;stroke:#CEDB73;stroke-width:2;stroke-miterlimit:10;}
	.st6{fill:#DBCBBC;}
	.st7{fill:#FFFFFF;stroke:#000000;stroke-miterlimit:10;}
	.st8{fill:#EAE9E8;stroke:#000000;stroke-miterlimit:10;}
	.st9{fill:none;stroke:#000000;stroke-miterlimit:10;}
	.st10{fill:#BC885D;}
	.st11{fill:#966E4A;}
	.st12{fill:none;stroke:#AEBCD9;stroke-width:4;stroke-miterlimit:10;}
	.st13{fill:#EDEBEB;stroke:#000000;stroke-width:4;stroke-miterlimit:10;}
	.st14{fill:#EDEBEB;stroke:#000000;stroke-miterlimit:10;}
	.st15{fill:#FFFFFF;stroke:#000000;stroke-width:2;stroke-miterlimit:10;}
	.st16{fill:none;stroke:#000000;stroke-width:3;stroke-miterlimit:10;}
	.st17{fill:none;stroke:#4C352B;stroke-width:2;stroke-miterlimit:10;}
	.st18{fill:#83A835;stroke:#000000;stroke-width:2;stroke-miterlimit:10;}
	.st19{fill:#986C55;stroke:#000000;stroke-width:2;stroke-miterlimit:10;}
	.st20{fill:#E95219;stroke:#000000;stroke-width:2;stroke-miterlimit:10;}
	.st21{fill:#986C55;stroke:#000000;stroke-miterlimit:10;}
	.st22{fill:#4C352B;stroke:#000000;stroke-width:0.5;stroke-miterlimit:10;}
	.st23{fill:#6DA7DB;stroke:#000000;stroke-miterlimit:10;}
	.st24{fill:#FDD040;stroke:#000000;stroke-miterlimit:10;}
	.st25{fill:none;stroke:#008D36;stroke-width:2;stroke-miterlimit:10;}
	.st26{fill:#CAC9C9;stroke:#000000;stroke-miterlimit:10;}
	.st27{fill:#FDD040;}
	.st28{fill:none;stroke:#986C55;stroke-width:3;stroke-miterlimit:10;}
	.st29{fill:#668891;stroke:#FFFFFF;stroke-width:5;stroke-miterlimit:10;}
	.st30{fill:#83A835;stroke:#000000;stroke-miterlimit:10;}
	.st31{fill:#83A835;stroke:#000000;stroke-width:0.75;stroke-miterlimit:10;}
	.st32{fill:none;stroke:#000000;stroke-width:2;stroke-miterlimit:10;}
	.st33{fill:#E8E8E6;stroke:#000000;stroke-width:0.75;stroke-miterlimit:10;}
	.st34{fill:none;stroke:#000000;stroke-width:0.5;stroke-miterlimit:10;}
	.st35{fill:#C6D1E2;}
	.st36{fill:#F3943B;}
	.st37{fill:#EE7110;}
	.st38{fill:#F3943B;stroke:#020203;stroke-miterlimit:10;}
	.st39{fill:none;stroke:#020203;stroke-miterlimit:10;}
	.st40{fill:#D0CCCB;stroke:#020203;stroke-miterlimit:10;}
	.st41{opacity:0.51;fill:none;stroke:#423D39;stroke-miterlimit:10;enable-background:new    ;}
	.st42{fill:#FFFFFF;stroke:#000000;stroke-width:3;stroke-miterlimit:10;}
	.st43{fill:#C6D1E2;stroke:#040304;stroke-miterlimit:10;}
	.st44{fill:none;}
	.st45{fill:#FFFFFF;}
</style>
<g id="Layer_16">
	<rect y="0.6" class="st0" width="841.4" height="812.3"/>
	<rect y="812.9" class="st1" width="844.7" height="378.2"/>
</g>
<line class="st2" x1="0" y1="920.1" x2="841.4" y2="920.1"/>
<line class="st2" x1="4.8" y1="758.1" x2="4.8" y2="920.1"/>
<line class="st2" x1="159.6" y1="762.5" x2="0" y2="761.6"/>
<line class="st2" x1="162" y1="920.1" x2="162" y2="335.9"/>
<line class="st2" x1="330.2" y1="686.1" x2="331.9" y2="920.1"/>
<line class="st2" x1="697.5" y1="335.9" x2="696.6" y2="920.1"/>
<line class="st2" x1="165.1" y1="691" x2="693.6" y2="691"/>
<polyline class="st2" points="162,472.4 457,472.4 693.6,472.4 "/>
<line class="st2" x1="455.4" y1="691" x2="453.6" y2="472.4"/>
<polygon class="st3" points="240,292.8 287.2,266.8 287.2,216.4 240,216.4 "/>
<polygon class="st4" points="167.7,339.2 167.7,466.6 293.7,466.6 293.7,272.9 "/>
<g>
	<polygon class="st4" points="462.5,213.4 462.5,466.6 692,466.6 692,340 	"/>
	<line class="st5" x1="462.5" y1="304.5" x2="632" y2="304.5"/>
	<line class="st5" x1="462.5" y1="347.2" x2="692" y2="347.2"/>
	<line class="st5" x1="472.1" y1="393.5" x2="687.5" y2="393.5"/>
	<line class="st5" x1="462.5" y1="434.9" x2="692" y2="434.9"/>
	<line class="st5" x1="504.9" y1="235.9" x2="504.9" y2="466.6"/>
	<line class="st5" x1="547.2" y1="259.3" x2="547.2" y2="462.1"/>
	<line class="st5" x1="600.3" y1="288.4" x2="600.3" y2="462.1"/>
	<line class="st5" x1="632" y1="304.5" x2="632" y2="457.7"/>
	<line class="st5" x1="462.5" y1="264.3" x2="547.2" y2="264.3"/>
	<line class="st5" x1="673.7" y1="327.8" x2="673.7" y2="457.7"/>
</g>
<line class="st5" x1="221.3" y1="316.8" x2="293.7" y2="316.8"/>
<line class="st5" x1="167.7" y1="358.5" x2="293.7" y2="358.5"/>
<line class="st5" x1="167.7" y1="408.9" x2="197.4" y2="408.9"/>
<line class="st5" x1="275.8" y1="408.9" x2="288.8" y2="408.9"/>
<line class="st5" x1="167.7" y1="443.1" x2="197.4" y2="443.1"/>
<line class="st5" x1="272.5" y1="446.4" x2="293.7" y2="446.4"/>
<line class="st5" x1="263.6" y1="290.4" x2="263.6" y2="370"/>
<line class="st5" x1="221.3" y1="312.2" x2="221.3" y2="370"/>
<polyline class="st6" points="293.7,271.2 293.7,275.8 293.7,466.5 465.4,467.6 465.4,212.3 429.4,194.4 "/>
<line class="st5" x1="192.9" y1="330.2" x2="192.9" y2="466.2"/>
<g>
	<path class="st7" d="M285.8,397.6c0,0-4.9,38.2,43.9,53.6H432c0,0,39.8-17.9,41.4-53.6H285.8z"/>
	<path class="st8" d="M287.4,397.6c0,0,111.7-14.6,184.1,0H287.4z"/>
	<circle class="st8" cx="382.5" cy="384.5" r="6.6"/>
	<circle class="st8" cx="370.9" cy="386.1" r="5"/>
	<circle class="st8" cx="394.2" cy="386.1" r="5"/>
</g>
<line class="st9" x1="293.7" y1="316.8" x2="465.4" y2="316.8"/>
<line class="st9" x1="465.4" y1="268.4" x2="297.7" y2="268.4"/>
<line class="st9" x1="465.4" y1="234.4" x2="362.7" y2="234.4"/>
<line class="st9" x1="293.7" y1="358.5" x2="465.4" y2="358.5"/>
<line class="st9" x1="297.7" y1="446.4" x2="318.7" y2="446.4"/>
<line class="st9" x1="442.1" y1="446.4" x2="465.4" y2="446.4"/>
<line class="st9" x1="304.2" y1="446.4" x2="293.7" y2="446.4"/>
<line class="st9" x1="318.7" y1="446.4" x2="318.7" y2="466.3"/>
<line class="st9" x1="367.3" y1="451.2" x2="367.3" y2="465"/>
<line class="st9" x1="414.1" y1="451.2" x2="414.1" y2="465"/>
<line class="st9" x1="448.1" y1="446.4" x2="448.1" y2="466.3"/>
<line class="st9" x1="321.3" y1="263.4" x2="321.3" y2="389.9"/>
<line class="st9" x1="372.3" y1="234.4" x2="372.3" y2="379.4"/>
<line class="st9" x1="414.1" y1="207.4" x2="414.1" y2="388.7"/>
<line class="st9" x1="448.1" y1="393.8" x2="448.1" y2="207.4"/>
<polygon class="st10" points="483.8,403.9 483.8,446.4 590.3,446.4 590.3,401.1 "/>
<path class="st11" d="M478.6,403.9c0,0-2.1-14.4,0-12.4s117.8,0,117.8,0v12.4H478.6z"/>
<line class="st12" x1="492.6" y1="447" x2="491.9" y2="466.3"/>
<line class="st12" x1="583" y1="446.4" x2="583" y2="466.3"/>
<line class="st12" x1="537" y1="359" x2="537" y2="378.9"/>
<path class="st7" d="M515.5,375.7l45.5,1.7C561,377.4,539.1,412.1,515.5,375.7z"/>
<rect x="476" y="298.6" class="st13" width="112.6" height="56"/>
<line class="st12" x1="527.1" y1="362.2" x2="547" y2="362.2"/>
<path class="st14" d="M683.4,436.6c0.4-1.6-8.1-5.3-8.1-5.3l-6.1,5.3c0,0-4.5,0.5-10-0.7c-7.5-1.7-16.9-6.6-19.7-20.4h52V448h-26
	c0,0-7.3,1.6-6.5-8.5"/>
<path class="st14" d="M636.2,414.9c0,0-3.2-2.7,3.2-7h34.5c0,0,2-4.3,4.8,7H636.2z"/>
<path class="st15" d="M616.8,295.3c-1.6,1.1-8.7,0-8.7,0v75h33.6v-58.8L616.8,295.3z"/>
<line class="st16" x1="609.2" y1="335.9" x2="640.7" y2="335.9"/>
<rect x="165.1" y="476.2" class="st7" width="286.9" height="209"/>
<line class="st17" x1="406.3" y1="673.3" x2="406.3" y2="684.9"/>
<polygon class="st18" points="202.9,682.6 230.5,631.6 375.7,631.6 384.4,675.5 230.5,673.3 "/>
<path class="st19" d="M231.8,603.5c0,0,12.6,1.6,41.4-12.2H337c0,0,8.9,8.2,21.1,12.2l15.4,1.6v24H231.8V603.5L231.8,603.5z"/>
<polygon class="st19" points="230.5,673.3 231.8,682.6 239.2,682.6 239.2,673.3 "/>
<polygon class="st19" points="377.9,675.7 376.7,684.9 369.3,684.9 369.3,675.7 "/>
<path class="st20" d="M263.5,609.1c0,0-2,16.2,0,19.6s2,3.4,2,3.4h23.6c0,0,7.2-23,0-23C282,609.1,263.5,609.1,263.5,609.1z"/>
<path class="st20" d="M303.7,609.1c0,0-2,16.2,0,19.6s2,3.4,2,3.4H329c0,0,7.1-23,0-23S303.7,609.1,303.7,609.1z"/>
<g>
	<line class="st17" x1="435.8" y1="673.9" x2="435.8" y2="686"/>
	<rect x="403.8" y="645" class="st21" width="35.4" height="28.3"/>
	<line class="st9" x1="403.8" y1="652.8" x2="439.1" y2="652.8"/>
	<line class="st9" x1="403.8" y1="663.7" x2="439.1" y2="663.7"/>
	<circle class="st22" cx="421.4" cy="658.2" r="3.9"/>
	<circle class="st22" cx="421.4" cy="648.8" r="2.5"/>
	<circle class="st22" cx="421.4" cy="669.2" r="2.5"/>
	<line class="st17" x1="401.8" y1="644.1" x2="441.1" y2="644.1"/>
	<path class="st17" d="M435.8,682"/>
	<path class="st17" d="M435.8,672.7"/>
	<circle class="st23" cx="423.9" cy="634.4" r="7.6"/>
	<line class="st9" x1="423.9" y1="621.8" x2="423.9" y2="626.3"/>
	<polygon class="st24" points="413.9,621.2 433,621.2 429.3,609.8 417.5,609.8 	"/>
</g>
<line class="st17" x1="201.7" y1="674.7" x2="201.7" y2="686.8"/>
<path class="st17" d="M201.7,682.8"/>
<line class="st17" x1="173.1" y1="672.4" x2="173.1" y2="684"/>
<g>
	<line class="st17" x1="201.9" y1="672.9" x2="201.9" y2="685.1"/>
	<rect x="169.8" y="644.1" class="st21" width="35.4" height="28.3"/>
	<line class="st9" x1="169.8" y1="651.8" x2="205.2" y2="651.8"/>
	<line class="st9" x1="169.8" y1="662.8" x2="205.2" y2="662.8"/>
	<circle class="st22" cx="187.5" cy="657.3" r="3.9"/>
	<circle class="st22" cx="187.5" cy="647.8" r="2.5"/>
	<circle class="st22" cx="187.5" cy="668.2" r="2.5"/>
	<line class="st17" x1="167.9" y1="643.2" x2="207.1" y2="643.2"/>
	<path class="st17" d="M201.9,681"/>
	<path class="st17" d="M201.9,671.8"/>
	<circle class="st23" cx="190" cy="633.5" r="7.6"/>
	<line class="st9" x1="190" y1="620.8" x2="190" y2="625.3"/>
	<polygon class="st24" points="180,620.3 199.1,620.3 195.4,608.9 183.6,608.9 	"/>
</g>
<line class="st25" x1="230.8" y1="665.5" x2="231.8" y2="633.3"/>
<g>
	<line class="st9" x1="383.7" y1="477.1" x2="384" y2="519.5"/>
	<polygon class="st26" points="382.6,519.3 385.6,519.3 385.6,522.7 388.6,524.9 390,528.5 376.9,528.5 379.5,524.6 382,522.7 	"/>
</g>
<line class="st9" x1="394.3" y1="478.5" x2="394.6" y2="553.4"/>
<polygon class="st26" points="393.1,553.1 396.3,553.1 396.3,559.1 399.5,563 401.1,569.3 386.9,569.3 389.8,562.5 392.5,559.1 "/>
<rect x="262.6" y="523.9" class="st19" width="83.1" height="50"/>
<rect x="276.5" y="531.2" class="st24" width="55.7" height="32.2"/>
<rect x="459.1" y="476.2" class="st27" width="232.7" height="209"/>
<rect x="561" y="685.1" class="st24" width="15" height="15"/>
<line class="st28" x1="472.4" y1="642" x2="519.2" y2="642"/>
<rect x="602" y="523.9" class="st29" width="43.5" height="87.8"/>
<rect x="647.8" y="523.9" class="st29" width="29.3" height="87.8"/>
<rect x="519.2" y="628" class="st21" width="49.4" height="56.9"/>
<rect x="591.6" y="628" class="st21" width="16.2" height="56.9"/>
<path class="st30" d="M596.8,648.8c0,0,22.8-4.4,31.7,0C628.5,648.8,622,633.3,596.8,648.8z"/>
<path class="st31" d="M634.5,599.5c-0.4,0.1-15,15-9.3,37c0,0,5.7,2.8,8.1,0c0,0-5.3-18.3,3.2-33.7
	C636.6,602.8,643.1,597.5,634.5,599.5z"/>
<path class="st31" d="M602,631.6h21.1C623.2,631.6,613.2,623.1,602,631.6z"/>
<line class="st32" x1="628.5" y1="637.8" x2="625.5" y2="645"/>
<line class="st32" x1="615.9" y1="652.8" x2="615.9" y2="675.7"/>
<path d="M596.8,679.1c0,0,25.2-7.7,39,0.8L596.8,679.1z"/>
<circle cx="615.5" cy="650" r="3.7"/>
<circle cx="596.8" cy="680.3" r="3.7"/>
<circle cx="635.8" cy="680.3" r="3.7"/>
<rect x="515.1" y="622.9" class="st33" width="97.5" height="4.5"/>
<line class="st28" x1="471.2" y1="540.2" x2="470.4" y2="684"/>
<line class="st28" x1="528.5" y1="541.8" x2="527.7" y2="622.3"/>
<line class="st28" x1="471.2" y1="544.7" x2="528.1" y2="544.7"/>
<line class="st28" x1="472.4" y1="573.9" x2="526.5" y2="573.9"/>
<line class="st28" x1="470.8" y1="611.7" x2="527.8" y2="611.7"/>
<circle class="st7" cx="563.8" cy="537" r="9.8"/>
<line class="st34" x1="563.8" y1="528.4" x2="563.8" y2="537.9"/>
<line class="st34" x1="563.8" y1="537.9" x2="559.1" y2="541.8"/>
<circle cx="563.8" cy="537.9" r="0.8"/>
<rect x="337.3" y="696.1" class="st35" width="354.6" height="221"/>
<polygon class="st21" points="451.8,875.9 448.6,909.2 447.2,909.2 449.5,875.2 "/>
<polygon class="st21" points="383.6,873 378.2,911.5 379.8,911.5 386.6,878.4 404.2,879 404.2,911.5 407.7,911.5 409,878.1 
	434.2,878.1 440.2,911.5 441.8,911.5 435.9,873 "/>
<polygon class="st21" points="361.6,878.1 354.3,911.5 363,878.1 "/>
<polygon class="st21" points="367.3,878.1 370.6,911.5 371.9,911.5 369.6,877.5 "/>
<polygon class="st21" points="365.2,878.1 364.1,911.5 363,878.1 "/>
<path class="st21" d="M451.9,876.2c-0.3,2.2,6.8,35.2,6.8,35.2l-3.4-35.2H451.9z"/>
<path class="st21" d="M461.1,873.5l3.5-0.5c-1.3-2.1,5.9,37.1,5.9,37.1L461.1,873.5z"/>
<g>
	<path class="st36" d="M442.6,874.5c-0.9-0.4,17.9-8.7,22.8-20.3l1.6-3C467,851.2,474.9,888,442.6,874.5z"/>
	<path class="st37" d="M466.5,853.1l-5.1,6.5L444,874.2C444,874.2,462.4,874.2,466.5,853.1z"/>
</g>
<path class="st36" d="M376.7,875.2c0.9-0.4-17.9-8.7-22.8-20.3l-1.6-3C352.3,851.8,344.5,888.7,376.7,875.2z"/>
<path class="st37" d="M352.9,853.8l5.1,6.5l17.4,14.6C375.4,874.9,356.9,874.9,352.9,853.8z"/>
<ellipse class="st7" cx="410" cy="869.6" rx="32.9" ry="4.6"/>
<rect x="489.5" y="758.1" class="st38" width="43.3" height="35.8"/>
<rect x="534.5" y="758.1" class="st38" width="152.2" height="59.9"/>
<rect x="573.7" y="857" class="st38" width="113" height="53.1"/>
<rect x="532.8" y="880" class="st38" width="40.9" height="30.1"/>
<line class="st39" x1="571" y1="758.1" x2="571" y2="818"/>
<line class="st39" x1="618.7" y1="758.1" x2="618.7" y2="816.1"/>
<line class="st39" x1="658" y1="758.1" x2="658" y2="816.1"/>
<line class="st39" x1="615.5" y1="857" x2="615.5" y2="909.2"/>
<line class="st39" x1="658" y1="857" x2="658" y2="910.1"/>
<rect x="573.7" y="818" class="st40" width="113" height="35.1"/>
<line class="st41" x1="574.8" y1="826.9" x2="686.7" y2="826.9"/>
<line class="st41" x1="574.8" y1="834.8" x2="685.1" y2="834.8"/>
<line class="st41" x1="573.5" y1="842" x2="683.7" y2="842"/>
<line class="st41" x1="574.8" y1="849.5" x2="686.7" y2="849.5"/>
<rect x="574.1" y="853.1" class="st7" width="114" height="3.8"/>
<rect x="378.2" y="737.8" class="st42" width="66.4" height="102.4"/>
<line class="st16" x1="411.4" y1="737.8" x2="411.4" y2="840.2"/>
<line class="st16" x1="378.2" y1="772" x2="444" y2="772"/>
<line class="st16" x1="378.2" y1="806.6" x2="444" y2="806.6"/>
<rect x="167.9" y="696.1" class="st36" width="157.9" height="218.5"/>
<path class="st43" d="M212,884c0,0,8.1,6.1,7.3,19.5h71.1c0,0-0.8-18.3,6.1-19.5c0,0,2.4-6.2-4.1-5.2s-8.1,7.2-9.3,12.3l-54,2.8
	c0,0-6.9-17.7-12.6-15C216.5,878.9,208.7,880.4,212,884z"/>
<path class="st21" d="M219.3,901.5c-0.4,4.5-3.7,10.6-3.7,10.6l7.7-8.5L219.3,901.5z"/>
<polygon class="st21" points="285.5,903.5 290.8,912.1 290.4,903.5 "/>
<rect x="209.6" y="776" class="st7" width="22.3" height="36.8"/>
<rect x="209.6" y="818.4" class="st7" width="22.3" height="34.7"/>
<rect x="215" y="781.1" class="st35" width="11.4" height="26.7"/>
<rect x="215" y="822.4" class="st35" width="11.4" height="26.7"/>
<rect x="7.1" y="765" class="st7" width="149.6" height="149.6"/>
<polyline class="st2" points="109.2,365.1 429.4,193.6 749.5,365.1 "/>
<rect x="119.2" y="-39.2" class="st44" width="482.5" height="88.1"/>
<g>
	<g>
		<path class="st45" d="M164,196.6c-1.7,0.2-3.8-1.1-3.5-3.1c0.3-1.9,2.3-2.7,4-2.3c2.8,0.7,5.9,0.7,7.4-2.2c1.1-2,0.5-4.4,0.9-6.3
			c0.1-0.6,0.3-1,0.9-1.3c1-0.4,2.2-0.3,3.3-0.2c2.4,0.2,4.7,0.5,7-0.4c1.2-0.5,2.2-1.2,2.9-2.3c0.9-1.4,0.9-2.8,1-4.3
			c0.1-0.8,0.1-0.9,0.7-1.2c0.8-0.3,1.6-0.2,2.4,0.1c2.5,1.1,4.2,3.8,6.4,5.5c2.6,1.9,5.3,2.4,8.4,1.7c0.5-0.1,1.2-0.1,1.6-0.3
			c0.2-0.1,0.3,0.1,0.1-0.1c0.3,0.3,0.2,1.1,0.2,1.4c0,0.9,0.1,1.7,0.2,2.6c0.4,2.9,1.9,5.5,3.5,8c1.3,2.1,2.6,4.2,3.1,6.6
			c0.3,1.7,0.2,3.8-1.2,4.9c-2,1.5-5.4,0.9-7.7,0.8c-1.6,0-3.3-0.1-4.9-0.1c-0.8,0-1.6,0-2.5,0c-0.7,0-1.5-0.2-2.1-0.1
			c-0.1,0-0.1,0-0.2,0c-0.4-0.1-0.2,0,0.3,0.3c0,0-0.2-0.7-0.3-0.8c-0.3-0.8-0.6-1.5-1.2-2.1c-1.2-1.3-3-1.6-4.7-1.4
			c-3.2,0.5-4.6,3.6-7.3,4.9c-2.5,1.3-5.6,1.2-8.3,1.2c-1.2,0-6.7,0.2-5.8-2.3c0.4-1.3-0.5-2.7-1.8-3.1c-1.4-0.4-2.6,0.5-3.1,1.8
			c-1.3,3.6,1.5,6.9,4.8,8c1.6,0.5,3.4,0.6,5.1,0.6c1.6,0,3.2,0.1,4.8-0.1c3.4-0.3,6.7-1.2,9.3-3.4c0.9-0.8,1.7-2,2.8-2.5
			c-0.1,0.1,0.9-0.3,0.6-0.1c0.3-0.1,0.4,0.1,0.2,0c-0.2,0-0.3-0.7-0.1,0.1c0.1,0.3,0.2,0.6,0.3,1c1.5,3.9,6.3,3.1,9.7,3.2
			c3.7,0.1,7.5,0.4,11.1-0.1c3.2-0.5,5.9-2.6,6.9-5.8c0.9-2.6,0.5-5.7-0.4-8.2c-1.1-3.1-3.1-5.6-4.6-8.5c-0.6-1.1-1.1-2.4-1.3-3.7
			c-0.2-1.8,0.1-3.5-0.8-5.2c-0.8-1.5-2.3-2.5-4-2.6c-1.6-0.1-3.1,0.6-4.8,0.6c-2.8,0.1-5-3.2-6.9-4.9c-2.4-2.1-5.4-3.6-8.7-2.7
			c-1.2,0.3-2.4,1-3.3,2c-0.5,0.6-0.9,1.3-1.2,2.1c-0.3,1-0.1,2-0.3,3c-0.1,0.8-0.5,0.9-1.4,1.1c-1.1,0.2-2.4,0.1-3.5,0
			c-2.8-0.3-6.1-0.3-8.2,1.8c-1.2,1.2-1.7,2.8-1.9,4.5c-0.1,0.7-0.1,1.4-0.1,2.2c0,0.6,0,1.3-0.1,1.7c-0.1,0.3,0.1,0.2-0.1,0.4
			c0.1-0.1,0.1-0.1,0.2-0.2c-0.7,0.1-1.4-0.2-2.1-0.4c-1.9-0.4-3.6-0.3-5.4,0.5c-3.3,1.6-5.3,5.5-4.2,9.1c1,3.5,4.6,6.1,8.2,5.7
			c1.3-0.1,2.5-1.1,2.5-2.5C166.5,197.8,165.3,196.4,164,196.6L164,196.6z"/>
	</g>
</g>
<g>
	<g>
		<path class="st45" d="M164.2,200.5c0,0.6,0,1.2,0,1.8c0,0.3,0.1,0.7,0.2,1c0.1,0.3,0.3,0.6,0.5,0.8s0.5,0.4,0.8,0.5
			c0.3,0.2,0.6,0.2,1,0.2c0.2,0,0.4-0.1,0.7-0.1c0.4-0.1,0.8-0.3,1.1-0.6c0.1-0.2,0.3-0.3,0.4-0.5c0.2-0.4,0.3-0.8,0.3-1.3
			c0-0.6,0-1.2,0-1.8c0-0.3-0.1-0.7-0.2-1c-0.1-0.3-0.3-0.6-0.5-0.8s-0.5-0.4-0.8-0.5c-0.3-0.2-0.6-0.2-1-0.2
			c-0.2,0-0.4,0.1-0.7,0.1c-0.4,0.1-0.8,0.3-1.1,0.6c-0.1,0.2-0.3,0.3-0.4,0.5C164.3,199.7,164.2,200.1,164.2,200.5L164.2,200.5z"/>
	</g>
</g>
<g>
	<g>
		<path class="st45" d="M60.8,50.5c-3.5-1.9-7.6-3.6-11.5-1.8c-3.1,1.4-5.3,5.1-4,8.5c0.8-1,1.6-2.1,2.4-3.2c-2.8,0.3-5-1.9-7.4-3.1
			c-2.4-1.2-5.4-2-8-0.9c-3,1.2-4.1,4.2-4,7.2c0,1.2,0.3,2.5,0.1,3.6c-0.2,1-0.6,1.2-1.5,1.6c-1.9,1-4.4,1.5-5.9,3.3
			c-2,2.3-2,5.7-0.3,8.2c1.8,2.8,4.9,3.9,8.1,4.3c3.1,0.4,6.5,0.7,9.5-0.7c2.1-1,3.8-3.2,5.7-3.9c0.7-0.3,1.1-0.1,1.6,0.4
			c0.6,0.6,1.1,1.7,1.6,2.6c1.1,2.2,2.5,4.1,4.8,5.2c2.2,1,4.8,1.2,7.1,0.6s4.4-2.1,5.7-4.1c0.7-1.1,1-2.3,1.3-3.6
			c0.2-0.9,0.3-2.4,1-3.2c0.6-0.6,2-0.4,2.9-0.5c1.4-0.1,2.8-0.4,4.1-1.2c2.2-1.4,3.8-3.7,4.3-6.3c0.5-3.2-0.7-6.3-3.3-8.2
			c-2.2-1.6-5.3-2.2-7.9-1.3c-1.7,0.5-2.9,1.5-4.1,2.7c-0.4,0.4-0.9,1-1.5,1.3c-0.3,0.1-1,0-0.3,0.3c0.2,0.1-0.1,0.2,0,0
			c0,0,0-0.4,0-0.6c0-0.6,0.1-1.2,0.1-1.8c0-1.8-0.6-3.2-2.1-4.2c-2.7-1.8-5.2,2.5-2.5,4.3c-0.8-0.5-0.2-0.6-0.3-0.3
			c0,0,0-0.8,0,0.2c0,0.5-0.1,1-0.1,1.5c-0.1,1.2,0.1,2.5,0.7,3.5c1.5,2.6,5,2.8,7.4,1.3c1.1-0.7,1.9-1.7,2.9-2.6
			c0.7-0.6,1.4-0.9,2-1c1.5-0.1,3.2,0.5,4,1.9c0.7,1.3,0.3,2.9-0.6,4c-1.4,1.8-3.5,1.3-5.7,1.7c-2.9,0.5-4.5,2.8-5.2,5.4
			c-0.3,1.1-0.5,2.2-0.8,3.3c-0.2,0.6-0.5,1.1-1.2,1.7c-1,0.8-2.7,1.2-4.2,1c-0.3,0-1.2-0.3-1.6-0.6c-0.7-0.4-1.1-1-1.6-1.9
			c-1.1-1.9-1.9-4-3.7-5.4c-2-1.6-4.6-1.8-7-0.6c-2,1-3.5,2.8-5.5,3.8c-1.1,0.5-2.3,0.4-3.5,0.4c-1.3-0.1-2.6-0.1-3.9-0.3
			c-1.8-0.3-4.3-1.3-4.2-3.4c0-0.6,0.4-0.9,0.7-1.1c0.9-0.6,1.7-0.8,2.7-1.2c2.5-1,4.8-2.5,5.5-5.3c0.3-1.4,0.2-2.8,0.1-4.2
			c-0.1-0.8-0.3-2.1,0.2-2.8c0.4-0.6,1.2-0.6,1.9-0.6c1.2,0.1,2.2,0.7,3.2,1.3c2.7,1.7,5.6,3.7,9,3.3c1.4-0.2,3.1-1.5,2.4-3.2
			c-0.5-1.2,0.4-2.4,1.8-2.8c2.1-0.7,4.6,0.8,6.4,1.8C61.1,56.4,63.6,52.1,60.8,50.5L60.8,50.5z"/>
	</g>
</g>
<g>
	<g>
		<path class="st45" d="M177.2,199.1c5.2,0,10.2-4.6,10-10s-4.4-10-10-10c-5.2,0-10.2,4.6-10,10
			C167.4,194.6,171.6,199.1,177.2,199.1L177.2,199.1z"/>
	</g>
</g>
<g>
	<g>
		<path class="st45" d="M184.6,181.7c-0.6-0.5-1.2-1.1-1.7-1.8c0.5,0.7,1,1.4,1.6,2c-0.4-0.5-0.7-1-0.9-1.5c0.3,0.8,0.7,1.6,1,2.4
			c-0.2-0.4-0.3-0.8-0.4-1.2c0.1,0.9,0.2,1.8,0.4,2.7c0-0.2,0-0.4,0-0.6c-0.1,0.9-0.2,1.8-0.4,2.7c0-0.3,0.1-0.5,0.2-0.8
			c-0.3,0.8-0.7,1.6-1,2.4c0.1-0.1,0.1-0.2,0.1-0.2c-0.5,0.7-1,1.4-1.6,2c0.1-0.2,0.3-0.3,0.4-0.5c-0.7,0.5-1.4,1-2,1.6
			c0.2-0.1,0.3-0.3,0.5-0.4c-0.8,0.3-1.6,0.7-2.4,1c0.2-0.1,0.4-0.1,0.6-0.2c-0.9,0.1-1.8,0.2-2.7,0.4c0.3,0,0.6-0.1,0.9,0
			c-0.9-0.1-1.8-0.2-2.7-0.4c0.3,0.1,0.6,0.1,0.9,0.3c-0.8-0.3-1.6-0.7-2.4-1c0.4,0.2,0.8,0.4,1.2,0.7c-0.7-0.5-1.4-1-2-1.6
			c0.4,0.3,0.7,0.6,1,1c-0.5-0.7-1-1.4-1.6-2c0.6,0.9,1.2,1.8,1.8,2.7c1.5,2.2,2.9,3.8,5.1,5.3c3.1,2.2,7.5,2.9,11.2,1.8
			c2.9-0.8,5.4-2.7,7-5.3c1.4-2.3,1.8-4.5,2-7.1c0.1-2.6,0.1-5.1,0.1-7.7c-5,2.9-10,5.8-15.1,8.6c0.3,0.2,0.6,0.5,0.9,0.7
			c-0.7-0.5-1.4-1-2-1.6c1.4,1.1,2.7,2.4,3.9,3.9c-0.5-0.7-1-1.4-1.6-2c1.2,1.6,2.2,3.2,3,5.1c-0.3-0.8-0.7-1.6-1-2.4
			c0.1,0.4,0.3,0.7,0.4,1.1c0.9,2.4,2.2,4.7,4.6,6c2,1.1,4.1,1.5,6.4,1.2c2.1-0.3,4.3-1.1,5.7-2.8c1.9-2.1,2.6-4.3,2.9-7.1
			c0.5-4.5-1-9.8-3.7-13.4c-3.2-4.5-7.4-8-12.8-9.3c-4.1-1.1-9.2,0.7-11.3,4.6c-2.1,4-1.6,8.8,1.6,12.1c0.3,0.3,0.5,0.6,0.8,0.9
			c-0.5-0.7-1-1.4-1.6-2c1.3,1.7,2.1,3.7,3.1,5.6c1.6,3,4,5.6,6.8,7.4c3.5,2.3,7.8,2.9,11.8,1.9c2.5-0.6,4.7-2.1,7-3.1
			c-0.8,0.3-1.6,0.7-2.4,1c0.5-0.2,0.9-0.3,1.4-0.4c-0.9,0.1-1.8,0.2-2.7,0.4c0.3,0,0.5,0,0.8,0c-0.9-0.1-1.8-0.2-2.7-0.4
			c0.2,0,0.3,0.1,0.5,0.1c-0.8-0.3-1.6-0.7-2.4-1c0.2,0.1,0.3,0.2,0.5,0.3c-0.7-0.5-1.4-1-2-1.6c0.1,0.1,0.2,0.1,0.2,0.2
			c-0.9-3.2-1.7-6.5-2.6-9.7c-0.2,0.6-0.4,1.1-0.5,1.7c-0.2,1.3-0.5,2.7-0.4,4.1c0.2,2.9,0.8,5,2,7.6c0.8,1.7,2,3.2,3.3,4.4
			c0.8,0.8,1.7,1.4,2.4,2.2c-0.5-0.7-1-1.4-1.6-2c0.2,0.3,0.3,0.5,0.5,0.8c-0.3-0.8-0.7-1.6-1-2.4c0.1,0.2,0.1,0.4,0.2,0.6
			c-0.1-0.9-0.2-1.8-0.4-2.7c0,0.2,0,0.4,0,0.6c0.1-0.9,0.2-1.8,0.4-2.7c0,0.3-0.1,0.5-0.2,0.8c0.3-0.8,0.7-1.6,1-2.4
			c-0.1,0.2-0.3,0.5-0.4,0.7c0.5-0.7,1-1.4,1.6-2c-0.2,0.2-0.4,0.4-0.6,0.6c0.7-0.5,1.4-1,2-1.6c-0.4,0.3-0.9,0.6-1.3,0.8
			c0.8-0.3,1.6-0.7,2.4-1c-1,0.4-2,0.7-3.1,0.8c0.9-0.1,1.8-0.2,2.7-0.4c-2.2,0.3-4.4,0.5-6.7,0.2c0.9,0.1,1.8,0.2,2.7,0.4
			c-0.9-0.1-1.7-0.4-2.6-0.7c0.8,0.3,1.6,0.7,2.4,1c-0.6-0.3-1.1-0.6-1.6-0.9c0.7,0.5,1.4,1,2,1.6c-0.7-0.6-1.4-1.3-2.1-1.9
			c-2-1.7-3.6-2.8-6.1-3.6c-3.1-1.1-6.4-0.9-9.6-0.2c-4.6,1.1-7.9,4.1-12.1,5.9c0.8-0.3,1.6-0.7,2.4-1c-0.9,0.4-1.8,0.6-2.8,0.8
			c0.9-0.1,1.8-0.2,2.7-0.4c-0.4,0-0.8,0.1-1.2,0c2.4,5.7,4.7,11.4,7.1,17.1c2.3-2,4.2-5,5-7.9c1.4-5.1-0.6-10.8-5.1-13.5
			c-3.2-1.9-6.6-1.9-10.2-1.9c-2.4,0-4.8,0-7.2,0c-5.2,0-10.2,4.6-10,10s4.4,10,10,10c3.6,0,7.3-0.2,11,0c-0.9-0.1-1.8-0.2-2.7-0.4
			c0.3,0,0.5,0.1,0.8,0.2c-0.8-0.3-1.6-0.7-2.4-1c0.2,0.1,0.4,0.2,0.6,0.4c-0.7-0.5-1.4-1-2-1.6c0.1,0.1,0.3,0.2,0.4,0.4
			c-0.5-0.7-1-1.4-1.6-2c0,0.1,0.1,0.1,0.1,0.2c-0.3-0.8-0.7-1.6-1-2.4c0.1,0.2,0.1,0.3,0.1,0.5c-0.1-0.9-0.2-1.8-0.4-2.7
			c0,0.3,0,0.5,0,0.8c0.1-0.9,0.2-1.8,0.4-2.7c-0.1,0.3-0.1,0.6-0.3,0.9c0.3-0.8,0.7-1.6,1-2.4c-0.3,0.6-0.6,1.2-1.1,1.7
			c0.5-0.7,1-1.4,1.6-2c-0.4,0.4-0.7,0.8-1.2,1.2c-1.2,1-2.2,2.9-2.6,4.4c-0.6,2.2-0.4,4.5,0.5,6.5c1.6,3.7,5.1,6.1,9.1,6.1
			c3.8,0.1,7.5-1.2,10.8-3c2-1.1,3.9-2.5,6-3.4c-0.8,0.3-1.6,0.7-2.4,1c0.9-0.4,1.8-0.6,2.8-0.8c-0.9,0.1-1.8,0.2-2.7,0.4
			c0.7-0.1,1.3-0.1,1.9,0c-0.9-0.1-1.8-0.2-2.7-0.4c0.5,0.1,1,0.2,1.5,0.4c-0.8-0.3-1.6-0.7-2.4-1c0.5,0.2,0.9,0.5,1.4,0.8
			c-0.7-0.5-1.4-1-2-1.6c1.8,1.5,3.4,3.2,5.4,4.3c2.8,1.5,5.3,2.1,8.5,2.4c1.5,0.2,3,0.1,4.5,0c2.2-0.2,4.4-0.4,6.5-1
			c5.9-1.7,11-6.4,11.1-12.9c0.1-3.6-1.5-7-4-9.6c-0.9-1-2.1-1.7-3-2.8c0.5,0.7,1,1.4,1.6,2c-0.4-0.5-0.6-1-0.9-1.6
			c0.3,0.8,0.7,1.6,1,2.4c-0.2-0.6-0.4-1.1-0.5-1.7c0.1,0.9,0.2,1.8,0.4,2.7c-0.1-0.7-0.1-1.4,0-2.1c-0.1,0.9-0.2,1.8-0.4,2.7
			c0.1-0.6,0.2-1.1,0.5-1.7c1.2-3-0.1-7.7-2.6-9.7c-1.9-1.5-3.3-2.6-5.6-3.2c-2.2-0.6-4.7-0.5-6.8,0.2c-2.3,0.7-4.3,2-6.4,2.9
			c0.8-0.3,1.6-0.7,2.4-1c-0.6,0.3-1.2,0.5-1.9,0.6c0.9-0.1,1.8-0.2,2.7-0.4c-0.4,0-0.7,0-1.1,0c0.9,0.1,1.8,0.2,2.7,0.4
			c-0.4-0.1-0.7-0.2-1.1-0.3c0.8,0.3,1.6,0.7,2.4,1c-0.6-0.2-1.1-0.6-1.6-0.9c0.7,0.5,1.4,1,2,1.6c-0.6-0.5-1.1-1-1.6-1.6
			c0.5,0.7,1,1.4,1.6,2c-1.1-1.4-1.8-2.9-2.5-4.5c-1.1-2.2-2.5-4.2-4.2-6c-3.2,5.6-6.5,11.1-9.7,16.7c0.6,0.1,1.1,0.3,1.6,0.5
			c-0.8-0.3-1.6-0.7-2.4-1c1,0.4,1.9,0.9,2.7,1.6c-0.7-0.5-1.4-1-2-1.6c0.8,0.7,1.6,1.4,2.2,2.2c-0.5-0.7-1-1.4-1.6-2
			c0.7,0.9,1.3,1.9,1.8,3c-0.3-0.8-0.7-1.6-1-2.4c0.4,1,0.7,2,0.8,3c-0.1-0.9-0.2-1.8-0.4-2.7c0.1,0.9,0.1,1.8,0,2.8
			c6.6-0.9,13.1-1.8,19.6-2.7c-1.1-3.1-2.4-6-4.4-8.6c-2.5-3.3-5-5.8-8.4-8.2c-2.9-2-7.2-1.7-10.1,0c-3.1,1.8-4.9,5.1-4.9,8.6
			c0,2.8,0.2,5.7-0.1,8.5c0.1-0.9,0.2-1.8,0.4-2.7c0,0.3-0.1,0.5-0.2,0.7c0.3-0.8,0.7-1.6,1-2.4c-0.1,0.2-0.2,0.4-0.3,0.6
			c0.5-0.7,1-1.4,1.6-2c-0.1,0.1-0.2,0.3-0.4,0.4c0.7-0.5,1.4-1,2-1.6c-0.1,0.1-0.3,0.2-0.5,0.2c0.8-0.3,1.6-0.7,2.4-1
			c-0.2,0.1-0.4,0.1-0.5,0.1c0.9-0.1,1.8-0.2,2.7-0.4c-0.3,0-0.6,0-0.9,0c0.9,0.1,1.8,0.2,2.7,0.4c-0.4-0.1-0.8-0.2-1.2-0.3
			c0.8,0.3,1.6,0.7,2.4,1c-0.4-0.2-0.7-0.4-1.1-0.6c0.7,0.5,1.4,1,2,1.6c-0.4-0.3-0.7-0.7-1-1.1c0.5,0.7,1,1.4,1.6,2
			c-0.6-0.9-1.1-1.8-1.7-2.7c-1.5-2.2-2.9-3.7-5.1-5.2c-3.9-2.8-9.8-3.2-13.9-0.6c-4.8,2.9-7.2,8.7-5.7,14.2
			c0.9,3.2,2.9,6.3,5.5,8.5c2.1,1.7,4.3,2.9,7.1,2.9c2.4,0,5.4-1.1,7.1-2.9c1.8-1.9,3.1-4.4,2.9-7.1
			C187.4,186.2,186.6,183.4,184.6,181.7L184.6,181.7z"/>
	</g>
</g>
<g>
	<g>
		<path class="st45" d="M200.8,204.4c5.2,0,10.2-4.6,10-10s-4.4-10-10-10c-5.2,0-10.2,4.6-10,10
			C191.1,199.8,195.2,204.4,200.8,204.4L200.8,204.4z"/>
	</g>
</g>
<g>
	<g>
		<path class="st45" d="M172.8,213.2c5.2,0,10.2-4.6,10-10s-4.4-10-10-10c-5.2,0-10.2,4.6-10,10
			C163.1,208.6,167.2,213.2,172.8,213.2L172.8,213.2z"/>
	</g>
</g>
<g>
	<g>
		<path class="st45" d="M213.9,202.6c5.2,0,10.2-4.6,10-10s-4.4-10-10-10c-5.2,0-10.2,4.6-10,10
			C204.2,198.1,208.4,202.6,213.9,202.6L213.9,202.6z"/>
	</g>
</g>
<g>
	<g>
		<path class="st45" d="M210.4,191.3c5.2,0,10.2-4.6,10-10s-4.4-10-10-10c-5.2,0-10.2,4.6-10,10
			C200.7,186.7,204.9,191.3,210.4,191.3L210.4,191.3z"/>
	</g>
</g>
<g>
	<g>
		<path class="st45" d="M30.9,78.8c1.4,0,2.8,0.1,4.2,0.1c-0.9-6.6-1.8-13.1-2.7-19.6c-3.2,0.8-6.5,1.6-9.7,2.4
			c-7,1.7-10.1,11.8-4.4,16.7c3,2.6,6.6,4.3,10.6,4s7.7-1.8,10.6-4.6c2.3-2.3,4.1-5.6,4.8-8.8c0.6-2.7,0.6-5.4,0.8-8.1
			c-0.1,0.9-0.2,1.8-0.4,2.7c0.1-0.5,0.2-1,0.4-1.5c-0.3,0.8-0.7,1.6-1,2.4c0.1-0.2,0.2-0.5,0.4-0.7c-0.5,0.7-1,1.3-1.6,2
			c0.2-0.3,0.4-0.5,0.7-0.7c-0.7,0.5-1.3,1-2,1.6c0.3-0.2,0.6-0.3,0.9-0.5c-0.8,0.3-1.6,0.7-2.4,1c0.4-0.2,0.9-0.3,1.3-0.3
			c-0.9,0.1-1.8,0.2-2.7,0.4c0.7-0.1,1.4-0.1,2.1,0c-0.9-0.1-1.8-0.2-2.7-0.4c0.8,0.1,1.6,0.4,2.4,0.7c-0.8-0.3-1.6-0.7-2.4-1
			c0.9,0.4,1.7,0.9,2.5,1.4c-0.7-0.5-1.3-1-2-1.6c0.8,0.6,1.4,1.3,2,2c-0.5-0.7-1-1.3-1.6-2c0.5,0.7,0.9,1.4,1.3,2.2
			c-0.3-0.8-0.7-1.6-1-2.4c0,0.1,0.1,0.2,0.1,0.3c0.7,1.6,1.3,3.2,2.6,4.4c1.6,1.6,3.6,2.5,5.7,2.8c4,0.5,7.8-1.3,10-4.8
			c2.6-4.2,4-9,5.1-13.7c-6.5-0.9-13.1-1.8-19.6-2.7c0.1,8.3-1.2,19.2,7.4,23.9c5.8,3.1,11.8,1,17.2-1.6c3.4-1.6,6.5-4,9.3-6.5
			c-5.2-4-10.5-8.1-15.7-12.1c-0.5,0.8-1,1.6-1.5,2.3c0.5-0.7,1-1.3,1.6-2c-1.7,2.2-3.8,4.1-6,5.8c0.7-0.5,1.3-1,2-1.6
			c-2.3,1.8-4.8,3.8-7.5,5c0.8-0.3,1.6-0.7,2.4-1c-0.5,0.2-1,0.4-1.6,0.5c0.9-0.1,1.8-0.2,2.7-0.4c-0.4,0.1-0.8,0.1-1.2,0
			c0.9,0.1,1.8,0.2,2.7,0.4c-0.5-0.1-1-0.2-1.4-0.4c0.8,0.3,1.6,0.7,2.4,1c-0.3-0.2-0.7-0.4-1-0.6c0.7,0.5,1.3,1,2,1.6
			c-0.6-0.5-1.2-1-1.6-1.6c0.5,0.7,1,1.3,1.6,2c-1-1.3-1.7-2.7-2.6-4.1c-1.7-2.5-3.6-4.8-6.3-6.3c-3.3-1.8-6.8-2.2-10.5-1.5
			c-3.6,0.6-6.5,3.1-8.4,6.1c-2.8,4.4-1.1,11.2,3.6,13.7c4.9,2.6,10.7,1.1,13.7-3.6c0-0.1,0.1-0.2,0.2-0.3c-0.5,0.7-1,1.3-1.6,2
			c0.2-0.2,0.4-0.4,0.6-0.6c-0.7,0.5-1.3,1-2,1.6c0.2-0.1,0.3-0.2,0.5-0.3c-0.8,0.3-1.6,0.7-2.4,1c0.4-0.2,0.8-0.2,1.2-0.3
			c-0.9,0.1-1.8,0.2-2.7,0.4c0.4,0,0.8,0,1.2,0c-0.9-0.1-1.8-0.2-2.7-0.4c0.4,0.1,0.8,0.2,1.2,0.4c-0.8-0.3-1.6-0.7-2.4-1
			c0.4,0.2,0.8,0.4,1.1,0.7c-0.7-0.5-1.3-1-2-1.6c0.5,0.4,0.9,0.9,1.3,1.4c-0.5-0.7-1-1.3-1.6-2c0.9,1.2,1.6,2.6,2.5,3.9
			c1.7,2.5,3.5,4.5,5.9,6.2c5.3,3.6,12.2,2.7,17.3-0.7c6.4-4.2,12.7-8.9,16.6-15.6c2.5-4.3,1.3-9.9-2.6-12.9
			c-4.1-3.1-9.4-2.6-13.1,0.8c-0.6,0.6-1.3,1.1-1.9,1.6c0.7-0.5,1.3-1,2-1.6c-2.1,1.6-4.4,3-6.9,4c0.8-0.3,1.6-0.7,2.4-1
			c-1.2,0.5-2.4,0.9-3.6,1.2c0.9-0.1,1.8-0.2,2.7-0.4c-0.4,0-0.8,0-1.2,0c0.9,0.1,1.8,0.2,2.7,0.4c-0.2,0-0.5-0.1-0.7-0.2
			c0.8,0.3,1.6,0.7,2.4,1c-0.2-0.1-0.4-0.2-0.5-0.3c0.7,0.5,1.3,1,2,1.6c-0.2-0.2-0.4-0.4-0.6-0.6c0.5,0.7,1,1.3,1.6,2
			c-0.2-0.3-0.4-0.7-0.6-1.1c0.3,0.8,0.7,1.6,1,2.4c-0.2-0.6-0.4-1.2-0.5-1.9c0.1,0.9,0.2,1.8,0.4,2.7c-0.5-3.7-0.2-7.6-0.2-11.4
			c0-5-3.8-9.2-8.7-9.8c-4.7-0.6-9.8,2.3-11,7.2c-0.7,2.8-1.4,5.6-2.5,8.3c0.3-0.8,0.7-1.6,1-2.4c-0.5,1-1,2.1-1.6,3
			c6.1,0.8,12.2,1.6,18.3,2.4c-1-2.3-1.7-3.9-3.2-5.9c-1.2-1.5-2.3-2.6-3.8-3.8c-3.4-2.6-7.2-3.9-11.5-4.3c-1.8-0.2-3.7,0.1-5.4,0.7
			c-3.2,1.1-5.9,3-7.7,5.9c-2.2,3.6-1.9,7.5-2.4,11.4c0.1-0.9,0.2-1.8,0.4-2.7c-0.2,1-0.4,2-0.8,3c0.3-0.8,0.7-1.6,1-2.4
			c-0.3,0.7-0.7,1.4-1.2,2c0.5-0.7,1-1.3,1.6-2c-0.3,0.4-0.6,0.7-1,1c0.7-0.5,1.4-1,2-1.6c-0.5,0.3-0.9,0.6-1.4,0.8
			c0.8-0.3,1.6-0.7,2.4-1c-0.5,0.2-1,0.3-1.6,0.4c0.9-0.1,1.8-0.2,2.7-0.4c-0.4,0-0.9,0-1.3,0c0.9,0.1,1.8,0.2,2.7,0.4
			c-0.4-0.1-0.8-0.2-1.2-0.3c0.8,0.3,1.6,0.7,2.4,1c-0.3-0.2-0.5-0.3-0.8-0.5c0.7,0.5,1.4,1,2,1.6c-0.1-0.1-0.2-0.1-0.2-0.2
			c-1.5,5.6-2.9,11.1-4.4,16.7c3.2-0.8,6.5-1.6,9.7-2.4c4.8-1.2,7.8-6.2,7.2-11c-0.7-5-4.8-8.5-9.8-8.7c-1.4,0-2.8-0.1-4.2-0.1
			c-5.2-0.1-10.2,4.7-10,10C21.2,74.4,25.3,78.7,30.9,78.8L30.9,78.8z"/>
	</g>
</g>
<g>
	<g>
		<path class="st45" d="M57.2,61.3c5.2,0,10.2-4.6,10-10c-0.2-5.4-4.4-10-10-10c-5.2,0-10.2,4.6-10,10
			C47.4,56.7,51.6,61.3,57.2,61.3L57.2,61.3z"/>
	</g>
</g>
<g>
	<g>
		<path class="st45" d="M52.8,62.2c5.2,0,10.2-4.6,10-10s-4.4-10-10-10c-5.2,0-10.2,4.6-10,10S47.2,62.2,52.8,62.2L52.8,62.2z"/>
	</g>
</g>
<g>
	<g>
		<path class="st45" d="M65.9,82.3c5.2,0,10.2-4.6,10-10s-4.4-10-10-10c-5.2,0-10.2,4.6-10,10C56.2,77.8,60.3,82.3,65.9,82.3
			L65.9,82.3z"/>
	</g>
</g>
<g>
	<g>
		<path class="st45" d="M60.7,70.1c5.2,0,10.2-4.6,10-10c-0.2-5.4-4.4-10-10-10c-5.2,0-10.2,4.6-10,10
			C50.9,65.5,55.1,70.1,60.7,70.1L60.7,70.1z"/>
	</g>
</g>
<rect x="186.7" y="-47.5" class="st44" width="246.2" height="11.5"/>
<g>
	<g>
		<path class="st45" d="M554.1,127.9c-1.7,0.2-3.8-1.1-3.5-3.1c0.3-1.9,2.3-2.7,4-2.3c2.8,0.7,5.8,0.7,7.4-2.2c1-2,0.5-4.4,0.9-6.3
			c0.1-0.7,0.3-1,0.9-1.3c1-0.4,2.2-0.3,3.3-0.2c2.4,0.2,4.7,0.5,7-0.4c1.2-0.5,2.2-1.2,3-2.3c0.9-1.4,0.9-2.8,1-4.3
			c0.1-0.8,0.2-0.9,0.7-1.2c0.8-0.3,1.5-0.2,2.4,0.1c2.5,1.1,4.2,3.8,6.4,5.5c2.6,1.9,5.3,2.4,8.4,1.7c0.5-0.1,1.2-0.1,1.6-0.3
			c0.2-0.1,0.3,0.1,0.1-0.1c0.3,0.3,0.2,1.1,0.2,1.4c0,0.9,0.1,1.7,0.2,2.6c0.4,2.9,2,5.5,3.5,8c1.3,2.1,2.6,4.2,3.1,6.6
			c0.3,1.7,0.2,3.8-1.2,4.9c-2,1.5-5.4,0.9-7.7,0.8c-1.7,0-3.3-0.1-5-0.1c-0.8,0-1.7,0-2.5,0c-0.7,0-1.5-0.2-2.2-0.1
			c0,0-0.1,0-0.2,0c-0.3-0.1-0.2,0,0.3,0.3c0,0-0.2-0.7-0.3-0.8c-0.3-0.8-0.6-1.5-1.2-2.1c-1.2-1.3-3-1.6-4.7-1.4
			c-3.2,0.5-4.6,3.6-7.3,4.9c-2.5,1.3-5.6,1.2-8.3,1.2c-1.2,0-6.7,0.2-5.8-2.3c0.5-1.3-0.5-2.7-1.8-3.1c-1.4-0.4-2.6,0.5-3.1,1.8
			c-1.3,3.6,1.5,6.9,4.8,8c1.6,0.5,3.4,0.6,5.1,0.6c1.6,0,3.2,0.1,4.8-0.1c3.4-0.3,6.7-1.2,9.3-3.4c0.9-0.8,1.7-2,2.8-2.5
			c-0.1,0.1,0.9-0.3,0.6-0.1c0.3-0.1,0.4,0.1,0.2,0c-0.2,0-0.3-0.7-0.1,0.1c0.1,0.3,0.2,0.6,0.3,1c1.5,3.9,6.3,3.1,9.7,3.2
			c3.7,0.1,7.5,0.4,11.1-0.1c3.2-0.5,5.9-2.6,6.9-5.8c0.9-2.6,0.5-5.7-0.5-8.2c-1.1-3.1-3.1-5.6-4.6-8.5c-0.6-1.2-1.1-2.4-1.3-3.7
			c-0.2-1.8,0.1-3.5-0.8-5.2c-0.8-1.5-2.3-2.5-4-2.6c-1.7-0.2-3.2,0.6-4.8,0.6c-2.8,0.1-5-3.2-6.9-4.9c-2.5-2.1-5.5-3.6-8.7-2.7
			c-1.2,0.3-2.4,1-3.3,2c-0.5,0.6-0.9,1.3-1.2,2.1c-0.3,1-0.1,2-0.3,3c-0.1,0.8-0.5,0.9-1.4,1.1c-1.1,0.2-2.4,0.1-3.5,0
			c-2.8-0.3-6.1-0.3-8.2,1.8c-1.2,1.2-1.7,2.8-1.9,4.5c-0.1,0.7-0.1,1.4-0.1,2.2c0,0.6,0,1.3-0.1,1.7c-0.1,0.3,0.1,0.2-0.2,0.3
			c0.1-0.1,0.1-0.2,0.2-0.2c-0.7,0.1-1.4-0.2-2.1-0.4c-1.9-0.4-3.6-0.3-5.4,0.5c-3.3,1.6-5.3,5.5-4.2,9.1c1,3.5,4.6,6.1,8.2,5.7
			c1.3-0.1,2.5-1.1,2.5-2.5C556.6,129.1,555.4,127.7,554.1,127.9L554.1,127.9z"/>
	</g>
</g>
<g>
	<g>
		<path class="st45" d="M567.3,130.4c5.2,0,10.2-4.6,10-10s-4.4-10-10-10c-5.2,0-10.2,4.6-10,10
			C557.6,125.9,561.7,130.4,567.3,130.4L567.3,130.4z"/>
	</g>
</g>
<g>
	<g>
		<path class="st45" d="M574.7,113c-0.6-0.5-1.2-1.1-1.7-1.8c0.5,0.7,1,1.3,1.6,2c-0.3-0.5-0.7-1-0.9-1.5c0.3,0.8,0.7,1.6,1,2.4
			c-0.2-0.4-0.3-0.8-0.4-1.2c0.1,0.9,0.2,1.8,0.4,2.7c0-0.2,0-0.4,0-0.6c-0.1,0.9-0.2,1.8-0.4,2.7c0-0.3,0.1-0.5,0.2-0.8
			c-0.3,0.8-0.7,1.6-1,2.4c0-0.1,0.1-0.2,0.2-0.2c-0.5,0.7-1,1.3-1.6,2c0.1-0.2,0.3-0.3,0.4-0.5c-0.7,0.5-1.3,1-2,1.6
			c0.2-0.1,0.3-0.3,0.5-0.3c-0.8,0.3-1.6,0.7-2.4,1c0.2-0.1,0.4-0.2,0.6-0.2c-0.9,0.1-1.8,0.2-2.7,0.4c0.3,0,0.6-0.1,0.9,0
			c-0.9-0.1-1.8-0.2-2.7-0.4c0.3,0.1,0.6,0.1,1,0.3c-0.8-0.3-1.6-0.7-2.4-1c0.4,0.2,0.8,0.4,1.2,0.7c-0.7-0.5-1.3-1-2-1.6
			c0.4,0.3,0.7,0.6,1,1c-0.5-0.7-1-1.3-1.6-2c0.6,0.9,1.2,1.8,1.8,2.7c1.5,2.2,2.9,3.8,5.1,5.3c3.1,2.2,7.5,2.9,11.2,1.8
			c2.9-0.8,5.4-2.7,7-5.3c1.4-2.3,1.8-4.5,2-7.2c0.1-2.6,0-5.1,0.1-7.7c-5,2.9-10,5.8-15,8.6c0.3,0.2,0.6,0.5,1,0.7
			c-0.7-0.5-1.3-1-2-1.6c1.5,1.1,2.7,2.4,3.9,3.9c-0.5-0.7-1-1.3-1.6-2c1.2,1.6,2.2,3.2,3,5.1c-0.3-0.8-0.7-1.6-1-2.4
			c0.2,0.4,0.3,0.7,0.4,1.1c0.9,2.4,2.2,4.7,4.6,6c2,1.1,4.1,1.5,6.4,1.2c2.1-0.3,4.3-1.1,5.7-2.8c1.9-2.1,2.6-4.3,2.9-7.1
			c0.5-4.5-1-9.8-3.7-13.4c-3.2-4.5-7.4-8-12.8-9.3c-4.2-1.1-9.2,0.7-11.3,4.6c-2.1,4-1.6,8.8,1.6,12.1c0.3,0.3,0.5,0.6,0.8,0.9
			c-0.5-0.7-1-1.3-1.6-2c1.3,1.7,2.1,3.7,3.1,5.6c1.6,3,4,5.6,6.8,7.4c3.5,2.3,7.8,2.9,11.8,1.9c2.5-0.6,4.7-2.1,7-3.1
			c-0.8,0.3-1.6,0.7-2.4,1c0.5-0.2,0.9-0.3,1.4-0.4c-0.9,0.1-1.8,0.2-2.7,0.4c0.3,0,0.5,0,0.8,0c-0.9-0.1-1.8-0.2-2.7-0.4
			c0.2,0,0.3,0.1,0.5,0.1c-0.8-0.3-1.6-0.7-2.4-1c0.2,0.1,0.3,0.2,0.5,0.3c-0.7-0.5-1.3-1-2-1.6c0.1,0.1,0.2,0.1,0.2,0.2
			c-0.9-3.2-1.7-6.5-2.6-9.7c-0.2,0.6-0.4,1.1-0.5,1.7c-0.2,1.3-0.5,2.7-0.4,4.1c0.2,2.9,0.8,5,2,7.6c0.8,1.7,2,3.2,3.3,4.4
			c0.8,0.8,1.7,1.4,2.5,2.2c-0.5-0.7-1-1.4-1.6-2c0.2,0.3,0.3,0.5,0.5,0.8c-0.3-0.8-0.7-1.6-1-2.4c0.1,0.2,0.1,0.4,0.2,0.6
			c-0.1-0.9-0.2-1.8-0.4-2.7c0,0.2,0,0.4,0,0.6c0.1-0.9,0.2-1.8,0.4-2.7c0,0.3-0.1,0.5-0.2,0.8c0.3-0.8,0.7-1.6,1-2.4
			c-0.1,0.2-0.3,0.5-0.4,0.7c0.5-0.7,1-1.3,1.6-2c-0.2,0.2-0.4,0.4-0.6,0.6c0.7-0.5,1.3-1,2-1.6c-0.4,0.3-0.9,0.6-1.3,0.8
			c0.8-0.3,1.6-0.7,2.4-1c-1,0.4-2,0.7-3.1,0.8c0.9-0.1,1.8-0.2,2.7-0.4c-2.2,0.3-4.5,0.5-6.7,0.2c0.9,0.1,1.8,0.2,2.7,0.4
			c-0.9-0.1-1.7-0.3-2.6-0.7c0.8,0.3,1.6,0.7,2.4,1c-0.6-0.3-1.1-0.6-1.7-0.9c0.7,0.5,1.3,1,2,1.6c-0.7-0.6-1.4-1.3-2.1-1.9
			c-2-1.7-3.6-2.8-6.1-3.6c-3.1-1.1-6.4-0.9-9.5-0.2c-4.5,1.1-7.9,4.1-12.1,5.9c0.8-0.3,1.6-0.7,2.4-1c-0.9,0.4-1.8,0.6-2.8,0.8
			c0.9-0.1,1.8-0.2,2.7-0.4c-0.4,0-0.8,0.1-1.2,0c2.4,5.7,4.7,11.4,7.1,17.1c2.3-2,4.2-5,5-7.9c1.4-5.1-0.6-10.8-5.2-13.5
			c-3.2-1.9-6.6-1.9-10.2-1.9c-2.4,0-4.8,0-7.2,0c-5.2,0-10.2,4.6-10,10s4.4,10,10,10c3.7,0,7.3-0.2,11,0c-0.9-0.1-1.8-0.2-2.7-0.4
			c0.3,0,0.5,0.1,0.8,0.2c-0.8-0.3-1.6-0.7-2.4-1c0.2,0.1,0.4,0.2,0.6,0.4c-0.7-0.5-1.3-1-2-1.6c0.1,0.1,0.3,0.2,0.4,0.4
			c-0.5-0.7-1-1.4-1.6-2c0,0.1,0.1,0.1,0.1,0.2c-0.3-0.8-0.7-1.6-1-2.4c0.1,0.2,0.1,0.3,0.2,0.5c-0.1-0.9-0.2-1.8-0.4-2.7
			c0,0.3,0,0.5,0,0.8c0.1-0.9,0.2-1.8,0.4-2.7c-0.1,0.3-0.2,0.6-0.3,0.9c0.3-0.8,0.7-1.6,1-2.4c-0.3,0.6-0.6,1.2-1,1.7
			c0.5-0.7,1-1.3,1.6-2c-0.4,0.4-0.7,0.8-1.2,1.2c-1.2,1-2.2,2.9-2.6,4.4c-0.6,2.2-0.4,4.5,0.5,6.5c1.6,3.7,5.1,6.1,9.1,6.1
			c3.8,0.1,7.5-1.2,10.8-3c2-1.1,3.9-2.5,6-3.4c-0.8,0.3-1.6,0.7-2.4,1c0.9-0.4,1.8-0.6,2.8-0.8c-0.9,0.1-1.8,0.2-2.7,0.4
			c0.7-0.1,1.3-0.1,2,0c-0.9-0.1-1.8-0.2-2.7-0.4c0.5,0.1,1,0.2,1.5,0.4c-0.8-0.3-1.6-0.7-2.4-1c0.5,0.2,0.9,0.5,1.4,0.8
			c-0.7-0.5-1.3-1-2-1.6c1.8,1.5,3.3,3.2,5.4,4.3c2.8,1.5,5.3,2.1,8.5,2.4c1.5,0.2,3,0.1,4.5,0c2.2-0.2,4.4-0.4,6.5-1
			c5.9-1.7,11-6.4,11.1-12.9c0.1-3.6-1.5-7-4-9.6c-1-1-2.1-1.7-3-2.8c0.5,0.7,1,1.3,1.6,2c-0.3-0.5-0.6-1-0.9-1.6
			c0.3,0.8,0.7,1.6,1,2.4c-0.2-0.6-0.4-1.1-0.5-1.7c0.1,0.9,0.2,1.8,0.4,2.7c-0.1-0.7-0.1-1.4,0-2.1c-0.1,0.9-0.2,1.8-0.4,2.7
			c0.1-0.6,0.2-1.2,0.5-1.7c1.2-3-0.1-7.7-2.6-9.7c-1.8-1.5-3.3-2.6-5.6-3.2c-2.2-0.6-4.7-0.5-6.8,0.2c-2.3,0.7-4.3,2-6.5,2.9
			c0.8-0.3,1.6-0.7,2.4-1c-0.6,0.3-1.2,0.5-1.9,0.6c0.9-0.1,1.8-0.2,2.7-0.4c-0.4,0-0.7,0-1.1,0c0.9,0.1,1.8,0.2,2.7,0.4
			c-0.4-0.1-0.7-0.2-1-0.3c0.8,0.3,1.6,0.7,2.4,1c-0.6-0.2-1.1-0.6-1.6-0.9c0.7,0.5,1.3,1,2,1.6c-0.6-0.5-1.2-1-1.7-1.6
			c0.5,0.7,1,1.3,1.6,2c-1-1.4-1.8-2.9-2.5-4.5c-1.1-2.2-2.5-4.2-4.2-6c-3.2,5.6-6.5,11.1-9.7,16.7c0.6,0.1,1.1,0.3,1.7,0.5
			c-0.8-0.3-1.6-0.7-2.4-1c1,0.4,1.8,0.9,2.7,1.6c-0.7-0.5-1.3-1-2-1.6c0.8,0.7,1.5,1.4,2.2,2.2c-0.5-0.7-1-1.3-1.6-2
			c0.7,0.9,1.3,1.9,1.8,3c-0.3-0.8-0.7-1.6-1-2.4c0.4,1,0.7,2,0.8,3c-0.1-0.9-0.2-1.8-0.4-2.7c0.1,0.9,0.1,1.8,0,2.8
			c6.5-0.9,13.1-1.8,19.6-2.7c-1.1-3.1-2.4-6-4.4-8.6c-2.5-3.3-5-5.8-8.4-8.2c-2.9-2-7.2-1.7-10.1,0c-3.1,1.8-4.9,5.1-5,8.6
			c0,2.8,0.2,5.7-0.1,8.5c0.1-0.9,0.2-1.8,0.4-2.7c0,0.3-0.1,0.5-0.2,0.7c0.3-0.8,0.7-1.6,1-2.4c-0.1,0.2-0.2,0.4-0.3,0.6
			c0.5-0.7,1-1.3,1.6-2c-0.1,0.1-0.2,0.3-0.4,0.4c0.7-0.5,1.3-1,2-1.6c-0.2,0.1-0.3,0.2-0.5,0.2c0.8-0.3,1.6-0.7,2.4-1
			c-0.2,0.1-0.3,0.1-0.5,0.1c0.9-0.1,1.8-0.2,2.7-0.4c-0.3,0-0.6,0-0.9,0c0.9,0.1,1.8,0.2,2.7,0.4c-0.4-0.1-0.8-0.2-1.2-0.3
			c0.8,0.3,1.6,0.7,2.4,1c-0.4-0.2-0.7-0.4-1-0.6c0.7,0.5,1.3,1,2,1.6c-0.4-0.3-0.7-0.7-1-1.1c0.5,0.7,1,1.3,1.6,2
			c-0.6-0.9-1.1-1.8-1.7-2.7c-1.5-2.2-2.9-3.7-5-5.2c-3.9-2.8-9.8-3.2-13.9-0.7c-4.8,2.9-7.2,8.7-5.7,14.2c0.9,3.2,2.9,6.3,5.5,8.5
			c2.1,1.7,4.3,2.9,7.1,2.9c2.5,0,5.4-1.1,7.1-2.9c1.8-1.9,3-4.4,2.9-7.1C577.5,117.5,576.7,114.7,574.7,113L574.7,113z"/>
	</g>
</g>
<g>
	<g>
		<path class="st45" d="M590.9,135.7c5.2,0,10.2-4.6,10-10c-0.2-5.4-4.4-10-10-10c-5.2,0-10.2,4.6-10,10
			C581.2,131.1,585.3,135.7,590.9,135.7L590.9,135.7z"/>
	</g>
</g>
<g>
	<g>
		<path class="st45" d="M604.1,133.9c5.2,0,10.2-4.6,10-10c-0.2-5.4-4.4-10-10-10c-5.2,0-10.2,4.6-10,10
			C594.3,129.4,598.5,133.9,604.1,133.9L604.1,133.9z"/>
	</g>
</g>
<g>
	<g>
		<path class="st45" d="M600.6,122.6c5.2,0,10.2-4.6,10-10s-4.4-10-10-10c-5.2,0-10.2,4.6-10,10S595,122.6,600.6,122.6L600.6,122.6z
			"/>
	</g>
</g>
<g>
	<g>
		<path class="st45" d="M757.2,32.9c-3.5-1.9-7.6-3.6-11.5-1.8c-3.1,1.4-5.3,5.1-4,8.5c0.8-1,1.6-2.1,2.4-3.2
			c-2.8,0.3-5-1.9-7.4-3.1c-2.4-1.2-5.4-2-8-0.9c-3,1.2-4.1,4.2-4,7.2c0,1.2,0.3,2.5,0.1,3.6c-0.2,1-0.6,1.2-1.5,1.6
			c-1.9,1-4.4,1.5-5.9,3.3c-2,2.3-2,5.7-0.3,8.2c1.8,2.8,4.9,4,8.1,4.3c3.1,0.4,6.5,0.7,9.5-0.7c2.1-1,3.8-3.2,5.7-3.9
			c0.7-0.3,1.1-0.1,1.6,0.4c0.6,0.6,1.1,1.7,1.6,2.6c1.1,2.2,2.5,4.1,4.8,5.2c2.2,1,4.8,1.2,7.1,0.6s4.4-2.1,5.7-4.1
			c0.7-1.1,1-2.3,1.3-3.6c0.2-1,0.3-2.4,1-3.2c0.6-0.6,2-0.4,2.9-0.5c1.5-0.1,2.8-0.4,4.1-1.2c2.2-1.4,3.8-3.7,4.3-6.3
			c0.5-3.2-0.7-6.3-3.3-8.2c-2.2-1.6-5.3-2.2-8-1.3c-1.7,0.5-2.9,1.5-4.1,2.7c-0.4,0.4-0.9,1-1.5,1.3c-0.3,0.1-1,0-0.3,0.3
			c0.2,0.1-0.1,0.2,0,0c0,0,0-0.4,0-0.6c0-0.6,0.1-1.2,0.1-1.8c0-1.8-0.6-3.2-2.1-4.2c-2.7-1.8-5.2,2.5-2.5,4.3
			c-0.8-0.5-0.2-0.6-0.3-0.3c0,0,0-0.8,0,0.2c0,0.5-0.1,1-0.1,1.5c-0.1,1.2,0.1,2.5,0.7,3.5c1.5,2.6,5,2.8,7.4,1.3
			c1.1-0.7,2-1.7,2.9-2.6c0.7-0.6,1.4-0.9,2-1c1.5-0.1,3.2,0.5,4,1.9c0.7,1.3,0.3,2.9-0.6,4c-1.5,1.8-3.5,1.3-5.7,1.7
			c-2.9,0.5-4.5,2.8-5.2,5.4c-0.3,1.1-0.5,2.2-0.8,3.3c-0.2,0.6-0.5,1.1-1.2,1.7c-1,0.8-2.7,1.2-4.2,1c-0.3,0-1.2-0.3-1.6-0.6
			c-0.7-0.4-1.1-1-1.6-1.9c-1.1-1.9-1.9-4-3.7-5.4c-2-1.6-4.6-1.8-7-0.6c-2,1-3.5,2.8-5.5,3.8c-1.1,0.5-2.3,0.5-3.5,0.4
			c-1.3,0-2.6-0.1-3.9-0.3c-1.8-0.3-4.3-1.3-4.2-3.4c0-0.6,0.3-0.9,0.7-1.1c0.9-0.6,1.7-0.8,2.7-1.2c2.5-1,4.8-2.5,5.5-5.3
			c0.3-1.4,0.2-2.8,0.1-4.2c-0.1-0.8-0.3-2.1,0.2-2.8c0.4-0.6,1.2-0.6,1.9-0.6c1.2,0.1,2.2,0.7,3.2,1.3c2.7,1.7,5.6,3.7,9,3.3
			c1.4-0.2,3.1-1.5,2.4-3.2c-0.5-1.2,0.4-2.4,1.8-2.8c2.1-0.7,4.6,0.8,6.4,1.8C757.5,38.8,760,34.4,757.2,32.9L757.2,32.9z"/>
	</g>
</g>
<g>
	<g>
		<path class="st45" d="M727.3,61.2c1.4,0,2.8,0.1,4.2,0.1c-0.9-6.5-1.8-13.1-2.7-19.6c-3.2,0.8-6.5,1.6-9.7,2.4
			c-7,1.7-10,11.8-4.4,16.7c3,2.6,6.6,4.3,10.6,4c4-0.3,7.7-1.8,10.6-4.6c2.3-2.3,4.1-5.6,4.8-8.8c0.6-2.7,0.6-5.4,0.8-8.1
			c-0.1,0.9-0.2,1.8-0.4,2.7c0.1-0.5,0.2-1,0.4-1.5c-0.3,0.8-0.7,1.6-1,2.4c0.1-0.2,0.2-0.5,0.4-0.7c-0.5,0.7-1,1.3-1.6,2
			c0.2-0.3,0.4-0.5,0.7-0.7c-0.7,0.5-1.3,1-2,1.6c0.3-0.2,0.6-0.3,0.9-0.5c-0.8,0.3-1.6,0.7-2.4,1c0.4-0.2,0.9-0.3,1.3-0.3
			c-0.9,0.1-1.8,0.2-2.7,0.4c0.7-0.1,1.4,0,2.1,0c-0.9-0.1-1.8-0.2-2.7-0.4c0.8,0.1,1.6,0.4,2.4,0.7c-0.8-0.3-1.6-0.7-2.4-1
			c0.9,0.4,1.7,0.9,2.5,1.4c-0.7-0.5-1.3-1-2-1.6c0.8,0.6,1.4,1.3,2,2c-0.5-0.7-1-1.3-1.6-2c0.5,0.7,0.9,1.4,1.3,2.2
			c-0.3-0.8-0.7-1.6-1-2.4c0,0.1,0.1,0.2,0.1,0.3c0.7,1.6,1.3,3.2,2.6,4.4c1.6,1.6,3.6,2.5,5.7,2.8c4,0.5,7.8-1.3,10-4.8
			c2.6-4.2,4-9,5.1-13.7c-6.5-0.9-13.1-1.8-19.6-2.7c0.1,8.3-1.2,19.2,7.4,23.9c5.8,3.1,11.8,1,17.2-1.6c3.4-1.6,6.5-4,9.3-6.5
			c-5.2-4-10.5-8.1-15.7-12.1c-0.5,0.8-1,1.6-1.5,2.3c0.5-0.7,1-1.3,1.6-2c-1.7,2.2-3.8,4.1-6,5.8c0.7-0.5,1.3-1,2-1.6
			c-2.3,1.8-4.8,3.8-7.5,5c0.8-0.3,1.6-0.7,2.4-1c-0.5,0.2-1,0.4-1.6,0.5c0.9-0.1,1.8-0.2,2.7-0.4c-0.4,0-0.8,0.1-1.2,0
			c0.9,0.1,1.8,0.2,2.7,0.4c-0.5-0.1-1-0.2-1.4-0.4c0.8,0.3,1.6,0.7,2.4,1c-0.3-0.2-0.7-0.4-1-0.6c0.7,0.5,1.3,1,2,1.6
			c-0.6-0.5-1.2-1-1.6-1.6c0.5,0.7,1,1.3,1.6,2c-1-1.3-1.7-2.7-2.6-4.1c-1.7-2.5-3.6-4.8-6.3-6.3c-3.3-1.8-6.8-2.2-10.5-1.5
			c-3.6,0.6-6.5,3.1-8.4,6.1c-2.8,4.4-1.1,11.2,3.6,13.7c4.9,2.6,10.7,1.1,13.7-3.6c0-0.1,0.1-0.2,0.2-0.3c-0.5,0.7-1,1.3-1.6,2
			c0.2-0.2,0.4-0.4,0.6-0.6c-0.7,0.5-1.3,1-2,1.6c0.2-0.1,0.3-0.2,0.5-0.3c-0.8,0.3-1.6,0.7-2.4,1c0.4-0.2,0.8-0.2,1.2-0.3
			c-0.9,0.1-1.8,0.2-2.7,0.4c0.4,0,0.8,0,1.2,0c-0.9-0.1-1.8-0.2-2.7-0.4c0.4,0.1,0.8,0.2,1.2,0.4c-0.8-0.3-1.6-0.7-2.4-1
			c0.4,0.2,0.8,0.4,1.1,0.7c-0.7-0.5-1.3-1-2-1.6c0.5,0.4,0.9,0.9,1.3,1.4c-0.5-0.7-1-1.3-1.6-2c0.9,1.2,1.6,2.6,2.5,3.9
			c1.7,2.5,3.5,4.5,5.9,6.2c5.3,3.6,12.2,2.7,17.3-0.7c6.4-4.2,12.7-8.9,16.6-15.6c2.5-4.3,1.3-9.9-2.6-12.9
			c-4-3.1-9.4-2.6-13.1,0.8c-0.6,0.6-1.3,1.1-1.9,1.6c0.7-0.5,1.3-1,2-1.6c-2.1,1.6-4.4,3-6.9,4c0.8-0.3,1.6-0.7,2.4-1
			c-1.2,0.5-2.4,0.9-3.6,1.2c0.9-0.1,1.8-0.2,2.7-0.4c-0.4,0-0.8,0-1.2,0c0.9,0.1,1.8,0.2,2.7,0.4c-0.2,0-0.5-0.1-0.7-0.2
			c0.8,0.3,1.6,0.7,2.4,1c-0.2-0.1-0.4-0.2-0.5-0.3c0.7,0.5,1.3,1,2,1.6c-0.2-0.2-0.4-0.4-0.6-0.6c0.5,0.7,1,1.3,1.6,2
			c-0.2-0.3-0.4-0.7-0.6-1.1c0.3,0.8,0.7,1.6,1,2.4c-0.2-0.6-0.4-1.2-0.5-1.9c0.1,0.9,0.2,1.8,0.4,2.7c-0.5-3.7-0.2-7.6-0.2-11.4
			c0-5-3.8-9.2-8.7-9.8c-4.7-0.6-9.8,2.3-11,7.2c-0.7,2.8-1.4,5.6-2.5,8.3c0.3-0.8,0.7-1.6,1-2.4c-0.5,1-1,2.1-1.6,3
			c6.1,0.8,12.2,1.6,18.3,2.4c-1-2.3-1.7-3.9-3.2-5.9c-1.2-1.5-2.3-2.6-3.8-3.8c-3.4-2.6-7.2-3.9-11.5-4.3c-1.8-0.2-3.7,0.1-5.4,0.7
			c-3.2,1.1-5.9,3-7.7,5.9c-2.2,3.6-1.8,7.5-2.3,11.4c0.1-0.9,0.2-1.8,0.4-2.7c-0.2,1-0.4,2-0.8,3c0.3-0.8,0.7-1.6,1-2.4
			c-0.3,0.7-0.7,1.4-1.2,2c0.5-0.7,1-1.3,1.6-2c-0.3,0.4-0.6,0.7-1,1c0.7-0.5,1.3-1,2-1.6c-0.5,0.3-0.9,0.6-1.4,0.8
			c0.8-0.3,1.6-0.7,2.4-1c-0.5,0.2-1,0.3-1.6,0.4c0.9-0.1,1.8-0.2,2.7-0.4c-0.4,0-0.8,0-1.3,0c0.9,0.1,1.8,0.2,2.7,0.4
			c-0.4-0.1-0.8-0.2-1.2-0.3c0.8,0.3,1.6,0.7,2.4,1c-0.3-0.2-0.5-0.3-0.8-0.5c0.7,0.5,1.3,1,2,1.6c-0.1-0.1-0.2-0.1-0.2-0.2
			c-1.5,5.6-2.9,11.1-4.4,16.7c3.2-0.8,6.5-1.6,9.7-2.4c4.8-1.2,7.8-6.2,7.2-11c-0.7-5-4.8-8.5-9.8-8.7c-1.4,0-2.8-0.1-4.2-0.1
			c-5.2-0.1-10.2,4.7-10,10C717.6,56.8,721.7,61.1,727.3,61.2L727.3,61.2z"/>
	</g>
</g>
<g>
	<g>
		<path class="st45" d="M753.6,43.7c5.2,0,10.2-4.6,10-10s-4.4-10-10-10c-5.2,0-10.2,4.6-10,10S748,43.7,753.6,43.7L753.6,43.7z"/>
	</g>
</g>
<g>
	<g>
		<path class="st45" d="M749.2,44.6c5.2,0,10.2-4.6,10-10s-4.4-10-10-10c-5.2,0-10.2,4.6-10,10C739.5,40,743.6,44.6,749.2,44.6
			L749.2,44.6z"/>
	</g>
</g>
<g>
	<g>
		<path class="st45" d="M762.3,64.7c5.2,0,10.2-4.6,10-10s-4.4-10-10-10c-5.2,0-10.2,4.6-10,10C752.6,60.1,756.7,64.7,762.3,64.7
			L762.3,64.7z"/>
	</g>
</g>
<g>
	<g>
		<path class="st45" d="M757.1,52.5c5.2,0,10.2-4.6,10-10s-4.4-10-10-10c-5.2,0-10.2,4.6-10,10S751.5,52.5,757.1,52.5L757.1,52.5z"
			/>
	</g>
</g>
<g>
	<g>
		<path class="st45" d="M258.7,67.5c-2.5-1.9-6.1-3.5-9-1.5c-2.5,1.7-3.7,5-2.9,7.9c0.6-1,1.2-2.1,1.8-3.1c-0.5,0.1-1.5-0.9-1.9-1.2
			c-0.9-0.8-1.8-1.6-2.8-2.1c-2.1-1.1-4.8-1.4-6.7,0.3c-1.9,1.6-2.2,4.2-2,6.6c0.1,1,0.2,2,0.1,3c-0.1,0.8-0.4,1-0.9,1.4
			c-1.7,1.2-3.6,1.8-4.6,3.7c-1.2,2.2-0.9,4.9,0.2,7.1c1.1,2.2,3.4,3.6,5.8,4.1c2.5,0.4,5.5,0.8,7.7-0.8c0.8-0.6,1.5-1.3,2.2-2
			c0.3-0.3,0.6-0.7,1-1c0.1-0.1,0.3-0.3,0.4-0.4c-0.2,0.1,0.2-0.3,0.1-0.1c0.1-0.1,0.5,0,0.1,0H247c-0.1,0.1,0-0.2,0.1,0.1
			c-0.1-0.2,0.1,0.2,0.1,0.2c0.5,0.8,0.8,1.7,1.1,2.6c0.8,2,1.8,3.9,3.8,4.9c1.7,0.9,3.7,1,5.5,0.3c2-0.8,3.5-2.2,4.4-4.1
			c0.5-1.1,0.7-2.2,0.9-3.3c0.1-0.8,0.2-2.1,0.6-2.7c0.3-0.4,1.1-0.2,1.8-0.3c1.2-0.2,2.3-0.7,3.2-1.5c1.6-1.4,2.5-3.5,2.8-5.6
			c0.4-2.6-0.3-5.3-2.1-7.2c-1.6-1.7-4.2-2.5-6.5-1.8c-1.2,0.4-2.2,1.2-3,2.2c-0.4,0.5-0.7,1-1.2,1.5c0,0.1-0.1,0.1-0.1,0.1
			c-0.4,0.3-0.4,0.3,0,0.1c0.2,0.2,1.1,0.5,1,0.6s0-0.4,0-0.2c0-0.2,0-0.6,0-0.8c0-0.5,0.1-1.1,0.1-1.6c0-1.3-0.3-2.6-1.3-3.6
			c-2.4-2.2-5.9,1.3-3.5,3.5c-0.2-0.2-0.1-0.7-0.1-0.1c0,0.4,0,0.8,0,1.3c0,0.9-0.1,1.9,0.2,2.8c0.6,2.4,3.1,3.6,5.4,2.8
			c1.1-0.4,1.9-1.2,2.6-2.1c0.5-0.7,1.1-1.5,1.6-1.8c-0.1,0.1,0.2,0,0.2,0s0.3,0,0.5,0.1c0.4,0.2,0.9,0.6,1.2,1.2
			c0.6,1.2,0.4,2.7-0.1,3.8c-0.2,0.5-0.7,1.1-0.9,1.2c-0.3,0.2-0.1,0.1-0.5,0.2c-0.7,0.1-1.3,0.1-2,0.2c-2.3,0.4-3.6,2.3-4.2,4.5
			c-0.4,1.6-0.4,3.5-1.2,4.9c-0.6,1-1.4,1.3-2.3,1.3c0.4,0-0.4-0.1-0.6-0.2c0.4,0.2-0.5-0.4-0.2-0.2c-0.5-0.4-0.8-1.1-1.1-1.8
			c-0.7-1.7-1.2-3.5-2.5-4.9c-1.5-1.6-3.7-1.9-5.6-1c-1.5,0.8-2.6,2.2-3.8,3.3c-1.1,1.1-3.2,0.8-4.8,0.4c-1.5-0.3-2.5-1.3-2.6-2.9
			c-0.1-1.4,1.2-1.7,2.4-2.4c1.9-1.1,3.4-2.7,3.7-5c0.2-1.2,0.2-2.4,0.1-3.6c-0.1-0.9-0.2-2,0.1-2.9c0.1-0.2,0.3-0.4,0.1-0.2
			c0,0.1-0.1,0-0.1,0c0.2-0.1,0.3,0,0.5,0c0.8,0.2,1.5,0.8,2.1,1.3c2.1,1.8,4.2,3.2,7.1,2.8c1.3-0.2,2.1-1.9,1.8-3.1
			c-0.2-0.9,0.1-2,0.8-2.4c0.9-0.5,2.9,1,3.7,1.6c1.1,0.8,2.8,0.2,3.4-0.9C260.4,69.7,259.8,68.3,258.7,67.5L258.7,67.5z"/>
	</g>
</g>
<g>
	<g>
		<path class="st45" d="M237.6,94.7c1,0,1.9,0.1,2.9,0.1c-0.9-6.6-1.8-13.1-2.7-19.6c-2.2,0.7-4.5,1.5-6.7,2.2c-3.4,1.1-6,3.5-7,7
			c-1,3.6,0.2,7,2.6,9.7c3,3.4,7.9,4.6,12.2,3.6c3.6-0.8,6.5-3.2,8.5-6.2c1.3-2,2.2-4.3,2.6-6.7c0.4-2.6,0.4-5.2,0.7-7.8
			c-0.1,0.9-0.2,1.8-0.4,2.7c0.1-0.4,0.2-0.8,0.3-1.2c-0.3,0.8-0.7,1.6-1,2.4c0.1-0.2,0.2-0.5,0.4-0.7c-0.5,0.7-1,1.3-1.6,2
			c0.1-0.2,0.3-0.3,0.4-0.5c-0.7,0.5-1.4,1-2,1.6c0.3-0.2,0.5-0.3,0.8-0.5c-0.8,0.3-1.6,0.7-2.4,1c0.2-0.1,0.4-0.1,0.6-0.2
			c-0.9,0.1-1.8,0.2-2.7,0.4c0.4-0.1,0.8-0.1,1.2,0c-0.9-0.1-1.8-0.2-2.7-0.4c0.4,0.1,0.8,0.2,1.2,0.3c-0.8-0.3-1.6-0.7-2.4-1
			c0.6,0.3,1.1,0.6,1.7,1c-0.7-0.5-1.4-1-2-1.6c0.5,0.4,1,0.9,1.4,1.5c-0.5-0.7-1-1.3-1.6-2c0.5,0.7,0.9,1.4,1.3,2.2
			c-0.3-0.8-0.7-1.6-1-2.4c0.1,0.4,0.3,0.7,0.4,1.1c1.2,3.8,4.3,6.6,8.3,7.2c1.8,0.2,3.5,0,5.2-0.7c1.8-0.8,3.9-2.2,4.8-4.1
			c2-4.2,3-8.3,3.8-12.8c-6.5-0.9-13.1-1.8-19.6-2.7c0,2.9,0,5.9,0.1,8.9c0.1,4.3,1,8.9,4.2,12.1c2.7,2.7,6.4,3.7,10.1,3.2
			c2.4-0.3,4.6-1.3,6.6-2.5c2.9-1.7,5.6-3.9,7.7-6.5c-5.2-4-10.5-8.1-15.7-12.1c-0.8,1.8-1.8,3.4-3,4.9c0.5-0.7,1-1.3,1.6-2
			c-1.9,2.4-4.3,4.7-6.7,6.7c0.7-0.5,1.4-1,2-1.6c-0.4,0.3-0.9,0.6-1.4,0.8c0.8-0.3,1.6-0.7,2.4-1c-0.2,0.1-0.5,0.2-0.7,0.2
			c0.9-0.1,1.8-0.2,2.7-0.4c-0.2,0-0.5,0.1-0.7,0c0.9,0.1,1.8,0.2,2.7,0.4c-0.2,0-0.4-0.1-0.6-0.2c0.8,0.3,1.6,0.7,2.4,1
			c-0.2-0.1-0.4-0.2-0.6-0.3c0.7,0.5,1.4,1,2,1.6c-0.4-0.3-0.7-0.6-1-1c0.5,0.7,1,1.3,1.6,2c-0.9-1.2-1.4-2.6-2.1-3.9
			c-1.1-2.3-2.6-4.3-4.7-5.9c-2.8-2.1-6-3-9.5-2.6c-3.7,0.5-7.3,2.7-9,6.1c-1.2,2.4-1.8,5-1,7.7c0.6,2.3,2.4,4.8,4.6,6
			c2.3,1.2,5.1,1.8,7.7,1c2.4-0.8,4.8-2.3,6-4.6c0.1-0.2,0.2-0.4,0.3-0.6c-0.5,0.7-1,1.3-1.6,2c0.1-0.2,0.2-0.3,0.4-0.4
			c-0.7,0.5-1.4,1-2,1.6c0.1-0.1,0.3-0.2,0.5-0.3c-0.8,0.3-1.6,0.7-2.4,1c0.2-0.1,0.3-0.1,0.5-0.1c-0.9,0.1-1.8,0.2-2.7,0.4
			c0.3,0,0.5,0,0.8,0c-0.9-0.1-1.8-0.2-2.7-0.4c0.2,0,0.4,0.1,0.5,0.2c-0.8-0.3-1.6-0.7-2.4-1c0.3,0.1,0.5,0.3,0.7,0.4
			c-0.7-0.5-1.4-1-2-1.6c0.3,0.2,0.5,0.5,0.7,0.7c-0.5-0.7-1-1.3-1.6-2c0.8,1.1,1.3,2.3,1.9,3.5c0.9,1.9,1.9,3.6,3.4,5.1
			c4.3,4.7,11.7,5.6,16.9,1.7c5.3-3.9,10.6-9.1,13.2-15.2c1.1-2.4,1.9-5,1-7.7c-0.7-2.1-1.8-3.8-3.6-5.2c-3.6-2.8-9.9-3.1-13.1,0.8
			c-1.1,1.3-2.3,2.5-3.7,3.6c0.7-0.5,1.4-1,2-1.6c-1.2,0.9-2.4,1.7-3.8,2.3c0.8-0.3,1.6-0.7,2.4-1c-0.4,0.2-0.7,0.3-1.1,0.4
			c0.9-0.1,1.8-0.2,2.7-0.4c-0.3,0.1-0.5,0.1-0.8,0c0.9,0.1,1.8,0.2,2.7,0.4c-0.1,0-0.2-0.1-0.4-0.1c0.8,0.3,1.6,0.7,2.4,1
			c-0.2-0.1-0.3-0.2-0.5-0.3c0.7,0.5,1.4,1,2,1.6c-0.1-0.1-0.3-0.2-0.4-0.4c0.5,0.7,1,1.3,1.6,2c-0.2-0.2-0.3-0.5-0.4-0.8
			c0.3,0.8,0.7,1.6,1,2.4c-0.2-0.6-0.4-1.3-0.5-2c0.1,0.9,0.2,1.8,0.4,2.7c-0.4-3.6-0.2-7.2-0.2-10.8c0-5-3.8-9.2-8.7-9.8
			c-2.1-0.3-4.5,0-6.4,1.2c-2.1,1.3-4.1,3.5-4.6,6c-0.6,3.3-1.2,6.6-2.5,9.7c0.3-0.8,0.7-1.6,1-2.4c-0.1,0.3-0.2,0.5-0.4,0.8
			c6.1,0.8,12.2,1.6,18.3,2.4c-2.3-7.2-8.1-13.3-15.9-13.5c-4.8-0.2-9.6,2.5-11.8,6.8c-1.8,3.5-1.5,7.2-1.9,11
			c0.1-0.9,0.2-1.8,0.4-2.7c-0.1,1.1-0.4,2.2-0.8,3.2c0.3-0.8,0.7-1.6,1-2.4c-0.3,0.6-0.6,1.1-0.9,1.7c0.5-0.7,1-1.3,1.6-2
			c-0.2,0.3-0.5,0.5-0.7,0.7c0.7-0.5,1.4-1,2-1.6c-0.3,0.2-0.5,0.4-0.8,0.5c0.8-0.3,1.6-0.7,2.4-1c-0.3,0.1-0.6,0.2-0.9,0.3
			c0.9-0.1,1.8-0.2,2.7-0.4c-0.3,0-0.6,0-0.9,0c0.9,0.1,1.8,0.2,2.7,0.4c-0.2,0-0.4-0.1-0.6-0.2c0.8,0.3,1.6,0.7,2.4,1
			c-0.2-0.1-0.4-0.2-0.5-0.3c0.7,0.5,1.4,1,2,1.6c-0.2-0.1-0.3-0.3-0.5-0.5c-1.5,5.6-2.9,11.1-4.4,16.7c2.2-0.7,4.5-1.5,6.7-2.2
			c4.8-1.6,7.8-5.9,7.2-11c-0.7-5-4.8-8.5-9.8-8.7c-1,0-1.9-0.1-2.9-0.1c-5.2-0.2-10.2,4.7-10,10C227.9,90.2,232,94.5,237.6,94.7
			L237.6,94.7z"/>
	</g>
</g>
<g>
	<g>
		<path class="st45" d="M255.8,78.4c5.2,0,10.2-4.6,10-10s-4.4-10-10-10c-5.2,0-10.2,4.6-10,10C246.1,73.9,250.2,78.4,255.8,78.4
			L255.8,78.4z"/>
	</g>
</g>
<g>
	<g>
		<path class="st45" d="M252.8,79.2c5.2,0,10.2-4.6,10-10s-4.4-10-10-10c-5.2,0-10.2,4.6-10,10C243,74.7,247.2,79.2,252.8,79.2
			L252.8,79.2z"/>
	</g>
</g>
<g>
	<g>
		<path class="st45" d="M261.9,97.9c5.2,0,10.2-4.6,10-10s-4.4-10-10-10c-5.2,0-10.2,4.6-10,10C252.1,93.3,256.3,97.9,261.9,97.9
			L261.9,97.9z"/>
	</g>
</g>
<g>
	<g>
		<path class="st45" d="M258.3,86.6c5.2,0,10.2-4.6,10-10s-4.4-10-10-10c-5.2,0-10.2,4.6-10,10C248.5,82,252.7,86.6,258.3,86.6
			L258.3,86.6z"/>
	</g>
</g>
<g>
	<g>
		<path class="st45" d="M709.4,231.8c-2.5-1.9-6.1-3.5-9-1.5c-2.5,1.7-3.7,5-2.9,7.9c0.6-1,1.2-2.1,1.8-3.1
			c-0.5,0.1-1.5-0.9-1.9-1.2c-0.9-0.8-1.8-1.6-2.8-2.1c-2.1-1.1-4.8-1.4-6.7,0.3c-1.9,1.6-2.2,4.2-2,6.6c0,1,0.2,2,0,3
			c-0.1,0.8-0.4,1-0.9,1.4c-1.7,1.1-3.5,1.8-4.6,3.7c-1.2,2.2-0.9,4.9,0.2,7.1c1.2,2.2,3.3,3.6,5.8,4.1c2.5,0.4,5.5,0.8,7.7-0.8
			c0.8-0.6,1.5-1.3,2.2-2c0.3-0.3,0.7-0.7,1-1c0.1-0.1,0.3-0.3,0.5-0.4c-0.2,0.1,0.2-0.3,0-0.1c0-0.1,0.5,0,0.1,0h-0.3
			c-0.1,0.1,0-0.2,0.1,0.1c-0.1-0.2,0.1,0.2,0.1,0.2c0.5,0.8,0.8,1.7,1.2,2.6c0.8,2,1.8,3.9,3.8,5c1.7,0.9,3.7,1,5.5,0.3
			c2-0.8,3.5-2.2,4.4-4.1c0.5-1.1,0.7-2.2,0.9-3.3c0.1-0.8,0.2-2.1,0.6-2.7c0.3-0.4,1.2-0.2,1.8-0.3c1.2-0.2,2.3-0.6,3.2-1.5
			c1.6-1.4,2.5-3.5,2.8-5.6c0.3-2.6-0.3-5.3-2.1-7.2c-1.7-1.7-4.2-2.5-6.5-1.8c-1.2,0.4-2.2,1.2-3,2.2c-0.4,0.5-0.7,1-1.2,1.5
			c0,0.1-0.1,0.1-0.1,0.1c-0.4,0.3-0.3,0.3,0,0.1c0.2,0.2,1.1,0.5,1,0.6s0-0.4,0-0.2c0-0.2,0-0.6,0-0.8c0-0.5,0.1-1.1,0.1-1.6
			c0-1.3-0.3-2.6-1.3-3.6c-2.4-2.2-5.9,1.3-3.5,3.5c-0.2-0.2-0.1-0.7-0.1-0.1c0,0.4,0,0.8,0,1.3c0,0.9,0,1.9,0.2,2.8
			c0.6,2.4,3.1,3.6,5.4,2.8c1.1-0.4,1.9-1.2,2.6-2.1c0.5-0.7,1.1-1.5,1.7-1.8c-0.1,0.1,0.2,0,0.2,0s0.3,0,0.5,0.1
			c0.4,0.2,0.9,0.6,1.2,1.2c0.6,1.2,0.4,2.7-0.1,3.8c-0.2,0.5-0.7,1.1-0.9,1.2c-0.3,0.2-0.1,0.1-0.5,0.1c-0.7,0.1-1.3,0.1-2,0.2
			c-2.3,0.4-3.6,2.4-4.2,4.5c-0.4,1.6-0.3,3.5-1.2,4.9c-0.6,1-1.4,1.3-2.3,1.3c0.4,0-0.4-0.1-0.6-0.2c0.4,0.2-0.5-0.4-0.2-0.2
			c-0.5-0.4-0.8-1.1-1.1-1.8c-0.7-1.7-1.2-3.5-2.5-4.9c-1.5-1.6-3.7-1.9-5.6-1c-1.5,0.8-2.6,2.2-3.8,3.3c-1.1,1.1-3.2,0.8-4.8,0.4
			c-1.5-0.4-2.5-1.3-2.5-2.9c-0.1-1.4,1.2-1.7,2.4-2.4c2-1.1,3.4-2.7,3.7-5c0.2-1.2,0.2-2.4,0.1-3.6c0-0.9-0.2-2,0.1-2.9
			c0.1-0.2,0.3-0.4,0.1-0.2c0,0.1-0.1,0-0.2,0c0.2-0.1,0.3,0,0.5,0c0.8,0.2,1.5,0.8,2.1,1.3c2.2,1.8,4.2,3.2,7.1,2.8
			c1.3-0.2,2.1-1.9,1.8-3.1c-0.2-0.9,0.1-2,0.8-2.4c0.9-0.5,2.9,1,3.7,1.6c1.1,0.8,2.8,0.2,3.4-0.9
			C711,233.9,710.5,232.6,709.4,231.8L709.4,231.8z"/>
	</g>
</g>
<g>
	<g>
		<path class="st45" d="M688.3,258.9c1,0,2,0.1,2.9,0.1c-0.9-6.6-1.8-13.1-2.7-19.6c-2.2,0.7-4.5,1.5-6.7,2.2c-3.4,1.1-6,3.5-7,7
			c-1,3.6,0.2,7,2.6,9.7c3,3.4,7.9,4.6,12.2,3.6c3.6-0.8,6.5-3.2,8.5-6.2c1.3-2,2.2-4.4,2.5-6.7c0.4-2.6,0.4-5.2,0.7-7.8
			c-0.1,0.9-0.2,1.8-0.4,2.7c0.1-0.4,0.2-0.8,0.3-1.2c-0.3,0.8-0.7,1.6-1,2.4c0.1-0.2,0.2-0.5,0.3-0.7c-0.5,0.7-1,1.4-1.6,2
			c0.1-0.2,0.3-0.4,0.5-0.5c-0.7,0.5-1.3,1-2,1.6c0.3-0.2,0.5-0.3,0.8-0.5c-0.8,0.3-1.6,0.7-2.4,1c0.2-0.1,0.4-0.1,0.6-0.2
			c-0.9,0.1-1.8,0.2-2.7,0.4c0.4-0.1,0.8-0.1,1.2,0c-0.9-0.1-1.8-0.2-2.7-0.4c0.4,0.1,0.8,0.2,1.2,0.3c-0.8-0.3-1.6-0.7-2.4-1
			c0.6,0.3,1.2,0.6,1.7,1c-0.7-0.5-1.3-1-2-1.6c0.5,0.4,1,0.9,1.5,1.5c-0.5-0.7-1-1.4-1.6-2c0.5,0.7,0.9,1.4,1.3,2.2
			c-0.3-0.8-0.7-1.6-1-2.4c0.2,0.4,0.3,0.7,0.4,1.1c1.2,3.8,4.3,6.6,8.3,7.2c1.8,0.2,3.5,0,5.2-0.7c1.8-0.8,3.9-2.2,4.8-4.1
			c2-4.2,3-8.3,3.8-12.8c-6.5-0.9-13.1-1.8-19.6-2.7c0,2.9,0,5.9,0.1,8.9c0.1,4.3,1,8.9,4.2,12.1c2.7,2.7,6.4,3.7,10.1,3.2
			c2.4-0.3,4.6-1.3,6.6-2.5c2.9-1.7,5.6-3.9,7.7-6.5c-5.2-4-10.5-8.1-15.7-12.1c-0.8,1.8-1.8,3.4-3,4.9c0.5-0.7,1-1.4,1.6-2
			c-2,2.4-4.3,4.7-6.7,6.7c0.7-0.5,1.3-1,2-1.6c-0.4,0.3-0.9,0.6-1.3,0.9c0.8-0.3,1.6-0.7,2.4-1c-0.2,0.1-0.5,0.2-0.7,0.2
			c0.9-0.1,1.8-0.2,2.7-0.4c-0.2,0-0.5,0.1-0.7,0c0.9,0.1,1.8,0.2,2.7,0.4c-0.2,0-0.4-0.1-0.6-0.2c0.8,0.3,1.6,0.7,2.4,1
			c-0.2-0.1-0.4-0.2-0.6-0.3c0.7,0.5,1.3,1,2,1.6c-0.4-0.3-0.7-0.6-1-1c0.5,0.7,1,1.4,1.6,2c-0.9-1.2-1.4-2.6-2.1-3.9
			c-1.1-2.3-2.6-4.4-4.7-5.9c-2.8-2.1-6-3-9.5-2.6c-3.7,0.5-7.3,2.7-9,6.1c-1.2,2.4-1.8,5-1,7.7c0.6,2.3,2.4,4.8,4.6,6
			c2.3,1.2,5.1,1.8,7.7,1c2.4-0.8,4.8-2.3,6-4.6c0.1-0.2,0.2-0.4,0.3-0.6c-0.5,0.7-1,1.4-1.6,2c0.1-0.1,0.2-0.3,0.4-0.4
			c-0.7,0.5-1.3,1-2,1.6c0.1-0.1,0.3-0.2,0.5-0.3c-0.8,0.3-1.6,0.7-2.4,1c0.2-0.1,0.3-0.1,0.5-0.1c-0.9,0.1-1.8,0.2-2.7,0.4
			c0.3,0,0.5,0,0.8,0c-0.9-0.1-1.8-0.2-2.7-0.4c0.2,0,0.4,0.1,0.5,0.1c-0.8-0.3-1.6-0.7-2.4-1c0.3,0.1,0.5,0.3,0.7,0.4
			c-0.7-0.5-1.3-1-2-1.6c0.3,0.2,0.5,0.5,0.7,0.7c-0.5-0.7-1-1.4-1.6-2c0.8,1.1,1.3,2.3,1.9,3.5c0.9,1.9,1.9,3.6,3.3,5.1
			c4.3,4.7,11.7,5.6,16.9,1.7c5.3-3.9,10.6-9.1,13.2-15.2c1.1-2.4,1.9-5,1-7.7c-0.7-2.1-1.8-3.8-3.6-5.2c-3.6-2.8-9.9-3.1-13.1,0.8
			c-1.1,1.3-2.3,2.5-3.7,3.6c0.7-0.5,1.3-1,2-1.6c-1.2,0.9-2.5,1.7-3.8,2.3c0.8-0.3,1.6-0.7,2.4-1c-0.4,0.2-0.7,0.3-1.2,0.4
			c0.9-0.1,1.8-0.2,2.7-0.4c-0.3,0.1-0.5,0.1-0.8,0c0.9,0.1,1.8,0.2,2.7,0.4c-0.1,0-0.2-0.1-0.4-0.1c0.8,0.3,1.6,0.7,2.4,1
			c-0.2-0.1-0.3-0.2-0.5-0.3c0.7,0.5,1.3,1,2,1.6c-0.1-0.1-0.3-0.2-0.4-0.4c0.5,0.7,1,1.4,1.6,2c-0.2-0.2-0.3-0.5-0.4-0.8
			c0.3,0.8,0.7,1.6,1,2.4c-0.2-0.6-0.4-1.3-0.5-2c0.1,0.9,0.2,1.8,0.4,2.7c-0.4-3.6-0.2-7.2-0.2-10.8c0-5-3.8-9.2-8.7-9.8
			c-2.1-0.3-4.5,0-6.4,1.2c-2.1,1.3-4.2,3.4-4.6,6c-0.6,3.3-1.2,6.6-2.5,9.7c0.3-0.8,0.7-1.6,1-2.4c-0.1,0.3-0.2,0.5-0.3,0.8
			c6.1,0.8,12.2,1.6,18.3,2.4c-2.3-7.1-8.1-13.3-16-13.5c-4.8-0.2-9.5,2.5-11.8,6.8c-1.8,3.5-1.5,7.2-1.9,11
			c0.1-0.9,0.2-1.8,0.4-2.7c-0.2,1.1-0.4,2.2-0.8,3.2c0.3-0.8,0.7-1.6,1-2.4c-0.3,0.6-0.5,1.1-0.9,1.7c0.5-0.7,1-1.4,1.6-2
			c-0.2,0.3-0.5,0.5-0.7,0.7c0.7-0.5,1.3-1,2-1.6c-0.3,0.2-0.5,0.4-0.8,0.5c0.8-0.3,1.6-0.7,2.4-1c-0.3,0.1-0.6,0.2-0.9,0.3
			c0.9-0.1,1.8-0.2,2.7-0.4c-0.3,0-0.6,0-0.9,0c0.9,0.1,1.8,0.2,2.7,0.4c-0.2,0-0.4-0.1-0.6-0.2c0.8,0.3,1.6,0.7,2.4,1
			c-0.2-0.1-0.4-0.2-0.5-0.3c0.7,0.5,1.3,1,2,1.6c-0.2-0.1-0.3-0.3-0.5-0.5c-1.5,5.6-2.9,11.1-4.4,16.7c2.2-0.7,4.5-1.5,6.7-2.2
			c4.8-1.6,7.8-5.9,7.2-11c-0.7-5-4.8-8.5-9.8-8.7c-1,0-2-0.1-2.9-0.1c-5.2-0.2-10.2,4.7-10,10C678.5,254.5,682.7,258.7,688.3,258.9
			L688.3,258.9z"/>
	</g>
</g>
<g>
	<g>
		<path class="st45" d="M706.5,242.7c5.2,0,10.2-4.6,10-10s-4.4-10-10-10c-5.2,0-10.2,4.6-10,10
			C696.7,238.1,700.9,242.7,706.5,242.7L706.5,242.7z"/>
	</g>
</g>
<g>
	<g>
		<path class="st45" d="M703.5,243.5c5.2,0,10.2-4.6,10-10s-4.4-10-10-10c-5.2,0-10.2,4.6-10,10S697.9,243.5,703.5,243.5
			L703.5,243.5z"/>
	</g>
</g>
<g>
	<g>
		<path class="st45" d="M712.6,262.1c5.2,0,10.2-4.6,10-10s-4.4-10-10-10c-5.2,0-10.2,4.6-10,10C702.8,257.6,707,262.1,712.6,262.1
			L712.6,262.1z"/>
	</g>
</g>
<g>
	<g>
		<path class="st45" d="M708.9,250.8c5.2,0,10.2-4.6,10-10s-4.4-10-10-10c-5.2,0-10.2,4.6-10,10
			C699.2,246.2,703.3,250.8,708.9,250.8L708.9,250.8z"/>
	</g>
</g>
</svg>
