<?xml version="1.0" encoding="utf-8"?>
<!-- Generator: Adobe Illustrator 26.5.2, SVG Export Plug-In . SVG Version: 6.00 Build 0)  -->
<svg version="1.1" id="Layer_1" xmlns="http://www.w3.org/2000/svg" xmlns:xlink="http://www.w3.org/1999/xlink" x="0px" y="0px"
	 viewBox="0 0 137.47 102.5" style="enable-background:new 0 0 137.47 102.5;" xml:space="preserve">
<style type="text/css">
	.st0{fill:#030304;}
</style>
<g>
	<path class="st0" d="M107.2,43.04c-2.25,0-4.43,0.21-6.52,0.73l-8.33-22.39h2.71c4.27,0,8.31-1.57,11.38-4.55l2.87-2.76
		c1.31-1.27,1.34-3.34,0.07-4.64c-1.27-1.3-3.35-1.33-4.66-0.06l-2.87,2.73c-1.83,1.77-4.24,2.69-6.78,2.69h-7.46
		c-1.08,0-2.09,0.6-2.71,1.48c-0.62,0.89-0.76,2.05-0.38,3.06l3.17,8.51c-0.02,0-0.04,0.06-0.06,0.06c-0.01,0-0.01,0.06-0.02,0.06
		H45.44l-5.7-9.6l6.19-2.15c1.52-0.52,2.44-2,2.18-3.59c-0.27-1.59-1.64-2.68-3.25-2.68H26.75c-2.54,0-4.6,1.98-4.6,4.52
		c0,3.93,3.19,7.08,7.12,7.08c0.79,0,1.57-0.15,2.32-0.41l1.8-0.63l5.78,9.67l-4.44,13.31c-1.46-0.29-2.95-0.48-4.48-0.53
		c-7.73-0.25-14.96,2.7-20.31,8.22c-5.14,5.31-7.84,12.3-7.6,19.7c0.45,14.21,11.94,25.69,26.15,26.15c0.3,0.01,0.59,0.01,0.88,0.01
		c7.39,0,14.29-2.95,19.43-8.26c4.16-4.29,6.72-9.83,7.42-15.55h5.3c1.14,0.88,2.62,1.6,4.24,1.6c3.6,0,6.53-2.92,6.53-6.52
		c0-1.17-0.31-2.26-0.85-3.21l18.47-31.33l4.64,12.43c-8.54,4.55-14.37,13.55-14.37,23.88c0,14.91,12.13,27.05,27.04,27.05
		s27.04-12.13,27.04-27.04C134.24,55.18,122.11,43.04,107.2,43.04z M81.83,34.57L65.75,61.85c-0.01,0-0.01-0.03-0.02-0.03
		c-0.02,0-0.04,0.04-0.06,0.04l-16.32-27.3L81.83,34.57L81.83,34.57z M43.61,37.65l16.42,27.47c-0.27,0.48-0.48,1.09-0.62,1.53
		h-3.22c-1.14-9.23-7.06-17.19-15.23-21.09L43.61,37.65z M35.02,66.65c-0.22-0.44-0.48-0.67-0.76-0.98l3.9-11.7
		c4.71,2.6,8.16,7.41,9.15,12.68L35.02,66.65L35.02,66.65z M42.47,82.67c-3.61,3.73-8.49,5.73-13.72,5.56
		c-9.59-0.31-17.34-8.05-17.65-17.64c-0.16-5,1.66-9.72,5.13-13.3s8.13-5.56,13.11-5.56c0.2,0,0.4,0,0.6,0.01
		c0.66,0.02,1.31,0.08,1.95,0.17l-3.94,11.82c-2.89,0.68-5.04,3.26-5.04,6.35c0,3.6,2.93,6.5,6.53,6.5c2.44,0,4.57-1.16,5.69-3.36
		H47.3C46.68,76.75,45.02,80.04,42.47,82.67z M107.2,88.34c-10.07,0-18.26-8.19-18.26-18.26c0-6.56,3.48-12.32,8.69-15.54l6.19,16.6
		c0.49,1.33,1.75,2.14,3.09,2.14c0.38,0,0.77-0.07,1.15-0.21c1.71-0.64,2.57-2.53,1.94-4.24l-6.23-16.69
		c1.11-0.21,2.25-0.33,3.42-0.33c10.07,0,18.26,8.19,18.26,18.26S117.27,88.34,107.2,88.34z"/>
</g>
</svg>
