<?xml version="1.0" encoding="utf-8"?>
<!-- Generator: Adobe Illustrator 26.5.2, SVG Export Plug-In . SVG Version: 6.00 Build 0)  -->
<svg version="1.1" xmlns="http://www.w3.org/2000/svg" xmlns:xlink="http://www.w3.org/1999/xlink" x="0px" y="0px"
	 viewBox="0 0 1190.55 841.89" style="enable-background:new 0 0 1190.55 841.89;" xml:space="preserve">
<style type="text/css">
	.st0{fill:#009FE3;}
	.st1{fill:#44AC34;stroke:#000000;stroke-miterlimit:10;}
	.st2{fill:none;stroke:#644F42;stroke-width:11;stroke-miterlimit:10;}
	.st3{fill:#644F42;}
	.st4{fill:#9FC242;}
	.st5{fill:none;stroke:#CEDB73;stroke-width:2;stroke-miterlimit:10;}
	.st6{fill:#DBCBBC;}
	.st7{fill:#FFFFFF;stroke:#000000;stroke-miterlimit:10;}
	.st8{fill:#EAE9E8;stroke:#000000;stroke-miterlimit:10;}
	.st9{fill:none;stroke:#000000;stroke-miterlimit:10;}
	.st10{fill:#BC885D;}
	.st11{fill:#966E4A;}
	.st12{fill:none;stroke:#AEBCD9;stroke-width:4;stroke-miterlimit:10;}
	.st13{fill:#EDEBEB;stroke:#000000;stroke-width:4;stroke-miterlimit:10;}
	.st14{fill:#EDEBEB;stroke:#000000;stroke-miterlimit:10;}
	.st15{fill:#FFFFFF;stroke:#000000;stroke-width:2;stroke-miterlimit:10;}
	.st16{fill:none;stroke:#000000;stroke-width:3;stroke-miterlimit:10;}
	.st17{fill:#EAE9E8;stroke:#000000;stroke-width:4;stroke-miterlimit:10;}
	.st18{fill:#9E9D9D;stroke:#000000;stroke-miterlimit:10;}
	.st19{fill:none;stroke:#4C352B;stroke-width:2;stroke-miterlimit:10;}
	.st20{fill:#83A835;stroke:#000000;stroke-width:2;stroke-miterlimit:10;}
	.st21{fill:#986C55;stroke:#000000;stroke-width:2;stroke-miterlimit:10;}
	.st22{fill:#E95219;stroke:#000000;stroke-width:2;stroke-miterlimit:10;}
	.st23{fill:#986C55;stroke:#000000;stroke-miterlimit:10;}
	.st24{fill:#4C352B;stroke:#000000;stroke-miterlimit:10;}
	.st25{fill:#4C352B;stroke:#000000;stroke-width:0.5;stroke-miterlimit:10;}
	.st26{fill:#6DA7DB;stroke:#000000;stroke-miterlimit:10;}
	.st27{fill:#FDD040;stroke:#000000;stroke-miterlimit:10;}
	.st28{fill:none;stroke:#008D36;stroke-width:2;stroke-miterlimit:10;}
	.st29{fill:#CAC9C9;stroke:#000000;stroke-miterlimit:10;}
	.st30{fill:#FDD040;}
	.st31{fill:none;stroke:#986C55;stroke-width:3;stroke-miterlimit:10;}
	.st32{fill:#668891;stroke:#FFFFFF;stroke-width:5;stroke-miterlimit:10;}
	.st33{fill:#83A835;stroke:#000000;stroke-miterlimit:10;}
	.st34{fill:#83A835;stroke:#000000;stroke-width:0.75;stroke-miterlimit:10;}
	.st35{fill:none;stroke:#000000;stroke-width:2;stroke-miterlimit:10;}
	.st36{fill:#E8E8E6;stroke:#000000;stroke-width:0.75;stroke-miterlimit:10;}
	.st37{fill:none;stroke:#000000;stroke-width:0.5;stroke-miterlimit:10;}
	.st38{stroke:#FFFFFF;stroke-miterlimit:10;}
	.st39{fill:#FFFFFF;stroke:#000000;stroke-width:0.25;stroke-miterlimit:10;}
	.st40{fill:#C6D1E2;}
	.st41{fill:#F3943B;}
	.st42{fill:#EE7110;}
	.st43{fill:#F3943B;stroke:#020203;stroke-miterlimit:10;}
	.st44{fill:none;stroke:#020203;stroke-miterlimit:10;}
	.st45{fill:#D0CCCB;stroke:#020203;stroke-miterlimit:10;}
	.st46{opacity:0.51;fill:none;stroke:#423D39;stroke-miterlimit:10;}
	.st47{fill:#FFFFFF;stroke:#000000;stroke-width:3;stroke-miterlimit:10;}
	.st48{fill:#C6D1E2;stroke:#040304;stroke-miterlimit:10;}
	.st49{fill:#020203;}
	.st50{fill:none;}
	.st51{fill:#44AC34;stroke:#000000;stroke-width:4;stroke-miterlimit:10;}
	.st52{font-family:'ShowcardGothic-Reg';}
	.st53{font-size:72px;}
	.st54{fill:#FFFFFF;}
</style>
<g id="Layer_16">
	<rect class="st0" width="1190.55" height="574.45"/>
	<rect y="574.45" class="st1" width="1195.2" height="267.44"/>
</g>
<g id="Layer_2">
	<line class="st2" x1="130.24" y1="773.56" x2="1035.95" y2="773.56"/>
	<line class="st2" x1="370.53" y1="633.88" x2="216.45" y2="633.16"/>
	<line class="st2" x1="372.69" y1="773.56" x2="372.69" y2="255.88"/>
	<line class="st2" x1="521.73" y1="566.2" x2="523.17" y2="773.56"/>
	<line class="st2" x1="847.1" y1="255.88" x2="846.37" y2="773.56"/>
	<line class="st2" x1="375.39" y1="570.52" x2="843.68" y2="570.52"/>
	<polyline class="st2" points="325.89,281.8 609.57,129.88 893.25,281.8 	"/>
	<polyline class="st2" points="372.69,376.84 634.05,376.84 843.68,376.84 	"/>
	<line class="st2" x1="632.61" y1="570.52" x2="631.05" y2="376.84"/>
	<polygon class="st3" points="441.81,217.72 483.57,194.68 483.57,150.04 441.81,150.04 	"/>
	<line class="st2" x1="221.3" y1="631.2" x2="221.3" y2="777.08"/>
</g>
<g id="Layer_3">
	<polygon class="st4" points="377.73,259.5 377.73,370.36 489.33,370.36 489.33,201.88 	"/>
	<g>
		<polygon class="st4" points="641.93,150.04 641.93,370.36 841.37,370.36 841.37,260.2 		"/>
		<line class="st5" x1="641.93" y1="230.76" x2="789.25" y2="230.76"/>
		<line class="st5" x1="641.93" y1="268.56" x2="841.37" y2="268.56"/>
		<line class="st5" x1="650.29" y1="309.6" x2="837.49" y2="309.6"/>
		<line class="st5" x1="641.93" y1="346.32" x2="841.37" y2="346.32"/>
		<line class="st5" x1="678.76" y1="170.01" x2="678.76" y2="374.4"/>
		<line class="st5" x1="715.59" y1="190.72" x2="715.59" y2="370.44"/>
		<line class="st5" x1="761.67" y1="216.48" x2="761.67" y2="370.44"/>
		<line class="st5" x1="789.25" y1="230.76" x2="789.25" y2="366.48"/>
		<line class="st5" x1="641.93" y1="195.12" x2="715.59" y2="195.12"/>
		<line class="st5" x1="825.49" y1="251.42" x2="825.49" y2="366.48"/>
	</g>
	<line class="st5" x1="425.25" y1="239.02" x2="489.33" y2="239.02"/>
	<line class="st5" x1="377.73" y1="275.91" x2="489.33" y2="275.91"/>
	<line class="st5" x1="377.73" y1="320.61" x2="404.01" y2="320.61"/>
	<line class="st5" x1="473.49" y1="320.61" x2="485.01" y2="320.61"/>
	<line class="st5" x1="377.73" y1="350.92" x2="404.01" y2="350.92"/>
	<line class="st5" x1="470.61" y1="353.8" x2="489.33" y2="353.8"/>
	<line class="st5" x1="462.69" y1="215.63" x2="462.69" y2="286.12"/>
	<line class="st5" x1="425.25" y1="234.97" x2="425.25" y2="286.12"/>
	<polyline class="st6" points="489.33,201.88 489.33,205.84 489.33,370.36 641.53,371.36 641.53,151.04 609.57,135.64 	"/>
	<line class="st5" x1="400.05" y1="250.87" x2="400.05" y2="371.36"/>
	<g>
		<path class="st7" d="M482.33,310.6c0,0-4.32,33.84,38.88,47.52h90.72c0,0,35.28-15.84,36.72-47.52H482.33z"/>
		<path class="st8" d="M483.77,310.6c0,0,99-12.96,163.08,0H483.77z"/>
		<circle class="st8" cx="568.09" cy="299" r="5.84"/>
		<circle class="st8" cx="557.8" cy="300.39" r="4.45"/>
		<circle class="st8" cx="578.38" cy="300.39" r="4.45"/>
	</g>
	<line class="st9" x1="489.33" y1="239.02" x2="641.53" y2="239.02"/>
	<line class="st9" x1="641.53" y1="196.12" x2="492.93" y2="196.12"/>
	<line class="st9" x1="641.53" y1="165.97" x2="550.53" y2="165.97"/>
	<line class="st9" x1="489.33" y1="275.91" x2="641.53" y2="275.91"/>
	<line class="st9" x1="492.93" y1="353.8" x2="511.54" y2="353.8"/>
	<line class="st9" x1="620.89" y1="353.8" x2="641.53" y2="353.8"/>
	<line class="st9" x1="498.69" y1="353.8" x2="489.33" y2="353.8"/>
	<line class="st9" x1="511.54" y1="353.8" x2="511.54" y2="371.44"/>
	<line class="st9" x1="554.59" y1="358.12" x2="554.59" y2="370.36"/>
	<line class="st9" x1="596.03" y1="358.12" x2="596.03" y2="370.36"/>
	<line class="st9" x1="626.13" y1="353.8" x2="626.13" y2="371.44"/>
	<line class="st9" x1="513.81" y1="191.72" x2="513.81" y2="303.76"/>
	<line class="st9" x1="559.04" y1="165.97" x2="559.04" y2="294.46"/>
	<line class="st9" x1="596.03" y1="142.12" x2="596.03" y2="302.74"/>
	<line class="st9" x1="626.13" y1="307.24" x2="626.13" y2="142.12"/>
	<polygon class="st10" points="657.81,316.16 657.81,353.8 752.13,353.8 752.13,313.71 	"/>
	<path class="st11" d="M653.21,316.16c0,0-1.88-12.73,0-10.97c1.88,1.77,104.35,0,104.35,0v10.97H653.21z"/>
	<line class="st12" x1="665.6" y1="354.35" x2="665.01" y2="371.44"/>
	<line class="st12" x1="745.65" y1="353.8" x2="745.65" y2="371.44"/>
	<line class="st12" x1="704.97" y1="276.4" x2="704.97" y2="294.04"/>
	<path class="st7" d="M685.89,291.16l40.32,1.5C726.21,292.66,706.77,323.46,685.89,291.16z"/>
	<rect x="650.94" y="222.91" class="st13" width="99.75" height="49.65"/>
	<line class="st12" x1="696.15" y1="279.28" x2="713.79" y2="279.28"/>
	<path class="st14" d="M834.65,345.16c0.36-1.44-7.2-4.68-7.2-4.68l-5.4,4.68c0,0-3.96,0.45-8.86-0.65
		c-6.62-1.5-14.94-5.85-17.42-18.07h46.08v28.8h-23.04c0,0-6.48,1.44-5.76-7.56"/>
	<path class="st14" d="M792.8,325.91c0,0-2.84-2.38,2.84-6.22h30.56c0,0,1.78-3.84,4.26,6.22H792.8z"/>
	<path class="st15" d="M775.65,222.64c-1.44,0.96-7.68,0-7.68,0v66.48h29.76v-52.14L775.65,222.64z"/>
	<line class="st16" x1="768.93" y1="255.88" x2="796.77" y2="255.88"/>
	<rect x="378.91" y="382.66" class="st7" width="246.65" height="182.72"/>
</g>
<g id="washing_maschine">
	<g>
		<rect x="404.01" y="287.2" class="st7" width="66.24" height="84.24"/>
		<circle class="st17" cx="437.13" cy="338.91" r="25.2"/>
		<rect x="404.01" y="287.2" class="st8" width="66.24" height="16.56"/>
		<circle class="st18" cx="437.13" cy="295.48" r="7.26"/>
		<path class="st18" d="M436.2,320.61c0,0,18.3,1.09,13.33,19.02C449.53,339.63,448.24,324.55,436.2,320.61z"/>
	</g>
</g>
<g id="Layer_5">
	<line class="st19" x1="589.17" y1="554.92" x2="589.17" y2="565.16"/>
	<polygon class="st20" points="408.93,563.08 433.41,517.96 562.05,517.96 569.73,556.84 433.41,554.92 	"/>
	<path class="st21" d="M434.53,493.04c0,0,11.16,1.44,36.72-10.8h56.52c0,0,7.92,7.3,18.72,10.85l13.68,1.39v21.24H434.53V493.04z"
		/>
	<polygon class="st21" points="433.41,554.92 434.53,563.08 441.09,563.08 441.09,554.92 	"/>
	<polygon class="st21" points="564.01,557 562.89,565.16 556.33,565.16 556.33,557 	"/>
	<path class="st22" d="M462.62,498.02c0,0-1.82,14.35,0,17.37c1.82,3.02,1.82,3.02,1.82,3.02h20.94c0,0,6.37-20.4,0-20.4
		S462.62,498.02,462.62,498.02z"/>
	<path class="st22" d="M498.23,498.02c0,0-1.79,14.35,0,17.37s1.79,3.02,1.79,3.02h20.64c0,0,6.28-20.4,0-20.4
		S498.23,498.02,498.23,498.02z"/>
	<g>
		<line class="st19" x1="615.29" y1="555.38" x2="615.29" y2="566.16"/>
		<rect x="586.89" y="529.84" class="st23" width="31.32" height="25.08"/>
		<line class="st9" x1="586.89" y1="536.68" x2="618.21" y2="536.68"/>
		<line class="st24" x1="586.89" y1="546.4" x2="618.21" y2="546.4"/>
		<circle class="st25" cx="602.55" cy="541.54" r="3.49"/>
		<circle class="st25" cx="602.55" cy="533.11" r="2.2"/>
		<circle class="st25" cx="602.55" cy="551.2" r="2.2"/>
		<line class="st19" x1="585.15" y1="529.04" x2="619.95" y2="529.04"/>
		<path class="st19" d="M615.29,562.54"/>
		<path class="st19" d="M615.29,554.38"/>
		<circle class="st26" cx="604.75" cy="520.42" r="6.73"/>
		<line class="st9" x1="604.75" y1="509.22" x2="604.75" y2="513.2"/>
		<polygon class="st27" points="595.89,508.72 612.81,508.72 609.53,498.64 599.06,498.64 		"/>
	</g>
	<line class="st19" x1="407.87" y1="556.09" x2="407.87" y2="566.87"/>
	<path class="st19" d="M407.87,563.25"/>
	<line class="st19" x1="382.49" y1="554.07" x2="382.49" y2="564.31"/>
	<g>
		<line class="st19" x1="408" y1="554.53" x2="408" y2="565.31"/>
		<rect x="379.6" y="528.99" class="st23" width="31.32" height="25.08"/>
		<line class="st9" x1="379.6" y1="535.83" x2="410.92" y2="535.83"/>
		<line class="st24" x1="379.6" y1="545.55" x2="410.92" y2="545.55"/>
		<circle class="st25" cx="395.26" cy="540.69" r="3.49"/>
		<circle class="st25" cx="395.26" cy="532.27" r="2.2"/>
		<circle class="st25" cx="395.26" cy="550.35" r="2.2"/>
		<line class="st19" x1="377.86" y1="528.19" x2="412.66" y2="528.19"/>
		<path class="st19" d="M408,561.69"/>
		<path class="st19" d="M408,553.53"/>
		<circle class="st26" cx="397.46" cy="519.58" r="6.73"/>
		<line class="st9" x1="397.46" y1="508.38" x2="397.46" y2="512.35"/>
		<polygon class="st27" points="388.6,507.87 405.52,507.87 402.25,497.79 391.77,497.79 		"/>
	</g>
	<line class="st28" x1="433.6" y1="548" x2="434.53" y2="519.42"/>
</g>
<g id="Lights">
	<g>
		<line class="st29" x1="423.81" y1="382.12" x2="424.29" y2="447.4"/>
		<polygon class="st29" points="422.13,447.08 426.69,447.08 426.69,452.36 431.25,455.72 433.53,461.24 413.25,461.24 
			417.33,455.24 421.17,452.36 		"/>
	</g>
	<g>
		<line class="st29" x1="569.14" y1="381.02" x2="569.42" y2="418.62"/>
		<polygon class="st29" points="568.17,418.43 570.8,418.43 570.8,421.47 573.43,423.41 574.74,426.59 563.06,426.59 565.41,423.13 
			567.62,421.47 		"/>
	</g>
	<line class="st29" x1="578.52" y1="382.24" x2="578.81" y2="448.67"/>
	<polygon class="st29" points="577.47,448.34 580.31,448.34 580.31,453.72 583.15,457.14 584.57,462.76 571.93,462.76 
		574.48,456.65 576.87,453.72 	"/>
	<rect x="461.81" y="422.51" class="st21" width="73.6" height="44.33"/>
	<rect x="474.13" y="429" class="st27" width="49.32" height="28.55"/>
</g>
<g id="Layer_7">
	<rect x="631.05" y="382.66" class="st30" width="211.07" height="182.72"/>
	<rect x="726.21" y="565.31" class="st27" width="13.3" height="13.3"/>
</g>
<g id="Layer_8">
	<line class="st31" x1="647.73" y1="527.16" x2="689.13" y2="527.16"/>
	<rect x="762.57" y="422.51" class="st32" width="38.52" height="77.81"/>
	<rect x="803.06" y="422.51" class="st32" width="25.93" height="77.81"/>
	<rect x="689.13" y="514.72" class="st23" width="43.73" height="50.44"/>
	<rect x="753.34" y="514.72" class="st23" width="14.31" height="50.44"/>
	<path class="st33" d="M757.89,533.11c0,0,20.16-3.92,28.08,0C785.97,533.11,780.26,519.47,757.89,533.11z"/>
	<path class="st34" d="M791.37,489.52c-0.35,0.08-13.32,13.32-8.28,32.76c0,0,5.04,2.52,7.2,0c0,0-4.68-16.2,2.88-29.88
		C793.17,492.4,798.93,487.72,791.37,489.52z"/>
	<path class="st34" d="M762.57,517.96h18.72C781.29,517.96,772.43,510.4,762.57,517.96z"/>
	<line class="st35" x1="785.97" y1="523.4" x2="783.37" y2="529.84"/>
	<line class="st35" x1="774.81" y1="536.68" x2="774.81" y2="557"/>
	<path d="M757.89,560.04c0,0,22.32-6.86,34.56,0.73L757.89,560.04z"/>
	<circle cx="774.44" cy="534.2" r="3.28"/>
	<circle cx="757.89" cy="561.08" r="3.28"/>
	<circle cx="792.45" cy="561.08" r="3.28"/>
	<rect x="685.53" y="510.22" class="st36" width="86.4" height="3.98"/>
	<line class="st31" x1="646.65" y1="436.96" x2="645.93" y2="564.36"/>
	<line class="st31" x1="697.41" y1="438.32" x2="696.69" y2="509.72"/>
	<line class="st31" x1="646.63" y1="440.91" x2="697.05" y2="440.92"/>
	<line class="st31" x1="647.73" y1="466.84" x2="695.61" y2="466.84"/>
	<line class="st31" x1="646.29" y1="500.32" x2="696.78" y2="500.32"/>
	<circle class="st7" cx="728.73" cy="434.08" r="8.64"/>
	<line class="st37" x1="728.73" y1="426.52" x2="728.73" y2="434.92"/>
	<line class="st37" x1="728.73" y1="434.92" x2="724.53" y2="438.4"/>
	<circle cx="728.73" cy="434.92" r="0.72"/>
</g>
<g id="Computer">
	<g>
		<path class="st38" d="M739.03,505.92h-30.2c-1.49,0-2.7-1.21-2.7-2.7v-16.49c0-1.49,1.21-2.7,2.7-2.7h30.2
			c1.49,0,2.7,1.21,2.7,2.7v16.49C741.73,504.71,740.52,505.92,739.03,505.92z"/>
		<rect x="720.53" y="506.34" class="st39" width="8.28" height="3.64"/>
		<rect x="709.49" y="509.26" class="st39" width="32.24" height="0.72"/>
	</g>
</g>
<g id="Layer_13">
	<rect x="527.97" y="575.08" class="st40" width="314.15" height="195.84"/>
</g>
<g id="Layer_10">
	<polygon class="st23" points="629.48,734.36 626.6,763.88 625.4,763.88 627.44,733.79 	"/>
	<polygon class="st23" points="569.01,731.8 564.21,765.88 565.65,765.88 571.65,736.6 587.25,737.08 587.25,765.88 590.37,765.88 
		591.57,736.36 613.89,736.36 619.17,765.88 620.61,765.88 615.33,731.8 	"/>
	<polygon class="st23" points="549.57,736.36 543.09,765.88 550.77,736.36 	"/>
	<polygon class="st23" points="554.61,736.36 557.49,765.88 558.69,765.88 556.65,735.79 	"/>
	<polygon class="st23" points="552.69,736.36 551.77,765.88 550.77,736.36 	"/>
	<path class="st23" d="M629.49,734.68c-0.24,1.91,6,31.19,6,31.19l-3-31.19H629.49z"/>
	<path class="st23" d="M637.69,732.24l3.09-0.45c-1.18-1.86,5.27,32.89,5.27,32.89L637.69,732.24z"/>
	<g>
		<path class="st41" d="M621.33,733.1c-0.8-0.34,15.84-7.68,20.16-18l1.44-2.64C642.93,712.46,649.89,745.1,621.33,733.1z"/>
		<path class="st42" d="M642.46,714.14l-4.56,5.76l-15.39,12.96C622.51,732.86,638.86,732.86,642.46,714.14z"/>
	</g>
	<path class="st41" d="M562.93,733.71c0.8-0.34-15.84-7.68-20.16-18l-1.44-2.64C541.33,713.07,534.37,745.71,562.93,733.71z"/>
	<path class="st42" d="M541.79,714.75l4.56,5.76l15.39,12.96C561.74,733.47,545.39,733.47,541.79,714.75z"/>
	<ellipse class="st7" cx="592.41" cy="728.79" rx="29.15" ry="4.08"/>
	<rect x="662.85" y="630.04" class="st43" width="38.4" height="31.68"/>
	<rect x="702.69" y="630.04" class="st43" width="134.88" height="53.04"/>
	<rect x="737.49" y="717.64" class="st43" width="100.08" height="47.04"/>
	<rect x="701.25" y="738.04" class="st43" width="36.24" height="26.64"/>
	<line class="st44" x1="735.09" y1="630.04" x2="735.09" y2="683.08"/>
	<line class="st44" x1="777.33" y1="630.04" x2="777.33" y2="681.4"/>
	<line class="st44" x1="812.13" y1="630.04" x2="812.13" y2="681.4"/>
	<line class="st44" x1="774.45" y1="717.64" x2="774.45" y2="763.88"/>
	<line class="st44" x1="812.13" y1="717.64" x2="812.13" y2="764.68"/>
	<rect x="737.49" y="683.08" class="st45" width="100.08" height="31.06"/>
	<line class="st46" x1="738.45" y1="691" x2="837.57" y2="691"/>
	<line class="st46" x1="738.45" y1="697.96" x2="836.13" y2="697.96"/>
	<line class="st46" x1="737.25" y1="704.32" x2="834.93" y2="704.32"/>
	<line class="st46" x1="738.45" y1="710.98" x2="837.57" y2="710.98"/>
	<rect x="737.77" y="714.14" class="st7" width="101.04" height="3.36"/>
	<rect x="564.21" y="612.04" class="st47" width="58.88" height="90.75"/>
	<line class="st16" x1="593.65" y1="612.04" x2="593.65" y2="702.78"/>
	<line class="st16" x1="564.21" y1="642.28" x2="622.51" y2="642.28"/>
	<line class="st16" x1="564.21" y1="673" x2="622.51" y2="673"/>
</g>
<g id="fridge">
	<g>
		<rect x="662.45" y="665.66" class="st7" width="38.4" height="100.32"/>
		<line class="st9" x1="662.45" y1="718.94" x2="700.85" y2="718.94"/>
	</g>
	<line class="st9" x1="697.05" y1="697.96" x2="697.05" y2="712.46"/>
	<line class="st9" x1="697.05" y1="724.71" x2="697.05" y2="738.04"/>
</g>
<g id="oven">
	<g>
		<rect x="701.97" y="683.4" class="st36" width="34.8" height="53.28"/>
		<rect x="705.81" y="686.22" width="26.88" height="9.6"/>
		<rect x="705.81" y="702.78" width="26.88" height="6.36"/>
		<rect x="705.81" y="715.8" width="26.88" height="15.78"/>
	</g>
</g>
<g id="Layer_14">
	<rect x="226.02" y="638.2" class="st7" width="141.63" height="129.6"/>
	<rect x="377.86" y="576.64" class="st41" width="139.91" height="191.16"/>
	<path class="st48" d="M416.97,741.6c0,0,7.2,5.4,6.48,17.28h63c0,0-0.72-16.2,5.4-17.28c0,0,2.08-5.52-3.64-4.56
		c-5.72,0.96-7.16,6.37-8.24,10.86l-47.88,2.46c0,0-6.12-15.72-11.16-13.32C420.93,737.04,414.09,738.39,416.97,741.6z"/>
	<path class="st23" d="M423.45,757.08c-0.36,4.01-3.24,9.36-3.24,9.36l6.84-7.58L423.45,757.08z"/>
	<polygon class="st23" points="482.13,758.88 486.81,766.44 486.45,758.88 	"/>
	<rect x="414.81" y="645.88" class="st7" width="19.72" height="32.64"/>
	<rect x="414.81" y="683.4" class="st7" width="19.72" height="30.74"/>
	<rect x="419.63" y="650.38" class="st40" width="10.08" height="23.64"/>
	<rect x="419.63" y="686.95" class="st40" width="10.08" height="23.64"/>
</g>
<g id="Layer_15">
	<g>
		<path class="st49" d="M335.9,709.19c-2.25,0-4.43,0.21-6.52,0.73l-8.33-22.39h2.71c4.27,0,8.31-1.57,11.38-4.55l2.87-2.76
			c1.31-1.27,1.34-3.34,0.07-4.64s-3.35-1.33-4.66-0.06l-2.87,2.73c-1.83,1.77-4.24,2.69-6.78,2.69h-7.46
			c-1.08,0-2.09,0.6-2.71,1.48c-0.62,0.89-0.76,2.05-0.38,3.06l3.17,8.51c-0.02,0-0.04,0.06-0.06,0.06c-0.01,0-0.01,0.06-0.02,0.06
			h-42.17l-5.7-9.6l6.19-2.15c1.52-0.52,2.44-2,2.18-3.59c-0.27-1.59-1.64-2.68-3.25-2.68h-18.11c-2.54,0-4.6,1.98-4.6,4.52
			c0,3.93,3.19,7.08,7.12,7.08c0.79,0,1.57-0.15,2.32-0.41l1.8-0.63l5.78,9.67l-4.44,13.31c-1.46-0.29-2.95-0.48-4.48-0.53
			c-7.73-0.25-14.96,2.7-20.31,8.22c-5.14,5.31-7.84,12.3-7.6,19.7c0.45,14.21,11.94,25.69,26.15,26.15
			c0.3,0.01,0.59,0.01,0.88,0.01c7.39,0,14.29-2.95,19.43-8.26c4.16-4.29,6.72-9.83,7.42-15.55h5.3c1.14,0.88,2.62,1.6,4.24,1.6
			c3.6,0,6.53-2.92,6.53-6.52c0-1.17-0.31-2.26-0.85-3.21l18.47-31.33l4.64,12.43c-8.54,4.55-14.37,13.55-14.37,23.88
			c0,14.91,12.13,27.05,27.04,27.05s27.04-12.13,27.04-27.04C362.94,721.33,350.81,709.19,335.9,709.19z M310.53,700.72L294.45,728
			c-0.01,0-0.01-0.03-0.02-0.03c-0.02,0-0.04,0.04-0.06,0.04l-16.32-27.3L310.53,700.72L310.53,700.72z M272.31,703.8l16.42,27.47
			c-0.27,0.48-0.48,1.09-0.62,1.53h-3.22c-1.14-9.23-7.06-17.19-15.23-21.09L272.31,703.8z M263.72,732.8
			c-0.22-0.44-0.48-0.67-0.76-0.98l3.9-11.7c4.71,2.6,8.16,7.41,9.15,12.68H263.72z M271.17,748.82c-3.61,3.73-8.49,5.73-13.72,5.56
			c-9.59-0.31-17.34-8.05-17.65-17.64c-0.16-5,1.66-9.72,5.13-13.3c3.47-3.58,8.13-5.56,13.11-5.56c0.2,0,0.4,0,0.6,0.01
			c0.66,0.02,1.31,0.08,1.95,0.17l-3.94,11.82c-2.89,0.68-5.04,3.26-5.04,6.35c0,3.6,2.93,6.5,6.53,6.5c2.44,0,4.57-1.16,5.69-3.36
			h12.17C275.38,742.9,273.72,746.19,271.17,748.82z M335.9,754.49c-10.07,0-18.26-8.19-18.26-18.26c0-6.56,3.48-12.32,8.69-15.54
			l6.19,16.6c0.49,1.33,1.75,2.14,3.09,2.14c0.38,0,0.77-0.07,1.15-0.21c1.71-0.64,2.57-2.53,1.94-4.24l-6.23-16.69
			c1.11-0.21,2.25-0.33,3.42-0.33c10.07,0,18.26,8.19,18.26,18.26S345.97,754.49,335.9,754.49z"/>
	</g>
	<rect x="370.2" y="18.57" class="st50" width="482.55" height="88.08"/>
	<text transform="matrix(0.9983 0 0 1 370.2048 73.5009)" class="st51 st52 st53">Home Hacks</text>
	<g>
		<g>
			<path class="st54" d="M202.49,237.78c-1.7,0.17-3.83-1.11-3.52-3.09c0.31-1.95,2.27-2.71,3.97-2.31c2.8,0.66,5.85,0.72,7.39-2.19
				c1.05-1.99,0.51-4.41,0.88-6.32c0.13-0.65,0.29-1.03,0.87-1.26c0.99-0.4,2.19-0.29,3.26-0.2c2.39,0.2,4.71,0.5,7.01-0.42
				c1.19-0.48,2.23-1.2,2.95-2.28c0.9-1.36,0.89-2.75,1.02-4.31c0.06-0.78,0.15-0.94,0.74-1.17c0.78-0.3,1.55-0.25,2.4,0.13
				c2.52,1.13,4.23,3.82,6.42,5.46c2.58,1.93,5.3,2.4,8.41,1.72c0.5-0.11,1.16-0.11,1.62-0.28c0.23-0.08,0.33,0.14,0.12-0.12
				c0.26,0.32,0.17,1.07,0.18,1.45c0.03,0.86,0.06,1.7,0.19,2.56c0.44,2.91,1.95,5.52,3.47,7.99c1.3,2.13,2.6,4.16,3.08,6.65
				c0.33,1.72,0.23,3.81-1.24,4.9c-1.97,1.46-5.43,0.85-7.69,0.81c-1.65-0.02-3.3-0.05-4.95-0.07c-0.82-0.01-1.65-0.02-2.47-0.04
				c-0.67-0.01-1.51-0.16-2.15-0.05c-0.05-0.01-0.1-0.03-0.16-0.04c-0.35-0.12-0.24-0.01,0.33,0.34c-0.03,0.01-0.25-0.72-0.28-0.81
				c-0.27-0.77-0.6-1.52-1.18-2.11c-1.22-1.26-3-1.63-4.68-1.36c-3.19,0.52-4.61,3.56-7.32,4.92c-2.53,1.26-5.58,1.24-8.33,1.2
				c-1.25-0.02-6.7,0.2-5.81-2.28c0.45-1.27-0.51-2.74-1.75-3.08c-1.39-0.38-2.62,0.47-3.08,1.75c-1.27,3.55,1.5,6.93,4.76,7.99
				c1.62,0.53,3.39,0.56,5.08,0.6c1.59,0.04,3.19,0.05,4.78-0.09c3.39-0.29,6.66-1.18,9.29-3.44c0.89-0.77,1.74-2.04,2.76-2.53
				c-0.14,0.07,0.86-0.29,0.59-0.15c0.26-0.14,0.43,0.05,0.21,0.02c-0.24-0.03-0.27-0.69-0.1,0.05c0.07,0.33,0.2,0.65,0.32,0.96
				c1.52,3.9,6.28,3.12,9.67,3.17c3.66,0.05,7.5,0.44,11.12-0.14c3.25-0.52,5.87-2.61,6.92-5.75c0.88-2.62,0.49-5.7-0.45-8.25
				c-1.12-3.07-3.14-5.64-4.63-8.52c-0.59-1.15-1.1-2.39-1.27-3.68c-0.23-1.76,0.06-3.54-0.8-5.18c-0.8-1.54-2.32-2.46-4.03-2.61
				c-1.65-0.15-3.15,0.57-4.76,0.64c-2.84,0.11-5.01-3.23-6.92-4.9c-2.45-2.14-5.45-3.59-8.74-2.7c-1.25,0.33-2.44,1.02-3.28,2.01
				c-0.53,0.63-0.93,1.34-1.16,2.13c-0.29,1-0.11,2-0.27,3c-0.12,0.78-0.51,0.89-1.44,1.09c-1.07,0.23-2.36,0.1-3.52-0.03
				c-2.79-0.32-6.11-0.31-8.23,1.83c-1.22,1.23-1.71,2.79-1.9,4.47c-0.08,0.73-0.08,1.45-0.1,2.18c-0.01,0.63-0.04,1.34-0.13,1.66
				c-0.08,0.28,0.1,0.2-0.15,0.35c0.09-0.06,0.11-0.15,0.16-0.16c-0.71,0.1-1.43-0.23-2.12-0.37c-1.88-0.4-3.64-0.28-5.38,0.54
				c-3.31,1.57-5.3,5.48-4.24,9.05c1.03,3.46,4.6,6.08,8.23,5.72c1.34-0.13,2.5-1.05,2.5-2.5
				C204.99,239.03,203.84,237.65,202.49,237.78L202.49,237.78z"/>
		</g>
	</g>
	<g>
		<g>
			<path class="st54" d="M202.73,241.76c0,0.58,0,1.17,0,1.75c-0.01,0.34,0.06,0.67,0.22,0.96c0.1,0.31,0.27,0.58,0.52,0.8
				c0.23,0.24,0.49,0.42,0.8,0.52c0.3,0.16,0.62,0.23,0.96,0.22c0.22-0.03,0.44-0.06,0.66-0.09c0.42-0.12,0.79-0.33,1.1-0.64
				c0.13-0.17,0.26-0.34,0.39-0.51c0.23-0.39,0.34-0.81,0.34-1.26c0-0.58,0-1.17,0-1.75c0.01-0.34-0.06-0.67-0.22-0.96
				c-0.1-0.31-0.27-0.58-0.52-0.8c-0.23-0.24-0.49-0.42-0.8-0.52c-0.3-0.16-0.62-0.23-0.96-0.22c-0.22,0.03-0.44,0.06-0.66,0.09
				c-0.42,0.12-0.79,0.33-1.1,0.64c-0.13,0.17-0.26,0.34-0.39,0.51C202.85,240.89,202.73,241.31,202.73,241.76L202.73,241.76z"/>
		</g>
	</g>
	<g>
		<g>
			<path class="st54" d="M99.32,91.73c-3.48-1.91-7.63-3.57-11.5-1.77c-3.06,1.42-5.33,5.14-4.02,8.49c0.8-1.05,1.61-2.11,2.41-3.16
				c-2.85,0.34-5-1.92-7.37-3.14c-2.39-1.23-5.36-1.96-7.96-0.94c-3.02,1.19-4.12,4.15-3.99,7.2c0.05,1.15,0.34,2.46,0.1,3.59
				c-0.2,0.97-0.62,1.16-1.5,1.61c-1.91,0.97-4.38,1.49-5.94,3.3c-2.03,2.34-1.98,5.68-0.33,8.22c1.82,2.81,4.93,3.95,8.12,4.35
				c3.11,0.4,6.53,0.71,9.45-0.65c2.06-0.96,3.75-3.15,5.74-3.87c0.73-0.26,1.14-0.09,1.62,0.41c0.61,0.63,1.13,1.73,1.6,2.63
				c1.14,2.15,2.49,4.14,4.78,5.18c2.23,1.01,4.77,1.2,7.13,0.55c2.32-0.63,4.42-2.07,5.7-4.12c0.67-1.08,1.02-2.34,1.31-3.56
				c0.22-0.95,0.31-2.42,1.01-3.16c0.61-0.64,2.03-0.43,2.91-0.49c1.45-0.11,2.84-0.42,4.09-1.18c2.22-1.36,3.84-3.74,4.27-6.3
				c0.53-3.23-0.7-6.27-3.35-8.19c-2.21-1.6-5.33-2.17-7.95-1.34c-1.65,0.53-2.9,1.53-4.11,2.74c-0.44,0.44-0.89,1.05-1.48,1.29
				c-0.34,0.14-0.95-0.04-0.27,0.29c0.22,0.11-0.12,0.17,0.04-0.01c0.01-0.01-0.02-0.39-0.01-0.64c0.02-0.6,0.1-1.2,0.1-1.8
				c-0.01-1.77-0.63-3.18-2.12-4.19c-2.67-1.81-5.18,2.52-2.52,4.32c-0.75-0.51-0.16-0.56-0.33-0.28c-0.02,0.03-0.03-0.75-0.02,0.15
				c0,0.5-0.06,1-0.08,1.5c-0.06,1.21,0.07,2.45,0.67,3.52c1.47,2.62,5.04,2.76,7.37,1.29c1.1-0.7,1.95-1.69,2.89-2.57
				c0.66-0.61,1.36-0.91,2.03-0.97c1.51-0.13,3.25,0.53,3.97,1.91c0.67,1.26,0.34,2.87-0.59,4.05c-1.45,1.84-3.51,1.27-5.68,1.66
				c-2.86,0.51-4.5,2.75-5.23,5.41c-0.3,1.1-0.45,2.25-0.84,3.32c-0.24,0.64-0.55,1.11-1.23,1.66c-1.02,0.84-2.65,1.25-4.25,1.04
				c-0.31-0.04-1.2-0.34-1.61-0.58c-0.69-0.41-1.12-0.99-1.63-1.87c-1.09-1.89-1.91-3.97-3.67-5.36c-2.05-1.63-4.64-1.75-6.97-0.64
				c-2.01,0.96-3.46,2.84-5.48,3.75c-1.08,0.49-2.3,0.45-3.47,0.4c-1.3-0.05-2.64-0.09-3.92-0.34c-1.75-0.34-4.27-1.26-4.22-3.42
				c0.01-0.6,0.35-0.89,0.68-1.12c0.88-0.62,1.69-0.83,2.67-1.23c2.51-1.02,4.84-2.5,5.49-5.34c0.32-1.39,0.22-2.79,0.12-4.2
				c-0.06-0.82-0.3-2.11,0.16-2.83c0.37-0.58,1.15-0.64,1.9-0.56c1.17,0.12,2.25,0.66,3.24,1.26c2.74,1.66,5.57,3.7,8.96,3.29
				c1.43-0.17,3.07-1.49,2.41-3.16c-0.46-1.17,0.37-2.37,1.76-2.81c2.13-0.67,4.63,0.76,6.42,1.75
				C99.61,97.6,102.14,93.28,99.32,91.73L99.32,91.73z"/>
		</g>
	</g>
	<g>
		<g>
			<path class="st54" d="M215.73,240.37c5.23,0,10.24-4.6,10-10c-0.24-5.42-4.39-10-10-10c-5.23,0-10.24,4.6-10,10
				C205.97,235.79,210.12,240.37,215.73,240.37L215.73,240.37z"/>
		</g>
	</g>
	<g>
		<g>
			<path class="st54" d="M223.1,222.9c-0.64-0.54-1.21-1.13-1.74-1.79c0.52,0.67,1.04,1.35,1.56,2.02
				c-0.35-0.48-0.66-0.97-0.92-1.51c0.34,0.8,0.67,1.59,1.01,2.39c-0.17-0.4-0.29-0.79-0.36-1.22c0.12,0.89,0.24,1.77,0.36,2.66
				c-0.03-0.2-0.03-0.39-0.02-0.59c-0.12,0.89-0.24,1.77-0.36,2.66c0.04-0.31,0.11-0.54,0.22-0.83c-0.34,0.8-0.67,1.59-1.01,2.39
				c0.05-0.08,0.1-0.17,0.15-0.25c-0.52,0.67-1.04,1.35-1.56,2.02c0.12-0.18,0.26-0.33,0.42-0.47c-0.67,0.52-1.35,1.04-2.02,1.56
				c0.16-0.14,0.34-0.26,0.53-0.35c-0.8,0.34-1.59,0.67-2.39,1.01c0.19-0.09,0.38-0.15,0.58-0.19c-0.89,0.12-1.77,0.24-2.66,0.36
				c0.33-0.04,0.61-0.05,0.94-0.02c-0.89-0.12-1.77-0.24-2.66-0.36c0.34,0.06,0.63,0.14,0.95,0.26c-0.8-0.34-1.59-0.67-2.39-1.01
				c0.43,0.19,0.8,0.41,1.18,0.68c-0.67-0.52-1.35-1.04-2.02-1.56c0.37,0.31,0.69,0.63,0.99,1c-0.52-0.67-1.04-1.35-1.56-2.02
				c0.64,0.86,1.16,1.8,1.75,2.7c1.49,2.24,2.88,3.81,5.06,5.34c3.14,2.19,7.52,2.86,11.19,1.81c2.88-0.83,5.43-2.71,6.99-5.27
				c1.38-2.26,1.84-4.53,1.96-7.15c0.12-2.56,0.05-5.14,0.07-7.7c-5.02,2.88-10.03,5.76-15.05,8.63c0.32,0.23,0.64,0.46,0.95,0.7
				c-0.67-0.52-1.35-1.04-2.02-1.56c1.45,1.14,2.74,2.43,3.89,3.87c-0.52-0.67-1.04-1.35-1.56-2.02c1.21,1.57,2.2,3.25,2.98,5.07
				c-0.34-0.8-0.67-1.59-1.01-2.39c0.15,0.36,0.29,0.73,0.43,1.1c0.88,2.38,2.25,4.74,4.6,5.98c2.02,1.07,4.1,1.49,6.38,1.19
				c2.1-0.28,4.27-1.14,5.74-2.75c1.9-2.06,2.64-4.29,2.93-7.07c0.46-4.49-1.03-9.75-3.66-13.41c-3.2-4.46-7.41-7.96-12.83-9.34
				c-4.15-1.05-9.21,0.66-11.29,4.6c-2.12,4.02-1.6,8.78,1.56,12.12c0.27,0.29,0.53,0.58,0.78,0.89c-0.52-0.67-1.04-1.35-1.56-2.02
				c1.27,1.72,2.06,3.69,3.07,5.56c1.62,2.99,3.96,5.55,6.81,7.42c3.51,2.3,7.79,2.88,11.83,1.92c2.49-0.59,4.66-2.07,6.97-3.1
				c-0.8,0.34-1.59,0.67-2.39,1.01c0.46-0.19,0.92-0.34,1.41-0.42c-0.89,0.12-1.77,0.24-2.66,0.36c0.28-0.03,0.52-0.03,0.8,0
				c-0.89-0.12-1.77-0.24-2.66-0.36c0.17,0.03,0.34,0.08,0.51,0.14c-0.8-0.34-1.59-0.67-2.39-1.01c0.17,0.07,0.33,0.17,0.48,0.28
				c-0.67-0.52-1.35-1.04-2.02-1.56c0.08,0.06,0.16,0.13,0.23,0.19c-0.86-3.24-1.71-6.49-2.57-9.73c-0.22,0.56-0.37,1.12-0.48,1.71
				c-0.23,1.32-0.49,2.73-0.42,4.08c0.16,2.93,0.76,5.02,1.99,7.64c0.78,1.66,1.96,3.2,3.31,4.43c0.82,0.75,1.74,1.37,2.45,2.24
				c-0.52-0.67-1.04-1.35-1.56-2.02c0.19,0.27,0.33,0.51,0.46,0.81c-0.34-0.8-0.67-1.59-1.01-2.39c0.08,0.2,0.13,0.4,0.16,0.61
				c-0.12-0.89-0.24-1.77-0.36-2.66c0.03,0.19,0.03,0.39,0.02,0.58c0.12-0.89,0.24-1.77,0.36-2.66c-0.04,0.29-0.1,0.52-0.2,0.79
				c0.34-0.8,0.67-1.59,1.01-2.39c-0.13,0.25-0.26,0.46-0.43,0.69c0.52-0.67,1.04-1.35,1.56-2.02c-0.2,0.22-0.39,0.4-0.62,0.59
				c0.67-0.52,1.35-1.04,2.02-1.56c-0.42,0.31-0.86,0.55-1.33,0.78c0.8-0.34,1.59-0.67,2.39-1.01c-1,0.42-2.04,0.68-3.11,0.84
				c0.89-0.12,1.77-0.24,2.66-0.36c-2.22,0.29-4.45,0.51-6.68,0.24c0.89,0.12,1.77,0.24,2.66,0.36c-0.89-0.14-1.73-0.35-2.56-0.68
				c0.8,0.34,1.59,0.67,2.39,1.01c-0.59-0.26-1.13-0.57-1.65-0.94c0.67,0.52,1.35,1.04,2.02,1.56c-0.74-0.59-1.4-1.26-2.12-1.88
				c-1.97-1.71-3.62-2.78-6.1-3.64c-3.06-1.06-6.44-0.92-9.55-0.19c-4.55,1.06-7.94,4.07-12.09,5.91c0.8-0.34,1.59-0.67,2.39-1.01
				c-0.9,0.37-1.8,0.63-2.77,0.77c0.89-0.12,1.77-0.24,2.66-0.36c-0.42,0.04-0.82,0.05-1.24,0.04c2.36,5.69,4.71,11.38,7.07,17.07
				c2.32-2,4.16-4.97,4.99-7.92c1.43-5.05-0.57-10.82-5.15-13.53c-3.2-1.9-6.62-1.91-10.21-1.9c-2.42,0.01-4.83,0.01-7.25,0.02
				c-5.23,0.01-10.24,4.59-10,10c0.24,5.41,4.39,10.01,10,10c3.65-0.01,7.34-0.19,10.98,0c-0.89-0.12-1.77-0.24-2.66-0.36
				c0.28,0.02,0.54,0.08,0.81,0.17c-0.8-0.34-1.59-0.67-2.39-1.01c0.23,0.08,0.43,0.2,0.62,0.35c-0.67-0.52-1.35-1.04-2.02-1.56
				c0.14,0.12,0.27,0.25,0.37,0.4c-0.52-0.67-1.04-1.35-1.56-2.02c0.04,0.08,0.08,0.15,0.13,0.23c-0.34-0.8-0.67-1.59-1.01-2.39
				c0.07,0.16,0.12,0.32,0.15,0.5c-0.12-0.89-0.24-1.77-0.36-2.66c0.02,0.29,0.02,0.53-0.02,0.82c0.12-0.89,0.24-1.77,0.36-2.66
				c-0.07,0.31-0.15,0.58-0.26,0.88c0.34-0.8,0.67-1.59,1.01-2.39c-0.28,0.63-0.63,1.18-1.05,1.73c0.52-0.67,1.04-1.35,1.56-2.02
				c-0.36,0.43-0.74,0.82-1.17,1.19c-1.19,1.03-2.16,2.92-2.57,4.41c-0.6,2.18-0.36,4.46,0.5,6.51c1.56,3.69,5.11,6.06,9.14,6.15
				c3.81,0.09,7.46-1.19,10.76-3.01c2.03-1.12,3.9-2.5,6.04-3.42c-0.8,0.34-1.59,0.67-2.39,1.01c0.9-0.36,1.79-0.63,2.75-0.79
				c-0.89,0.12-1.77,0.24-2.66,0.36c0.66-0.08,1.29-0.1,1.95-0.04c-0.89-0.12-1.77-0.24-2.66-0.36c0.52,0.08,1,0.2,1.49,0.38
				c-0.8-0.34-1.59-0.67-2.39-1.01c0.5,0.22,0.93,0.49,1.37,0.81c-0.67-0.52-1.35-1.04-2.02-1.56c1.79,1.46,3.35,3.2,5.42,4.32
				c2.83,1.53,5.33,2.05,8.48,2.39c1.51,0.16,3.02,0.11,4.53-0.03c2.17-0.21,4.4-0.36,6.5-0.98c5.93-1.74,11.04-6.38,11.14-12.92
				c0.06-3.64-1.5-6.96-3.98-9.56c-0.95-0.99-2.12-1.69-2.98-2.78c0.52,0.67,1.04,1.35,1.56,2.02c-0.35-0.49-0.63-1-0.87-1.55
				c0.34,0.8,0.67,1.59,1.01,2.39c-0.22-0.56-0.37-1.12-0.48-1.72c0.12,0.89,0.24,1.77,0.36,2.66c-0.09-0.72-0.1-1.41-0.01-2.13
				c-0.12,0.89-0.24,1.77-0.36,2.66c0.1-0.6,0.25-1.15,0.48-1.71c1.19-3-0.12-7.68-2.57-9.73c-1.85-1.54-3.27-2.55-5.64-3.19
				c-2.17-0.58-4.67-0.47-6.81,0.16c-2.3,0.68-4.29,1.96-6.45,2.93c0.8-0.34,1.59-0.67,2.39-1.01c-0.63,0.26-1.24,0.46-1.92,0.55
				c0.89-0.12,1.77-0.24,2.66-0.36c-0.38,0.02-0.72,0.01-1.09-0.04c0.89,0.12,1.77,0.24,2.66,0.36c-0.37-0.07-0.7-0.16-1.05-0.29
				c0.8,0.34,1.59,0.67,2.39,1.01c-0.58-0.25-1.1-0.56-1.61-0.93c0.67,0.52,1.35,1.04,2.02,1.56c-0.61-0.49-1.15-1.04-1.65-1.64
				c0.52,0.67,1.04,1.35,1.56,2.02c-1.05-1.37-1.75-2.93-2.52-4.47c-1.09-2.18-2.47-4.19-4.16-5.97
				c-3.24,5.57-6.49,11.14-9.73,16.71c0.57,0.14,1.11,0.32,1.65,0.54c-0.8-0.34-1.59-0.67-2.39-1.01c0.96,0.42,1.85,0.94,2.68,1.57
				c-0.67-0.52-1.35-1.04-2.02-1.56c0.82,0.66,1.55,1.39,2.21,2.21c-0.52-0.67-1.04-1.35-1.56-2.02c0.71,0.93,1.29,1.93,1.76,3
				c-0.34-0.8-0.67-1.59-1.01-2.39c0.39,0.98,0.66,1.97,0.82,3.01c-0.12-0.89-0.24-1.77-0.36-2.66c0.11,0.93,0.12,1.84,0.03,2.77
				c6.55-0.89,13.1-1.77,19.64-2.66c-1.12-3.06-2.44-5.97-4.42-8.56c-2.5-3.28-5.04-5.77-8.43-8.16c-2.86-2.01-7.2-1.69-10.09,0
				c-3.06,1.79-4.92,5.1-4.95,8.63c-0.02,2.8,0.17,5.7-0.13,8.48c0.12-0.89,0.24-1.77,0.36-2.66c-0.03,0.26-0.1,0.5-0.19,0.74
				c0.34-0.8,0.67-1.59,1.01-2.39c-0.08,0.21-0.2,0.4-0.34,0.58c0.52-0.67,1.04-1.35,1.56-2.02c-0.12,0.14-0.25,0.27-0.4,0.38
				c0.67-0.52,1.35-1.04,2.02-1.56c-0.15,0.1-0.31,0.19-0.48,0.25c0.8-0.34,1.59-0.67,2.39-1.01c-0.17,0.07-0.35,0.11-0.54,0.14
				c0.89-0.12,1.77-0.24,2.66-0.36c-0.3,0.03-0.57,0.04-0.87,0.02c0.89,0.12,1.77,0.24,2.66,0.36c-0.41-0.06-0.78-0.16-1.17-0.3
				c0.8,0.34,1.59,0.67,2.39,1.01c-0.38-0.17-0.71-0.37-1.05-0.62c0.67,0.52,1.35,1.04,2.02,1.56c-0.38-0.33-0.7-0.7-1.01-1.09
				c0.52,0.67,1.04,1.35,1.56,2.02c-0.63-0.87-1.14-1.81-1.74-2.7c-1.48-2.19-2.9-3.73-5.05-5.24c-3.89-2.75-9.78-3.18-13.89-0.65
				c-4.8,2.95-7.21,8.68-5.67,14.16c0.9,3.22,2.94,6.32,5.5,8.48c2.07,1.74,4.28,2.93,7.07,2.93c2.45,0,5.38-1.09,7.07-2.93
				c1.75-1.91,3.05-4.41,2.93-7.07C225.91,227.45,225.1,224.59,223.1,222.9L223.1,222.9z"/>
		</g>
	</g>
	<g>
		<g>
			<path class="st54" d="M239.35,245.63c5.23,0,10.24-4.6,10-10c-0.24-5.42-4.39-10-10-10c-5.23,0-10.24,4.6-10,10
				C229.59,241.04,233.74,245.63,239.35,245.63L239.35,245.63z"/>
		</g>
	</g>
	<g>
		<g>
			<path class="st54" d="M211.36,254.39c5.23,0,10.24-4.6,10-10c-0.24-5.42-4.39-10-10-10c-5.23,0-10.24,4.6-10,10
				C201.6,249.81,205.75,254.39,211.36,254.39L211.36,254.39z"/>
		</g>
	</g>
	<g>
		<g>
			<path class="st54" d="M252.47,243.87c5.23,0,10.24-4.6,10-10c-0.24-5.42-4.39-10-10-10c-5.23,0-10.24,4.6-10,10
				C242.72,239.29,246.87,243.87,252.47,243.87L252.47,243.87z"/>
		</g>
	</g>
	<g>
		<g>
			<path class="st54" d="M248.97,232.48c5.23,0,10.24-4.6,10-10c-0.24-5.42-4.39-10-10-10c-5.23,0-10.24,4.6-10,10
				C239.22,227.9,243.37,232.48,248.97,232.48L248.97,232.48z"/>
		</g>
	</g>
	<g>
		<g>
			<path class="st54" d="M69.44,120.05c1.41,0.04,2.81,0.08,4.22,0.12c-0.89-6.55-1.77-13.1-2.66-19.64
				c-3.22,0.79-6.45,1.58-9.67,2.37c-7.03,1.72-10.05,11.75-4.41,16.71c2.97,2.61,6.6,4.27,10.63,4c4-0.27,7.74-1.78,10.61-4.63
				c2.35-2.33,4.08-5.61,4.8-8.82c0.6-2.7,0.58-5.39,0.84-8.11c-0.12,0.89-0.24,1.77-0.36,2.66c0.07-0.5,0.18-0.97,0.36-1.45
				c-0.34,0.8-0.67,1.59-1.01,2.39c0.1-0.23,0.22-0.45,0.36-0.65c-0.52,0.67-1.04,1.35-1.56,2.02c0.22-0.28,0.43-0.5,0.71-0.72
				c-0.67,0.52-1.35,1.04-2.02,1.56c0.29-0.2,0.56-0.35,0.88-0.49c-0.8,0.34-1.59,0.67-2.39,1.01c0.44-0.16,0.88-0.27,1.34-0.34
				c-0.89,0.12-1.77,0.24-2.66,0.36c0.71-0.07,1.4-0.05,2.11,0.04c-0.89-0.12-1.77-0.24-2.66-0.36c0.83,0.14,1.61,0.36,2.4,0.67
				c-0.8-0.34-1.59-0.67-2.39-1.01c0.88,0.38,1.69,0.86,2.47,1.43c-0.67-0.52-1.35-1.04-2.02-1.56c0.75,0.6,1.42,1.26,2.02,2.01
				c-0.52-0.67-1.04-1.35-1.56-2.02c0.5,0.68,0.92,1.38,1.27,2.15c-0.34-0.8-0.67-1.59-1.01-2.39c0.05,0.11,0.09,0.22,0.14,0.33
				c0.67,1.61,1.31,3.15,2.57,4.41c1.56,1.56,3.58,2.46,5.74,2.75c4.02,0.54,7.8-1.34,9.96-4.77c2.62-4.15,3.96-8.95,5.09-13.68
				c-6.55-0.89-13.1-1.77-19.64-2.66c0.09,8.26-1.23,19.25,7.41,23.92c5.77,3.11,11.76,1.02,17.19-1.59
				c3.41-1.64,6.51-3.96,9.31-6.49c-5.24-4.04-10.47-8.08-15.71-12.12c-0.47,0.81-0.98,1.58-1.54,2.33
				c0.52-0.67,1.04-1.35,1.56-2.02c-1.73,2.23-3.81,4.11-6.03,5.84c0.67-0.52,1.35-1.04,2.02-1.56c-2.35,1.8-4.83,3.77-7.51,5.05
				c0.8-0.34,1.59-0.67,2.39-1.01c-0.52,0.22-1.03,0.38-1.58,0.5c0.89-0.12,1.77-0.24,2.66-0.36c-0.43,0.05-0.8,0.07-1.23,0.04
				c0.89,0.12,1.77,0.24,2.66,0.36c-0.51-0.08-0.96-0.2-1.43-0.4c0.8,0.34,1.59,0.67,2.39,1.01c-0.34-0.17-0.65-0.36-0.96-0.58
				c0.67,0.52,1.35,1.04,2.02,1.56c-0.62-0.48-1.15-1.02-1.64-1.63c0.52,0.67,1.04,1.35,1.56,2.02c-0.98-1.28-1.71-2.73-2.61-4.06
				c-1.69-2.49-3.62-4.79-6.29-6.27c-3.29-1.82-6.8-2.17-10.45-1.54c-3.58,0.61-6.52,3.08-8.42,6.07
				c-2.81,4.43-1.07,11.22,3.59,13.68c4.94,2.61,10.69,1.14,13.68-3.59c0.05-0.09,0.11-0.17,0.16-0.26
				c-0.52,0.67-1.04,1.35-1.56,2.02c0.2-0.24,0.38-0.43,0.62-0.62c-0.67,0.52-1.35,1.04-2.02,1.56c0.16-0.11,0.33-0.21,0.5-0.29
				c-0.8,0.34-1.59,0.67-2.39,1.01c0.38-0.15,0.75-0.25,1.15-0.31c-0.89,0.12-1.77,0.24-2.66,0.36c0.42-0.03,0.82-0.01,1.25,0.04
				c-0.89-0.12-1.77-0.24-2.66-0.36c0.42,0.08,0.82,0.2,1.21,0.36c-0.8-0.34-1.59-0.67-2.39-1.01c0.41,0.2,0.76,0.42,1.12,0.69
				c-0.67-0.52-1.35-1.04-2.02-1.56c0.49,0.41,0.91,0.86,1.31,1.36c-0.52-0.67-1.04-1.35-1.56-2.02c0.93,1.23,1.63,2.6,2.49,3.89
				c1.66,2.49,3.46,4.47,5.92,6.16c5.29,3.64,12.22,2.66,17.34-0.73c6.38-4.21,12.74-8.91,16.64-15.64
				c2.51-4.33,1.33-9.88-2.58-12.9c-4.05-3.13-9.39-2.59-13.13,0.78c-0.63,0.56-1.27,1.1-1.93,1.62c0.67-0.52,1.35-1.04,2.02-1.56
				c-2.13,1.62-4.43,2.95-6.89,3.99c0.8-0.34,1.59-0.67,2.39-1.01c-1.18,0.48-2.37,0.94-3.62,1.15c0.89-0.12,1.77-0.24,2.66-0.36
				c-0.44,0.04-0.81,0.04-1.25-0.02c0.89,0.12,1.77,0.24,2.66,0.36c-0.24-0.05-0.47-0.12-0.7-0.22c0.8,0.34,1.59,0.67,2.39,1.01
				c-0.18-0.08-0.36-0.19-0.52-0.31c0.67,0.52,1.35,1.04,2.02,1.56c-0.24-0.2-0.43-0.39-0.63-0.62c0.52,0.67,1.04,1.35,1.56,2.02
				c-0.24-0.34-0.43-0.68-0.6-1.07c0.34,0.8,0.67,1.59,1.01,2.39c-0.23-0.62-0.38-1.25-0.48-1.91c0.12,0.89,0.24,1.77,0.36,2.66
				c-0.46-3.73-0.2-7.63-0.24-11.38c-0.05-4.99-3.76-9.16-8.67-9.82c-4.73-0.64-9.82,2.3-10.97,7.16c-0.67,2.8-1.36,5.6-2.48,8.26
				c0.34-0.8,0.67-1.59,1.01-2.39c-0.46,1.05-0.99,2.06-1.6,3.03c6.09,0.8,12.18,1.59,18.28,2.39c-0.97-2.34-1.7-3.93-3.2-5.88
				c-1.17-1.52-2.29-2.64-3.81-3.81c-3.41-2.63-7.18-3.93-11.45-4.31c-1.77-0.16-3.74,0.11-5.42,0.66
				c-3.21,1.06-5.91,2.99-7.72,5.87c-2.25,3.57-1.85,7.47-2.35,11.43c0.12-0.89,0.24-1.77,0.36-2.66c-0.16,1.05-0.4,2.05-0.79,3.04
				c0.34-0.8,0.67-1.59,1.01-2.39c-0.32,0.72-0.69,1.37-1.17,2c0.52-0.67,1.04-1.35,1.56-2.02c-0.3,0.36-0.62,0.68-0.98,0.98
				c0.67-0.52,1.35-1.04,2.02-1.56c-0.46,0.34-0.92,0.61-1.44,0.84c0.8-0.34,1.59-0.67,2.39-1.01c-0.53,0.2-1.04,0.34-1.6,0.42
				c0.89-0.12,1.77-0.24,2.66-0.36c-0.44,0.04-0.85,0.04-1.29-0.01c0.89,0.12,1.77,0.24,2.66,0.36c-0.43-0.07-0.81-0.18-1.21-0.35
				c0.8,0.34,1.59,0.67,2.39,1.01c-0.29-0.15-0.55-0.31-0.81-0.5c0.67,0.52,1.35,1.04,2.02,1.56c-0.08-0.07-0.16-0.14-0.25-0.22
				c-1.47,5.57-2.94,11.14-4.41,16.71c3.22-0.79,6.45-1.58,9.67-2.37c4.84-1.19,7.8-6.22,7.16-10.97c-0.67-4.96-4.8-8.53-9.82-8.67
				c-1.41-0.04-2.81-0.08-4.22-0.12c-5.23-0.14-10.24,4.7-10,10C59.69,115.59,63.83,119.9,69.44,120.05L69.44,120.05z"/>
		</g>
	</g>
	<g>
		<g>
			<path class="st54" d="M95.69,102.52c5.23,0,10.24-4.6,10-10c-0.24-5.42-4.39-10-10-10c-5.23,0-10.24,4.6-10,10
				C85.93,97.94,90.08,102.52,95.69,102.52L95.69,102.52z"/>
		</g>
	</g>
	<g>
		<g>
			<path class="st54" d="M91.31,103.4c5.23,0,10.24-4.6,10-10c-0.24-5.42-4.39-10-10-10c-5.23,0-10.24,4.6-10,10
				C81.56,98.82,85.71,103.4,91.31,103.4L91.31,103.4z"/>
		</g>
	</g>
	<g>
		<g>
			<path class="st54" d="M104.44,123.56c5.23,0,10.24-4.6,10-10c-0.24-5.42-4.39-10-10-10c-5.23,0-10.24,4.6-10,10
				C94.68,118.97,98.83,123.56,104.44,123.56L104.44,123.56z"/>
		</g>
	</g>
	<g>
		<g>
			<path class="st54" d="M99.19,111.29c5.23,0,10.24-4.6,10-10c-0.24-5.42-4.39-10-10-10c-5.23,0-10.24,4.6-10,10
				C89.43,106.71,93.58,111.29,99.19,111.29L99.19,111.29z"/>
		</g>
	</g>
	<rect x="437.76" y="10.32" class="st50" width="246.24" height="11.52"/>
	<g>
		<g>
			<path class="st54" d="M905.77,142.66c-1.7,0.17-3.83-1.11-3.52-3.09c0.31-1.95,2.27-2.71,3.97-2.31c2.8,0.66,5.85,0.72,7.39-2.19
				c1.05-1.99,0.51-4.41,0.88-6.32c0.13-0.65,0.29-1.03,0.87-1.26c0.99-0.4,2.19-0.29,3.26-0.2c2.39,0.2,4.71,0.5,7.01-0.42
				c1.19-0.48,2.23-1.2,2.95-2.28c0.9-1.36,0.89-2.75,1.01-4.31c0.06-0.78,0.15-0.94,0.74-1.17c0.78-0.3,1.55-0.25,2.4,0.13
				c2.52,1.13,4.23,3.82,6.42,5.46c2.58,1.93,5.3,2.4,8.41,1.72c0.5-0.11,1.16-0.11,1.62-0.28c0.23-0.08,0.33,0.14,0.12-0.12
				c0.26,0.32,0.17,1.07,0.18,1.45c0.03,0.86,0.06,1.7,0.19,2.56c0.44,2.91,1.95,5.52,3.47,7.99c1.3,2.13,2.6,4.16,3.08,6.65
				c0.33,1.72,0.23,3.81-1.24,4.9c-1.97,1.46-5.43,0.85-7.69,0.81c-1.65-0.02-3.3-0.05-4.95-0.07c-0.82-0.01-1.65-0.02-2.47-0.04
				c-0.67-0.01-1.51-0.16-2.15-0.05c-0.05-0.01-0.1-0.03-0.16-0.04c-0.35-0.12-0.24-0.01,0.33,0.34c-0.03,0.01-0.25-0.72-0.28-0.81
				c-0.27-0.77-0.6-1.52-1.18-2.11c-1.22-1.26-3-1.63-4.68-1.36c-3.19,0.52-4.61,3.56-7.32,4.92c-2.53,1.26-5.58,1.24-8.33,1.2
				c-1.25-0.02-6.7,0.2-5.81-2.28c0.45-1.27-0.51-2.74-1.75-3.08c-1.39-0.38-2.62,0.47-3.08,1.75c-1.27,3.55,1.5,6.93,4.76,7.99
				c1.62,0.53,3.39,0.56,5.08,0.6c1.59,0.04,3.19,0.05,4.78-0.09c3.39-0.29,6.66-1.18,9.29-3.44c0.89-0.77,1.74-2.04,2.76-2.53
				c-0.14,0.07,0.86-0.29,0.59-0.15c0.26-0.14,0.43,0.05,0.21,0.02c-0.24-0.03-0.27-0.69-0.1,0.05c0.07,0.33,0.2,0.65,0.32,0.96
				c1.52,3.9,6.28,3.12,9.67,3.17c3.66,0.05,7.5,0.44,11.12-0.14c3.25-0.52,5.87-2.61,6.92-5.75c0.88-2.62,0.49-5.7-0.45-8.25
				c-1.12-3.07-3.14-5.64-4.63-8.52c-0.59-1.15-1.1-2.39-1.27-3.68c-0.23-1.76,0.06-3.54-0.8-5.18c-0.8-1.54-2.32-2.46-4.03-2.61
				c-1.65-0.15-3.15,0.57-4.76,0.64c-2.84,0.11-5.01-3.23-6.92-4.9c-2.45-2.14-5.45-3.59-8.74-2.7c-1.25,0.33-2.44,1.02-3.28,2.01
				c-0.53,0.63-0.93,1.34-1.16,2.13c-0.29,1-0.11,2-0.27,3c-0.12,0.78-0.51,0.89-1.44,1.09c-1.07,0.23-2.36,0.1-3.52-0.03
				c-2.79-0.32-6.11-0.31-8.23,1.83c-1.22,1.23-1.71,2.79-1.9,4.47c-0.08,0.73-0.08,1.45-0.1,2.18c-0.01,0.63-0.04,1.34-0.13,1.66
				c-0.08,0.28,0.1,0.2-0.15,0.35c0.09-0.06,0.11-0.15,0.16-0.16c-0.71,0.1-1.43-0.23-2.12-0.37c-1.88-0.4-3.64-0.28-5.38,0.54
				c-3.31,1.57-5.3,5.48-4.24,9.05c1.03,3.46,4.6,6.08,8.23,5.72c1.34-0.13,2.5-1.05,2.5-2.5
				C908.27,143.91,907.12,142.53,905.77,142.66L905.77,142.66z"/>
		</g>
	</g>
	<g>
		<g>
			<path class="st54" d="M906.01,146.64c0,0.58,0,1.17,0,1.75c-0.01,0.34,0.06,0.67,0.22,0.96c0.1,0.31,0.27,0.58,0.52,0.8
				c0.23,0.24,0.49,0.42,0.8,0.52c0.3,0.16,0.62,0.23,0.96,0.22c0.22-0.03,0.44-0.06,0.66-0.09c0.42-0.12,0.79-0.33,1.1-0.64
				c0.13-0.17,0.26-0.34,0.39-0.51c0.23-0.39,0.34-0.81,0.34-1.26c0-0.58,0-1.17,0-1.75c0.01-0.34-0.06-0.67-0.22-0.96
				c-0.1-0.31-0.27-0.58-0.52-0.8c-0.23-0.24-0.49-0.42-0.8-0.52c-0.3-0.16-0.62-0.23-0.96-0.22c-0.22,0.03-0.44,0.06-0.66,0.09
				c-0.42,0.12-0.79,0.33-1.1,0.64c-0.13,0.17-0.26,0.34-0.39,0.51C906.13,145.77,906.01,146.19,906.01,146.64L906.01,146.64z"/>
		</g>
	</g>
	<g>
		<g>
			<path class="st54" d="M919.01,145.25c5.23,0,10.24-4.6,10-10c-0.24-5.42-4.39-10-10-10c-5.23,0-10.24,4.6-10,10
				C909.25,140.67,913.4,145.25,919.01,145.25L919.01,145.25z"/>
		</g>
	</g>
	<g>
		<g>
			<path class="st54" d="M926.38,127.78c-0.64-0.54-1.21-1.13-1.74-1.79c0.52,0.67,1.04,1.35,1.56,2.02
				c-0.35-0.48-0.66-0.97-0.92-1.51c0.34,0.8,0.67,1.59,1.01,2.39c-0.17-0.4-0.29-0.79-0.36-1.22c0.12,0.89,0.24,1.77,0.36,2.66
				c-0.03-0.2-0.03-0.39-0.02-0.59c-0.12,0.89-0.24,1.77-0.36,2.66c0.04-0.31,0.11-0.54,0.22-0.83c-0.34,0.8-0.67,1.59-1.01,2.39
				c0.05-0.08,0.1-0.17,0.15-0.25c-0.52,0.67-1.04,1.35-1.56,2.02c0.12-0.18,0.26-0.33,0.42-0.47c-0.67,0.52-1.35,1.04-2.02,1.56
				c0.16-0.14,0.34-0.26,0.53-0.35c-0.8,0.34-1.59,0.67-2.39,1.01c0.19-0.09,0.38-0.15,0.58-0.19c-0.89,0.12-1.77,0.24-2.66,0.36
				c0.33-0.04,0.61-0.05,0.94-0.02c-0.89-0.12-1.77-0.24-2.66-0.36c0.34,0.06,0.63,0.14,0.95,0.26c-0.8-0.34-1.59-0.67-2.39-1.01
				c0.43,0.19,0.8,0.41,1.18,0.68c-0.67-0.52-1.35-1.04-2.02-1.56c0.37,0.31,0.69,0.63,0.99,1c-0.52-0.67-1.04-1.35-1.56-2.02
				c0.64,0.86,1.16,1.8,1.75,2.7c1.49,2.24,2.88,3.81,5.06,5.34c3.14,2.19,7.52,2.86,11.19,1.81c2.88-0.83,5.43-2.71,6.99-5.27
				c1.38-2.26,1.84-4.53,1.96-7.15c0.12-2.56,0.05-5.14,0.07-7.7c-5.02,2.88-10.03,5.76-15.05,8.63c0.32,0.23,0.64,0.46,0.95,0.7
				c-0.67-0.52-1.35-1.04-2.02-1.56c1.45,1.14,2.74,2.43,3.89,3.87c-0.52-0.67-1.04-1.35-1.56-2.02c1.21,1.57,2.2,3.25,2.98,5.07
				c-0.34-0.8-0.67-1.59-1.01-2.39c0.15,0.36,0.29,0.73,0.43,1.1c0.88,2.38,2.25,4.74,4.6,5.98c2.02,1.07,4.1,1.49,6.38,1.19
				c2.1-0.28,4.27-1.14,5.74-2.75c1.9-2.06,2.64-4.29,2.93-7.07c0.46-4.49-1.03-9.75-3.66-13.41c-3.2-4.46-7.41-7.96-12.83-9.34
				c-4.15-1.05-9.21,0.66-11.29,4.6c-2.12,4.02-1.6,8.78,1.56,12.12c0.27,0.29,0.53,0.58,0.78,0.89c-0.52-0.67-1.04-1.35-1.56-2.02
				c1.27,1.72,2.06,3.69,3.07,5.56c1.62,2.99,3.96,5.55,6.81,7.42c3.51,2.3,7.79,2.88,11.83,1.92c2.49-0.59,4.66-2.07,6.97-3.1
				c-0.8,0.34-1.59,0.67-2.39,1.01c0.46-0.19,0.92-0.34,1.41-0.42c-0.89,0.12-1.77,0.24-2.66,0.36c0.28-0.03,0.52-0.03,0.8,0
				c-0.89-0.12-1.77-0.24-2.66-0.36c0.17,0.03,0.34,0.08,0.51,0.14c-0.8-0.34-1.59-0.67-2.39-1.01c0.17,0.07,0.33,0.17,0.48,0.28
				c-0.67-0.52-1.35-1.04-2.02-1.56c0.08,0.06,0.16,0.13,0.23,0.19c-0.86-3.24-1.71-6.49-2.57-9.73c-0.22,0.56-0.37,1.12-0.48,1.71
				c-0.23,1.32-0.49,2.73-0.42,4.08c0.16,2.93,0.76,5.02,1.99,7.64c0.78,1.66,1.96,3.2,3.31,4.43c0.82,0.75,1.74,1.37,2.45,2.24
				c-0.52-0.67-1.04-1.35-1.56-2.02c0.19,0.27,0.33,0.51,0.46,0.81c-0.34-0.8-0.67-1.59-1.01-2.39c0.08,0.2,0.13,0.4,0.16,0.61
				c-0.12-0.89-0.24-1.77-0.36-2.66c0.03,0.19,0.03,0.39,0.02,0.58c0.12-0.89,0.24-1.77,0.36-2.66c-0.04,0.29-0.1,0.52-0.2,0.79
				c0.34-0.8,0.67-1.59,1.01-2.39c-0.13,0.25-0.26,0.46-0.43,0.69c0.52-0.67,1.04-1.35,1.56-2.02c-0.2,0.22-0.39,0.4-0.62,0.59
				c0.67-0.52,1.35-1.04,2.02-1.56c-0.42,0.31-0.86,0.55-1.33,0.78c0.8-0.34,1.59-0.67,2.39-1.01c-1,0.42-2.04,0.68-3.11,0.84
				c0.89-0.12,1.77-0.24,2.66-0.36c-2.22,0.29-4.45,0.51-6.68,0.24c0.89,0.12,1.77,0.24,2.66,0.36c-0.89-0.14-1.73-0.35-2.56-0.68
				c0.8,0.34,1.59,0.67,2.39,1.01c-0.59-0.26-1.13-0.57-1.65-0.94c0.67,0.52,1.35,1.04,2.02,1.56c-0.74-0.59-1.4-1.26-2.12-1.88
				c-1.97-1.71-3.62-2.78-6.1-3.64c-3.06-1.06-6.44-0.92-9.55-0.19c-4.55,1.06-7.94,4.07-12.09,5.91c0.8-0.34,1.59-0.67,2.39-1.01
				c-0.9,0.37-1.8,0.63-2.77,0.77c0.89-0.12,1.77-0.24,2.66-0.36c-0.42,0.04-0.82,0.05-1.24,0.04c2.36,5.69,4.71,11.38,7.07,17.07
				c2.32-2,4.16-4.97,4.99-7.92c1.43-5.05-0.57-10.82-5.15-13.53c-3.2-1.9-6.62-1.91-10.21-1.9c-2.42,0.01-4.83,0.01-7.25,0.02
				c-5.23,0.01-10.24,4.59-10,10c0.24,5.41,4.39,10.01,10,10c3.65-0.01,7.34-0.19,10.98,0c-0.89-0.12-1.77-0.24-2.66-0.36
				c0.28,0.02,0.54,0.08,0.81,0.17c-0.8-0.34-1.59-0.67-2.39-1.01c0.23,0.08,0.43,0.2,0.62,0.35c-0.67-0.52-1.35-1.04-2.02-1.56
				c0.14,0.12,0.27,0.25,0.37,0.4c-0.52-0.67-1.04-1.35-1.56-2.02c0.04,0.08,0.08,0.15,0.13,0.23c-0.34-0.8-0.67-1.59-1.01-2.39
				c0.07,0.16,0.12,0.32,0.15,0.5c-0.12-0.89-0.24-1.77-0.36-2.66c0.02,0.29,0.02,0.53-0.02,0.82c0.12-0.89,0.24-1.77,0.36-2.66
				c-0.07,0.31-0.15,0.58-0.26,0.88c0.34-0.8,0.67-1.59,1.01-2.39c-0.28,0.63-0.63,1.18-1.05,1.73c0.52-0.67,1.04-1.35,1.56-2.02
				c-0.36,0.43-0.74,0.82-1.17,1.19c-1.19,1.03-2.16,2.92-2.57,4.41c-0.6,2.18-0.36,4.46,0.5,6.51c1.56,3.69,5.11,6.06,9.14,6.15
				c3.81,0.09,7.46-1.19,10.76-3.01c2.03-1.12,3.9-2.5,6.04-3.42c-0.8,0.34-1.59,0.67-2.39,1.01c0.9-0.36,1.79-0.63,2.75-0.79
				c-0.89,0.12-1.77,0.24-2.66,0.36c0.66-0.08,1.29-0.1,1.95-0.04c-0.89-0.12-1.77-0.24-2.66-0.36c0.52,0.08,1,0.2,1.49,0.38
				c-0.8-0.34-1.59-0.67-2.39-1.01c0.5,0.22,0.93,0.49,1.37,0.81c-0.67-0.52-1.35-1.04-2.02-1.56c1.79,1.46,3.35,3.2,5.42,4.32
				c2.83,1.53,5.33,2.05,8.48,2.39c1.51,0.16,3.02,0.11,4.53-0.03c2.17-0.21,4.4-0.36,6.5-0.98c5.93-1.74,11.04-6.38,11.14-12.92
				c0.06-3.64-1.5-6.96-3.98-9.56c-0.95-0.99-2.12-1.69-2.98-2.78c0.52,0.67,1.04,1.35,1.56,2.02c-0.35-0.49-0.63-1-0.87-1.55
				c0.34,0.8,0.67,1.59,1.01,2.39c-0.22-0.56-0.37-1.12-0.48-1.72c0.12,0.89,0.24,1.77,0.36,2.66c-0.09-0.72-0.1-1.41-0.01-2.13
				c-0.12,0.89-0.24,1.77-0.36,2.66c0.1-0.6,0.25-1.15,0.48-1.71c1.19-3-0.12-7.68-2.57-9.73c-1.85-1.54-3.27-2.55-5.64-3.19
				c-2.17-0.58-4.67-0.47-6.81,0.16c-2.3,0.68-4.29,1.96-6.45,2.93c0.8-0.34,1.59-0.67,2.39-1.01c-0.63,0.26-1.24,0.46-1.92,0.55
				c0.89-0.12,1.77-0.24,2.66-0.36c-0.38,0.02-0.72,0.01-1.09-0.04c0.89,0.12,1.77,0.24,2.66,0.36c-0.37-0.07-0.7-0.16-1.05-0.29
				c0.8,0.34,1.59,0.67,2.39,1.01c-0.58-0.25-1.1-0.56-1.61-0.93c0.67,0.52,1.35,1.04,2.02,1.56c-0.61-0.49-1.15-1.04-1.65-1.64
				c0.52,0.67,1.04,1.35,1.56,2.02c-1.05-1.37-1.75-2.93-2.52-4.47c-1.09-2.18-2.47-4.19-4.16-5.97
				c-3.24,5.57-6.49,11.14-9.73,16.71c0.57,0.14,1.11,0.32,1.65,0.54c-0.8-0.34-1.59-0.67-2.39-1.01c0.96,0.42,1.85,0.94,2.68,1.57
				c-0.67-0.52-1.35-1.04-2.02-1.56c0.82,0.66,1.55,1.39,2.21,2.21c-0.52-0.67-1.04-1.35-1.56-2.02c0.71,0.93,1.29,1.93,1.76,3
				c-0.34-0.8-0.67-1.59-1.01-2.39c0.39,0.98,0.66,1.97,0.82,3.01c-0.12-0.89-0.24-1.77-0.36-2.66c0.11,0.93,0.12,1.84,0.03,2.77
				c6.55-0.89,13.1-1.77,19.64-2.66c-1.12-3.06-2.44-5.97-4.42-8.56c-2.5-3.28-5.04-5.77-8.43-8.16c-2.86-2.01-7.2-1.69-10.09,0
				c-3.06,1.79-4.92,5.1-4.95,8.63c-0.02,2.8,0.17,5.7-0.13,8.48c0.12-0.89,0.24-1.77,0.36-2.66c-0.03,0.26-0.1,0.5-0.19,0.74
				c0.34-0.8,0.67-1.59,1.01-2.39c-0.08,0.21-0.2,0.4-0.34,0.58c0.52-0.67,1.04-1.35,1.56-2.02c-0.12,0.14-0.25,0.27-0.4,0.38
				c0.67-0.52,1.35-1.04,2.02-1.56c-0.15,0.1-0.31,0.19-0.48,0.25c0.8-0.34,1.59-0.67,2.39-1.01c-0.17,0.07-0.35,0.11-0.54,0.14
				c0.89-0.12,1.77-0.24,2.66-0.36c-0.3,0.03-0.57,0.04-0.87,0.02c0.89,0.12,1.77,0.24,2.66,0.36c-0.41-0.06-0.78-0.16-1.17-0.3
				c0.8,0.34,1.59,0.67,2.39,1.01c-0.38-0.17-0.71-0.37-1.05-0.62c0.67,0.52,1.35,1.04,2.02,1.56c-0.38-0.33-0.7-0.7-1.01-1.09
				c0.52,0.67,1.04,1.35,1.56,2.02c-0.63-0.87-1.14-1.81-1.74-2.7c-1.48-2.19-2.9-3.73-5.05-5.24c-3.89-2.75-9.78-3.18-13.89-0.65
				c-4.8,2.95-7.21,8.68-5.67,14.16c0.9,3.22,2.94,6.32,5.5,8.48c2.07,1.74,4.28,2.93,7.07,2.93c2.45,0,5.38-1.09,7.07-2.93
				c1.75-1.91,3.05-4.41,2.93-7.07C929.19,132.33,928.38,129.47,926.38,127.78L926.38,127.78z"/>
		</g>
	</g>
	<g>
		<g>
			<path class="st54" d="M942.63,150.51c5.23,0,10.24-4.6,10-10c-0.24-5.42-4.39-10-10-10c-5.23,0-10.24,4.6-10,10
				C932.87,145.92,937.02,150.51,942.63,150.51L942.63,150.51z"/>
		</g>
	</g>
	<g>
		<g>
			<path class="st54" d="M914.64,159.27c5.23,0,10.24-4.6,10-10c-0.24-5.42-4.39-10-10-10c-5.23,0-10.24,4.6-10,10
				C904.88,154.69,909.03,159.27,914.64,159.27L914.64,159.27z"/>
		</g>
	</g>
	<g>
		<g>
			<path class="st54" d="M955.75,148.75c5.23,0,10.24-4.6,10-10c-0.24-5.42-4.39-10-10-10c-5.23,0-10.24,4.6-10,10
				C946,144.17,950.15,148.75,955.75,148.75L955.75,148.75z"/>
		</g>
	</g>
	<g>
		<g>
			<path class="st54" d="M952.25,137.36c5.23,0,10.24-4.6,10-10c-0.24-5.42-4.39-10-10-10c-5.23,0-10.24,4.6-10,10
				C942.5,132.78,946.65,137.36,952.25,137.36L952.25,137.36z"/>
		</g>
	</g>
	<g>
		<g>
			<path class="st54" d="M1108.9,47.69c-3.48-1.91-7.63-3.57-11.5-1.77c-3.06,1.42-5.33,5.14-4.02,8.49
				c0.8-1.05,1.61-2.11,2.41-3.16c-2.85,0.34-5-1.92-7.37-3.14c-2.39-1.23-5.36-1.96-7.96-0.94c-3.02,1.19-4.12,4.15-3.99,7.2
				c0.05,1.15,0.34,2.46,0.1,3.59c-0.2,0.97-0.62,1.16-1.5,1.61c-1.91,0.97-4.38,1.49-5.94,3.3c-2.03,2.34-1.98,5.68-0.33,8.22
				c1.82,2.81,4.93,3.95,8.12,4.35c3.11,0.4,6.53,0.71,9.45-0.65c2.06-0.96,3.75-3.15,5.74-3.87c0.73-0.26,1.14-0.09,1.62,0.41
				c0.61,0.63,1.13,1.73,1.6,2.63c1.14,2.15,2.49,4.14,4.78,5.18c2.23,1.01,4.77,1.2,7.13,0.55c2.32-0.63,4.42-2.07,5.7-4.12
				c0.67-1.08,1.02-2.34,1.31-3.56c0.22-0.95,0.31-2.42,1.01-3.16c0.61-0.64,2.03-0.43,2.91-0.49c1.45-0.11,2.84-0.42,4.09-1.18
				c2.22-1.36,3.84-3.74,4.27-6.3c0.54-3.23-0.7-6.27-3.35-8.19c-2.21-1.6-5.33-2.17-7.95-1.34c-1.65,0.53-2.9,1.53-4.11,2.74
				c-0.44,0.44-0.89,1.05-1.48,1.29c-0.34,0.14-0.95-0.04-0.27,0.29c0.22,0.11-0.12,0.17,0.04-0.01c0.01-0.01-0.02-0.39-0.01-0.64
				c0.02-0.6,0.1-1.2,0.1-1.8c-0.01-1.77-0.63-3.18-2.12-4.19c-2.67-1.81-5.18,2.52-2.52,4.32c-0.75-0.51-0.16-0.56-0.33-0.28
				c-0.02,0.03-0.03-0.75-0.02,0.15c0,0.5-0.06,1-0.08,1.5c-0.06,1.21,0.07,2.45,0.67,3.52c1.47,2.62,5.04,2.76,7.37,1.29
				c1.1-0.7,1.95-1.69,2.89-2.57c0.66-0.61,1.36-0.91,2.03-0.97c1.51-0.13,3.25,0.53,3.97,1.91c0.67,1.26,0.34,2.87-0.59,4.05
				c-1.45,1.84-3.51,1.27-5.68,1.66c-2.86,0.51-4.5,2.75-5.23,5.41c-0.3,1.1-0.45,2.25-0.84,3.32c-0.24,0.64-0.55,1.11-1.23,1.66
				c-1.02,0.84-2.65,1.25-4.25,1.04c-0.31-0.04-1.2-0.34-1.61-0.58c-0.69-0.41-1.12-0.99-1.63-1.87c-1.09-1.89-1.91-3.97-3.67-5.36
				c-2.05-1.63-4.64-1.75-6.97-0.64c-2.01,0.96-3.46,2.84-5.48,3.75c-1.08,0.49-2.3,0.45-3.47,0.4c-1.3-0.05-2.64-0.09-3.92-0.34
				c-1.75-0.34-4.27-1.26-4.22-3.42c0.01-0.6,0.35-0.89,0.68-1.12c0.88-0.62,1.69-0.83,2.67-1.23c2.51-1.02,4.84-2.5,5.49-5.34
				c0.32-1.39,0.22-2.79,0.12-4.2c-0.06-0.82-0.3-2.11,0.16-2.83c0.37-0.58,1.15-0.64,1.9-0.56c1.17,0.12,2.25,0.66,3.24,1.26
				c2.74,1.66,5.57,3.7,8.96,3.29c1.43-0.17,3.07-1.49,2.41-3.16c-0.46-1.17,0.37-2.37,1.76-2.81c2.13-0.67,4.63,0.76,6.42,1.75
				C1109.19,53.56,1111.72,49.24,1108.9,47.69L1108.9,47.69z"/>
		</g>
	</g>
	<g>
		<g>
			<path class="st54" d="M1079.02,76.01c1.41,0.04,2.81,0.08,4.22,0.12c-0.89-6.55-1.77-13.1-2.66-19.64
				c-3.22,0.79-6.45,1.58-9.67,2.37c-7.03,1.72-10.05,11.75-4.41,16.71c2.97,2.61,6.6,4.27,10.63,4c4-0.27,7.74-1.78,10.61-4.63
				c2.35-2.33,4.08-5.61,4.8-8.82c0.6-2.7,0.58-5.39,0.84-8.11c-0.12,0.89-0.24,1.77-0.36,2.66c0.07-0.5,0.18-0.97,0.36-1.45
				c-0.34,0.8-0.67,1.59-1.01,2.39c0.1-0.23,0.22-0.45,0.36-0.65c-0.52,0.67-1.04,1.35-1.56,2.02c0.22-0.28,0.43-0.5,0.71-0.72
				c-0.67,0.52-1.35,1.04-2.02,1.56c0.29-0.2,0.56-0.35,0.88-0.49c-0.8,0.34-1.59,0.67-2.39,1.01c0.44-0.16,0.88-0.27,1.34-0.34
				c-0.89,0.12-1.77,0.24-2.66,0.36c0.71-0.07,1.4-0.05,2.11,0.04c-0.89-0.12-1.77-0.24-2.66-0.36c0.83,0.14,1.61,0.36,2.4,0.67
				c-0.8-0.34-1.59-0.67-2.39-1.01c0.88,0.38,1.69,0.86,2.47,1.43c-0.67-0.52-1.35-1.04-2.02-1.56c0.75,0.6,1.42,1.26,2.02,2.01
				c-0.52-0.67-1.04-1.35-1.56-2.02c0.5,0.68,0.92,1.38,1.27,2.15c-0.34-0.8-0.67-1.59-1.01-2.39c0.05,0.11,0.09,0.22,0.14,0.33
				c0.67,1.61,1.31,3.15,2.57,4.41c1.56,1.56,3.58,2.46,5.74,2.75c4.02,0.54,7.8-1.34,9.96-4.77c2.62-4.15,3.96-8.95,5.09-13.68
				c-6.55-0.89-13.1-1.77-19.64-2.66c0.09,8.26-1.23,19.25,7.41,23.92c5.77,3.11,11.76,1.02,17.19-1.59
				c3.41-1.64,6.51-3.96,9.31-6.49c-5.24-4.04-10.47-8.08-15.71-12.12c-0.47,0.81-0.98,1.58-1.54,2.33
				c0.52-0.67,1.04-1.35,1.56-2.02c-1.73,2.23-3.81,4.11-6.03,5.84c0.67-0.52,1.35-1.04,2.02-1.56c-2.35,1.8-4.83,3.77-7.51,5.05
				c0.8-0.34,1.59-0.67,2.39-1.01c-0.52,0.22-1.03,0.38-1.58,0.5c0.89-0.12,1.77-0.24,2.66-0.36c-0.43,0.05-0.8,0.07-1.23,0.04
				c0.89,0.12,1.77,0.24,2.66,0.36c-0.51-0.08-0.96-0.2-1.43-0.4c0.8,0.34,1.59,0.67,2.39,1.01c-0.34-0.17-0.65-0.36-0.96-0.58
				c0.67,0.52,1.35,1.04,2.02,1.56c-0.62-0.48-1.15-1.02-1.64-1.63c0.52,0.67,1.04,1.35,1.56,2.02c-0.98-1.28-1.71-2.73-2.61-4.06
				c-1.69-2.49-3.62-4.79-6.29-6.27c-3.29-1.82-6.8-2.17-10.45-1.54c-3.58,0.61-6.52,3.08-8.42,6.07
				c-2.81,4.43-1.07,11.22,3.59,13.68c4.94,2.61,10.69,1.14,13.68-3.59c0.05-0.09,0.11-0.17,0.16-0.26
				c-0.52,0.67-1.04,1.35-1.56,2.02c0.2-0.24,0.38-0.43,0.62-0.62c-0.67,0.52-1.35,1.04-2.02,1.56c0.16-0.11,0.33-0.21,0.5-0.29
				c-0.8,0.34-1.59,0.67-2.39,1.01c0.38-0.15,0.75-0.25,1.15-0.31c-0.89,0.12-1.77,0.24-2.66,0.36c0.42-0.03,0.82-0.01,1.25,0.04
				c-0.89-0.12-1.77-0.24-2.66-0.36c0.42,0.08,0.82,0.2,1.21,0.36c-0.8-0.34-1.59-0.67-2.39-1.01c0.41,0.2,0.76,0.42,1.12,0.69
				c-0.67-0.52-1.35-1.04-2.02-1.56c0.49,0.41,0.91,0.86,1.31,1.36c-0.52-0.67-1.04-1.35-1.56-2.02c0.93,1.23,1.63,2.6,2.49,3.89
				c1.66,2.49,3.46,4.47,5.92,6.16c5.29,3.64,12.22,2.66,17.34-0.73c6.38-4.21,12.74-8.91,16.64-15.64
				c2.51-4.33,1.33-9.88-2.58-12.9c-4.05-3.13-9.39-2.59-13.13,0.78c-0.63,0.56-1.27,1.1-1.93,1.62c0.67-0.52,1.35-1.04,2.02-1.56
				c-2.13,1.62-4.43,2.95-6.89,3.99c0.8-0.34,1.59-0.67,2.39-1.01c-1.18,0.48-2.37,0.94-3.62,1.15c0.89-0.12,1.77-0.24,2.66-0.36
				c-0.44,0.04-0.81,0.04-1.25-0.02c0.89,0.12,1.77,0.24,2.66,0.36c-0.24-0.05-0.47-0.12-0.7-0.22c0.8,0.34,1.59,0.67,2.39,1.01
				c-0.18-0.08-0.36-0.19-0.52-0.31c0.67,0.52,1.35,1.04,2.02,1.56c-0.24-0.2-0.43-0.39-0.63-0.62c0.52,0.67,1.04,1.35,1.56,2.02
				c-0.24-0.34-0.43-0.68-0.6-1.07c0.34,0.8,0.67,1.59,1.01,2.39c-0.23-0.62-0.38-1.25-0.48-1.91c0.12,0.89,0.24,1.77,0.36,2.66
				c-0.46-3.73-0.2-7.63-0.24-11.38c-0.05-4.99-3.76-9.16-8.67-9.82c-4.73-0.64-9.82,2.3-10.97,7.16c-0.67,2.8-1.36,5.6-2.48,8.26
				c0.34-0.8,0.67-1.59,1.01-2.39c-0.46,1.05-0.99,2.06-1.6,3.03c6.09,0.8,12.19,1.59,18.28,2.39c-0.97-2.34-1.7-3.93-3.2-5.88
				c-1.17-1.52-2.29-2.64-3.81-3.81c-3.41-2.63-7.18-3.93-11.45-4.31c-1.77-0.16-3.74,0.11-5.42,0.66
				c-3.21,1.06-5.91,2.99-7.72,5.87c-2.25,3.57-1.85,7.47-2.35,11.43c0.12-0.89,0.24-1.77,0.36-2.66c-0.16,1.05-0.4,2.05-0.79,3.04
				c0.34-0.8,0.67-1.59,1.01-2.39c-0.32,0.72-0.69,1.37-1.17,2c0.52-0.67,1.04-1.35,1.56-2.02c-0.3,0.36-0.62,0.68-0.98,0.98
				c0.67-0.52,1.35-1.04,2.02-1.56c-0.46,0.34-0.92,0.61-1.44,0.84c0.8-0.34,1.59-0.67,2.39-1.01c-0.53,0.2-1.04,0.34-1.6,0.42
				c0.89-0.12,1.77-0.24,2.66-0.36c-0.44,0.04-0.85,0.04-1.29-0.01c0.89,0.12,1.77,0.24,2.66,0.36c-0.43-0.07-0.81-0.18-1.21-0.35
				c0.8,0.34,1.59,0.67,2.39,1.01c-0.29-0.15-0.55-0.31-0.81-0.5c0.67,0.52,1.35,1.04,2.02,1.56c-0.08-0.07-0.16-0.14-0.24-0.22
				c-1.47,5.57-2.94,11.14-4.41,16.71c3.22-0.79,6.45-1.58,9.67-2.37c4.84-1.19,7.8-6.22,7.16-10.97c-0.67-4.96-4.8-8.53-9.82-8.67
				c-1.41-0.04-2.81-0.08-4.22-0.12c-5.23-0.14-10.24,4.7-10,10C1069.27,71.55,1073.41,75.86,1079.02,76.01L1079.02,76.01z"/>
		</g>
	</g>
	<g>
		<g>
			<path class="st54" d="M1105.27,58.49c5.23,0,10.24-4.6,10-10c-0.24-5.42-4.39-10-10-10c-5.23,0-10.24,4.6-10,10
				C1095.51,53.9,1099.66,58.49,1105.27,58.49L1105.27,58.49z"/>
		</g>
	</g>
	<g>
		<g>
			<path class="st54" d="M1100.89,59.36c5.23,0,10.24-4.6,10-10c-0.24-5.42-4.39-10-10-10c-5.23,0-10.24,4.6-10,10
				C1091.14,54.78,1095.29,59.36,1100.89,59.36L1100.89,59.36z"/>
		</g>
	</g>
	<g>
		<g>
			<path class="st54" d="M1114.02,79.52c5.23,0,10.24-4.6,10-10c-0.24-5.42-4.39-10-10-10c-5.23,0-10.24,4.6-10,10
				C1104.26,74.94,1108.41,79.52,1114.02,79.52L1114.02,79.52z"/>
		</g>
	</g>
	<g>
		<g>
			<path class="st54" d="M1108.77,67.25c5.23,0,10.24-4.6,10-10c-0.24-5.42-4.39-10-10-10c-5.23,0-10.24,4.6-10,10
				C1099.01,62.67,1103.16,67.25,1108.77,67.25L1108.77,67.25z"/>
		</g>
	</g>
	<g>
		<g>
			<path class="st54" d="M297.26,108.76c-2.55-1.86-6.07-3.46-9.02-1.47c-2.52,1.7-3.71,4.98-2.88,7.9
				c0.58-1.03,1.16-2.05,1.75-3.08c-0.5,0.07-1.53-0.93-1.9-1.24c-0.9-0.75-1.79-1.59-2.84-2.14c-2.13-1.11-4.76-1.38-6.7,0.27
				c-1.91,1.63-2.16,4.2-2.04,6.56c0.05,0.97,0.21,2.01,0.05,2.98c-0.13,0.78-0.39,1.03-0.89,1.37c-1.73,1.15-3.55,1.77-4.6,3.73
				c-1.18,2.19-0.9,4.9,0.21,7.06c1.15,2.23,3.35,3.62,5.79,4.05c2.53,0.44,5.49,0.76,7.73-0.75c0.83-0.56,1.54-1.27,2.23-1.99
				c0.33-0.34,0.65-0.69,1-1.02c0.14-0.14,0.29-0.28,0.45-0.4c-0.17,0.13,0.19-0.32,0.05-0.05c0.05-0.1,0.5-0.03,0.07-0.02
				c-0.02,0-0.3-0.02-0.28-0.04c-0.11,0.08,0.01-0.16,0.1,0.12c-0.07-0.21,0.11,0.17,0.12,0.19c0.51,0.8,0.8,1.72,1.15,2.59
				c0.82,2,1.82,3.91,3.82,4.95c1.69,0.88,3.73,1.01,5.51,0.33c1.96-0.75,3.51-2.22,4.36-4.14c0.47-1.07,0.7-2.16,0.9-3.31
				c0.13-0.77,0.21-2.11,0.63-2.69c0.29-0.4,1.15-0.25,1.83-0.33c1.24-0.16,2.31-0.65,3.24-1.48c1.61-1.42,2.5-3.54,2.79-5.63
				c0.35-2.59-0.27-5.3-2.12-7.22c-1.65-1.7-4.18-2.53-6.48-1.8c-1.23,0.39-2.23,1.18-3.03,2.18c-0.39,0.49-0.74,1.03-1.16,1.5
				c-0.04,0.05-0.08,0.09-0.12,0.14c-0.36,0.3-0.35,0.33,0.03,0.08c0.24,0.19,1.14,0.48,1.03,0.56c-0.07,0.05,0.02-0.38-0.02-0.18
				c0.05-0.24,0-0.55,0-0.8c0.01-0.53,0.07-1.06,0.06-1.59c-0.03-1.32-0.34-2.62-1.34-3.55c-2.36-2.18-5.9,1.34-3.54,3.54
				c-0.19-0.18-0.1-0.73-0.12-0.14c-0.02,0.42-0.02,0.84-0.04,1.26c-0.04,0.95-0.05,1.91,0.19,2.84c0.63,2.4,3.1,3.63,5.39,2.77
				c1.09-0.41,1.87-1.17,2.57-2.07c0.52-0.67,1.06-1.47,1.65-1.8c-0.13,0.07,0.18,0,0.17,0c0.02,0,0.28-0.01,0.49,0.07
				c0.43,0.17,0.88,0.58,1.17,1.18c0.56,1.17,0.41,2.68-0.12,3.84c-0.23,0.5-0.67,1.07-0.92,1.24c-0.28,0.19-0.08,0.09-0.48,0.15
				c-0.66,0.1-1.32,0.06-1.99,0.19c-2.3,0.45-3.64,2.35-4.2,4.51c-0.41,1.57-0.35,3.49-1.18,4.87c-0.58,0.97-1.43,1.33-2.29,1.27
				c0.37,0.03-0.43-0.11-0.57-0.18c0.4,0.18-0.47-0.4-0.23-0.19c-0.52-0.44-0.8-1.09-1.1-1.8c-0.71-1.68-1.23-3.5-2.5-4.86
				c-1.46-1.56-3.68-1.94-5.59-1c-1.52,0.75-2.57,2.17-3.77,3.32c-1.14,1.09-3.2,0.79-4.75,0.43c-1.5-0.35-2.48-1.32-2.55-2.92
				c-0.06-1.44,1.22-1.73,2.39-2.37c1.95-1.08,3.37-2.72,3.74-4.96c0.2-1.21,0.16-2.4,0.1-3.62c-0.05-0.94-0.2-2,0.13-2.91
				c0.06-0.16,0.3-0.45,0.13-0.23c-0.04,0.05-0.1,0-0.15,0.01c0.22-0.09,0.28-0.02,0.51,0.03c0.78,0.18,1.46,0.77,2.09,1.3
				c2.15,1.8,4.16,3.21,7.08,2.79c1.33-0.19,2.08-1.9,1.75-3.08c-0.25-0.86,0.09-2.01,0.83-2.41c0.93-0.5,2.87,1.01,3.73,1.63
				c1.09,0.8,2.79,0.18,3.42-0.9C298.9,110.91,298.35,109.56,297.26,108.76L297.26,108.76z"/>
		</g>
	</g>
	<g>
		<g>
			<path class="st54" d="M276.14,135.89c0.98,0.04,1.95,0.07,2.93,0.11c-0.89-6.55-1.77-13.1-2.66-19.64
				c-2.24,0.73-4.47,1.46-6.71,2.19c-3.36,1.1-6.02,3.5-6.98,6.98c-1,3.62,0.18,6.99,2.57,9.73c2.97,3.4,7.87,4.57,12.16,3.57
				c3.63-0.84,6.47-3.22,8.52-6.25c1.33-1.96,2.17-4.35,2.55-6.69c0.42-2.62,0.41-5.18,0.69-7.79c-0.12,0.89-0.24,1.77-0.36,2.66
				c0.07-0.42,0.16-0.79,0.29-1.19c-0.34,0.8-0.67,1.59-1.01,2.39c0.09-0.24,0.21-0.46,0.35-0.67c-0.52,0.67-1.04,1.35-1.56,2.02
				c0.13-0.18,0.28-0.35,0.45-0.5c-0.67,0.52-1.35,1.04-2.02,1.56c0.27-0.2,0.5-0.34,0.81-0.48c-0.8,0.34-1.59,0.67-2.39,1.01
				c0.19-0.07,0.39-0.13,0.59-0.16c-0.89,0.12-1.77,0.24-2.66,0.36c0.42-0.05,0.8-0.05,1.22,0c-0.89-0.12-1.77-0.24-2.66-0.36
				c0.41,0.08,0.8,0.18,1.19,0.33c-0.8-0.34-1.59-0.67-2.39-1.01c0.61,0.26,1.15,0.58,1.67,0.98c-0.67-0.52-1.35-1.04-2.02-1.56
				c0.54,0.45,1.01,0.94,1.45,1.49c-0.52-0.67-1.04-1.35-1.56-2.02c0.52,0.71,0.94,1.45,1.3,2.25c-0.34-0.8-0.67-1.59-1.01-2.39
				c0.14,0.37,0.27,0.73,0.39,1.1c1.21,3.84,4.29,6.62,8.31,7.16c1.83,0.25,3.48,0.04,5.18-0.68c1.85-0.78,3.89-2.21,4.78-4.09
				c1.97-4.17,3.04-8.33,3.84-12.84c-6.55-0.89-13.1-1.77-19.64-2.66c0.02,2.95,0.02,5.91,0.07,8.87c0.08,4.32,1,8.95,4.22,12.08
				c2.73,2.66,6.36,3.74,10.09,3.24c2.36-0.32,4.58-1.28,6.64-2.48c2.89-1.69,5.59-3.95,7.74-6.52
				c-5.24-4.04-10.47-8.08-15.71-12.12c-0.78,1.78-1.77,3.41-2.96,4.95c0.52-0.67,1.04-1.35,1.56-2.02c-1.95,2.45-4.27,4.7-6.68,6.7
				c0.67-0.52,1.35-1.04,2.02-1.56c-0.43,0.33-0.86,0.61-1.35,0.85c0.8-0.34,1.59-0.67,2.39-1.01c-0.23,0.1-0.46,0.17-0.71,0.22
				c0.89-0.12,1.77-0.24,2.66-0.36c-0.24,0.04-0.48,0.05-0.73,0.01c0.89,0.12,1.77,0.24,2.66,0.36c-0.21-0.03-0.42-0.09-0.62-0.18
				c0.8,0.34,1.59,0.67,2.39,1.01c-0.2-0.09-0.39-0.2-0.57-0.33c0.67,0.52,1.35,1.04,2.02,1.56c-0.39-0.31-0.71-0.64-1.02-1.02
				c0.52,0.67,1.04,1.35,1.56,2.02c-0.88-1.21-1.43-2.57-2.06-3.92c-1.08-2.31-2.64-4.35-4.66-5.91c-2.77-2.14-5.99-3.04-9.46-2.57
				c-3.7,0.5-7.29,2.69-8.98,6.14c-1.19,2.44-1.75,5.01-1.01,7.71c0.64,2.32,2.43,4.83,4.6,5.98c2.32,1.23,5.13,1.84,7.71,1.01
				c2.37-0.77,4.84-2.27,5.98-4.6c0.08-0.19,0.18-0.38,0.31-0.55c-0.52,0.67-1.04,1.35-1.56,2.02c0.11-0.15,0.25-0.29,0.39-0.41
				c-0.67,0.52-1.35,1.04-2.02,1.56c0.14-0.11,0.3-0.2,0.46-0.27c-0.8,0.34-1.59,0.67-2.39,1.01c0.16-0.07,0.33-0.12,0.51-0.14
				c-0.89,0.12-1.77,0.24-2.66,0.36c0.28-0.03,0.52-0.02,0.8,0.02c-0.89-0.12-1.77-0.24-2.66-0.36c0.18,0.03,0.36,0.08,0.53,0.15
				c-0.8-0.34-1.59-0.67-2.39-1.01c0.27,0.13,0.5,0.26,0.74,0.43c-0.67-0.52-1.35-1.04-2.02-1.56c0.27,0.23,0.49,0.47,0.72,0.74
				c-0.52-0.67-1.04-1.35-1.56-2.02c0.8,1.07,1.32,2.28,1.87,3.49c0.86,1.89,1.92,3.58,3.35,5.12c4.33,4.66,11.71,5.57,16.87,1.72
				c5.28-3.94,10.56-9.13,13.23-15.24c1.07-2.44,1.88-5.02,1.01-7.71c-0.68-2.11-1.82-3.83-3.58-5.19
				c-3.64-2.81-9.93-3.05-13.13,0.78c-1.11,1.32-2.32,2.52-3.68,3.59c0.67-0.52,1.35-1.04,2.02-1.56c-1.19,0.9-2.45,1.66-3.81,2.29
				c0.8-0.34,1.59-0.67,2.39-1.01c-0.39,0.16-0.74,0.29-1.15,0.38c0.89-0.12,1.77-0.24,2.66-0.36c-0.26,0.05-0.51,0.05-0.77,0
				c0.89,0.12,1.77,0.24,2.66,0.36c-0.13-0.04-0.25-0.08-0.38-0.12c0.8,0.34,1.59,0.67,2.39,1.01c-0.16-0.07-0.31-0.17-0.45-0.28
				c0.67,0.52,1.35,1.04,2.02,1.56c-0.14-0.12-0.26-0.25-0.37-0.4c0.52,0.67,1.04,1.35,1.56,2.02c-0.17-0.25-0.3-0.5-0.42-0.78
				c0.34,0.8,0.67,1.59,1.01,2.39c-0.24-0.64-0.38-1.29-0.47-1.97c0.12,0.89,0.24,1.77,0.36,2.66c-0.4-3.56-0.17-7.25-0.2-10.83
				c-0.04-4.99-3.78-9.16-8.67-9.82c-2.13-0.29-4.51-0.01-6.38,1.19c-2.07,1.34-4.15,3.45-4.6,5.98c-0.59,3.29-1.18,6.6-2.48,9.69
				c0.34-0.8,0.67-1.59,1.01-2.39c-0.11,0.26-0.23,0.51-0.35,0.76c6.09,0.8,12.18,1.59,18.28,2.39
				c-2.26-7.15-8.07-13.26-15.95-13.53c-4.81-0.16-9.55,2.5-11.75,6.8c-1.81,3.53-1.5,7.17-1.93,10.96
				c0.12-0.89,0.24-1.77,0.36-2.66c-0.15,1.1-0.38,2.16-0.77,3.21c0.34-0.8,0.67-1.59,1.01-2.39c-0.26,0.59-0.55,1.14-0.93,1.66
				c0.52-0.67,1.04-1.35,1.56-2.02c-0.23,0.27-0.46,0.5-0.73,0.73c0.67-0.52,1.35-1.04,2.02-1.56c-0.27,0.2-0.53,0.36-0.83,0.51
				c0.8-0.34,1.59-0.67,2.39-1.01c-0.3,0.12-0.57,0.2-0.88,0.26c0.89-0.12,1.77-0.24,2.66-0.36c-0.31,0.03-0.57,0.02-0.88-0.02
				c0.89,0.12,1.77,0.24,2.66,0.36c-0.19-0.04-0.38-0.1-0.56-0.18c0.8,0.34,1.59,0.67,2.39,1.01c-0.19-0.09-0.36-0.19-0.52-0.32
				c0.67,0.52,1.35,1.04,2.02,1.56c-0.17-0.14-0.33-0.3-0.47-0.48c-1.47,5.57-2.94,11.14-4.41,16.71c2.24-0.73,4.47-1.46,6.71-2.19
				c4.76-1.56,7.84-5.93,7.16-10.97c-0.67-5-4.8-8.49-9.82-8.67c-0.98-0.04-1.95-0.07-2.93-0.11c-5.23-0.19-10.24,4.74-10,10
				C266.39,131.47,270.53,135.68,276.14,135.89L276.14,135.89z"/>
		</g>
	</g>
	<g>
		<g>
			<path class="st54" d="M294.36,119.66c5.23,0,10.24-4.6,10-10c-0.24-5.42-4.39-10-10-10c-5.23,0-10.24,4.6-10,10
				C284.6,115.08,288.75,119.66,294.36,119.66L294.36,119.66z"/>
		</g>
	</g>
	<g>
		<g>
			<path class="st54" d="M291.32,120.47c5.23,0,10.24-4.6,10-10c-0.24-5.42-4.39-10-10-10c-5.23,0-10.24,4.6-10,10
				C281.56,115.89,285.71,120.47,291.32,120.47L291.32,120.47z"/>
		</g>
	</g>
	<g>
		<g>
			<path class="st54" d="M300.43,139.13c5.23,0,10.24-4.6,10-10c-0.24-5.42-4.39-10-10-10c-5.23,0-10.24,4.6-10,10
				C290.67,134.55,294.82,139.13,300.43,139.13L300.43,139.13z"/>
		</g>
	</g>
	<g>
		<g>
			<path class="st54" d="M296.78,127.77c5.23,0,10.24-4.6,10-10c-0.24-5.42-4.39-10-10-10c-5.23,0-10.24,4.6-10,10
				C287.03,123.19,291.18,127.77,296.78,127.77L296.78,127.77z"/>
		</g>
	</g>
	<g>
		<g>
			<path class="st54" d="M1061.1,246.57c-2.55-1.86-6.07-3.46-9.02-1.47c-2.52,1.7-3.71,4.98-2.88,7.9
				c0.58-1.03,1.16-2.05,1.75-3.08c-0.5,0.07-1.53-0.93-1.9-1.24c-0.9-0.75-1.79-1.59-2.84-2.14c-2.13-1.11-4.76-1.38-6.7,0.27
				c-1.91,1.63-2.16,4.2-2.04,6.56c0.05,0.97,0.21,2.01,0.05,2.98c-0.13,0.78-0.39,1.03-0.89,1.37c-1.73,1.15-3.55,1.77-4.6,3.73
				c-1.18,2.19-0.9,4.9,0.21,7.06c1.15,2.23,3.35,3.62,5.79,4.05c2.53,0.44,5.49,0.76,7.73-0.75c0.83-0.56,1.54-1.27,2.23-1.99
				c0.33-0.34,0.65-0.7,1-1.02c0.14-0.14,0.29-0.28,0.45-0.4c-0.17,0.13,0.19-0.32,0.05-0.05c0.05-0.1,0.5-0.03,0.07-0.02
				c-0.02,0-0.3-0.02-0.28-0.04c-0.11,0.08,0.01-0.16,0.1,0.12c-0.07-0.21,0.11,0.17,0.12,0.19c0.51,0.8,0.8,1.72,1.15,2.59
				c0.82,2,1.82,3.91,3.82,4.95c1.69,0.88,3.73,1.01,5.51,0.33c1.96-0.75,3.51-2.22,4.36-4.14c0.47-1.07,0.7-2.16,0.9-3.31
				c0.13-0.77,0.21-2.11,0.63-2.69c0.29-0.4,1.15-0.25,1.83-0.33c1.24-0.16,2.3-0.65,3.24-1.48c1.61-1.42,2.5-3.54,2.79-5.63
				c0.35-2.59-0.27-5.3-2.12-7.22c-1.65-1.7-4.18-2.53-6.48-1.8c-1.23,0.39-2.23,1.18-3.03,2.18c-0.39,0.49-0.74,1.03-1.16,1.5
				c-0.04,0.05-0.08,0.09-0.12,0.14c-0.36,0.3-0.35,0.33,0.03,0.08c0.24,0.19,1.14,0.48,1.03,0.56c-0.07,0.05,0.02-0.38-0.02-0.18
				c0.05-0.24,0-0.55,0-0.8c0.01-0.53,0.07-1.06,0.06-1.59c-0.03-1.32-0.34-2.62-1.34-3.55c-2.36-2.18-5.9,1.34-3.54,3.54
				c-0.19-0.18-0.1-0.73-0.12-0.14c-0.02,0.42-0.02,0.84-0.04,1.26c-0.04,0.95-0.05,1.91,0.19,2.84c0.63,2.4,3.1,3.63,5.39,2.77
				c1.09-0.41,1.87-1.17,2.57-2.07c0.52-0.67,1.06-1.47,1.65-1.8c-0.13,0.07,0.18,0,0.17,0c0.02,0,0.28-0.01,0.49,0.07
				c0.43,0.17,0.88,0.58,1.17,1.18c0.56,1.17,0.41,2.68-0.12,3.84c-0.23,0.5-0.67,1.07-0.92,1.24c-0.28,0.19-0.08,0.09-0.48,0.15
				c-0.66,0.1-1.32,0.06-1.99,0.19c-2.3,0.45-3.64,2.35-4.2,4.51c-0.41,1.57-0.35,3.49-1.18,4.87c-0.58,0.97-1.43,1.33-2.29,1.27
				c0.37,0.03-0.43-0.11-0.57-0.18c0.4,0.18-0.47-0.4-0.23-0.19c-0.52-0.44-0.8-1.09-1.1-1.8c-0.71-1.68-1.23-3.5-2.5-4.86
				c-1.46-1.56-3.68-1.94-5.59-1c-1.52,0.75-2.57,2.17-3.77,3.32c-1.14,1.09-3.2,0.79-4.75,0.43c-1.5-0.35-2.48-1.32-2.55-2.92
				c-0.06-1.44,1.22-1.73,2.39-2.37c1.95-1.08,3.37-2.72,3.74-4.96c0.2-1.21,0.16-2.4,0.1-3.62c-0.05-0.94-0.2-2,0.13-2.91
				c0.06-0.16,0.3-0.45,0.13-0.23c-0.04,0.05-0.1,0-0.15,0.01c0.22-0.09,0.28-0.02,0.51,0.03c0.78,0.18,1.46,0.77,2.09,1.3
				c2.15,1.8,4.16,3.21,7.08,2.79c1.33-0.19,2.08-1.9,1.75-3.08c-0.25-0.86,0.09-2.01,0.83-2.41c0.93-0.5,2.87,1.01,3.73,1.63
				c1.09,0.8,2.79,0.18,3.42-0.9C1062.73,248.72,1062.19,247.37,1061.1,246.57L1061.1,246.57z"/>
		</g>
	</g>
	<g>
		<g>
			<path class="st54" d="M1039.97,273.7c0.98,0.04,1.95,0.07,2.93,0.11c-0.89-6.55-1.77-13.1-2.66-19.64
				c-2.24,0.73-4.47,1.46-6.71,2.19c-3.36,1.1-6.02,3.5-6.98,6.98c-1,3.62,0.18,6.99,2.57,9.73c2.97,3.4,7.87,4.57,12.16,3.57
				c3.63-0.84,6.47-3.22,8.52-6.25c1.33-1.96,2.17-4.35,2.55-6.69c0.42-2.62,0.41-5.18,0.69-7.79c-0.12,0.89-0.24,1.77-0.36,2.66
				c0.07-0.42,0.16-0.79,0.29-1.19c-0.34,0.8-0.67,1.59-1.01,2.39c0.09-0.24,0.21-0.46,0.35-0.67c-0.52,0.67-1.04,1.35-1.56,2.02
				c0.13-0.18,0.28-0.35,0.45-0.5c-0.67,0.52-1.35,1.04-2.02,1.56c0.27-0.2,0.5-0.34,0.81-0.48c-0.8,0.34-1.59,0.67-2.39,1.01
				c0.19-0.07,0.39-0.13,0.59-0.16c-0.89,0.12-1.77,0.24-2.66,0.36c0.42-0.05,0.8-0.05,1.22,0c-0.89-0.12-1.77-0.24-2.66-0.36
				c0.41,0.08,0.8,0.18,1.19,0.33c-0.8-0.34-1.59-0.67-2.39-1.01c0.61,0.26,1.15,0.58,1.67,0.98c-0.67-0.52-1.35-1.04-2.02-1.56
				c0.54,0.45,1.01,0.94,1.45,1.49c-0.52-0.67-1.04-1.35-1.56-2.02c0.52,0.71,0.94,1.45,1.3,2.25c-0.34-0.8-0.67-1.59-1.01-2.39
				c0.15,0.37,0.27,0.73,0.39,1.1c1.21,3.84,4.29,6.62,8.31,7.16c1.83,0.25,3.48,0.04,5.18-0.68c1.85-0.78,3.89-2.21,4.78-4.09
				c1.97-4.17,3.04-8.33,3.84-12.84c-6.55-0.89-13.1-1.77-19.64-2.66c0.02,2.95,0.02,5.91,0.07,8.87c0.08,4.32,1,8.95,4.22,12.08
				c2.73,2.66,6.36,3.74,10.09,3.24c2.36-0.32,4.58-1.28,6.64-2.48c2.89-1.69,5.59-3.95,7.74-6.52
				c-5.24-4.04-10.47-8.08-15.71-12.12c-0.78,1.78-1.77,3.41-2.96,4.95c0.52-0.67,1.04-1.35,1.56-2.02c-1.95,2.45-4.27,4.7-6.68,6.7
				c0.67-0.52,1.35-1.04,2.02-1.56c-0.43,0.33-0.86,0.61-1.35,0.85c0.8-0.34,1.59-0.67,2.39-1.01c-0.23,0.1-0.46,0.17-0.71,0.22
				c0.89-0.12,1.77-0.24,2.66-0.36c-0.24,0.04-0.48,0.05-0.73,0.01c0.89,0.12,1.77,0.24,2.66,0.36c-0.21-0.03-0.42-0.09-0.62-0.18
				c0.8,0.34,1.59,0.67,2.39,1.01c-0.2-0.09-0.39-0.2-0.57-0.33c0.67,0.52,1.35,1.04,2.02,1.56c-0.39-0.31-0.71-0.64-1.02-1.02
				c0.52,0.67,1.04,1.35,1.56,2.02c-0.88-1.21-1.43-2.57-2.06-3.92c-1.08-2.31-2.64-4.35-4.66-5.91c-2.77-2.14-5.99-3.04-9.46-2.57
				c-3.7,0.5-7.29,2.69-8.98,6.14c-1.19,2.44-1.75,5.01-1.01,7.71c0.64,2.32,2.43,4.83,4.6,5.98c2.32,1.23,5.13,1.84,7.71,1.01
				c2.37-0.77,4.84-2.27,5.98-4.6c0.08-0.19,0.18-0.38,0.31-0.55c-0.52,0.67-1.04,1.35-1.56,2.02c0.11-0.15,0.25-0.29,0.39-0.41
				c-0.67,0.52-1.35,1.04-2.02,1.56c0.14-0.11,0.3-0.2,0.46-0.27c-0.8,0.34-1.59,0.67-2.39,1.01c0.16-0.07,0.33-0.12,0.51-0.14
				c-0.89,0.12-1.77,0.24-2.66,0.36c0.28-0.03,0.52-0.02,0.8,0.02c-0.89-0.12-1.77-0.24-2.66-0.36c0.18,0.03,0.36,0.08,0.53,0.15
				c-0.8-0.34-1.59-0.67-2.39-1.01c0.27,0.13,0.5,0.26,0.74,0.43c-0.67-0.52-1.35-1.04-2.02-1.56c0.27,0.23,0.49,0.47,0.72,0.74
				c-0.52-0.67-1.04-1.35-1.56-2.02c0.8,1.07,1.32,2.28,1.87,3.49c0.86,1.89,1.92,3.58,3.35,5.12c4.33,4.66,11.71,5.57,16.87,1.72
				c5.28-3.94,10.56-9.13,13.23-15.24c1.07-2.44,1.88-5.02,1.01-7.71c-0.68-2.11-1.82-3.83-3.58-5.19
				c-3.64-2.81-9.93-3.05-13.13,0.78c-1.11,1.32-2.32,2.52-3.68,3.59c0.67-0.52,1.35-1.04,2.02-1.56c-1.19,0.9-2.45,1.66-3.81,2.29
				c0.8-0.34,1.59-0.67,2.39-1.01c-0.39,0.16-0.74,0.29-1.15,0.38c0.89-0.12,1.77-0.24,2.66-0.36c-0.26,0.05-0.51,0.05-0.77,0
				c0.89,0.12,1.77,0.24,2.66,0.36c-0.13-0.04-0.25-0.08-0.38-0.12c0.8,0.34,1.59,0.67,2.39,1.01c-0.16-0.07-0.31-0.17-0.45-0.28
				c0.67,0.52,1.35,1.04,2.02,1.56c-0.14-0.12-0.26-0.25-0.37-0.4c0.52,0.67,1.04,1.35,1.56,2.02c-0.17-0.25-0.3-0.5-0.42-0.78
				c0.34,0.8,0.67,1.59,1.01,2.39c-0.24-0.64-0.38-1.29-0.47-1.97c0.12,0.89,0.24,1.77,0.36,2.66c-0.4-3.56-0.17-7.25-0.2-10.83
				c-0.04-4.99-3.78-9.16-8.67-9.82c-2.13-0.29-4.51-0.01-6.38,1.19c-2.07,1.34-4.15,3.45-4.6,5.98c-0.59,3.29-1.18,6.6-2.48,9.69
				c0.34-0.8,0.67-1.59,1.01-2.39c-0.11,0.26-0.23,0.51-0.35,0.76c6.09,0.8,12.19,1.59,18.28,2.39
				c-2.26-7.15-8.07-13.26-15.95-13.53c-4.81-0.16-9.55,2.5-11.75,6.8c-1.81,3.53-1.5,7.17-1.93,10.96
				c0.12-0.89,0.24-1.77,0.36-2.66c-0.15,1.1-0.38,2.16-0.77,3.21c0.34-0.8,0.67-1.59,1.01-2.39c-0.26,0.59-0.55,1.14-0.93,1.66
				c0.52-0.67,1.04-1.35,1.56-2.02c-0.23,0.27-0.46,0.5-0.73,0.73c0.67-0.52,1.35-1.04,2.02-1.56c-0.27,0.2-0.53,0.36-0.83,0.51
				c0.8-0.34,1.59-0.67,2.39-1.01c-0.3,0.12-0.57,0.2-0.88,0.26c0.89-0.12,1.77-0.24,2.66-0.36c-0.31,0.03-0.57,0.02-0.88-0.02
				c0.89,0.12,1.77,0.24,2.66,0.36c-0.19-0.04-0.38-0.1-0.56-0.18c0.8,0.34,1.59,0.67,2.39,1.01c-0.19-0.09-0.36-0.19-0.52-0.32
				c0.67,0.52,1.35,1.04,2.02,1.56c-0.17-0.14-0.33-0.3-0.47-0.48c-1.47,5.57-2.94,11.14-4.41,16.71c2.24-0.73,4.47-1.46,6.71-2.19
				c4.76-1.56,7.84-5.93,7.16-10.97c-0.67-5-4.8-8.49-9.82-8.67c-0.98-0.04-1.95-0.07-2.93-0.11c-5.23-0.19-10.24,4.74-10,10
				C1030.22,269.28,1034.36,273.49,1039.97,273.7L1039.97,273.7z"/>
		</g>
	</g>
	<g>
		<g>
			<path class="st54" d="M1058.19,257.47c5.23,0,10.24-4.6,10-10c-0.24-5.42-4.39-10-10-10c-5.23,0-10.24,4.6-10,10
				C1048.43,252.89,1052.58,257.47,1058.19,257.47L1058.19,257.47z"/>
		</g>
	</g>
	<g>
		<g>
			<path class="st54" d="M1055.15,258.28c5.23,0,10.24-4.6,10-10c-0.24-5.42-4.39-10-10-10c-5.23,0-10.24,4.6-10,10
				C1045.4,253.7,1049.55,258.28,1055.15,258.28L1055.15,258.28z"/>
		</g>
	</g>
	<g>
		<g>
			<path class="st54" d="M1064.26,276.94c5.23,0,10.24-4.6,10-10c-0.24-5.42-4.39-10-10-10c-5.23,0-10.24,4.6-10,10
				C1054.51,272.36,1058.66,276.94,1064.26,276.94L1064.26,276.94z"/>
		</g>
	</g>
	<g>
		<g>
			<path class="st54" d="M1060.62,265.58c5.23,0,10.24-4.6,10-10c-0.24-5.42-4.39-10-10-10c-5.23,0-10.24,4.6-10,10
				C1050.86,261,1055.01,265.58,1060.62,265.58L1060.62,265.58z"/>
		</g>
	</g>
</g>
</svg>
