<?xml version="1.0" encoding="utf-8"?>
<!-- Generator: Adobe Illustrator 26.5.2, SVG Export Plug-In . SVG Version: 6.00 Build 0)  -->
<svg version="1.1" id="Layer_3" xmlns="http://www.w3.org/2000/svg" xmlns:xlink="http://www.w3.org/1999/xlink" x="0px" y="0px"
	 viewBox="0 0 841.89 1190.55" style="enable-background:new 0 0 841.89 1190.55;" xml:space="preserve">
<style type="text/css">
	.st0{fill:#1B9DD9;}
	.st1{fill:#48AC35;stroke:#020203;stroke-miterlimit:10;}
	.st2{fill:none;stroke:#644F42;stroke-width:11;stroke-miterlimit:10;}
	.st3{fill:#644F42;}
	.st4{fill:#9FC242;}
	.st5{fill:none;stroke:#CEDB73;stroke-width:2;stroke-miterlimit:10;}
	.st6{fill:#DBCBBC;}
	.st7{fill:#FFFFFF;stroke:#000000;stroke-miterlimit:10;}
	.st8{fill:#EAE9E8;stroke:#000000;stroke-miterlimit:10;}
	.st9{fill:none;stroke:#000000;stroke-miterlimit:10;}
	.st10{fill:#BC885D;}
	.st11{fill:#966E4A;}
	.st12{fill:none;stroke:#AEBCD9;stroke-width:4;stroke-miterlimit:10;}
	.st13{fill:#EDEBEB;stroke:#000000;stroke-width:4;stroke-miterlimit:10;}
	.st14{fill:#EDEBEB;stroke:#000000;stroke-miterlimit:10;}
	.st15{fill:#FFFFFF;stroke:#000000;stroke-width:2;stroke-miterlimit:10;}
	.st16{fill:none;stroke:#000000;stroke-width:3;stroke-miterlimit:10;}
	.st17{fill:#EAE9E8;stroke:#000000;stroke-width:4;stroke-miterlimit:10;}
	.st18{fill:#9E9D9D;stroke:#000000;stroke-miterlimit:10;}
	.st19{fill:none;stroke:#4C352B;stroke-width:2;stroke-miterlimit:10;}
	.st20{fill:#83A835;stroke:#000000;stroke-width:2;stroke-miterlimit:10;}
	.st21{fill:#986C55;stroke:#000000;stroke-width:2;stroke-miterlimit:10;}
	.st22{fill:#E95219;stroke:#000000;stroke-width:2;stroke-miterlimit:10;}
	.st23{fill:#986C55;stroke:#000000;stroke-miterlimit:10;}
	.st24{fill:#4C352B;stroke:#000000;stroke-miterlimit:10;}
	.st25{fill:#4C352B;stroke:#000000;stroke-width:0.5;stroke-miterlimit:10;}
	.st26{fill:#6DA7DB;stroke:#000000;stroke-miterlimit:10;}
	.st27{fill:#FDD040;stroke:#000000;stroke-miterlimit:10;}
	.st28{fill:none;stroke:#008D36;stroke-width:2;stroke-miterlimit:10;}
	.st29{fill:#CAC9C9;stroke:#000000;stroke-miterlimit:10;}
	.st30{fill:#FDD040;}
	.st31{fill:none;stroke:#986C55;stroke-width:3;stroke-miterlimit:10;}
	.st32{fill:#668891;stroke:#FFFFFF;stroke-width:5;stroke-miterlimit:10;}
	.st33{fill:#83A835;stroke:#000000;stroke-miterlimit:10;}
	.st34{fill:#83A835;stroke:#000000;stroke-width:0.75;stroke-miterlimit:10;}
	.st35{fill:none;stroke:#000000;stroke-width:2;stroke-miterlimit:10;}
	.st36{fill:#E8E8E6;stroke:#000000;stroke-width:0.75;stroke-miterlimit:10;}
	.st37{fill:none;stroke:#000000;stroke-width:0.5;stroke-miterlimit:10;}
	.st38{stroke:#FFFFFF;stroke-miterlimit:10;}
	.st39{fill:#FFFFFF;stroke:#000000;stroke-width:0.25;stroke-miterlimit:10;}
	.st40{fill:#C6D1E2;}
	.st41{fill:#F3943B;}
	.st42{fill:#EE7110;}
	.st43{fill:#F3943B;stroke:#020203;stroke-miterlimit:10;}
	.st44{fill:none;stroke:#020203;stroke-miterlimit:10;}
	.st45{fill:#D0CCCB;stroke:#020203;stroke-miterlimit:10;}
	.st46{opacity:0.51;fill:none;stroke:#423D39;stroke-miterlimit:10;}
	.st47{fill:#FFFFFF;stroke:#000000;stroke-width:3;stroke-miterlimit:10;}
	.st48{fill:#C6D1E2;stroke:#040304;stroke-miterlimit:10;}
	.st49{fill:#030304;}
	.st50{fill:none;}
	.st51{fill:#FFFFFF;}
</style>
<g id="Layer_16">
	<rect y="0.56" class="st0" width="841.39" height="812.35"/>
	<rect y="812.92" class="st1" width="844.68" height="378.2"/>
</g>
<line class="st2" x1="0" y1="920.12" x2="841.39" y2="920.12"/>
<line class="st2" x1="4.78" y1="758.14" x2="4.78" y2="920.12"/>
<line class="st2" x1="159.57" y1="762.47" x2="0" y2="761.64"/>
<line class="st2" x1="162.01" y1="920.12" x2="162.01" y2="335.85"/>
<line class="st2" x1="330.23" y1="686.08" x2="331.85" y2="920.12"/>
<line class="st2" x1="697.45" y1="335.85" x2="696.62" y2="920.12"/>
<line class="st2" x1="165.06" y1="690.96" x2="693.59" y2="690.96"/>
<polyline class="st2" points="162.01,472.36 456.99,472.36 693.59,472.36 "/>
<line class="st2" x1="455.37" y1="690.96" x2="453.61" y2="472.36"/>
<polygon class="st3" points="240.02,292.78 287.16,266.77 287.16,216.39 240.02,216.39 "/>
<polygon class="st4" points="167.7,339.16 167.7,466.61 293.66,466.61 293.66,272.9 "/>
<g>
	<polygon class="st4" points="462.48,213.39 462.48,466.61 691.98,466.61 691.98,340 	"/>
	<line class="st5" x1="462.48" y1="304.49" x2="632.01" y2="304.49"/>
	<line class="st5" x1="462.48" y1="347.16" x2="691.98" y2="347.16"/>
	<line class="st5" x1="472.1" y1="393.48" x2="687.52" y2="393.48"/>
	<line class="st5" x1="462.48" y1="434.92" x2="691.98" y2="434.92"/>
	<line class="st5" x1="504.86" y1="235.93" x2="504.86" y2="466.61"/>
	<line class="st5" x1="547.24" y1="259.31" x2="547.24" y2="462.14"/>
	<line class="st5" x1="600.27" y1="288.38" x2="600.27" y2="462.14"/>
	<line class="st5" x1="632.01" y1="304.49" x2="632.01" y2="457.67"/>
	<line class="st5" x1="462.48" y1="264.27" x2="547.24" y2="264.27"/>
	<line class="st5" x1="673.71" y1="327.82" x2="673.71" y2="457.67"/>
</g>
<line class="st5" x1="221.33" y1="316.82" x2="293.66" y2="316.82"/>
<line class="st5" x1="167.7" y1="358.45" x2="293.66" y2="358.45"/>
<line class="st5" x1="167.7" y1="408.91" x2="197.36" y2="408.91"/>
<line class="st5" x1="275.78" y1="408.91" x2="288.78" y2="408.91"/>
<line class="st5" x1="167.7" y1="443.11" x2="197.36" y2="443.11"/>
<line class="st5" x1="272.53" y1="446.36" x2="293.66" y2="446.36"/>
<line class="st5" x1="263.59" y1="290.42" x2="263.59" y2="369.97"/>
<line class="st5" x1="221.33" y1="312.25" x2="221.33" y2="369.97"/>
<polyline class="st6" points="293.66,271.19 293.66,275.78 293.66,466.45 465.44,467.61 465.44,212.26 429.36,194.41 "/>
<line class="st5" x1="192.89" y1="330.2" x2="192.89" y2="466.18"/>
<g>
	<path class="st7" d="M285.76,397.6c0,0-4.88,38.19,43.88,53.63h102.39c0,0,39.82-17.88,41.44-53.63H285.76z"/>
	<path class="st8" d="M287.38,397.6c0,0,111.74-14.63,184.06,0H287.38z"/>
	<circle class="st8" cx="382.55" cy="384.51" r="6.59"/>
	<circle class="st8" cx="370.94" cy="386.08" r="5.02"/>
	<circle class="st8" cx="394.16" cy="386.08" r="5.02"/>
</g>
<line class="st9" x1="293.66" y1="316.82" x2="465.44" y2="316.82"/>
<line class="st9" x1="465.44" y1="268.4" x2="297.72" y2="268.4"/>
<line class="st9" x1="465.44" y1="234.37" x2="362.73" y2="234.37"/>
<line class="st9" x1="293.66" y1="358.45" x2="465.44" y2="358.45"/>
<line class="st9" x1="297.72" y1="446.36" x2="318.73" y2="446.36"/>
<line class="st9" x1="442.15" y1="446.36" x2="465.44" y2="446.36"/>
<line class="st9" x1="304.22" y1="446.36" x2="293.66" y2="446.36"/>
<line class="st9" x1="318.73" y1="446.36" x2="318.73" y2="466.27"/>
<line class="st9" x1="367.31" y1="451.24" x2="367.31" y2="465.05"/>
<line class="st9" x1="414.08" y1="451.24" x2="414.08" y2="465.05"/>
<line class="st9" x1="448.06" y1="446.36" x2="448.06" y2="466.27"/>
<line class="st9" x1="321.29" y1="263.44" x2="321.29" y2="389.88"/>
<line class="st9" x1="372.34" y1="234.37" x2="372.34" y2="379.39"/>
<line class="st9" x1="414.08" y1="207.45" x2="414.08" y2="388.74"/>
<line class="st9" x1="448.06" y1="393.82" x2="448.06" y2="207.45"/>
<polygon class="st10" points="483.81,403.89 483.81,446.36 590.26,446.36 590.26,401.11 "/>
<path class="st11" d="M478.62,403.89c0,0-2.13-14.37,0-12.38c2.13,2,117.77,0,117.77,0v12.38H478.62z"/>
<line class="st12" x1="492.6" y1="446.99" x2="491.94" y2="466.27"/>
<line class="st12" x1="582.95" y1="446.36" x2="582.95" y2="466.27"/>
<line class="st12" x1="537.04" y1="359.01" x2="537.04" y2="378.92"/>
<path class="st7" d="M515.5,375.66l45.51,1.69C561.01,377.36,539.07,412.12,515.5,375.66z"/>
<rect x="476.05" y="298.64" class="st13" width="112.59" height="56.03"/>
<line class="st12" x1="527.08" y1="362.25" x2="546.99" y2="362.25"/>
<path class="st14" d="M683.4,436.61c0.41-1.63-8.13-5.28-8.13-5.28l-6.09,5.28c0,0-4.47,0.51-9.99-0.73
	c-7.47-1.69-16.86-6.61-19.67-20.39h52.01v32.5h-26c0,0-7.31,1.63-6.5-8.53"/>
<path class="st14" d="M636.17,414.89c0,0-3.21-2.68,3.21-7.02h34.5c0,0,2.01-4.34,4.81,7.02H636.17z"/>
<path class="st15" d="M616.81,295.33c-1.63,1.08-8.67,0-8.67,0v75.03h33.59v-58.84L616.81,295.33z"/>
<line class="st16" x1="609.22" y1="335.85" x2="640.65" y2="335.85"/>
<rect x="165.06" y="476.16" class="st7" width="286.86" height="209"/>
<g>
	<rect x="197.36" y="371.19" class="st7" width="74.76" height="95.08"/>
	<circle class="st17" cx="234.74" cy="429.56" r="28.44"/>
	<rect x="197.36" y="371.19" class="st8" width="74.76" height="18.69"/>
	<circle class="st18" cx="234.74" cy="380.54" r="8.2"/>
	<path class="st18" d="M233.69,408.91c0,0,20.65,1.24,15.05,21.46C248.73,430.37,247.28,413.35,233.69,408.91z"/>
</g>
<line class="st19" x1="406.34" y1="673.35" x2="406.34" y2="684.91"/>
<polygon class="st20" points="202.91,682.56 230.54,631.64 375.73,631.64 384.4,675.52 230.54,673.35 "/>
<path class="st21" d="M231.81,603.51c0,0,12.6,1.63,41.44-12.19h63.79c0,0,8.94,8.24,21.13,12.25l15.44,1.57v23.97h-141.8V603.51z"
	/>
<polygon class="st21" points="230.54,673.35 231.81,682.56 239.21,682.56 239.21,673.35 "/>
<polygon class="st21" points="377.94,675.7 376.68,684.91 369.28,684.91 369.28,675.7 "/>
<path class="st22" d="M263.51,609.14c0,0-2.05,16.2,0,19.61c2.05,3.41,2.05,3.41,2.05,3.41h23.63c0,0,7.19-23.02,0-23.02
	C282,609.14,263.51,609.14,263.51,609.14z"/>
<path class="st22" d="M303.7,609.14c0,0-2.03,16.2,0,19.61c2.03,3.41,2.03,3.41,2.03,3.41h23.29c0,0,7.09-23.02,0-23.02
	C321.93,609.14,303.7,609.14,303.7,609.14z"/>
<g>
	<line class="st19" x1="435.82" y1="673.87" x2="435.82" y2="686.04"/>
	<rect x="403.77" y="645.05" class="st23" width="35.35" height="28.31"/>
	<line class="st9" x1="403.77" y1="652.77" x2="439.12" y2="652.77"/>
	<line class="st24" x1="403.77" y1="663.74" x2="439.12" y2="663.74"/>
	<circle class="st25" cx="421.44" cy="658.25" r="3.94"/>
	<circle class="st25" cx="421.44" cy="648.75" r="2.48"/>
	<circle class="st25" cx="421.44" cy="669.15" r="2.48"/>
	<line class="st19" x1="401.8" y1="644.14" x2="441.08" y2="644.14"/>
	<path class="st19" d="M435.82,681.95"/>
	<path class="st19" d="M435.82,672.74"/>
	<circle class="st26" cx="423.92" cy="634.42" r="7.6"/>
	<line class="st9" x1="423.92" y1="621.78" x2="423.92" y2="626.27"/>
	<polygon class="st27" points="413.93,621.21 433.02,621.21 429.32,609.83 417.5,609.83 	"/>
</g>
<line class="st19" x1="201.72" y1="674.68" x2="201.72" y2="686.85"/>
<path class="st19" d="M201.72,682.76"/>
<line class="st19" x1="173.07" y1="672.4" x2="173.07" y2="683.96"/>
<g>
	<line class="st19" x1="201.87" y1="672.92" x2="201.87" y2="685.09"/>
	<rect x="169.82" y="644.1" class="st23" width="35.35" height="28.31"/>
	<line class="st9" x1="169.82" y1="651.82" x2="205.17" y2="651.82"/>
	<line class="st24" x1="169.82" y1="662.79" x2="205.17" y2="662.79"/>
	<circle class="st25" cx="187.49" cy="657.3" r="3.94"/>
	<circle class="st25" cx="187.49" cy="647.8" r="2.48"/>
	<circle class="st25" cx="187.49" cy="668.21" r="2.48"/>
	<line class="st19" x1="167.85" y1="643.19" x2="207.13" y2="643.19"/>
	<path class="st19" d="M201.87,681"/>
	<path class="st19" d="M201.87,671.79"/>
	<circle class="st26" cx="189.97" cy="633.48" r="7.6"/>
	<line class="st9" x1="189.97" y1="620.83" x2="189.97" y2="625.32"/>
	<polygon class="st27" points="179.97,620.26 199.07,620.26 195.37,608.88 183.55,608.88 	"/>
</g>
<line class="st28" x1="230.76" y1="665.55" x2="231.81" y2="633.3"/>
<g>
	<line class="st29" x1="219.71" y1="478.32" x2="220.25" y2="552"/>
	<polygon class="st29" points="217.81,551.64 222.96,551.64 222.96,557.6 228.11,561.39 230.68,567.62 207.79,567.62 212.39,560.85 
		216.73,557.6 	"/>
</g>
<g>
	<line class="st29" x1="383.74" y1="477.09" x2="384.05" y2="519.52"/>
	<polygon class="st29" points="382.64,519.31 385.61,519.31 385.61,522.74 388.57,524.93 390.05,528.52 376.87,528.52 
		379.52,524.62 382.02,522.74 	"/>
</g>
<line class="st29" x1="394.32" y1="478.46" x2="394.65" y2="553.44"/>
<polygon class="st29" points="393.13,553.07 396.34,553.07 396.34,559.14 399.55,563 401.15,569.34 386.89,569.34 389.76,562.45 
	392.46,559.14 "/>
<rect x="262.6" y="523.91" class="st21" width="83.07" height="50.03"/>
<rect x="276.5" y="531.23" class="st27" width="55.66" height="32.23"/>
<rect x="459.12" y="476.16" class="st30" width="232.71" height="209"/>
<rect x="561.01" y="685.09" class="st27" width="15.01" height="15.01"/>
<line class="st31" x1="472.43" y1="642.02" x2="519.16" y2="642.02"/>
<rect x="602.05" y="523.91" class="st32" width="43.48" height="87.81"/>
<rect x="647.75" y="523.91" class="st32" width="29.27" height="87.81"/>
<rect x="519.16" y="627.98" class="st23" width="49.36" height="56.93"/>
<rect x="591.63" y="627.98" class="st23" width="16.15" height="56.93"/>
<path class="st33" d="M596.76,648.75c0,0,22.75-4.43,31.69,0C628.46,648.75,622.01,633.35,596.76,648.75z"/>
<path class="st34" d="M634.55,599.54c-0.4,0.09-15.03,15.03-9.35,36.97c0,0,5.69,2.84,8.13,0c0,0-5.28-18.28,3.25-33.72
	C636.58,602.79,643.08,597.51,634.55,599.54z"/>
<path class="st34" d="M602.05,631.64h21.13C623.17,631.64,613.18,623.11,602.05,631.64z"/>
<line class="st35" x1="628.46" y1="637.78" x2="625.53" y2="645.05"/>
<line class="st35" x1="615.86" y1="652.77" x2="615.86" y2="675.7"/>
<path d="M596.76,679.13c0,0,25.19-7.74,39.01,0.82L596.76,679.13z"/>
<circle cx="615.45" cy="649.97" r="3.7"/>
<circle cx="596.76" cy="680.31" r="3.7"/>
<circle cx="635.77" cy="680.31" r="3.7"/>
<rect x="515.1" y="622.91" class="st36" width="97.51" height="4.49"/>
<line class="st31" x1="471.21" y1="540.22" x2="470.4" y2="684.01"/>
<line class="st31" x1="528.5" y1="541.75" x2="527.69" y2="622.34"/>
<line class="st31" x1="471.19" y1="544.69" x2="528.1" y2="544.69"/>
<line class="st31" x1="472.43" y1="573.94" x2="526.47" y2="573.94"/>
<line class="st31" x1="470.81" y1="611.73" x2="527.8" y2="611.73"/>
<circle class="st7" cx="563.85" cy="536.97" r="9.75"/>
<line class="st37" x1="563.85" y1="528.44" x2="563.85" y2="537.92"/>
<line class="st37" x1="563.85" y1="537.92" x2="559.11" y2="541.84"/>
<circle cx="563.85" cy="537.92" r="0.81"/>
<g>
	<path class="st38" d="M575.83,618.05h-34.78c-1.49,0-2.7-1.21-2.7-2.7v-19.31c0-1.49,1.21-2.7,2.7-2.7h34.78
		c1.49,0,2.7,1.21,2.7,2.7v19.31C578.53,616.84,577.32,618.05,575.83,618.05z"/>
	<rect x="554.6" y="618.53" class="st39" width="9.35" height="4.11"/>
	<rect x="542.14" y="621.83" class="st39" width="36.39" height="0.81"/>
</g>
<rect x="337.27" y="696.11" class="st40" width="354.56" height="221.03"/>
<polygon class="st23" points="451.84,875.89 448.59,909.2 447.23,909.2 449.54,875.24 "/>
<polygon class="st23" points="383.59,872.99 378.17,911.45 379.79,911.45 386.57,878.4 404.17,878.95 404.17,911.45 407.69,911.45 
	409.05,878.13 434.24,878.13 440.2,911.45 441.83,911.45 435.87,872.99 "/>
<polygon class="st23" points="361.65,878.14 354.33,911.45 363,878.14 "/>
<polygon class="st23" points="367.33,878.14 370.59,911.45 371.94,911.45 369.64,877.49 "/>
<polygon class="st23" points="365.17,878.14 364.13,911.45 363,878.14 "/>
<path class="st23" d="M451.85,876.25c-0.27,2.16,6.77,35.21,6.77,35.21l-3.39-35.21H451.85z"/>
<path class="st23" d="M461.1,873.49l3.49-0.51c-1.34-2.1,5.94,37.12,5.94,37.12L461.1,873.49z"/>
<g>
	<path class="st41" d="M442.63,874.46c-0.9-0.38,17.88-8.67,22.75-20.32l1.63-2.98C467.01,851.17,474.87,888.01,442.63,874.46z"/>
	<path class="st42" d="M466.49,853.06l-5.15,6.5l-17.37,14.63C443.97,874.19,462.42,874.19,466.49,853.06z"/>
</g>
<path class="st41" d="M376.72,875.15c0.9-0.38-17.88-8.67-22.75-20.32l-1.63-2.98C352.34,851.85,344.49,888.69,376.72,875.15z"/>
<path class="st42" d="M352.87,853.75l5.15,6.5l17.37,14.63C375.38,874.87,356.93,874.87,352.87,853.75z"/>
<ellipse class="st7" cx="410" cy="869.6" rx="32.9" ry="4.6"/>
<rect x="489.5" y="758.14" class="st43" width="43.34" height="35.76"/>
<rect x="534.46" y="758.14" class="st43" width="152.23" height="59.86"/>
<rect x="573.74" y="857.01" class="st43" width="112.95" height="53.09"/>
<rect x="532.84" y="880.03" class="st43" width="40.9" height="30.07"/>
<line class="st44" x1="571.03" y1="758.14" x2="571.03" y2="818"/>
<line class="st44" x1="618.71" y1="758.14" x2="618.71" y2="816.1"/>
<line class="st44" x1="657.98" y1="758.14" x2="657.98" y2="816.1"/>
<line class="st44" x1="615.46" y1="857.01" x2="615.46" y2="909.2"/>
<line class="st44" x1="657.98" y1="857.01" x2="657.98" y2="910.1"/>
<rect x="573.74" y="818" class="st45" width="112.95" height="35.06"/>
<line class="st46" x1="574.82" y1="826.94" x2="686.69" y2="826.94"/>
<line class="st46" x1="574.82" y1="834.79" x2="685.07" y2="834.79"/>
<line class="st46" x1="573.47" y1="841.97" x2="683.72" y2="841.97"/>
<line class="st46" x1="574.82" y1="849.49" x2="686.69" y2="849.49"/>
<rect x="574.06" y="853.06" class="st7" width="114.04" height="3.79"/>
<rect x="378.17" y="737.82" class="st47" width="66.45" height="102.42"/>
<line class="st16" x1="411.39" y1="737.82" x2="411.39" y2="840.24"/>
<line class="st16" x1="378.17" y1="771.95" x2="443.97" y2="771.95"/>
<line class="st16" x1="378.17" y1="806.62" x2="443.97" y2="806.62"/>
<g>
	<rect x="489.05" y="798.34" class="st7" width="43.34" height="113.23"/>
	<line class="st9" x1="489.05" y1="858.48" x2="532.39" y2="858.48"/>
</g>
<line class="st9" x1="528.1" y1="834.79" x2="528.1" y2="851.17"/>
<line class="st9" x1="528.1" y1="865" x2="528.1" y2="880.03"/>
<g>
	<rect x="533.65" y="818.36" class="st36" width="39.28" height="60.14"/>
	<rect x="537.99" y="821.55" width="30.34" height="10.83"/>
	<rect x="537.99" y="840.24" width="30.34" height="7.18"/>
	<rect x="537.99" y="854.94" width="30.34" height="17.81"/>
</g>
<rect x="167.85" y="696.11" class="st41" width="157.9" height="218.51"/>
<path class="st48" d="M211.99,884.05c0,0,8.13,6.09,7.31,19.5h71.1c0,0-0.81-18.28,6.09-19.5c0,0,2.35-6.23-4.11-5.15
	s-8.08,7.19-9.3,12.26l-54.04,2.77c0,0-6.91-17.74-12.6-15.03C216.46,878.9,208.74,880.43,211.99,884.05z"/>
<path class="st23" d="M219.3,901.52c-0.41,4.53-3.66,10.56-3.66,10.56l7.72-8.55L219.3,901.52z"/>
<polygon class="st23" points="285.53,903.55 290.81,912.08 290.41,903.55 "/>
<rect x="209.55" y="776.01" class="st7" width="22.26" height="36.84"/>
<rect x="209.55" y="818.36" class="st7" width="22.26" height="34.7"/>
<rect x="214.99" y="781.09" class="st40" width="11.38" height="26.68"/>
<rect x="214.99" y="822.37" class="st40" width="11.38" height="26.68"/>
<rect x="7.05" y="764.99" class="st7" width="149.62" height="149.62"/>
<polyline class="st2" points="109.19,365.1 429.36,193.64 749.54,365.1 "/>
<g>
	<path class="st49" d="M118.13,859.86c-2.25,0-4.43,0.21-6.52,0.73l-8.33-22.39h2.71c4.27,0,8.31-1.57,11.38-4.55l2.87-2.76
		c1.31-1.27,1.34-3.34,0.07-4.64s-3.35-1.33-4.66-0.06l-2.87,2.73c-1.83,1.77-4.24,2.69-6.78,2.69h-7.46c-1.08,0-2.09,0.6-2.71,1.48
		c-0.62,0.89-0.76,2.05-0.38,3.06l3.17,8.51c-0.02,0-0.04,0.06-0.06,0.06c-0.01,0-0.01,0.06-0.02,0.06H56.37l-5.7-9.6l6.19-2.15
		c1.52-0.52,2.44-2,2.18-3.59c-0.27-1.59-1.64-2.68-3.25-2.68H37.68c-2.54,0-4.6,1.98-4.6,4.52c0,3.93,3.19,7.08,7.12,7.08
		c0.79,0,1.57-0.15,2.32-0.41l1.8-0.63l5.78,9.67l-4.44,13.31c-1.46-0.29-2.95-0.48-4.48-0.53c-7.73-0.25-14.96,2.7-20.31,8.22
		c-5.14,5.31-7.84,12.3-7.6,19.7c0.45,14.21,11.94,25.69,26.15,26.15c0.3,0.01,0.59,0.01,0.88,0.01c7.39,0,14.29-2.95,19.43-8.26
		c4.16-4.29,6.72-9.83,7.42-15.55h5.3c1.14,0.88,2.62,1.6,4.24,1.6c3.6,0,6.53-2.92,6.53-6.52c0-1.17-0.31-2.26-0.85-3.21
		l18.47-31.33l4.64,12.43c-8.54,4.55-14.37,13.55-14.37,23.88c0,14.91,12.13,27.05,27.04,27.05s27.04-12.13,27.04-27.04
		C145.17,872,133.04,859.86,118.13,859.86z M92.76,851.39l-16.08,27.28c-0.01,0-0.01-0.03-0.02-0.03c-0.02,0-0.04,0.04-0.06,0.04
		l-16.32-27.3L92.76,851.39L92.76,851.39z M54.54,854.47l16.42,27.47c-0.27,0.48-0.48,1.09-0.62,1.53h-3.22
		c-1.14-9.23-7.06-17.19-15.23-21.09L54.54,854.47z M45.95,883.47c-0.22-0.44-0.48-0.67-0.76-0.98l3.9-11.7
		c4.71,2.6,8.16,7.41,9.15,12.68H45.95z M53.4,899.49c-3.61,3.73-8.49,5.73-13.72,5.56c-9.59-0.31-17.34-8.05-17.65-17.64
		c-0.16-5,1.66-9.72,5.13-13.3s8.13-5.56,13.11-5.56c0.2,0,0.4,0,0.6,0.01c0.66,0.02,1.31,0.08,1.95,0.17l-3.94,11.82
		c-2.89,0.68-5.04,3.26-5.04,6.35c0,3.6,2.93,6.5,6.53,6.5c2.44,0,4.57-1.16,5.69-3.36h12.17C57.61,893.57,55.95,896.86,53.4,899.49
		z M118.13,905.16c-10.07,0-18.26-8.19-18.26-18.26c0-6.56,3.48-12.32,8.69-15.54l6.19,16.6c0.49,1.33,1.75,2.14,3.09,2.14
		c0.38,0,0.77-0.07,1.15-0.21c1.71-0.64,2.57-2.53,1.94-4.24l-6.23-16.69c1.11-0.21,2.25-0.33,3.42-0.33
		c10.07,0,18.26,8.19,18.26,18.26S128.2,905.16,118.13,905.16z"/>
</g>
<rect x="119.16" y="-39.22" class="st50" width="482.55" height="88.08"/>
<g>
	<g>
		<path class="st51" d="M163.97,196.56c-1.7,0.17-3.83-1.11-3.52-3.09c0.31-1.95,2.27-2.71,3.97-2.31c2.8,0.66,5.85,0.72,7.39-2.19
			c1.05-1.99,0.51-4.41,0.88-6.32c0.13-0.65,0.29-1.03,0.87-1.26c0.99-0.4,2.19-0.29,3.26-0.2c2.39,0.2,4.71,0.5,7.01-0.42
			c1.19-0.48,2.23-1.2,2.95-2.28c0.9-1.36,0.89-2.75,1.02-4.31c0.06-0.78,0.15-0.94,0.74-1.17c0.78-0.3,1.55-0.25,2.4,0.13
			c2.52,1.13,4.23,3.82,6.42,5.46c2.58,1.93,5.3,2.4,8.41,1.72c0.5-0.11,1.16-0.11,1.62-0.28c0.23-0.08,0.33,0.14,0.12-0.12
			c0.26,0.32,0.17,1.07,0.18,1.45c0.03,0.86,0.06,1.7,0.19,2.56c0.44,2.91,1.95,5.52,3.47,7.99c1.3,2.13,2.6,4.16,3.08,6.65
			c0.33,1.72,0.23,3.81-1.24,4.9c-1.97,1.46-5.43,0.85-7.69,0.81c-1.65-0.02-3.3-0.05-4.95-0.07c-0.82-0.01-1.65-0.02-2.47-0.04
			c-0.67-0.01-1.51-0.16-2.15-0.05c-0.05-0.01-0.1-0.03-0.16-0.04c-0.35-0.12-0.24-0.01,0.33,0.34c-0.03,0.01-0.25-0.72-0.28-0.81
			c-0.27-0.77-0.6-1.52-1.18-2.11c-1.22-1.26-3-1.63-4.68-1.36c-3.19,0.52-4.61,3.56-7.32,4.92c-2.53,1.26-5.58,1.24-8.33,1.2
			c-1.25-0.02-6.7,0.2-5.81-2.28c0.45-1.27-0.51-2.74-1.75-3.08c-1.39-0.38-2.62,0.47-3.08,1.75c-1.27,3.55,1.5,6.93,4.76,7.99
			c1.62,0.53,3.39,0.56,5.08,0.6c1.59,0.04,3.19,0.05,4.78-0.09c3.39-0.29,6.66-1.18,9.29-3.44c0.89-0.77,1.74-2.04,2.76-2.53
			c-0.14,0.07,0.86-0.29,0.59-0.15c0.26-0.14,0.43,0.05,0.21,0.02c-0.24-0.03-0.27-0.69-0.1,0.05c0.07,0.33,0.2,0.65,0.32,0.96
			c1.52,3.9,6.28,3.12,9.67,3.17c3.66,0.05,7.5,0.44,11.12-0.14c3.25-0.52,5.87-2.61,6.92-5.75c0.88-2.62,0.49-5.7-0.45-8.25
			c-1.12-3.07-3.14-5.64-4.63-8.52c-0.59-1.15-1.1-2.39-1.27-3.68c-0.23-1.76,0.06-3.54-0.8-5.18c-0.8-1.54-2.32-2.46-4.03-2.61
			c-1.65-0.15-3.15,0.57-4.76,0.64c-2.84,0.11-5.01-3.23-6.92-4.9c-2.45-2.14-5.45-3.59-8.74-2.7c-1.25,0.33-2.44,1.02-3.28,2.01
			c-0.53,0.63-0.93,1.34-1.16,2.13c-0.29,1-0.11,2-0.27,3c-0.12,0.78-0.51,0.89-1.44,1.09c-1.07,0.23-2.36,0.1-3.52-0.03
			c-2.79-0.32-6.11-0.31-8.23,1.83c-1.22,1.23-1.71,2.79-1.9,4.47c-0.08,0.73-0.08,1.45-0.1,2.18c-0.01,0.63-0.04,1.34-0.13,1.66
			c-0.08,0.28,0.1,0.2-0.15,0.35c0.09-0.06,0.11-0.15,0.16-0.16c-0.71,0.1-1.43-0.23-2.12-0.37c-1.88-0.4-3.64-0.28-5.38,0.54
			c-3.31,1.57-5.3,5.48-4.24,9.05c1.03,3.46,4.6,6.08,8.23,5.72c1.34-0.13,2.5-1.05,2.5-2.5
			C166.47,197.81,165.32,196.43,163.97,196.56L163.97,196.56z"/>
	</g>
</g>
<g>
	<g>
		<path class="st51" d="M164.21,200.54c0,0.58,0,1.17,0,1.75c-0.01,0.34,0.06,0.67,0.22,0.96c0.1,0.31,0.27,0.58,0.52,0.8
			c0.23,0.24,0.49,0.42,0.8,0.52c0.3,0.16,0.62,0.23,0.96,0.22c0.22-0.03,0.44-0.06,0.66-0.09c0.42-0.12,0.79-0.33,1.1-0.64
			c0.13-0.17,0.26-0.34,0.39-0.51c0.23-0.39,0.34-0.81,0.34-1.26c0-0.58,0-1.17,0-1.75c0.01-0.34-0.06-0.67-0.22-0.96
			c-0.1-0.31-0.27-0.58-0.52-0.8c-0.23-0.24-0.49-0.42-0.8-0.52c-0.3-0.16-0.62-0.23-0.96-0.22c-0.22,0.03-0.44,0.06-0.66,0.09
			c-0.42,0.12-0.79,0.33-1.1,0.64c-0.13,0.17-0.26,0.34-0.39,0.51C164.33,199.67,164.21,200.09,164.21,200.54L164.21,200.54z"/>
	</g>
</g>
<g>
	<g>
		<path class="st51" d="M60.8,50.51c-3.48-1.91-7.63-3.57-11.5-1.77c-3.06,1.42-5.33,5.14-4.02,8.49c0.8-1.05,1.61-2.11,2.41-3.16
			c-2.85,0.34-5-1.92-7.37-3.14c-2.39-1.23-5.36-1.96-7.96-0.94c-3.02,1.19-4.12,4.15-3.99,7.2c0.05,1.15,0.34,2.46,0.1,3.59
			c-0.2,0.97-0.62,1.16-1.5,1.61c-1.91,0.97-4.38,1.49-5.94,3.3c-2.03,2.34-1.98,5.68-0.33,8.22c1.82,2.81,4.93,3.95,8.12,4.35
			c3.11,0.4,6.53,0.71,9.45-0.65c2.06-0.96,3.75-3.15,5.74-3.87c0.73-0.26,1.14-0.09,1.62,0.41c0.61,0.63,1.13,1.73,1.6,2.63
			c1.14,2.15,2.49,4.14,4.78,5.18c2.23,1.01,4.77,1.2,7.13,0.55c2.32-0.63,4.42-2.07,5.7-4.12c0.67-1.08,1.02-2.34,1.31-3.56
			c0.22-0.95,0.31-2.42,1.01-3.16c0.61-0.64,2.03-0.43,2.91-0.49c1.45-0.11,2.84-0.42,4.09-1.18c2.22-1.36,3.84-3.74,4.27-6.3
			c0.53-3.23-0.7-6.27-3.35-8.19c-2.21-1.6-5.33-2.17-7.95-1.34c-1.65,0.53-2.9,1.53-4.11,2.74c-0.44,0.44-0.89,1.05-1.48,1.29
			c-0.34,0.14-0.95-0.04-0.27,0.29c0.22,0.11-0.12,0.17,0.04-0.01c0.01-0.01-0.02-0.39-0.01-0.64c0.02-0.6,0.1-1.2,0.1-1.8
			c-0.01-1.77-0.63-3.18-2.12-4.19c-2.67-1.81-5.18,2.52-2.52,4.32c-0.75-0.51-0.16-0.56-0.33-0.28c-0.02,0.03-0.03-0.75-0.02,0.15
			c0,0.5-0.06,1-0.08,1.5c-0.06,1.21,0.07,2.45,0.67,3.52c1.47,2.62,5.04,2.76,7.37,1.29c1.1-0.7,1.95-1.69,2.89-2.57
			c0.66-0.61,1.36-0.91,2.03-0.97c1.51-0.13,3.25,0.53,3.97,1.91c0.67,1.26,0.34,2.87-0.59,4.05c-1.45,1.84-3.51,1.27-5.68,1.66
			c-2.86,0.51-4.5,2.75-5.23,5.41c-0.3,1.1-0.45,2.25-0.84,3.32c-0.24,0.64-0.55,1.11-1.23,1.66c-1.02,0.84-2.65,1.25-4.25,1.04
			c-0.31-0.04-1.2-0.34-1.61-0.58c-0.69-0.41-1.12-0.99-1.63-1.87c-1.09-1.89-1.91-3.97-3.67-5.36c-2.05-1.63-4.64-1.75-6.97-0.64
			c-2.01,0.96-3.46,2.84-5.48,3.75c-1.08,0.49-2.3,0.45-3.47,0.4c-1.3-0.05-2.64-0.09-3.92-0.34c-1.75-0.34-4.27-1.26-4.22-3.42
			c0.01-0.6,0.35-0.89,0.68-1.12c0.88-0.62,1.69-0.83,2.67-1.23c2.51-1.02,4.84-2.5,5.49-5.34c0.32-1.39,0.22-2.79,0.12-4.2
			c-0.06-0.82-0.3-2.11,0.16-2.83c0.37-0.58,1.15-0.64,1.9-0.56c1.17,0.12,2.25,0.66,3.24,1.26c2.74,1.66,5.57,3.7,8.96,3.29
			c1.43-0.17,3.07-1.49,2.41-3.16c-0.46-1.17,0.37-2.37,1.76-2.81c2.13-0.67,4.63,0.76,6.42,1.75
			C61.09,56.38,63.62,52.06,60.8,50.51L60.8,50.51z"/>
	</g>
</g>
<g>
	<g>
		<path class="st51" d="M177.21,199.15c5.23,0,10.24-4.6,10-10c-0.24-5.42-4.39-10-10-10c-5.23,0-10.24,4.6-10,10
			C167.45,194.57,171.6,199.15,177.21,199.15L177.21,199.15z"/>
	</g>
</g>
<g>
	<g>
		<path class="st51" d="M184.58,181.68c-0.64-0.54-1.21-1.13-1.74-1.79c0.52,0.67,1.04,1.35,1.56,2.02
			c-0.35-0.48-0.66-0.97-0.92-1.51c0.34,0.8,0.67,1.59,1.01,2.39c-0.17-0.4-0.29-0.79-0.36-1.22c0.12,0.89,0.24,1.77,0.36,2.66
			c-0.03-0.2-0.03-0.39-0.02-0.59c-0.12,0.89-0.24,1.77-0.36,2.66c0.04-0.31,0.11-0.54,0.22-0.83c-0.34,0.8-0.67,1.59-1.01,2.39
			c0.05-0.08,0.1-0.17,0.15-0.25c-0.52,0.67-1.04,1.35-1.56,2.02c0.12-0.18,0.26-0.33,0.42-0.47c-0.67,0.52-1.35,1.04-2.02,1.56
			c0.16-0.14,0.34-0.26,0.53-0.35c-0.8,0.34-1.59,0.67-2.39,1.01c0.19-0.09,0.38-0.15,0.58-0.19c-0.89,0.12-1.77,0.24-2.66,0.36
			c0.33-0.04,0.61-0.05,0.94-0.02c-0.89-0.12-1.77-0.24-2.66-0.36c0.34,0.06,0.63,0.14,0.95,0.26c-0.8-0.34-1.59-0.67-2.39-1.01
			c0.43,0.19,0.8,0.41,1.18,0.68c-0.67-0.52-1.35-1.04-2.02-1.56c0.37,0.31,0.69,0.63,0.99,1c-0.52-0.67-1.04-1.35-1.56-2.02
			c0.64,0.86,1.16,1.8,1.75,2.7c1.49,2.24,2.88,3.81,5.06,5.34c3.14,2.19,7.52,2.86,11.19,1.81c2.88-0.83,5.43-2.71,6.99-5.27
			c1.38-2.26,1.84-4.53,1.96-7.15c0.12-2.56,0.05-5.14,0.07-7.7c-5.02,2.88-10.03,5.76-15.05,8.63c0.32,0.23,0.64,0.46,0.95,0.7
			c-0.67-0.52-1.35-1.04-2.02-1.56c1.45,1.14,2.74,2.43,3.89,3.87c-0.52-0.67-1.04-1.35-1.56-2.02c1.21,1.57,2.2,3.25,2.98,5.07
			c-0.34-0.8-0.67-1.59-1.01-2.39c0.15,0.36,0.29,0.73,0.43,1.1c0.88,2.38,2.25,4.74,4.6,5.98c2.02,1.07,4.1,1.49,6.38,1.19
			c2.1-0.28,4.27-1.14,5.74-2.75c1.9-2.06,2.64-4.29,2.93-7.07c0.46-4.49-1.03-9.75-3.66-13.41c-3.2-4.46-7.41-7.96-12.83-9.34
			c-4.15-1.05-9.21,0.66-11.29,4.6c-2.12,4.02-1.6,8.78,1.56,12.12c0.27,0.29,0.53,0.58,0.78,0.89c-0.52-0.67-1.04-1.35-1.56-2.02
			c1.27,1.72,2.06,3.69,3.07,5.56c1.62,2.99,3.96,5.55,6.81,7.42c3.51,2.3,7.79,2.88,11.83,1.92c2.49-0.59,4.66-2.07,6.97-3.1
			c-0.8,0.34-1.59,0.67-2.39,1.01c0.46-0.19,0.92-0.34,1.41-0.42c-0.89,0.12-1.77,0.24-2.66,0.36c0.28-0.03,0.52-0.03,0.8,0
			c-0.89-0.12-1.77-0.24-2.66-0.36c0.17,0.03,0.34,0.08,0.51,0.14c-0.8-0.34-1.59-0.67-2.39-1.01c0.17,0.07,0.33,0.17,0.48,0.28
			c-0.67-0.52-1.35-1.04-2.02-1.56c0.08,0.06,0.16,0.13,0.23,0.19c-0.86-3.24-1.71-6.49-2.57-9.73c-0.22,0.56-0.37,1.12-0.48,1.71
			c-0.23,1.32-0.49,2.73-0.42,4.08c0.16,2.93,0.76,5.02,1.99,7.64c0.78,1.66,1.96,3.2,3.31,4.43c0.82,0.75,1.74,1.37,2.45,2.24
			c-0.52-0.67-1.04-1.35-1.56-2.02c0.19,0.27,0.33,0.51,0.46,0.81c-0.34-0.8-0.67-1.59-1.01-2.39c0.08,0.2,0.13,0.4,0.16,0.61
			c-0.12-0.89-0.24-1.77-0.36-2.66c0.03,0.19,0.03,0.39,0.02,0.58c0.12-0.89,0.24-1.77,0.36-2.66c-0.04,0.29-0.1,0.52-0.2,0.79
			c0.34-0.8,0.67-1.59,1.01-2.39c-0.13,0.25-0.26,0.46-0.43,0.69c0.52-0.67,1.04-1.35,1.56-2.02c-0.2,0.22-0.39,0.4-0.62,0.59
			c0.67-0.52,1.35-1.04,2.02-1.56c-0.42,0.31-0.86,0.55-1.33,0.78c0.8-0.34,1.59-0.67,2.39-1.01c-1,0.42-2.04,0.68-3.11,0.84
			c0.89-0.12,1.77-0.24,2.66-0.36c-2.22,0.29-4.45,0.51-6.68,0.24c0.89,0.12,1.77,0.24,2.66,0.36c-0.89-0.14-1.73-0.35-2.56-0.68
			c0.8,0.34,1.59,0.67,2.39,1.01c-0.59-0.26-1.13-0.57-1.65-0.94c0.67,0.52,1.35,1.04,2.02,1.56c-0.74-0.59-1.4-1.26-2.12-1.88
			c-1.97-1.71-3.62-2.78-6.1-3.64c-3.06-1.06-6.44-0.92-9.55-0.19c-4.55,1.06-7.94,4.07-12.09,5.91c0.8-0.34,1.59-0.67,2.39-1.01
			c-0.9,0.37-1.8,0.63-2.77,0.77c0.89-0.12,1.77-0.24,2.66-0.36c-0.42,0.04-0.82,0.05-1.24,0.04c2.36,5.69,4.71,11.38,7.07,17.07
			c2.32-2,4.16-4.97,4.99-7.92c1.43-5.05-0.57-10.82-5.15-13.53c-3.2-1.9-6.62-1.91-10.21-1.9c-2.42,0.01-4.83,0.01-7.25,0.02
			c-5.23,0.01-10.24,4.59-10,10s4.39,10.01,10,10c3.65-0.01,7.34-0.19,10.98,0c-0.89-0.12-1.77-0.24-2.66-0.36
			c0.28,0.02,0.54,0.08,0.81,0.17c-0.8-0.34-1.59-0.67-2.39-1.01c0.23,0.08,0.43,0.2,0.62,0.35c-0.67-0.52-1.35-1.04-2.02-1.56
			c0.14,0.12,0.27,0.25,0.37,0.4c-0.52-0.67-1.04-1.35-1.56-2.02c0.04,0.08,0.08,0.15,0.13,0.23c-0.34-0.8-0.67-1.59-1.01-2.39
			c0.07,0.16,0.12,0.32,0.15,0.5c-0.12-0.89-0.24-1.77-0.36-2.66c0.02,0.29,0.02,0.53-0.02,0.82c0.12-0.89,0.24-1.77,0.36-2.66
			c-0.07,0.31-0.15,0.58-0.26,0.88c0.34-0.8,0.67-1.59,1.01-2.39c-0.28,0.63-0.63,1.18-1.05,1.73c0.52-0.67,1.04-1.35,1.56-2.02
			c-0.36,0.43-0.74,0.82-1.17,1.19c-1.19,1.03-2.16,2.92-2.57,4.41c-0.6,2.18-0.36,4.46,0.5,6.51c1.56,3.69,5.11,6.06,9.14,6.15
			c3.81,0.09,7.46-1.19,10.76-3.01c2.03-1.12,3.9-2.5,6.04-3.42c-0.8,0.34-1.59,0.67-2.39,1.01c0.9-0.36,1.79-0.63,2.75-0.79
			c-0.89,0.12-1.77,0.24-2.66,0.36c0.66-0.08,1.29-0.1,1.95-0.04c-0.89-0.12-1.77-0.24-2.66-0.36c0.52,0.08,1,0.2,1.49,0.38
			c-0.8-0.34-1.59-0.67-2.39-1.01c0.5,0.22,0.93,0.49,1.37,0.81c-0.67-0.52-1.35-1.04-2.02-1.56c1.79,1.46,3.35,3.2,5.42,4.32
			c2.83,1.53,5.33,2.05,8.48,2.39c1.51,0.16,3.02,0.11,4.53-0.03c2.17-0.21,4.4-0.36,6.5-0.98c5.93-1.74,11.04-6.38,11.14-12.92
			c0.06-3.64-1.5-6.96-3.98-9.56c-0.95-0.99-2.12-1.69-2.98-2.78c0.52,0.67,1.04,1.35,1.56,2.02c-0.35-0.49-0.63-1-0.87-1.55
			c0.34,0.8,0.67,1.59,1.01,2.39c-0.22-0.56-0.37-1.12-0.48-1.72c0.12,0.89,0.24,1.77,0.36,2.66c-0.09-0.72-0.1-1.41-0.01-2.13
			c-0.12,0.89-0.24,1.77-0.36,2.66c0.1-0.6,0.25-1.15,0.48-1.71c1.19-3-0.12-7.68-2.57-9.73c-1.85-1.54-3.27-2.55-5.64-3.19
			c-2.17-0.58-4.67-0.47-6.81,0.16c-2.3,0.68-4.29,1.96-6.45,2.93c0.8-0.34,1.59-0.67,2.39-1.01c-0.63,0.26-1.24,0.46-1.92,0.55
			c0.89-0.12,1.77-0.24,2.66-0.36c-0.38,0.02-0.72,0.01-1.09-0.04c0.89,0.12,1.77,0.24,2.66,0.36c-0.37-0.07-0.7-0.16-1.05-0.29
			c0.8,0.34,1.59,0.67,2.39,1.01c-0.58-0.25-1.1-0.56-1.61-0.93c0.67,0.52,1.35,1.04,2.02,1.56c-0.61-0.49-1.15-1.04-1.65-1.64
			c0.52,0.67,1.04,1.35,1.56,2.02c-1.05-1.37-1.75-2.93-2.52-4.47c-1.09-2.18-2.47-4.19-4.16-5.97c-3.24,5.57-6.49,11.14-9.73,16.71
			c0.57,0.14,1.11,0.32,1.65,0.54c-0.8-0.34-1.59-0.67-2.39-1.01c0.96,0.42,1.85,0.94,2.68,1.57c-0.67-0.52-1.35-1.04-2.02-1.56
			c0.82,0.66,1.55,1.39,2.21,2.21c-0.52-0.67-1.04-1.35-1.56-2.02c0.71,0.93,1.29,1.93,1.76,3c-0.34-0.8-0.67-1.59-1.01-2.39
			c0.39,0.98,0.66,1.97,0.82,3.01c-0.12-0.89-0.24-1.77-0.36-2.66c0.11,0.93,0.12,1.84,0.03,2.77c6.55-0.89,13.1-1.77,19.64-2.66
			c-1.12-3.06-2.44-5.97-4.42-8.56c-2.5-3.28-5.04-5.77-8.43-8.16c-2.86-2.01-7.2-1.69-10.09,0c-3.06,1.79-4.92,5.1-4.95,8.63
			c-0.02,2.8,0.17,5.7-0.13,8.48c0.12-0.89,0.24-1.77,0.36-2.66c-0.03,0.26-0.1,0.5-0.19,0.74c0.34-0.8,0.67-1.59,1.01-2.39
			c-0.08,0.21-0.2,0.4-0.34,0.58c0.52-0.67,1.04-1.35,1.56-2.02c-0.12,0.14-0.25,0.27-0.4,0.38c0.67-0.52,1.35-1.04,2.02-1.56
			c-0.15,0.1-0.31,0.19-0.48,0.25c0.8-0.34,1.59-0.67,2.39-1.01c-0.17,0.07-0.35,0.11-0.54,0.14c0.89-0.12,1.77-0.24,2.66-0.36
			c-0.3,0.03-0.57,0.04-0.87,0.02c0.89,0.12,1.77,0.24,2.66,0.36c-0.41-0.06-0.78-0.16-1.17-0.3c0.8,0.34,1.59,0.67,2.39,1.01
			c-0.38-0.17-0.71-0.37-1.05-0.62c0.67,0.52,1.35,1.04,2.02,1.56c-0.38-0.33-0.7-0.7-1.01-1.09c0.52,0.67,1.04,1.35,1.56,2.02
			c-0.63-0.87-1.14-1.81-1.74-2.7c-1.48-2.19-2.9-3.73-5.05-5.24c-3.89-2.75-9.78-3.18-13.89-0.65c-4.8,2.95-7.21,8.68-5.67,14.16
			c0.9,3.22,2.94,6.32,5.5,8.48c2.07,1.74,4.28,2.93,7.07,2.93c2.45,0,5.38-1.09,7.07-2.93c1.75-1.91,3.05-4.41,2.93-7.07
			C187.39,186.23,186.58,183.37,184.58,181.68L184.58,181.68z"/>
	</g>
</g>
<g>
	<g>
		<path class="st51" d="M200.83,204.41c5.23,0,10.24-4.6,10-10c-0.24-5.42-4.39-10-10-10c-5.23,0-10.24,4.6-10,10
			C191.07,199.82,195.22,204.41,200.83,204.41L200.83,204.41z"/>
	</g>
</g>
<g>
	<g>
		<path class="st51" d="M172.84,213.17c5.23,0,10.24-4.6,10-10c-0.24-5.42-4.39-10-10-10c-5.23,0-10.24,4.6-10,10
			C163.08,208.59,167.23,213.17,172.84,213.17L172.84,213.17z"/>
	</g>
</g>
<g>
	<g>
		<path class="st51" d="M213.95,202.65c5.23,0,10.24-4.6,10-10c-0.24-5.42-4.39-10-10-10c-5.23,0-10.24,4.6-10,10
			C204.2,198.07,208.35,202.65,213.95,202.65L213.95,202.65z"/>
	</g>
</g>
<g>
	<g>
		<path class="st51" d="M210.45,191.26c5.23,0,10.24-4.6,10-10c-0.24-5.42-4.39-10-10-10c-5.23,0-10.24,4.6-10,10
			C200.7,186.68,204.85,191.26,210.45,191.26L210.45,191.26z"/>
	</g>
</g>
<g>
	<g>
		<path class="st51" d="M30.92,78.83c1.41,0.04,2.81,0.08,4.22,0.12c-0.89-6.55-1.77-13.1-2.66-19.64
			c-3.22,0.79-6.45,1.58-9.67,2.37c-7.03,1.72-10.05,11.75-4.41,16.71c2.97,2.61,6.6,4.27,10.63,4c4-0.27,7.74-1.78,10.61-4.63
			c2.35-2.33,4.08-5.61,4.8-8.82c0.6-2.7,0.58-5.39,0.84-8.11c-0.12,0.89-0.24,1.77-0.36,2.66c0.07-0.5,0.18-0.97,0.36-1.45
			c-0.34,0.8-0.67,1.59-1.01,2.39c0.1-0.23,0.22-0.45,0.36-0.65c-0.52,0.67-1.04,1.35-1.56,2.02c0.22-0.28,0.43-0.5,0.71-0.72
			c-0.67,0.52-1.35,1.04-2.02,1.56c0.29-0.2,0.56-0.35,0.88-0.49c-0.8,0.34-1.59,0.67-2.39,1.01c0.44-0.16,0.88-0.27,1.34-0.34
			c-0.89,0.12-1.77,0.24-2.66,0.36c0.71-0.07,1.4-0.05,2.11,0.04c-0.89-0.12-1.77-0.24-2.66-0.36c0.83,0.14,1.61,0.36,2.4,0.67
			c-0.8-0.34-1.59-0.67-2.39-1.01c0.88,0.38,1.69,0.86,2.47,1.43c-0.67-0.52-1.35-1.04-2.02-1.56c0.75,0.6,1.42,1.26,2.02,2.01
			c-0.52-0.67-1.04-1.35-1.56-2.02c0.5,0.68,0.92,1.38,1.27,2.15c-0.34-0.8-0.67-1.59-1.01-2.39c0.05,0.11,0.09,0.22,0.14,0.33
			c0.67,1.61,1.31,3.15,2.57,4.41c1.56,1.56,3.58,2.46,5.74,2.75c4.02,0.54,7.8-1.34,9.96-4.77c2.62-4.15,3.96-8.95,5.09-13.68
			c-6.55-0.89-13.1-1.77-19.64-2.66c0.09,8.26-1.23,19.25,7.41,23.92c5.77,3.11,11.76,1.02,17.19-1.59
			c3.41-1.64,6.51-3.96,9.31-6.49c-5.24-4.04-10.47-8.08-15.71-12.12c-0.47,0.81-0.98,1.58-1.54,2.33c0.52-0.67,1.04-1.35,1.56-2.02
			c-1.73,2.23-3.81,4.11-6.03,5.84c0.67-0.52,1.35-1.04,2.02-1.56c-2.35,1.8-4.83,3.77-7.51,5.05c0.8-0.34,1.59-0.67,2.39-1.01
			c-0.52,0.22-1.03,0.38-1.58,0.5c0.89-0.12,1.77-0.24,2.66-0.36c-0.43,0.05-0.8,0.07-1.23,0.04c0.89,0.12,1.77,0.24,2.66,0.36
			c-0.51-0.08-0.96-0.2-1.43-0.4c0.8,0.34,1.59,0.67,2.39,1.01c-0.34-0.17-0.65-0.36-0.96-0.58c0.67,0.52,1.35,1.04,2.02,1.56
			c-0.62-0.48-1.15-1.02-1.64-1.63c0.52,0.67,1.04,1.35,1.56,2.02c-0.98-1.28-1.71-2.73-2.61-4.06c-1.69-2.49-3.62-4.79-6.29-6.27
			c-3.29-1.82-6.8-2.17-10.45-1.54c-3.58,0.61-6.52,3.08-8.42,6.07c-2.81,4.43-1.07,11.22,3.59,13.68
			c4.94,2.61,10.69,1.14,13.68-3.59c0.05-0.09,0.11-0.17,0.16-0.26c-0.52,0.67-1.04,1.35-1.56,2.02c0.2-0.24,0.38-0.43,0.62-0.62
			c-0.67,0.52-1.35,1.04-2.02,1.56c0.16-0.11,0.33-0.21,0.5-0.29c-0.8,0.34-1.59,0.67-2.39,1.01c0.38-0.15,0.75-0.25,1.15-0.31
			c-0.89,0.12-1.77,0.24-2.66,0.36c0.42-0.03,0.82-0.01,1.25,0.04c-0.89-0.12-1.77-0.24-2.66-0.36c0.42,0.08,0.82,0.2,1.21,0.36
			c-0.8-0.34-1.59-0.67-2.39-1.01c0.41,0.2,0.76,0.42,1.12,0.69c-0.67-0.52-1.35-1.04-2.02-1.56c0.49,0.41,0.91,0.86,1.31,1.36
			c-0.52-0.67-1.04-1.35-1.56-2.02c0.93,1.23,1.63,2.6,2.49,3.89c1.66,2.49,3.46,4.47,5.92,6.16c5.29,3.64,12.22,2.66,17.34-0.73
			c6.38-4.21,12.74-8.91,16.64-15.64c2.51-4.33,1.33-9.88-2.58-12.9c-4.05-3.13-9.39-2.59-13.13,0.78c-0.63,0.56-1.27,1.1-1.93,1.62
			c0.67-0.52,1.35-1.04,2.02-1.56c-2.13,1.62-4.43,2.95-6.89,3.99c0.8-0.34,1.59-0.67,2.39-1.01c-1.18,0.48-2.37,0.94-3.62,1.15
			c0.89-0.12,1.77-0.24,2.66-0.36c-0.44,0.04-0.81,0.04-1.25-0.02c0.89,0.12,1.77,0.24,2.66,0.36c-0.24-0.05-0.47-0.12-0.7-0.22
			c0.8,0.34,1.59,0.67,2.39,1.01c-0.18-0.08-0.36-0.19-0.52-0.31c0.67,0.52,1.35,1.04,2.02,1.56c-0.24-0.2-0.43-0.39-0.63-0.62
			c0.52,0.67,1.04,1.35,1.56,2.02c-0.24-0.34-0.43-0.68-0.6-1.07c0.34,0.8,0.67,1.59,1.01,2.39c-0.23-0.62-0.38-1.25-0.48-1.91
			c0.12,0.89,0.24,1.77,0.36,2.66c-0.46-3.73-0.2-7.63-0.24-11.38c-0.05-4.99-3.76-9.16-8.67-9.82c-4.73-0.64-9.82,2.3-10.97,7.16
			c-0.67,2.8-1.36,5.6-2.48,8.26c0.34-0.8,0.67-1.59,1.01-2.39c-0.46,1.05-0.99,2.06-1.6,3.03c6.09,0.8,12.18,1.59,18.28,2.39
			c-0.97-2.34-1.7-3.93-3.2-5.88c-1.17-1.52-2.29-2.64-3.81-3.81c-3.41-2.63-7.18-3.93-11.45-4.31c-1.77-0.16-3.74,0.11-5.42,0.66
			c-3.21,1.06-5.91,2.99-7.72,5.87c-2.25,3.57-1.85,7.47-2.35,11.43c0.12-0.89,0.24-1.77,0.36-2.66c-0.16,1.05-0.4,2.05-0.79,3.04
			c0.34-0.8,0.67-1.59,1.01-2.39c-0.32,0.72-0.69,1.37-1.17,2c0.52-0.67,1.04-1.35,1.56-2.02c-0.3,0.36-0.62,0.68-0.98,0.98
			c0.67-0.52,1.35-1.04,2.02-1.56c-0.46,0.34-0.92,0.61-1.44,0.84c0.8-0.34,1.59-0.67,2.39-1.01c-0.53,0.2-1.04,0.34-1.6,0.42
			c0.89-0.12,1.77-0.24,2.66-0.36c-0.44,0.04-0.85,0.04-1.29-0.01c0.89,0.12,1.77,0.24,2.66,0.36c-0.43-0.07-0.81-0.18-1.21-0.35
			c0.8,0.34,1.59,0.67,2.39,1.01c-0.29-0.15-0.55-0.31-0.81-0.5c0.67,0.52,1.35,1.04,2.02,1.56c-0.08-0.07-0.16-0.14-0.25-0.22
			c-1.47,5.57-2.94,11.14-4.41,16.71c3.22-0.79,6.45-1.58,9.67-2.37c4.84-1.19,7.8-6.22,7.16-10.97c-0.67-4.96-4.8-8.53-9.82-8.67
			c-1.41-0.04-2.81-0.08-4.22-0.12c-5.23-0.14-10.24,4.7-10,10C21.17,74.37,25.31,78.68,30.92,78.83L30.92,78.83z"/>
	</g>
</g>
<g>
	<g>
		<path class="st51" d="M57.17,61.3c5.23,0,10.24-4.6,10-10c-0.24-5.42-4.39-10-10-10c-5.23,0-10.24,4.6-10,10
			C47.41,56.72,51.56,61.3,57.17,61.3L57.17,61.3z"/>
	</g>
</g>
<g>
	<g>
		<path class="st51" d="M52.79,62.18c5.23,0,10.24-4.6,10-10c-0.24-5.42-4.39-10-10-10c-5.23,0-10.24,4.6-10,10
			C43.04,57.6,47.19,62.18,52.79,62.18L52.79,62.18z"/>
	</g>
</g>
<g>
	<g>
		<path class="st51" d="M65.92,82.34c5.23,0,10.24-4.6,10-10c-0.24-5.42-4.39-10-10-10c-5.23,0-10.24,4.6-10,10
			C56.16,77.75,60.31,82.34,65.92,82.34L65.92,82.34z"/>
	</g>
</g>
<g>
	<g>
		<path class="st51" d="M60.67,70.07c5.23,0,10.24-4.6,10-10c-0.24-5.42-4.39-10-10-10c-5.23,0-10.24,4.6-10,10
			C50.91,65.49,55.06,70.07,60.67,70.07L60.67,70.07z"/>
	</g>
</g>
<rect x="186.72" y="-47.47" class="st50" width="246.24" height="11.52"/>
<g>
	<g>
		<path class="st51" d="M554.08,127.86c-1.7,0.17-3.83-1.11-3.52-3.09c0.31-1.95,2.27-2.71,3.97-2.31c2.8,0.66,5.85,0.72,7.39-2.19
			c1.05-1.99,0.51-4.41,0.88-6.32c0.13-0.65,0.29-1.03,0.87-1.26c0.99-0.4,2.19-0.29,3.26-0.2c2.39,0.2,4.71,0.5,7.01-0.42
			c1.19-0.48,2.23-1.2,2.95-2.28c0.9-1.36,0.89-2.75,1.01-4.31c0.06-0.78,0.15-0.94,0.74-1.17c0.78-0.3,1.55-0.25,2.4,0.13
			c2.52,1.13,4.23,3.82,6.42,5.46c2.58,1.93,5.3,2.4,8.41,1.72c0.5-0.11,1.16-0.11,1.62-0.28c0.23-0.08,0.33,0.14,0.12-0.12
			c0.26,0.32,0.17,1.07,0.18,1.45c0.03,0.86,0.06,1.7,0.19,2.56c0.44,2.91,1.95,5.52,3.47,7.99c1.3,2.13,2.6,4.16,3.08,6.65
			c0.33,1.72,0.23,3.81-1.24,4.9c-1.97,1.46-5.43,0.85-7.69,0.81c-1.65-0.02-3.3-0.05-4.95-0.07c-0.82-0.01-1.65-0.02-2.47-0.04
			c-0.67-0.01-1.51-0.16-2.15-0.05c-0.05-0.01-0.1-0.03-0.16-0.04c-0.35-0.12-0.24-0.01,0.33,0.34c-0.03,0.01-0.25-0.72-0.28-0.81
			c-0.27-0.77-0.6-1.52-1.18-2.11c-1.22-1.26-3-1.63-4.68-1.36c-3.19,0.52-4.61,3.56-7.32,4.92c-2.53,1.26-5.58,1.24-8.33,1.2
			c-1.25-0.02-6.7,0.2-5.81-2.28c0.45-1.27-0.51-2.74-1.75-3.08c-1.39-0.38-2.62,0.47-3.08,1.75c-1.27,3.55,1.5,6.93,4.76,7.99
			c1.62,0.53,3.39,0.56,5.08,0.6c1.59,0.04,3.19,0.05,4.78-0.09c3.39-0.29,6.66-1.18,9.29-3.44c0.89-0.77,1.74-2.04,2.76-2.53
			c-0.14,0.07,0.86-0.29,0.59-0.15c0.26-0.14,0.43,0.05,0.21,0.02c-0.24-0.03-0.27-0.69-0.1,0.05c0.07,0.33,0.2,0.65,0.32,0.96
			c1.52,3.9,6.28,3.12,9.67,3.17c3.66,0.05,7.5,0.44,11.12-0.14c3.25-0.52,5.87-2.61,6.92-5.75c0.88-2.62,0.49-5.7-0.45-8.25
			c-1.12-3.07-3.14-5.64-4.63-8.52c-0.59-1.15-1.1-2.39-1.27-3.68c-0.23-1.76,0.06-3.54-0.8-5.18c-0.8-1.54-2.32-2.46-4.03-2.61
			c-1.65-0.15-3.15,0.57-4.76,0.64c-2.84,0.11-5.01-3.23-6.92-4.9c-2.45-2.14-5.45-3.59-8.74-2.7c-1.25,0.33-2.44,1.02-3.28,2.01
			c-0.53,0.63-0.93,1.34-1.16,2.13c-0.29,1-0.11,2-0.27,3c-0.12,0.78-0.51,0.89-1.44,1.09c-1.07,0.23-2.36,0.1-3.52-0.03
			c-2.79-0.32-6.11-0.31-8.23,1.83c-1.22,1.23-1.71,2.79-1.9,4.47c-0.08,0.73-0.08,1.45-0.1,2.18c-0.01,0.63-0.04,1.34-0.13,1.66
			c-0.08,0.28,0.1,0.2-0.15,0.35c0.09-0.06,0.11-0.15,0.16-0.16c-0.71,0.1-1.43-0.23-2.12-0.37c-1.88-0.4-3.64-0.28-5.38,0.54
			c-3.31,1.57-5.3,5.48-4.24,9.05c1.03,3.46,4.6,6.08,8.23,5.72c1.34-0.13,2.5-1.05,2.5-2.5
			C556.58,129.11,555.43,127.73,554.08,127.86L554.08,127.86z"/>
	</g>
</g>
<g>
	<g>
		<path class="st51" d="M567.32,130.45c5.23,0,10.24-4.6,10-10c-0.24-5.42-4.39-10-10-10c-5.23,0-10.24,4.6-10,10
			C557.56,125.87,561.71,130.45,567.32,130.45L567.32,130.45z"/>
	</g>
</g>
<g>
	<g>
		<path class="st51" d="M574.69,112.98c-0.64-0.54-1.21-1.13-1.74-1.79c0.52,0.67,1.04,1.35,1.56,2.02
			c-0.35-0.48-0.66-0.97-0.92-1.51c0.34,0.8,0.67,1.59,1.01,2.39c-0.17-0.4-0.29-0.79-0.36-1.22c0.12,0.89,0.24,1.77,0.36,2.66
			c-0.03-0.2-0.03-0.39-0.02-0.59c-0.12,0.89-0.24,1.77-0.36,2.66c0.04-0.31,0.11-0.54,0.22-0.83c-0.34,0.8-0.67,1.59-1.01,2.39
			c0.05-0.08,0.1-0.17,0.15-0.25c-0.52,0.67-1.04,1.35-1.56,2.02c0.12-0.18,0.26-0.33,0.42-0.47c-0.67,0.52-1.35,1.04-2.02,1.56
			c0.16-0.14,0.34-0.26,0.53-0.35c-0.8,0.34-1.59,0.67-2.39,1.01c0.19-0.09,0.38-0.15,0.58-0.19c-0.89,0.12-1.77,0.24-2.66,0.36
			c0.33-0.04,0.61-0.05,0.94-0.02c-0.89-0.12-1.77-0.24-2.66-0.36c0.34,0.06,0.63,0.14,0.95,0.26c-0.8-0.34-1.59-0.67-2.39-1.01
			c0.43,0.19,0.8,0.41,1.18,0.68c-0.67-0.52-1.35-1.04-2.02-1.56c0.37,0.31,0.69,0.63,0.99,1c-0.52-0.67-1.04-1.35-1.56-2.02
			c0.64,0.86,1.16,1.8,1.75,2.7c1.49,2.24,2.88,3.81,5.06,5.34c3.14,2.19,7.52,2.86,11.19,1.81c2.88-0.83,5.43-2.71,6.99-5.27
			c1.38-2.26,1.84-4.53,1.96-7.15c0.12-2.56,0.05-5.14,0.07-7.7c-5.02,2.88-10.03,5.76-15.05,8.63c0.32,0.23,0.64,0.46,0.95,0.7
			c-0.67-0.52-1.35-1.04-2.02-1.56c1.45,1.14,2.74,2.43,3.89,3.87c-0.52-0.67-1.04-1.35-1.56-2.02c1.21,1.57,2.2,3.25,2.98,5.07
			c-0.34-0.8-0.67-1.59-1.01-2.39c0.15,0.36,0.29,0.73,0.43,1.1c0.88,2.38,2.25,4.74,4.6,5.98c2.02,1.07,4.1,1.49,6.38,1.19
			c2.1-0.28,4.27-1.14,5.74-2.75c1.9-2.06,2.64-4.29,2.93-7.07c0.46-4.49-1.03-9.75-3.66-13.41c-3.2-4.46-7.41-7.96-12.83-9.34
			c-4.15-1.05-9.21,0.66-11.29,4.6c-2.12,4.02-1.6,8.78,1.56,12.12c0.27,0.29,0.53,0.58,0.78,0.89c-0.52-0.67-1.04-1.35-1.56-2.02
			c1.27,1.72,2.06,3.69,3.07,5.56c1.62,2.99,3.96,5.55,6.81,7.42c3.51,2.3,7.79,2.88,11.83,1.92c2.49-0.59,4.66-2.07,6.97-3.1
			c-0.8,0.34-1.59,0.67-2.39,1.01c0.46-0.19,0.92-0.34,1.41-0.42c-0.89,0.12-1.77,0.24-2.66,0.36c0.28-0.03,0.52-0.03,0.8,0
			c-0.89-0.12-1.77-0.24-2.66-0.36c0.17,0.03,0.34,0.08,0.51,0.14c-0.8-0.34-1.59-0.67-2.39-1.01c0.17,0.07,0.33,0.17,0.48,0.28
			c-0.67-0.52-1.35-1.04-2.02-1.56c0.08,0.06,0.16,0.13,0.23,0.19c-0.86-3.24-1.71-6.49-2.57-9.73c-0.22,0.56-0.37,1.12-0.48,1.71
			c-0.23,1.32-0.49,2.73-0.42,4.08c0.16,2.93,0.76,5.02,1.99,7.64c0.78,1.66,1.96,3.2,3.31,4.43c0.82,0.75,1.74,1.37,2.45,2.24
			c-0.52-0.67-1.04-1.35-1.56-2.02c0.19,0.27,0.33,0.51,0.46,0.81c-0.34-0.8-0.67-1.59-1.01-2.39c0.08,0.2,0.13,0.4,0.16,0.61
			c-0.12-0.89-0.24-1.77-0.36-2.66c0.03,0.19,0.03,0.39,0.02,0.58c0.12-0.89,0.24-1.77,0.36-2.66c-0.04,0.29-0.1,0.52-0.2,0.79
			c0.34-0.8,0.67-1.59,1.01-2.39c-0.13,0.25-0.26,0.46-0.43,0.69c0.52-0.67,1.04-1.35,1.56-2.02c-0.2,0.22-0.39,0.4-0.62,0.59
			c0.67-0.52,1.35-1.04,2.02-1.56c-0.42,0.31-0.86,0.55-1.33,0.78c0.8-0.34,1.59-0.67,2.39-1.01c-1,0.42-2.04,0.68-3.11,0.84
			c0.89-0.12,1.77-0.24,2.66-0.36c-2.22,0.29-4.45,0.51-6.68,0.24c0.89,0.12,1.77,0.24,2.66,0.36c-0.89-0.14-1.73-0.35-2.56-0.68
			c0.8,0.34,1.59,0.67,2.39,1.01c-0.59-0.26-1.13-0.57-1.65-0.94c0.67,0.52,1.35,1.04,2.02,1.56c-0.74-0.59-1.4-1.26-2.12-1.88
			c-1.97-1.71-3.62-2.78-6.1-3.64c-3.06-1.06-6.44-0.92-9.55-0.19c-4.55,1.06-7.94,4.07-12.09,5.91c0.8-0.34,1.59-0.67,2.39-1.01
			c-0.9,0.37-1.8,0.63-2.77,0.77c0.89-0.12,1.77-0.24,2.66-0.36c-0.42,0.04-0.82,0.05-1.24,0.04c2.36,5.69,4.71,11.38,7.07,17.07
			c2.32-2,4.16-4.97,4.99-7.92c1.43-5.05-0.57-10.82-5.15-13.53c-3.2-1.9-6.62-1.91-10.21-1.9c-2.42,0.01-4.83,0.01-7.25,0.02
			c-5.23,0.01-10.24,4.59-10,10c0.24,5.41,4.39,10.01,10,10c3.65-0.01,7.34-0.19,10.98,0c-0.89-0.12-1.77-0.24-2.66-0.36
			c0.28,0.02,0.54,0.08,0.81,0.17c-0.8-0.34-1.59-0.67-2.39-1.01c0.23,0.08,0.43,0.2,0.62,0.35c-0.67-0.52-1.35-1.04-2.02-1.56
			c0.14,0.12,0.27,0.25,0.37,0.4c-0.52-0.67-1.04-1.35-1.56-2.02c0.04,0.08,0.08,0.15,0.13,0.23c-0.34-0.8-0.67-1.59-1.01-2.39
			c0.07,0.16,0.12,0.32,0.15,0.5c-0.12-0.89-0.24-1.77-0.36-2.66c0.02,0.29,0.02,0.53-0.02,0.82c0.12-0.89,0.24-1.77,0.36-2.66
			c-0.07,0.31-0.15,0.58-0.26,0.88c0.34-0.8,0.67-1.59,1.01-2.39c-0.28,0.63-0.63,1.18-1.05,1.73c0.52-0.67,1.04-1.35,1.56-2.02
			c-0.36,0.43-0.74,0.82-1.17,1.19c-1.19,1.03-2.16,2.92-2.57,4.41c-0.6,2.18-0.36,4.46,0.5,6.51c1.56,3.69,5.11,6.06,9.14,6.15
			c3.81,0.09,7.46-1.19,10.76-3.01c2.03-1.12,3.9-2.5,6.04-3.42c-0.8,0.34-1.59,0.67-2.39,1.01c0.9-0.36,1.79-0.63,2.75-0.79
			c-0.89,0.12-1.77,0.24-2.66,0.36c0.66-0.08,1.29-0.1,1.95-0.04c-0.89-0.12-1.77-0.24-2.66-0.36c0.52,0.08,1,0.2,1.49,0.38
			c-0.8-0.34-1.59-0.67-2.39-1.01c0.5,0.22,0.93,0.49,1.37,0.81c-0.67-0.52-1.35-1.04-2.02-1.56c1.79,1.46,3.35,3.2,5.42,4.32
			c2.83,1.53,5.33,2.05,8.48,2.39c1.51,0.16,3.02,0.11,4.53-0.03c2.17-0.21,4.4-0.36,6.5-0.98c5.93-1.74,11.04-6.38,11.14-12.92
			c0.06-3.64-1.5-6.96-3.98-9.56c-0.95-0.99-2.12-1.69-2.98-2.78c0.52,0.67,1.04,1.35,1.56,2.02c-0.35-0.49-0.63-1-0.87-1.55
			c0.34,0.8,0.67,1.59,1.01,2.39c-0.22-0.56-0.37-1.12-0.48-1.72c0.12,0.89,0.24,1.77,0.36,2.66c-0.09-0.72-0.1-1.41-0.01-2.13
			c-0.12,0.89-0.24,1.77-0.36,2.66c0.1-0.6,0.25-1.15,0.48-1.71c1.19-3-0.12-7.68-2.57-9.73c-1.85-1.54-3.27-2.55-5.64-3.19
			c-2.17-0.58-4.67-0.47-6.81,0.16c-2.3,0.68-4.29,1.96-6.45,2.93c0.8-0.34,1.59-0.67,2.39-1.01c-0.63,0.26-1.24,0.46-1.92,0.55
			c0.89-0.12,1.77-0.24,2.66-0.36c-0.38,0.02-0.72,0.01-1.09-0.04c0.89,0.12,1.77,0.24,2.66,0.36c-0.37-0.07-0.7-0.16-1.05-0.29
			c0.8,0.34,1.59,0.67,2.39,1.01c-0.58-0.25-1.1-0.56-1.61-0.93c0.67,0.52,1.35,1.04,2.02,1.56c-0.61-0.49-1.15-1.04-1.65-1.64
			c0.52,0.67,1.04,1.35,1.56,2.02c-1.05-1.37-1.75-2.93-2.52-4.47c-1.09-2.18-2.47-4.19-4.16-5.97c-3.24,5.57-6.49,11.14-9.73,16.71
			c0.57,0.14,1.11,0.32,1.65,0.54c-0.8-0.34-1.59-0.67-2.39-1.01c0.96,0.42,1.85,0.94,2.68,1.57c-0.67-0.52-1.35-1.04-2.02-1.56
			c0.82,0.66,1.55,1.39,2.21,2.21c-0.52-0.67-1.04-1.35-1.56-2.02c0.71,0.93,1.29,1.93,1.76,3c-0.34-0.8-0.67-1.59-1.01-2.39
			c0.39,0.98,0.66,1.97,0.82,3.01c-0.12-0.89-0.24-1.77-0.36-2.66c0.11,0.93,0.12,1.84,0.03,2.77c6.55-0.89,13.1-1.77,19.64-2.66
			c-1.12-3.06-2.44-5.97-4.42-8.56c-2.5-3.28-5.04-5.77-8.43-8.16c-2.86-2.01-7.2-1.69-10.09,0c-3.06,1.79-4.92,5.1-4.95,8.63
			c-0.02,2.8,0.17,5.7-0.13,8.48c0.12-0.89,0.24-1.77,0.36-2.66c-0.03,0.26-0.1,0.5-0.19,0.74c0.34-0.8,0.67-1.59,1.01-2.39
			c-0.08,0.21-0.2,0.4-0.34,0.58c0.52-0.67,1.04-1.35,1.56-2.02c-0.12,0.14-0.25,0.27-0.4,0.38c0.67-0.52,1.35-1.04,2.02-1.56
			c-0.15,0.1-0.31,0.19-0.48,0.25c0.8-0.34,1.59-0.67,2.39-1.01c-0.17,0.07-0.35,0.11-0.54,0.14c0.89-0.12,1.77-0.24,2.66-0.36
			c-0.3,0.03-0.57,0.04-0.87,0.02c0.89,0.12,1.77,0.24,2.66,0.36c-0.41-0.06-0.78-0.16-1.17-0.3c0.8,0.34,1.59,0.67,2.39,1.01
			c-0.38-0.17-0.71-0.37-1.05-0.62c0.67,0.52,1.35,1.04,2.02,1.56c-0.38-0.33-0.7-0.7-1.01-1.09c0.52,0.67,1.04,1.35,1.56,2.02
			c-0.63-0.87-1.14-1.81-1.74-2.7c-1.48-2.19-2.9-3.73-5.05-5.24c-3.89-2.75-9.78-3.18-13.89-0.65c-4.8,2.95-7.21,8.68-5.67,14.16
			c0.9,3.22,2.94,6.32,5.5,8.48c2.07,1.74,4.28,2.93,7.07,2.93c2.45,0,5.38-1.09,7.07-2.93c1.75-1.91,3.05-4.41,2.93-7.07
			C577.5,117.53,576.69,114.67,574.69,112.98L574.69,112.98z"/>
	</g>
</g>
<g>
	<g>
		<path class="st51" d="M590.94,135.71c5.23,0,10.24-4.6,10-10c-0.24-5.42-4.39-10-10-10c-5.23,0-10.24,4.6-10,10
			C581.18,131.12,585.33,135.71,590.94,135.71L590.94,135.71z"/>
	</g>
</g>
<g>
	<g>
		<path class="st51" d="M604.06,133.95c5.23,0,10.24-4.6,10-10c-0.24-5.42-4.39-10-10-10c-5.23,0-10.24,4.6-10,10
			C594.31,129.37,598.46,133.95,604.06,133.95L604.06,133.95z"/>
	</g>
</g>
<g>
	<g>
		<path class="st51" d="M600.56,122.56c5.23,0,10.24-4.6,10-10c-0.24-5.42-4.39-10-10-10c-5.23,0-10.24,4.6-10,10
			C590.81,117.98,594.96,122.56,600.56,122.56L600.56,122.56z"/>
	</g>
</g>
<g>
	<g>
		<path class="st51" d="M757.21,32.89c-3.48-1.91-7.63-3.57-11.5-1.77c-3.06,1.42-5.33,5.14-4.02,8.49c0.8-1.05,1.61-2.11,2.41-3.16
			c-2.85,0.34-5-1.92-7.37-3.14c-2.39-1.23-5.36-1.96-7.96-0.94c-3.02,1.19-4.12,4.15-3.99,7.2c0.05,1.15,0.34,2.46,0.1,3.59
			c-0.2,0.97-0.62,1.16-1.5,1.61c-1.91,0.97-4.38,1.49-5.94,3.3c-2.03,2.34-1.98,5.68-0.33,8.22c1.82,2.81,4.93,3.95,8.12,4.35
			c3.11,0.4,6.53,0.71,9.45-0.65c2.06-0.96,3.75-3.15,5.74-3.87c0.73-0.26,1.14-0.09,1.62,0.41c0.61,0.63,1.13,1.73,1.6,2.63
			c1.14,2.15,2.49,4.14,4.78,5.18c2.23,1.01,4.77,1.2,7.13,0.55c2.32-0.63,4.42-2.07,5.7-4.12c0.67-1.08,1.02-2.34,1.31-3.56
			c0.22-0.95,0.31-2.42,1.01-3.16c0.61-0.64,2.03-0.43,2.91-0.49c1.45-0.11,2.84-0.42,4.09-1.18c2.22-1.36,3.84-3.74,4.27-6.3
			c0.54-3.23-0.7-6.27-3.35-8.19c-2.21-1.6-5.33-2.17-7.95-1.34c-1.65,0.53-2.9,1.53-4.11,2.74c-0.44,0.44-0.89,1.05-1.48,1.29
			c-0.34,0.14-0.95-0.04-0.27,0.29c0.22,0.11-0.12,0.17,0.04-0.01c0.01-0.01-0.02-0.39-0.01-0.64c0.02-0.6,0.1-1.2,0.1-1.8
			c-0.01-1.77-0.63-3.18-2.12-4.19c-2.67-1.81-5.18,2.52-2.52,4.32c-0.75-0.51-0.16-0.56-0.33-0.28c-0.02,0.03-0.03-0.75-0.02,0.15
			c0,0.5-0.06,1-0.08,1.5c-0.06,1.21,0.07,2.45,0.67,3.52c1.47,2.62,5.04,2.76,7.37,1.29c1.1-0.7,1.95-1.69,2.89-2.57
			c0.66-0.61,1.36-0.91,2.03-0.97c1.51-0.13,3.25,0.53,3.97,1.91c0.67,1.26,0.34,2.87-0.59,4.05c-1.45,1.84-3.51,1.27-5.68,1.66
			c-2.86,0.51-4.5,2.75-5.23,5.41c-0.3,1.1-0.45,2.25-0.84,3.32c-0.24,0.64-0.55,1.11-1.23,1.66c-1.02,0.84-2.65,1.25-4.25,1.04
			c-0.31-0.04-1.2-0.34-1.61-0.58c-0.69-0.41-1.12-0.99-1.63-1.87c-1.09-1.89-1.91-3.97-3.67-5.36c-2.05-1.63-4.64-1.75-6.97-0.64
			c-2.01,0.96-3.46,2.84-5.48,3.75c-1.08,0.49-2.3,0.45-3.47,0.4c-1.3-0.05-2.64-0.09-3.92-0.34c-1.75-0.34-4.27-1.26-4.22-3.42
			c0.01-0.6,0.35-0.89,0.68-1.12c0.88-0.62,1.69-0.83,2.67-1.23c2.51-1.02,4.84-2.5,5.49-5.34c0.32-1.39,0.22-2.79,0.12-4.2
			c-0.06-0.82-0.3-2.11,0.16-2.83c0.37-0.58,1.15-0.64,1.9-0.56c1.17,0.12,2.25,0.66,3.24,1.26c2.74,1.66,5.57,3.7,8.96,3.29
			c1.43-0.17,3.07-1.49,2.41-3.16c-0.46-1.17,0.37-2.37,1.76-2.81c2.13-0.67,4.63,0.76,6.42,1.75
			C757.5,38.76,760.03,34.44,757.21,32.89L757.21,32.89z"/>
	</g>
</g>
<g>
	<g>
		<path class="st51" d="M727.33,61.21c1.41,0.04,2.81,0.08,4.22,0.12c-0.89-6.55-1.77-13.1-2.66-19.64
			c-3.22,0.79-6.45,1.58-9.67,2.37c-7.03,1.72-10.05,11.75-4.41,16.71c2.97,2.61,6.6,4.27,10.63,4c4-0.27,7.74-1.78,10.61-4.63
			c2.35-2.33,4.08-5.61,4.8-8.82c0.6-2.7,0.58-5.39,0.84-8.11c-0.12,0.89-0.24,1.77-0.36,2.66c0.07-0.5,0.18-0.97,0.36-1.45
			c-0.34,0.8-0.67,1.59-1.01,2.39c0.1-0.23,0.22-0.45,0.36-0.65c-0.52,0.67-1.04,1.35-1.56,2.02c0.22-0.28,0.43-0.5,0.71-0.72
			c-0.67,0.52-1.35,1.04-2.02,1.56c0.29-0.2,0.56-0.35,0.88-0.49c-0.8,0.34-1.59,0.67-2.39,1.01c0.44-0.16,0.88-0.27,1.34-0.34
			c-0.89,0.12-1.77,0.24-2.66,0.36c0.71-0.07,1.4-0.05,2.11,0.04c-0.89-0.12-1.77-0.24-2.66-0.36c0.83,0.14,1.61,0.36,2.4,0.67
			c-0.8-0.34-1.59-0.67-2.39-1.01c0.88,0.38,1.69,0.86,2.47,1.43c-0.67-0.52-1.35-1.04-2.02-1.56c0.75,0.6,1.42,1.26,2.02,2.01
			c-0.52-0.67-1.04-1.35-1.56-2.02c0.5,0.68,0.92,1.38,1.27,2.15c-0.34-0.8-0.67-1.59-1.01-2.39c0.05,0.11,0.09,0.22,0.14,0.33
			c0.67,1.61,1.31,3.15,2.57,4.41c1.56,1.56,3.58,2.46,5.74,2.75c4.02,0.54,7.8-1.34,9.96-4.77c2.62-4.15,3.96-8.95,5.09-13.68
			c-6.55-0.89-13.1-1.77-19.64-2.66c0.09,8.26-1.23,19.25,7.41,23.92c5.77,3.11,11.76,1.02,17.19-1.59
			c3.41-1.64,6.51-3.96,9.31-6.49c-5.24-4.04-10.47-8.08-15.71-12.12c-0.47,0.81-0.98,1.58-1.54,2.33c0.52-0.67,1.04-1.35,1.56-2.02
			c-1.73,2.23-3.81,4.11-6.03,5.84c0.67-0.52,1.35-1.04,2.02-1.56c-2.35,1.8-4.83,3.77-7.51,5.05c0.8-0.34,1.59-0.67,2.39-1.01
			c-0.52,0.22-1.03,0.38-1.58,0.5c0.89-0.12,1.77-0.24,2.66-0.36c-0.43,0.05-0.8,0.07-1.23,0.04c0.89,0.12,1.77,0.24,2.66,0.36
			c-0.51-0.08-0.96-0.2-1.43-0.4c0.8,0.34,1.59,0.67,2.39,1.01c-0.34-0.17-0.65-0.36-0.96-0.58c0.67,0.52,1.35,1.04,2.02,1.56
			c-0.62-0.48-1.15-1.02-1.64-1.63c0.52,0.67,1.04,1.35,1.56,2.02c-0.98-1.28-1.71-2.73-2.61-4.06c-1.69-2.49-3.62-4.79-6.29-6.27
			c-3.29-1.82-6.8-2.17-10.45-1.54c-3.58,0.61-6.52,3.08-8.42,6.07c-2.81,4.43-1.07,11.22,3.59,13.68
			c4.94,2.61,10.69,1.14,13.68-3.59c0.05-0.09,0.11-0.17,0.16-0.26c-0.52,0.67-1.04,1.35-1.56,2.02c0.2-0.24,0.38-0.43,0.62-0.62
			c-0.67,0.52-1.35,1.04-2.02,1.56c0.16-0.11,0.33-0.21,0.5-0.29c-0.8,0.34-1.59,0.67-2.39,1.01c0.38-0.15,0.75-0.25,1.15-0.31
			c-0.89,0.12-1.77,0.24-2.66,0.36c0.42-0.03,0.82-0.01,1.25,0.04c-0.89-0.12-1.77-0.24-2.66-0.36c0.42,0.08,0.82,0.2,1.21,0.36
			c-0.8-0.34-1.59-0.67-2.39-1.01c0.41,0.2,0.76,0.42,1.12,0.69c-0.67-0.52-1.35-1.04-2.02-1.56c0.49,0.41,0.91,0.86,1.31,1.36
			c-0.52-0.67-1.04-1.35-1.56-2.02c0.93,1.23,1.63,2.6,2.49,3.89c1.66,2.49,3.46,4.47,5.92,6.16c5.29,3.64,12.22,2.66,17.34-0.73
			c6.38-4.21,12.74-8.91,16.64-15.64c2.51-4.33,1.33-9.88-2.58-12.9c-4.05-3.13-9.39-2.59-13.13,0.78c-0.63,0.56-1.27,1.1-1.93,1.62
			c0.67-0.52,1.35-1.04,2.02-1.56c-2.13,1.62-4.43,2.95-6.89,3.99c0.8-0.34,1.59-0.67,2.39-1.01c-1.18,0.48-2.37,0.94-3.62,1.15
			c0.89-0.12,1.77-0.24,2.66-0.36c-0.44,0.04-0.81,0.04-1.25-0.02c0.89,0.12,1.77,0.24,2.66,0.36c-0.24-0.05-0.47-0.12-0.7-0.22
			c0.8,0.34,1.59,0.67,2.39,1.01c-0.18-0.08-0.36-0.19-0.52-0.31c0.67,0.52,1.35,1.04,2.02,1.56c-0.24-0.2-0.43-0.39-0.63-0.62
			c0.52,0.67,1.04,1.35,1.56,2.02c-0.24-0.34-0.43-0.68-0.6-1.07c0.34,0.8,0.67,1.59,1.01,2.39c-0.23-0.62-0.38-1.25-0.48-1.91
			c0.12,0.89,0.24,1.77,0.36,2.66c-0.46-3.73-0.2-7.63-0.24-11.38c-0.05-4.99-3.76-9.16-8.67-9.82c-4.73-0.64-9.82,2.3-10.97,7.16
			c-0.67,2.8-1.36,5.6-2.48,8.26c0.34-0.8,0.67-1.59,1.01-2.39c-0.46,1.05-0.99,2.06-1.6,3.03c6.09,0.8,12.19,1.59,18.28,2.39
			c-0.97-2.34-1.7-3.93-3.2-5.88c-1.17-1.52-2.29-2.64-3.81-3.81c-3.41-2.63-7.18-3.93-11.45-4.31c-1.77-0.16-3.74,0.11-5.42,0.66
			c-3.21,1.06-5.91,2.99-7.72,5.87c-2.25,3.57-1.85,7.47-2.35,11.43c0.12-0.89,0.24-1.77,0.36-2.66c-0.16,1.05-0.4,2.05-0.79,3.04
			c0.34-0.8,0.67-1.59,1.01-2.39c-0.32,0.72-0.69,1.37-1.17,2c0.52-0.67,1.04-1.35,1.56-2.02c-0.3,0.36-0.62,0.68-0.98,0.98
			c0.67-0.52,1.35-1.04,2.02-1.56c-0.46,0.34-0.92,0.61-1.44,0.84c0.8-0.34,1.59-0.67,2.39-1.01c-0.53,0.2-1.04,0.34-1.6,0.42
			c0.89-0.12,1.77-0.24,2.66-0.36c-0.44,0.04-0.85,0.04-1.29-0.01c0.89,0.12,1.77,0.24,2.66,0.36c-0.43-0.07-0.81-0.18-1.21-0.35
			c0.8,0.34,1.59,0.67,2.39,1.01c-0.29-0.15-0.55-0.31-0.81-0.5c0.67,0.52,1.35,1.04,2.02,1.56c-0.08-0.07-0.16-0.14-0.24-0.22
			c-1.47,5.57-2.94,11.14-4.41,16.71c3.22-0.79,6.45-1.58,9.67-2.37c4.84-1.19,7.8-6.22,7.16-10.97c-0.67-4.96-4.8-8.53-9.82-8.67
			c-1.41-0.04-2.81-0.08-4.22-0.12c-5.23-0.14-10.24,4.7-10,10C717.58,56.75,721.72,61.06,727.33,61.21L727.33,61.21z"/>
	</g>
</g>
<g>
	<g>
		<path class="st51" d="M753.58,43.69c5.23,0,10.24-4.6,10-10c-0.24-5.42-4.39-10-10-10c-5.23,0-10.24,4.6-10,10
			C743.82,39.1,747.97,43.69,753.58,43.69L753.58,43.69z"/>
	</g>
</g>
<g>
	<g>
		<path class="st51" d="M749.2,44.56c5.23,0,10.24-4.6,10-10c-0.24-5.42-4.39-10-10-10c-5.23,0-10.24,4.6-10,10
			C739.45,39.98,743.6,44.56,749.2,44.56L749.2,44.56z"/>
	</g>
</g>
<g>
	<g>
		<path class="st51" d="M762.33,64.72c5.23,0,10.24-4.6,10-10c-0.24-5.42-4.39-10-10-10c-5.23,0-10.24,4.6-10,10
			C752.57,60.14,756.72,64.72,762.33,64.72L762.33,64.72z"/>
	</g>
</g>
<g>
	<g>
		<path class="st51" d="M757.08,52.45c5.23,0,10.24-4.6,10-10c-0.24-5.42-4.39-10-10-10c-5.23,0-10.24,4.6-10,10
			C747.32,47.87,751.47,52.45,757.08,52.45L757.08,52.45z"/>
	</g>
</g>
<g>
	<g>
		<path class="st51" d="M258.74,67.54c-2.55-1.86-6.07-3.46-9.02-1.47c-2.52,1.7-3.71,4.98-2.88,7.9c0.58-1.03,1.16-2.05,1.75-3.08
			c-0.5,0.07-1.53-0.93-1.9-1.24c-0.9-0.75-1.79-1.59-2.84-2.14c-2.13-1.11-4.76-1.38-6.7,0.27c-1.91,1.63-2.16,4.2-2.04,6.56
			c0.05,0.97,0.21,2.01,0.05,2.98c-0.13,0.78-0.39,1.03-0.89,1.37c-1.73,1.15-3.55,1.77-4.6,3.73c-1.18,2.19-0.9,4.9,0.21,7.06
			c1.15,2.23,3.35,3.62,5.79,4.05c2.53,0.44,5.49,0.76,7.73-0.75c0.83-0.56,1.54-1.27,2.23-1.99c0.33-0.34,0.65-0.69,1-1.02
			c0.14-0.14,0.29-0.28,0.45-0.4c-0.17,0.13,0.19-0.32,0.05-0.05c0.05-0.1,0.5-0.03,0.07-0.02c-0.02,0-0.3-0.02-0.28-0.04
			c-0.11,0.08,0.01-0.16,0.1,0.12c-0.07-0.21,0.11,0.17,0.12,0.19c0.51,0.8,0.8,1.72,1.15,2.59c0.82,2,1.82,3.91,3.82,4.95
			c1.69,0.88,3.73,1.01,5.51,0.33c1.96-0.75,3.51-2.22,4.36-4.14c0.47-1.07,0.7-2.16,0.9-3.31c0.13-0.77,0.21-2.11,0.63-2.69
			c0.29-0.4,1.15-0.25,1.83-0.33c1.24-0.16,2.31-0.65,3.24-1.48c1.61-1.42,2.5-3.54,2.79-5.63c0.35-2.59-0.27-5.3-2.12-7.22
			c-1.65-1.7-4.18-2.53-6.48-1.8c-1.23,0.39-2.23,1.18-3.03,2.18c-0.39,0.49-0.74,1.03-1.16,1.5c-0.04,0.05-0.08,0.09-0.12,0.14
			c-0.36,0.3-0.35,0.33,0.03,0.08c0.24,0.19,1.14,0.48,1.03,0.56c-0.07,0.05,0.02-0.38-0.02-0.18c0.05-0.24,0-0.55,0-0.8
			c0.01-0.53,0.07-1.06,0.06-1.59c-0.03-1.32-0.34-2.62-1.34-3.55c-2.36-2.18-5.9,1.34-3.54,3.54c-0.19-0.18-0.1-0.73-0.12-0.14
			c-0.02,0.42-0.02,0.84-0.04,1.26c-0.04,0.95-0.05,1.91,0.19,2.84c0.63,2.4,3.1,3.63,5.39,2.77c1.09-0.41,1.87-1.17,2.57-2.07
			c0.52-0.67,1.06-1.47,1.65-1.8c-0.13,0.07,0.18,0,0.17,0c0.02,0,0.28-0.01,0.49,0.07c0.43,0.17,0.88,0.58,1.17,1.18
			c0.56,1.17,0.41,2.68-0.12,3.84c-0.23,0.5-0.67,1.07-0.92,1.24c-0.28,0.19-0.08,0.09-0.48,0.15c-0.66,0.1-1.32,0.06-1.99,0.19
			c-2.3,0.45-3.64,2.35-4.2,4.51c-0.41,1.57-0.35,3.49-1.18,4.87c-0.58,0.97-1.43,1.33-2.29,1.27c0.37,0.03-0.43-0.11-0.57-0.18
			c0.4,0.18-0.47-0.4-0.23-0.19c-0.52-0.44-0.8-1.09-1.1-1.8c-0.71-1.68-1.23-3.5-2.5-4.86c-1.46-1.56-3.68-1.94-5.59-1
			c-1.52,0.75-2.57,2.17-3.77,3.32c-1.14,1.09-3.2,0.79-4.75,0.43c-1.5-0.35-2.48-1.32-2.55-2.92c-0.06-1.44,1.22-1.73,2.39-2.37
			c1.95-1.08,3.37-2.72,3.74-4.96c0.2-1.21,0.16-2.4,0.1-3.62c-0.05-0.94-0.2-2,0.13-2.91c0.06-0.16,0.3-0.45,0.13-0.23
			c-0.04,0.05-0.1,0-0.15,0.01c0.22-0.09,0.28-0.02,0.51,0.03c0.78,0.18,1.46,0.77,2.09,1.3c2.15,1.8,4.16,3.21,7.08,2.79
			c1.33-0.19,2.08-1.9,1.75-3.08c-0.25-0.86,0.09-2.01,0.83-2.41c0.93-0.5,2.87,1.01,3.73,1.63c1.09,0.8,2.79,0.18,3.42-0.9
			C260.38,69.69,259.83,68.34,258.74,67.54L258.74,67.54z"/>
	</g>
</g>
<g>
	<g>
		<path class="st51" d="M237.62,94.67c0.98,0.04,1.95,0.07,2.93,0.11c-0.89-6.55-1.77-13.1-2.66-19.64
			c-2.24,0.73-4.47,1.46-6.71,2.19c-3.36,1.1-6.02,3.5-6.98,6.98c-1,3.62,0.18,6.99,2.57,9.73c2.97,3.4,7.87,4.57,12.16,3.57
			c3.63-0.84,6.47-3.22,8.52-6.25c1.33-1.96,2.17-4.35,2.55-6.69c0.42-2.62,0.41-5.18,0.69-7.79c-0.12,0.89-0.24,1.77-0.36,2.66
			c0.07-0.42,0.16-0.79,0.29-1.19c-0.34,0.8-0.67,1.59-1.01,2.39c0.09-0.24,0.21-0.46,0.35-0.67c-0.52,0.67-1.04,1.35-1.56,2.02
			c0.13-0.18,0.28-0.35,0.45-0.5c-0.67,0.52-1.35,1.04-2.02,1.56c0.27-0.2,0.5-0.34,0.81-0.48c-0.8,0.34-1.59,0.67-2.39,1.01
			c0.19-0.07,0.39-0.13,0.59-0.16c-0.89,0.12-1.77,0.24-2.66,0.36c0.42-0.05,0.8-0.05,1.22,0c-0.89-0.12-1.77-0.24-2.66-0.36
			c0.41,0.08,0.8,0.18,1.19,0.33c-0.8-0.34-1.59-0.67-2.39-1.01c0.61,0.26,1.15,0.58,1.67,0.98c-0.67-0.52-1.35-1.04-2.02-1.56
			c0.54,0.45,1.01,0.94,1.45,1.49c-0.52-0.67-1.04-1.35-1.56-2.02c0.52,0.71,0.94,1.45,1.3,2.25c-0.34-0.8-0.67-1.59-1.01-2.39
			c0.14,0.37,0.27,0.73,0.39,1.1c1.21,3.84,4.29,6.62,8.31,7.16c1.83,0.25,3.48,0.04,5.18-0.68c1.85-0.78,3.89-2.21,4.78-4.09
			c1.97-4.17,3.04-8.33,3.84-12.84c-6.55-0.89-13.1-1.77-19.64-2.66c0.02,2.95,0.02,5.91,0.07,8.87c0.08,4.32,1,8.95,4.22,12.08
			c2.73,2.66,6.36,3.74,10.09,3.24c2.36-0.32,4.58-1.28,6.64-2.48c2.89-1.69,5.59-3.95,7.74-6.52c-5.24-4.04-10.47-8.08-15.71-12.12
			c-0.78,1.78-1.77,3.41-2.96,4.95c0.52-0.67,1.04-1.35,1.56-2.02c-1.95,2.45-4.27,4.7-6.68,6.7c0.67-0.52,1.35-1.04,2.02-1.56
			c-0.43,0.33-0.86,0.61-1.35,0.85c0.8-0.34,1.59-0.67,2.39-1.01c-0.23,0.1-0.46,0.17-0.71,0.22c0.89-0.12,1.77-0.24,2.66-0.36
			c-0.24,0.04-0.48,0.05-0.73,0.01c0.89,0.12,1.77,0.24,2.66,0.36c-0.21-0.03-0.42-0.09-0.62-0.18c0.8,0.34,1.59,0.67,2.39,1.01
			c-0.2-0.09-0.39-0.2-0.57-0.33c0.67,0.52,1.35,1.04,2.02,1.56c-0.39-0.31-0.71-0.64-1.02-1.02c0.52,0.67,1.04,1.35,1.56,2.02
			c-0.88-1.21-1.43-2.57-2.06-3.92c-1.08-2.31-2.64-4.35-4.66-5.91c-2.77-2.14-5.99-3.04-9.46-2.57c-3.7,0.5-7.29,2.69-8.98,6.14
			c-1.19,2.44-1.75,5.01-1.01,7.71c0.64,2.32,2.43,4.83,4.6,5.98c2.32,1.23,5.13,1.84,7.71,1.01c2.37-0.77,4.84-2.27,5.98-4.6
			c0.08-0.19,0.18-0.38,0.31-0.55c-0.52,0.67-1.04,1.35-1.56,2.02c0.11-0.15,0.25-0.29,0.39-0.41c-0.67,0.52-1.35,1.04-2.02,1.56
			c0.14-0.11,0.3-0.2,0.46-0.27c-0.8,0.34-1.59,0.67-2.39,1.01c0.16-0.07,0.33-0.12,0.51-0.14c-0.89,0.12-1.77,0.24-2.66,0.36
			c0.28-0.03,0.52-0.02,0.8,0.02c-0.89-0.12-1.77-0.24-2.66-0.36c0.18,0.03,0.36,0.08,0.53,0.15c-0.8-0.34-1.59-0.67-2.39-1.01
			c0.27,0.13,0.5,0.26,0.74,0.43c-0.67-0.52-1.35-1.04-2.02-1.56c0.27,0.23,0.49,0.47,0.72,0.74c-0.52-0.67-1.04-1.35-1.56-2.02
			c0.8,1.07,1.32,2.28,1.87,3.49c0.86,1.89,1.92,3.58,3.35,5.12c4.33,4.66,11.71,5.57,16.87,1.72c5.28-3.94,10.56-9.13,13.23-15.24
			c1.07-2.44,1.88-5.02,1.01-7.71c-0.68-2.11-1.82-3.83-3.58-5.19c-3.64-2.81-9.93-3.05-13.13,0.78c-1.11,1.32-2.32,2.52-3.68,3.59
			c0.67-0.52,1.35-1.04,2.02-1.56c-1.19,0.9-2.45,1.66-3.81,2.29c0.8-0.34,1.59-0.67,2.39-1.01c-0.39,0.16-0.74,0.29-1.15,0.38
			c0.89-0.12,1.77-0.24,2.66-0.36c-0.26,0.05-0.51,0.05-0.77,0c0.89,0.12,1.77,0.24,2.66,0.36c-0.13-0.04-0.25-0.08-0.38-0.12
			c0.8,0.34,1.59,0.67,2.39,1.01c-0.16-0.07-0.31-0.17-0.45-0.28c0.67,0.52,1.35,1.04,2.02,1.56c-0.14-0.12-0.26-0.25-0.37-0.4
			c0.52,0.67,1.04,1.35,1.56,2.02c-0.17-0.25-0.3-0.5-0.42-0.78c0.34,0.8,0.67,1.59,1.01,2.39c-0.24-0.64-0.38-1.29-0.47-1.97
			c0.12,0.89,0.24,1.77,0.36,2.66c-0.4-3.56-0.17-7.25-0.2-10.83c-0.04-4.99-3.78-9.16-8.67-9.82c-2.13-0.29-4.51-0.01-6.38,1.19
			c-2.07,1.34-4.15,3.45-4.6,5.98c-0.59,3.29-1.18,6.6-2.48,9.69c0.34-0.8,0.67-1.59,1.01-2.39c-0.11,0.26-0.23,0.51-0.35,0.76
			c6.09,0.8,12.18,1.59,18.28,2.39c-2.26-7.15-8.07-13.26-15.95-13.53c-4.81-0.16-9.55,2.5-11.75,6.8
			c-1.81,3.53-1.5,7.17-1.93,10.96c0.12-0.89,0.24-1.77,0.36-2.66c-0.15,1.1-0.38,2.16-0.77,3.21c0.34-0.8,0.67-1.59,1.01-2.39
			c-0.26,0.59-0.55,1.14-0.93,1.66c0.52-0.67,1.04-1.35,1.56-2.02c-0.23,0.27-0.46,0.5-0.73,0.73c0.67-0.52,1.35-1.04,2.02-1.56
			c-0.27,0.2-0.53,0.36-0.83,0.51c0.8-0.34,1.59-0.67,2.39-1.01c-0.3,0.12-0.57,0.2-0.88,0.26c0.89-0.12,1.77-0.24,2.66-0.36
			c-0.31,0.03-0.57,0.02-0.88-0.02c0.89,0.12,1.77,0.24,2.66,0.36c-0.19-0.04-0.38-0.1-0.56-0.18c0.8,0.34,1.59,0.67,2.39,1.01
			c-0.19-0.09-0.36-0.19-0.52-0.32c0.67,0.52,1.35,1.04,2.02,1.56c-0.17-0.14-0.33-0.3-0.47-0.48c-1.47,5.57-2.94,11.14-4.41,16.71
			c2.24-0.73,4.47-1.46,6.71-2.19c4.76-1.56,7.84-5.93,7.16-10.97c-0.67-5-4.8-8.49-9.82-8.67c-0.98-0.04-1.95-0.07-2.93-0.11
			c-5.23-0.19-10.24,4.74-10,10C227.87,90.25,232.01,94.46,237.62,94.67L237.62,94.67z"/>
	</g>
</g>
<g>
	<g>
		<path class="st51" d="M255.84,78.44c5.23,0,10.24-4.6,10-10c-0.24-5.42-4.39-10-10-10c-5.23,0-10.24,4.6-10,10
			C246.08,73.86,250.23,78.44,255.84,78.44L255.84,78.44z"/>
	</g>
</g>
<g>
	<g>
		<path class="st51" d="M252.8,79.25c5.23,0,10.24-4.6,10-10c-0.24-5.42-4.39-10-10-10c-5.23,0-10.24,4.6-10,10
			C243.04,74.67,247.19,79.25,252.8,79.25L252.8,79.25z"/>
	</g>
</g>
<g>
	<g>
		<path class="st51" d="M261.91,97.91c5.23,0,10.24-4.6,10-10c-0.24-5.42-4.39-10-10-10c-5.23,0-10.24,4.6-10,10
			C252.15,93.33,256.3,97.91,261.91,97.91L261.91,97.91z"/>
	</g>
</g>
<g>
	<g>
		<path class="st51" d="M258.26,86.55c5.23,0,10.24-4.6,10-10c-0.24-5.42-4.39-10-10-10c-5.23,0-10.24,4.6-10,10
			C248.51,81.97,252.66,86.55,258.26,86.55L258.26,86.55z"/>
	</g>
</g>
<g>
	<g>
		<path class="st51" d="M709.41,231.77c-2.55-1.86-6.07-3.46-9.02-1.47c-2.52,1.7-3.71,4.98-2.88,7.9c0.58-1.03,1.16-2.05,1.75-3.08
			c-0.5,0.07-1.53-0.93-1.9-1.24c-0.9-0.75-1.79-1.59-2.84-2.14c-2.13-1.11-4.76-1.38-6.7,0.27c-1.91,1.63-2.16,4.2-2.04,6.56
			c0.05,0.97,0.21,2.01,0.05,2.98c-0.13,0.78-0.39,1.03-0.89,1.37c-1.73,1.15-3.55,1.77-4.6,3.73c-1.18,2.19-0.9,4.9,0.21,7.06
			c1.15,2.23,3.35,3.62,5.79,4.05c2.53,0.44,5.49,0.76,7.73-0.75c0.83-0.56,1.54-1.27,2.23-1.99c0.33-0.34,0.65-0.7,1-1.02
			c0.14-0.14,0.29-0.28,0.45-0.4c-0.17,0.13,0.19-0.32,0.05-0.05c0.05-0.1,0.5-0.03,0.07-0.02c-0.02,0-0.3-0.02-0.28-0.04
			c-0.11,0.08,0.01-0.16,0.1,0.12c-0.07-0.21,0.11,0.17,0.12,0.19c0.51,0.8,0.8,1.72,1.15,2.59c0.82,2,1.82,3.91,3.82,4.95
			c1.69,0.88,3.73,1.01,5.51,0.33c1.96-0.75,3.51-2.22,4.36-4.14c0.47-1.07,0.7-2.16,0.9-3.31c0.13-0.77,0.21-2.11,0.63-2.69
			c0.29-0.4,1.15-0.25,1.83-0.33c1.24-0.16,2.3-0.65,3.24-1.48c1.61-1.42,2.5-3.54,2.79-5.63c0.35-2.59-0.27-5.3-2.12-7.22
			c-1.65-1.7-4.18-2.53-6.48-1.8c-1.23,0.39-2.23,1.18-3.03,2.18c-0.39,0.49-0.74,1.03-1.16,1.5c-0.04,0.05-0.08,0.09-0.12,0.14
			c-0.36,0.3-0.35,0.33,0.03,0.08c0.24,0.19,1.14,0.48,1.03,0.56c-0.07,0.05,0.02-0.38-0.02-0.18c0.05-0.24,0-0.55,0-0.8
			c0.01-0.53,0.07-1.06,0.06-1.59c-0.03-1.32-0.34-2.62-1.34-3.55c-2.36-2.18-5.9,1.34-3.54,3.54c-0.19-0.18-0.1-0.73-0.12-0.14
			c-0.02,0.42-0.02,0.84-0.04,1.26c-0.04,0.95-0.05,1.91,0.19,2.84c0.63,2.4,3.1,3.63,5.39,2.77c1.09-0.41,1.87-1.17,2.57-2.07
			c0.52-0.67,1.06-1.47,1.65-1.8c-0.13,0.07,0.18,0,0.17,0c0.02,0,0.28-0.01,0.49,0.07c0.43,0.17,0.88,0.58,1.17,1.18
			c0.56,1.17,0.41,2.68-0.12,3.84c-0.23,0.5-0.67,1.07-0.92,1.24c-0.28,0.19-0.08,0.09-0.48,0.15c-0.66,0.1-1.32,0.06-1.99,0.19
			c-2.3,0.45-3.64,2.35-4.2,4.51c-0.41,1.57-0.35,3.49-1.18,4.87c-0.58,0.97-1.43,1.33-2.29,1.27c0.37,0.03-0.43-0.11-0.57-0.18
			c0.4,0.18-0.47-0.4-0.23-0.19c-0.52-0.44-0.8-1.09-1.1-1.8c-0.71-1.68-1.23-3.5-2.5-4.86c-1.46-1.56-3.68-1.94-5.59-1
			c-1.52,0.75-2.57,2.17-3.77,3.32c-1.14,1.09-3.2,0.79-4.75,0.43c-1.5-0.35-2.48-1.32-2.55-2.92c-0.06-1.44,1.22-1.73,2.39-2.37
			c1.95-1.08,3.37-2.72,3.74-4.96c0.2-1.21,0.16-2.4,0.1-3.62c-0.05-0.94-0.2-2,0.13-2.91c0.06-0.16,0.3-0.45,0.13-0.23
			c-0.04,0.05-0.1,0-0.15,0.01c0.22-0.09,0.28-0.02,0.51,0.03c0.78,0.18,1.46,0.77,2.09,1.3c2.15,1.8,4.16,3.21,7.08,2.79
			c1.33-0.19,2.08-1.9,1.75-3.08c-0.25-0.86,0.09-2.01,0.83-2.41c0.93-0.5,2.87,1.01,3.73,1.63c1.09,0.8,2.79,0.18,3.42-0.9
			C711.04,233.92,710.5,232.57,709.41,231.77L709.41,231.77z"/>
	</g>
</g>
<g>
	<g>
		<path class="st51" d="M688.28,258.9c0.98,0.04,1.95,0.07,2.93,0.11c-0.89-6.55-1.77-13.1-2.66-19.64
			c-2.24,0.73-4.47,1.46-6.71,2.19c-3.36,1.1-6.02,3.5-6.98,6.98c-1,3.62,0.18,6.99,2.57,9.73c2.97,3.4,7.87,4.57,12.16,3.57
			c3.63-0.84,6.47-3.22,8.52-6.25c1.33-1.96,2.17-4.35,2.55-6.69c0.42-2.62,0.41-5.18,0.69-7.79c-0.12,0.89-0.24,1.77-0.36,2.66
			c0.07-0.42,0.16-0.79,0.29-1.19c-0.34,0.8-0.67,1.59-1.01,2.39c0.09-0.24,0.21-0.46,0.35-0.67c-0.52,0.67-1.04,1.35-1.56,2.02
			c0.13-0.18,0.28-0.35,0.45-0.5c-0.67,0.52-1.35,1.04-2.02,1.56c0.27-0.2,0.5-0.34,0.81-0.48c-0.8,0.34-1.59,0.67-2.39,1.01
			c0.19-0.07,0.39-0.13,0.59-0.16c-0.89,0.12-1.77,0.24-2.66,0.36c0.42-0.05,0.8-0.05,1.22,0c-0.89-0.12-1.77-0.24-2.66-0.36
			c0.41,0.08,0.8,0.18,1.19,0.33c-0.8-0.34-1.59-0.67-2.39-1.01c0.61,0.26,1.15,0.58,1.67,0.98c-0.67-0.52-1.35-1.04-2.02-1.56
			c0.54,0.45,1.01,0.94,1.45,1.49c-0.52-0.67-1.04-1.35-1.56-2.02c0.52,0.71,0.94,1.45,1.3,2.25c-0.34-0.8-0.67-1.59-1.01-2.39
			c0.15,0.37,0.27,0.73,0.39,1.1c1.21,3.84,4.29,6.62,8.31,7.16c1.83,0.25,3.48,0.04,5.18-0.68c1.85-0.78,3.89-2.21,4.78-4.09
			c1.97-4.17,3.04-8.33,3.84-12.84c-6.55-0.89-13.1-1.77-19.64-2.66c0.02,2.95,0.02,5.91,0.07,8.87c0.08,4.32,1,8.95,4.22,12.08
			c2.73,2.66,6.36,3.74,10.09,3.24c2.36-0.32,4.58-1.28,6.64-2.48c2.89-1.69,5.59-3.95,7.74-6.52c-5.24-4.04-10.47-8.08-15.71-12.12
			c-0.78,1.78-1.77,3.41-2.96,4.95c0.52-0.67,1.04-1.35,1.56-2.02c-1.95,2.45-4.27,4.7-6.68,6.7c0.67-0.52,1.35-1.04,2.02-1.56
			c-0.43,0.33-0.86,0.61-1.35,0.85c0.8-0.34,1.59-0.67,2.39-1.01c-0.23,0.1-0.46,0.17-0.71,0.22c0.89-0.12,1.77-0.24,2.66-0.36
			c-0.24,0.04-0.48,0.05-0.73,0.01c0.89,0.12,1.77,0.24,2.66,0.36c-0.21-0.03-0.42-0.09-0.62-0.18c0.8,0.34,1.59,0.67,2.39,1.01
			c-0.2-0.09-0.39-0.2-0.57-0.33c0.67,0.52,1.35,1.04,2.02,1.56c-0.39-0.31-0.71-0.64-1.02-1.02c0.52,0.67,1.04,1.35,1.56,2.02
			c-0.88-1.21-1.43-2.57-2.06-3.92c-1.08-2.31-2.64-4.35-4.66-5.91c-2.77-2.14-5.99-3.04-9.46-2.57c-3.7,0.5-7.29,2.69-8.98,6.14
			c-1.19,2.44-1.75,5.01-1.01,7.71c0.64,2.32,2.43,4.83,4.6,5.98c2.32,1.23,5.13,1.84,7.71,1.01c2.37-0.77,4.84-2.27,5.98-4.6
			c0.08-0.19,0.18-0.38,0.31-0.55c-0.52,0.67-1.04,1.35-1.56,2.02c0.11-0.15,0.25-0.29,0.39-0.41c-0.67,0.52-1.35,1.04-2.02,1.56
			c0.14-0.11,0.3-0.2,0.46-0.27c-0.8,0.34-1.59,0.67-2.39,1.01c0.16-0.07,0.33-0.12,0.51-0.14c-0.89,0.12-1.77,0.24-2.66,0.36
			c0.28-0.03,0.52-0.02,0.8,0.02c-0.89-0.12-1.77-0.24-2.66-0.36c0.18,0.03,0.36,0.08,0.53,0.15c-0.8-0.34-1.59-0.67-2.39-1.01
			c0.27,0.13,0.5,0.26,0.74,0.43c-0.67-0.52-1.35-1.04-2.02-1.56c0.27,0.23,0.49,0.47,0.72,0.74c-0.52-0.67-1.04-1.35-1.56-2.02
			c0.8,1.07,1.32,2.28,1.87,3.49c0.86,1.89,1.92,3.58,3.35,5.12c4.33,4.66,11.71,5.57,16.87,1.72c5.28-3.94,10.56-9.13,13.23-15.24
			c1.07-2.44,1.88-5.02,1.01-7.71c-0.68-2.11-1.82-3.83-3.58-5.19c-3.64-2.81-9.93-3.05-13.13,0.78c-1.11,1.32-2.32,2.52-3.68,3.59
			c0.67-0.52,1.35-1.04,2.02-1.56c-1.19,0.9-2.45,1.66-3.81,2.29c0.8-0.34,1.59-0.67,2.39-1.01c-0.39,0.16-0.74,0.29-1.15,0.38
			c0.89-0.12,1.77-0.24,2.66-0.36c-0.26,0.05-0.51,0.05-0.77,0c0.89,0.12,1.77,0.24,2.66,0.36c-0.13-0.04-0.25-0.08-0.38-0.12
			c0.8,0.34,1.59,0.67,2.39,1.01c-0.16-0.07-0.31-0.17-0.45-0.28c0.67,0.52,1.35,1.04,2.02,1.56c-0.14-0.12-0.26-0.25-0.37-0.4
			c0.52,0.67,1.04,1.35,1.56,2.02c-0.17-0.25-0.3-0.5-0.42-0.78c0.34,0.8,0.67,1.59,1.01,2.39c-0.24-0.64-0.38-1.29-0.47-1.97
			c0.12,0.89,0.24,1.77,0.36,2.66c-0.4-3.56-0.17-7.25-0.2-10.83c-0.04-4.99-3.78-9.16-8.67-9.82c-2.13-0.29-4.51-0.01-6.38,1.19
			c-2.07,1.34-4.15,3.45-4.6,5.98c-0.59,3.29-1.18,6.6-2.48,9.69c0.34-0.8,0.67-1.59,1.01-2.39c-0.11,0.26-0.23,0.51-0.35,0.76
			c6.09,0.8,12.19,1.59,18.28,2.39c-2.26-7.15-8.07-13.26-15.95-13.53c-4.81-0.16-9.55,2.5-11.75,6.8
			c-1.81,3.53-1.5,7.17-1.93,10.96c0.12-0.89,0.24-1.77,0.36-2.66c-0.15,1.1-0.38,2.16-0.77,3.21c0.34-0.8,0.67-1.59,1.01-2.39
			c-0.26,0.59-0.55,1.14-0.93,1.66c0.52-0.67,1.04-1.35,1.56-2.02c-0.23,0.27-0.46,0.5-0.73,0.73c0.67-0.52,1.35-1.04,2.02-1.56
			c-0.27,0.2-0.53,0.36-0.83,0.51c0.8-0.34,1.59-0.67,2.39-1.01c-0.3,0.12-0.57,0.2-0.88,0.26c0.89-0.12,1.77-0.24,2.66-0.36
			c-0.31,0.03-0.57,0.02-0.88-0.02c0.89,0.12,1.77,0.24,2.66,0.36c-0.19-0.04-0.38-0.1-0.56-0.18c0.8,0.34,1.59,0.67,2.39,1.01
			c-0.19-0.09-0.36-0.19-0.52-0.32c0.67,0.52,1.35,1.04,2.02,1.56c-0.17-0.14-0.33-0.3-0.47-0.48c-1.47,5.57-2.94,11.14-4.41,16.71
			c2.24-0.73,4.47-1.46,6.71-2.19c4.76-1.56,7.84-5.93,7.16-10.97c-0.67-5-4.8-8.49-9.82-8.67c-0.98-0.04-1.95-0.07-2.93-0.11
			c-5.23-0.19-10.24,4.74-10,10C678.53,254.48,682.67,258.69,688.28,258.9L688.28,258.9z"/>
	</g>
</g>
<g>
	<g>
		<path class="st51" d="M706.5,242.67c5.23,0,10.24-4.6,10-10c-0.24-5.42-4.39-10-10-10c-5.23,0-10.24,4.6-10,10
			C696.74,238.09,700.89,242.67,706.5,242.67L706.5,242.67z"/>
	</g>
</g>
<g>
	<g>
		<path class="st51" d="M703.46,243.48c5.23,0,10.24-4.6,10-10c-0.24-5.42-4.39-10-10-10c-5.23,0-10.24,4.6-10,10
			C693.71,238.9,697.86,243.48,703.46,243.48L703.46,243.48z"/>
	</g>
</g>
<g>
	<g>
		<path class="st51" d="M712.57,262.14c5.23,0,10.24-4.6,10-10c-0.24-5.42-4.39-10-10-10c-5.23,0-10.24,4.6-10,10
			C702.82,257.56,706.97,262.14,712.57,262.14L712.57,262.14z"/>
	</g>
</g>
<g>
	<g>
		<path class="st51" d="M708.93,250.78c5.23,0,10.24-4.6,10-10c-0.24-5.42-4.39-10-10-10c-5.23,0-10.24,4.6-10,10
			C699.17,246.2,703.32,250.78,708.93,250.78L708.93,250.78z"/>
	</g>
</g>
</svg>
