<?xml version="1.0" encoding="utf-8"?>
<!-- Generator: Adobe Illustrator 26.5.2, SVG Export Plug-In . SVG Version: 6.00 Build 0)  -->
<svg version="1.1" id="Layer_3" xmlns="http://www.w3.org/2000/svg" xmlns:xlink="http://www.w3.org/1999/xlink" x="0px" y="0px"
	 viewBox="0 0 841.9 1190.6" style="enable-background:new 0 0 841.9 1190.6;" xml:space="preserve">
<style type="text/css">
	.st0{fill:#1B9DD9;}
	.st1{fill:#48AC35;stroke:#020203;stroke-miterlimit:10;}
	.st2{fill:none;stroke:#644F42;stroke-width:11;stroke-miterlimit:10;}
	.st3{fill:#644F42;}
	.st4{fill:#9FC242;}
	.st5{fill:none;stroke:#CEDB73;stroke-width:2;stroke-miterlimit:10;}
	.st6{fill:#DBCBBC;}
	.st7{fill:none;stroke:#000000;stroke-miterlimit:10;}
	.st8{fill:#EDEBEB;stroke:#000000;stroke-width:4;stroke-miterlimit:10;}
	.st9{fill:#EDEBEB;stroke:#000000;stroke-miterlimit:10;}
	.st10{fill:#FFFFFF;stroke:#000000;stroke-miterlimit:10;}
	.st11{fill:#CAC9C9;stroke:#000000;stroke-miterlimit:10;}
	.st12{fill:#986C55;stroke:#000000;stroke-width:2;stroke-miterlimit:10;}
	.st13{fill:#FDD040;stroke:#000000;stroke-miterlimit:10;}
	.st14{fill:#FDD040;}
	.st15{fill:#668891;stroke:#FFFFFF;stroke-width:5;stroke-miterlimit:10;}
	.st16{fill:#C6D1E2;}
	.st17{fill:#F3943B;stroke:#020203;stroke-miterlimit:10;}
	.st18{fill:none;stroke:#020203;stroke-miterlimit:10;}
	.st19{fill:#FFFFFF;stroke:#000000;stroke-width:3;stroke-miterlimit:10;}
	.st20{fill:#F3943B;}
	.st21{fill:none;}
	.st22{fill:#FFFFFF;}
	.st23{fill:none;stroke:#000000;stroke-width:3;stroke-miterlimit:10;}
</style>
<g id="Layer_16">
	<rect y="0.6" class="st0" width="841.4" height="812.3"/>
	<rect y="812.9" class="st1" width="844.7" height="378.2"/>
</g>
<line class="st2" x1="0" y1="920.1" x2="841.4" y2="920.1"/>
<line class="st2" x1="162" y1="920.1" x2="162" y2="335.9"/>
<line class="st2" x1="330.2" y1="686.1" x2="331.9" y2="920.1"/>
<line class="st2" x1="697.5" y1="335.9" x2="696.6" y2="920.1"/>
<line class="st2" x1="165.1" y1="691" x2="693.6" y2="691"/>
<polyline class="st2" points="162,472.4 457,472.4 693.6,472.4 "/>
<line class="st2" x1="455.4" y1="691" x2="453.6" y2="472.4"/>
<polygon class="st3" points="240,292.8 287.2,266.8 287.2,216.4 240,216.4 "/>
<polygon class="st4" points="167.7,339.2 167.7,466.6 293.7,466.6 293.7,272.9 "/>
<g>
	<polygon class="st4" points="462.5,213.4 462.5,466.6 692,466.6 692,340 	"/>
	<line class="st5" x1="462.5" y1="304.5" x2="632" y2="304.5"/>
	<line class="st5" x1="462.5" y1="347.2" x2="692" y2="347.2"/>
	<line class="st5" x1="472.1" y1="393.5" x2="687.5" y2="393.5"/>
	<line class="st5" x1="462.5" y1="434.9" x2="692" y2="434.9"/>
	<line class="st5" x1="504.9" y1="235.9" x2="504.9" y2="466.6"/>
	<line class="st5" x1="547.2" y1="259.3" x2="547.2" y2="462.1"/>
	<line class="st5" x1="600.3" y1="288.4" x2="600.3" y2="462.1"/>
	<line class="st5" x1="632" y1="304.5" x2="632" y2="457.7"/>
	<line class="st5" x1="462.5" y1="264.3" x2="547.2" y2="264.3"/>
	<line class="st5" x1="673.7" y1="327.8" x2="673.7" y2="457.7"/>
</g>
<line class="st5" x1="221.3" y1="316.8" x2="293.7" y2="316.8"/>
<line class="st5" x1="167.7" y1="358.5" x2="293.7" y2="358.5"/>
<line class="st5" x1="167.7" y1="408.9" x2="275.8" y2="408.9"/>
<line class="st5" x1="275.8" y1="408.9" x2="288.8" y2="408.9"/>
<line class="st5" x1="167.7" y1="443.1" x2="268.3" y2="443.1"/>
<line class="st5" x1="258.3" y1="443.4" x2="293.7" y2="443.4"/>
<line class="st5" x1="263.6" y1="290.4" x2="263.6" y2="467.6"/>
<line class="st5" x1="221.3" y1="311.3" x2="221.3" y2="467.6"/>
<polyline class="st6" points="293.7,271.2 293.7,275.8 293.7,466.5 465.4,467.6 465.4,212.3 429.4,194.4 "/>
<line class="st5" x1="192.9" y1="330.2" x2="192.9" y2="466.2"/>
<line class="st7" x1="293.7" y1="315.8" x2="465.4" y2="315.8"/>
<line class="st7" x1="465.4" y1="268.4" x2="297.7" y2="268.4"/>
<line class="st7" x1="465.4" y1="234.4" x2="362.7" y2="234.4"/>
<line class="st7" x1="293.7" y1="358.5" x2="465.4" y2="358.5"/>
<line class="st7" x1="304.2" y1="444.4" x2="448.1" y2="444.4"/>
<line class="st7" x1="448.1" y1="444.4" x2="465.4" y2="444.4"/>
<line class="st7" x1="304.2" y1="444.4" x2="293.7" y2="444.4"/>
<line class="st7" x1="367.3" y1="451.2" x2="367.3" y2="465"/>
<line class="st7" x1="414.1" y1="451.2" x2="414.1" y2="465"/>
<line class="st7" x1="448.1" y1="446.4" x2="448.1" y2="466.3"/>
<line class="st7" x1="321.3" y1="259.3" x2="321.3" y2="466.3"/>
<line class="st7" x1="367.3" y1="234.4" x2="367.3" y2="467.6"/>
<line class="st7" x1="414.1" y1="207.4" x2="414.1" y2="465"/>
<line class="st7" x1="448.1" y1="466.3" x2="448.1" y2="207.4"/>
<rect x="476" y="289.6" class="st8" width="112.6" height="56"/>
<path class="st9" d="M683.4,436.6c0.4-1.6-8.1-5.3-8.1-5.3l-6.1,5.3c0,0-4.5,0.5-10-0.7c-7.5-1.7-16.9-6.6-19.7-20.4h52V448h-26
	c0,0-7.3,1.6-6.5-8.5"/>
<path class="st9" d="M636.2,414.9c0,0-3.2-2.7,3.2-7h34.5c0,0,2-4.3,4.8,7H636.2z"/>
<rect x="165.1" y="476.2" class="st10" width="286.9" height="209"/>
<g>
	<line class="st7" x1="383.7" y1="477.1" x2="384" y2="519.5"/>
	<polygon class="st11" points="382.6,519.3 385.6,519.3 385.6,522.7 388.6,524.9 390,528.5 376.9,528.5 379.5,524.6 382,522.7 	"/>
</g>
<line class="st7" x1="394.3" y1="478.5" x2="394.6" y2="553.4"/>
<polygon class="st11" points="393.1,553.1 396.3,553.1 396.3,559.1 399.5,563 401.1,569.3 386.9,569.3 389.8,562.5 392.5,559.1 "/>
<rect x="257.4" y="491" class="st12" width="83.1" height="50"/>
<rect x="270.5" y="499.2" class="st13" width="55.7" height="32.2"/>
<rect x="459.1" y="476.2" class="st14" width="232.7" height="209"/>
<rect x="506.2" y="457.9" transform="matrix(2.707867e-03 -1 1 2.707867e-03 17.5699 1021.3091)" class="st15" width="29.3" height="87.8"/>
<rect x="337.3" y="696.1" class="st16" width="354.6" height="221"/>
<rect x="534.5" y="704" class="st17" width="152.2" height="59.9"/>
<line class="st18" x1="571" y1="704" x2="571" y2="763.9"/>
<line class="st18" x1="615.5" y1="705" x2="615.5" y2="763"/>
<line class="st18" x1="653" y1="705" x2="653" y2="763"/>
<rect x="349.9" y="706.5" transform="matrix(1 -5.960809e-03 5.960809e-03 1 -4.402 2.404)" class="st19" width="102.4" height="66.4"/>
<rect x="167.9" y="696.1" class="st20" width="157.9" height="218.5"/>
<polyline class="st2" points="109.2,365.1 429.4,193.6 749.5,365.1 "/>
<rect x="119.2" y="-39.2" class="st21" width="482.5" height="88.1"/>
<g>
	<g>
		<path class="st22" d="M164,196.6c-1.7,0.2-3.8-1.1-3.5-3.1c0.3-1.9,2.3-2.7,4-2.3c2.8,0.7,5.9,0.7,7.4-2.2c1.1-2,0.5-4.4,0.9-6.3
			c0.1-0.6,0.3-1,0.9-1.3c1-0.4,2.2-0.3,3.3-0.2c2.4,0.2,4.7,0.5,7-0.4c1.2-0.5,2.2-1.2,2.9-2.3c0.9-1.4,0.9-2.8,1-4.3
			c0.1-0.8,0.1-0.9,0.7-1.2c0.8-0.3,1.6-0.2,2.4,0.1c2.5,1.1,4.2,3.8,6.4,5.5c2.6,1.9,5.3,2.4,8.4,1.7c0.5-0.1,1.2-0.1,1.6-0.3
			c0.2-0.1,0.3,0.1,0.1-0.1c0.3,0.3,0.2,1.1,0.2,1.4c0,0.9,0.1,1.7,0.2,2.6c0.4,2.9,1.9,5.5,3.5,8c1.3,2.1,2.6,4.2,3.1,6.6
			c0.3,1.7,0.2,3.8-1.2,4.9c-2,1.5-5.4,0.9-7.7,0.8c-1.6,0-3.3-0.1-4.9-0.1c-0.8,0-1.6,0-2.5,0c-0.7,0-1.5-0.2-2.1-0.1
			c-0.1,0-0.1,0-0.2,0c-0.4-0.1-0.2,0,0.3,0.3c0,0-0.2-0.7-0.3-0.8c-0.3-0.8-0.6-1.5-1.2-2.1c-1.2-1.3-3-1.6-4.7-1.4
			c-3.2,0.5-4.6,3.6-7.3,4.9c-2.5,1.3-5.6,1.2-8.3,1.2c-1.2,0-6.7,0.2-5.8-2.3c0.4-1.3-0.5-2.7-1.8-3.1c-1.4-0.4-2.6,0.5-3.1,1.8
			c-1.3,3.6,1.5,6.9,4.8,8c1.6,0.5,3.4,0.6,5.1,0.6c1.6,0,3.2,0.1,4.8-0.1c3.4-0.3,6.7-1.2,9.3-3.4c0.9-0.8,1.7-2,2.8-2.5
			c-0.1,0.1,0.9-0.3,0.6-0.1c0.3-0.1,0.4,0.1,0.2,0c-0.2,0-0.3-0.7-0.1,0.1c0.1,0.3,0.2,0.6,0.3,1c1.5,3.9,6.3,3.1,9.7,3.2
			c3.7,0.1,7.5,0.4,11.1-0.1c3.2-0.5,5.9-2.6,6.9-5.8c0.9-2.6,0.5-5.7-0.4-8.2c-1.1-3.1-3.1-5.6-4.6-8.5c-0.6-1.1-1.1-2.4-1.3-3.7
			c-0.2-1.8,0.1-3.5-0.8-5.2c-0.8-1.5-2.3-2.5-4-2.6c-1.6-0.1-3.1,0.6-4.8,0.6c-2.8,0.1-5-3.2-6.9-4.9c-2.4-2.1-5.4-3.6-8.7-2.7
			c-1.2,0.3-2.4,1-3.3,2c-0.5,0.6-0.9,1.3-1.2,2.1c-0.3,1-0.1,2-0.3,3c-0.1,0.8-0.5,0.9-1.4,1.1c-1.1,0.2-2.4,0.1-3.5,0
			c-2.8-0.3-6.1-0.3-8.2,1.8c-1.2,1.2-1.7,2.8-1.9,4.5c-0.1,0.7-0.1,1.4-0.1,2.2c0,0.6,0,1.3-0.1,1.7c-0.1,0.3,0.1,0.2-0.1,0.4
			c0.1-0.1,0.1-0.1,0.2-0.2c-0.7,0.1-1.4-0.2-2.1-0.4c-1.9-0.4-3.6-0.3-5.4,0.5c-3.3,1.6-5.3,5.5-4.2,9.1c1,3.5,4.6,6.1,8.2,5.7
			c1.3-0.1,2.5-1.1,2.5-2.5C166.5,197.8,165.3,196.4,164,196.6L164,196.6z"/>
	</g>
</g>
<g>
	<g>
		<path class="st22" d="M164.2,200.5c0,0.6,0,1.2,0,1.8c0,0.3,0.1,0.7,0.2,1c0.1,0.3,0.3,0.6,0.5,0.8s0.5,0.4,0.8,0.5
			c0.3,0.2,0.6,0.2,1,0.2c0.2,0,0.4-0.1,0.7-0.1c0.4-0.1,0.8-0.3,1.1-0.6c0.1-0.2,0.3-0.3,0.4-0.5c0.2-0.4,0.3-0.8,0.3-1.3
			c0-0.6,0-1.2,0-1.8c0-0.3-0.1-0.7-0.2-1c-0.1-0.3-0.3-0.6-0.5-0.8s-0.5-0.4-0.8-0.5c-0.3-0.2-0.6-0.2-1-0.2
			c-0.2,0-0.4,0.1-0.7,0.1c-0.4,0.1-0.8,0.3-1.1,0.6c-0.1,0.2-0.3,0.3-0.4,0.5C164.3,199.7,164.2,200.1,164.2,200.5L164.2,200.5z"/>
	</g>
</g>
<g>
	<g>
		<path class="st22" d="M60.8,50.5c-3.5-1.9-7.6-3.6-11.5-1.8c-3.1,1.4-5.3,5.1-4,8.5c0.8-1,1.6-2.1,2.4-3.2c-2.8,0.3-5-1.9-7.4-3.1
			c-2.4-1.2-5.4-2-8-0.9c-3,1.2-4.1,4.2-4,7.2c0,1.2,0.3,2.5,0.1,3.6c-0.2,1-0.6,1.2-1.5,1.6c-1.9,1-4.4,1.5-5.9,3.3
			c-2,2.3-2,5.7-0.3,8.2c1.8,2.8,4.9,3.9,8.1,4.3c3.1,0.4,6.5,0.7,9.5-0.7c2.1-1,3.8-3.2,5.7-3.9c0.7-0.3,1.1-0.1,1.6,0.4
			c0.6,0.6,1.1,1.7,1.6,2.6c1.1,2.2,2.5,4.1,4.8,5.2c2.2,1,4.8,1.2,7.1,0.6s4.4-2.1,5.7-4.1c0.7-1.1,1-2.3,1.3-3.6
			c0.2-0.9,0.3-2.4,1-3.2c0.6-0.6,2-0.4,2.9-0.5c1.4-0.1,2.8-0.4,4.1-1.2c2.2-1.4,3.8-3.7,4.3-6.3c0.5-3.2-0.7-6.3-3.3-8.2
			c-2.2-1.6-5.3-2.2-7.9-1.3c-1.7,0.5-2.9,1.5-4.1,2.7c-0.4,0.4-0.9,1-1.5,1.3c-0.3,0.1-1,0-0.3,0.3c0.2,0.1-0.1,0.2,0,0
			c0,0,0-0.4,0-0.6c0-0.6,0.1-1.2,0.1-1.8c0-1.8-0.6-3.2-2.1-4.2c-2.7-1.8-5.2,2.5-2.5,4.3c-0.8-0.5-0.2-0.6-0.3-0.3
			c0,0,0-0.8,0,0.2c0,0.5-0.1,1-0.1,1.5c-0.1,1.2,0.1,2.5,0.7,3.5c1.5,2.6,5,2.8,7.4,1.3c1.1-0.7,1.9-1.7,2.9-2.6
			c0.7-0.6,1.4-0.9,2-1c1.5-0.1,3.2,0.5,4,1.9c0.7,1.3,0.3,2.9-0.6,4c-1.4,1.8-3.5,1.3-5.7,1.7c-2.9,0.5-4.5,2.8-5.2,5.4
			c-0.3,1.1-0.5,2.2-0.8,3.3c-0.2,0.6-0.5,1.1-1.2,1.7c-1,0.8-2.7,1.2-4.2,1c-0.3,0-1.2-0.3-1.6-0.6c-0.7-0.4-1.1-1-1.6-1.9
			c-1.1-1.9-1.9-4-3.7-5.4c-2-1.6-4.6-1.8-7-0.6c-2,1-3.5,2.8-5.5,3.8c-1.1,0.5-2.3,0.4-3.5,0.4c-1.3-0.1-2.6-0.1-3.9-0.3
			c-1.8-0.3-4.3-1.3-4.2-3.4c0-0.6,0.4-0.9,0.7-1.1c0.9-0.6,1.7-0.8,2.7-1.2c2.5-1,4.8-2.5,5.5-5.3c0.3-1.4,0.2-2.8,0.1-4.2
			c-0.1-0.8-0.3-2.1,0.2-2.8c0.4-0.6,1.2-0.6,1.9-0.6c1.2,0.1,2.2,0.7,3.2,1.3c2.7,1.7,5.6,3.7,9,3.3c1.4-0.2,3.1-1.5,2.4-3.2
			c-0.5-1.2,0.4-2.4,1.8-2.8c2.1-0.7,4.6,0.8,6.4,1.8C61.1,56.4,63.6,52.1,60.8,50.5L60.8,50.5z"/>
	</g>
</g>
<g>
	<g>
		<path class="st22" d="M177.2,199.1c5.2,0,10.2-4.6,10-10s-4.4-10-10-10c-5.2,0-10.2,4.6-10,10
			C167.4,194.6,171.6,199.1,177.2,199.1L177.2,199.1z"/>
	</g>
</g>
<g>
	<g>
		<path class="st22" d="M184.6,181.7c-0.6-0.5-1.2-1.1-1.7-1.8c0.5,0.7,1,1.4,1.6,2c-0.4-0.5-0.7-1-0.9-1.5c0.3,0.8,0.7,1.6,1,2.4
			c-0.2-0.4-0.3-0.8-0.4-1.2c0.1,0.9,0.2,1.8,0.4,2.7c0-0.2,0-0.4,0-0.6c-0.1,0.9-0.2,1.8-0.4,2.7c0-0.3,0.1-0.5,0.2-0.8
			c-0.3,0.8-0.7,1.6-1,2.4c0.1-0.1,0.1-0.2,0.1-0.2c-0.5,0.7-1,1.4-1.6,2c0.1-0.2,0.3-0.3,0.4-0.5c-0.7,0.5-1.4,1-2,1.6
			c0.2-0.1,0.3-0.3,0.5-0.4c-0.8,0.3-1.6,0.7-2.4,1c0.2-0.1,0.4-0.1,0.6-0.2c-0.9,0.1-1.8,0.2-2.7,0.4c0.3,0,0.6-0.1,0.9,0
			c-0.9-0.1-1.8-0.2-2.7-0.4c0.3,0.1,0.6,0.1,0.9,0.3c-0.8-0.3-1.6-0.7-2.4-1c0.4,0.2,0.8,0.4,1.2,0.7c-0.7-0.5-1.4-1-2-1.6
			c0.4,0.3,0.7,0.6,1,1c-0.5-0.7-1-1.4-1.6-2c0.6,0.9,1.2,1.8,1.8,2.7c1.5,2.2,2.9,3.8,5.1,5.3c3.1,2.2,7.5,2.9,11.2,1.8
			c2.9-0.8,5.4-2.7,7-5.3c1.4-2.3,1.8-4.5,2-7.1c0.1-2.6,0.1-5.1,0.1-7.7c-5,2.9-10,5.8-15.1,8.6c0.3,0.2,0.6,0.5,0.9,0.7
			c-0.7-0.5-1.4-1-2-1.6c1.4,1.1,2.7,2.4,3.9,3.9c-0.5-0.7-1-1.4-1.6-2c1.2,1.6,2.2,3.2,3,5.1c-0.3-0.8-0.7-1.6-1-2.4
			c0.1,0.4,0.3,0.7,0.4,1.1c0.9,2.4,2.2,4.7,4.6,6c2,1.1,4.1,1.5,6.4,1.2c2.1-0.3,4.3-1.1,5.7-2.8c1.9-2.1,2.6-4.3,2.9-7.1
			c0.5-4.5-1-9.8-3.7-13.4c-3.2-4.5-7.4-8-12.8-9.3c-4.1-1.1-9.2,0.7-11.3,4.6c-2.1,4-1.6,8.8,1.6,12.1c0.3,0.3,0.5,0.6,0.8,0.9
			c-0.5-0.7-1-1.4-1.6-2c1.3,1.7,2.1,3.7,3.1,5.6c1.6,3,4,5.6,6.8,7.4c3.5,2.3,7.8,2.9,11.8,1.9c2.5-0.6,4.7-2.1,7-3.1
			c-0.8,0.3-1.6,0.7-2.4,1c0.5-0.2,0.9-0.3,1.4-0.4c-0.9,0.1-1.8,0.2-2.7,0.4c0.3,0,0.5,0,0.8,0c-0.9-0.1-1.8-0.2-2.7-0.4
			c0.2,0,0.3,0.1,0.5,0.1c-0.8-0.3-1.6-0.7-2.4-1c0.2,0.1,0.3,0.2,0.5,0.3c-0.7-0.5-1.4-1-2-1.6c0.1,0.1,0.2,0.1,0.2,0.2
			c-0.9-3.2-1.7-6.5-2.6-9.7c-0.2,0.6-0.4,1.1-0.5,1.7c-0.2,1.3-0.5,2.7-0.4,4.1c0.2,2.9,0.8,5,2,7.6c0.8,1.7,2,3.2,3.3,4.4
			c0.8,0.8,1.7,1.4,2.4,2.2c-0.5-0.7-1-1.4-1.6-2c0.2,0.3,0.3,0.5,0.5,0.8c-0.3-0.8-0.7-1.6-1-2.4c0.1,0.2,0.1,0.4,0.2,0.6
			c-0.1-0.9-0.2-1.8-0.4-2.7c0,0.2,0,0.4,0,0.6c0.1-0.9,0.2-1.8,0.4-2.7c0,0.3-0.1,0.5-0.2,0.8c0.3-0.8,0.7-1.6,1-2.4
			c-0.1,0.2-0.3,0.5-0.4,0.7c0.5-0.7,1-1.4,1.6-2c-0.2,0.2-0.4,0.4-0.6,0.6c0.7-0.5,1.4-1,2-1.6c-0.4,0.3-0.9,0.6-1.3,0.8
			c0.8-0.3,1.6-0.7,2.4-1c-1,0.4-2,0.7-3.1,0.8c0.9-0.1,1.8-0.2,2.7-0.4c-2.2,0.3-4.4,0.5-6.7,0.2c0.9,0.1,1.8,0.2,2.7,0.4
			c-0.9-0.1-1.7-0.4-2.6-0.7c0.8,0.3,1.6,0.7,2.4,1c-0.6-0.3-1.1-0.6-1.6-0.9c0.7,0.5,1.4,1,2,1.6c-0.7-0.6-1.4-1.3-2.1-1.9
			c-2-1.7-3.6-2.8-6.1-3.6c-3.1-1.1-6.4-0.9-9.6-0.2c-4.6,1.1-7.9,4.1-12.1,5.9c0.8-0.3,1.6-0.7,2.4-1c-0.9,0.4-1.8,0.6-2.8,0.8
			c0.9-0.1,1.8-0.2,2.7-0.4c-0.4,0-0.8,0.1-1.2,0c2.4,5.7,4.7,11.4,7.1,17.1c2.3-2,4.2-5,5-7.9c1.4-5.1-0.6-10.8-5.1-13.5
			c-3.2-1.9-6.6-1.9-10.2-1.9c-2.4,0-4.8,0-7.2,0c-5.2,0-10.2,4.6-10,10s4.4,10,10,10c3.6,0,7.3-0.2,11,0c-0.9-0.1-1.8-0.2-2.7-0.4
			c0.3,0,0.5,0.1,0.8,0.2c-0.8-0.3-1.6-0.7-2.4-1c0.2,0.1,0.4,0.2,0.6,0.4c-0.7-0.5-1.4-1-2-1.6c0.1,0.1,0.3,0.2,0.4,0.4
			c-0.5-0.7-1-1.4-1.6-2c0,0.1,0.1,0.1,0.1,0.2c-0.3-0.8-0.7-1.6-1-2.4c0.1,0.2,0.1,0.3,0.1,0.5c-0.1-0.9-0.2-1.8-0.4-2.7
			c0,0.3,0,0.5,0,0.8c0.1-0.9,0.2-1.8,0.4-2.7c-0.1,0.3-0.1,0.6-0.3,0.9c0.3-0.8,0.7-1.6,1-2.4c-0.3,0.6-0.6,1.2-1.1,1.7
			c0.5-0.7,1-1.4,1.6-2c-0.4,0.4-0.7,0.8-1.2,1.2c-1.2,1-2.2,2.9-2.6,4.4c-0.6,2.2-0.4,4.5,0.5,6.5c1.6,3.7,5.1,6.1,9.1,6.1
			c3.8,0.1,7.5-1.2,10.8-3c2-1.1,3.9-2.5,6-3.4c-0.8,0.3-1.6,0.7-2.4,1c0.9-0.4,1.8-0.6,2.8-0.8c-0.9,0.1-1.8,0.2-2.7,0.4
			c0.7-0.1,1.3-0.1,1.9,0c-0.9-0.1-1.8-0.2-2.7-0.4c0.5,0.1,1,0.2,1.5,0.4c-0.8-0.3-1.6-0.7-2.4-1c0.5,0.2,0.9,0.5,1.4,0.8
			c-0.7-0.5-1.4-1-2-1.6c1.8,1.5,3.4,3.2,5.4,4.3c2.8,1.5,5.3,2.1,8.5,2.4c1.5,0.2,3,0.1,4.5,0c2.2-0.2,4.4-0.4,6.5-1
			c5.9-1.7,11-6.4,11.1-12.9c0.1-3.6-1.5-7-4-9.6c-0.9-1-2.1-1.7-3-2.8c0.5,0.7,1,1.4,1.6,2c-0.4-0.5-0.6-1-0.9-1.6
			c0.3,0.8,0.7,1.6,1,2.4c-0.2-0.6-0.4-1.1-0.5-1.7c0.1,0.9,0.2,1.8,0.4,2.7c-0.1-0.7-0.1-1.4,0-2.1c-0.1,0.9-0.2,1.8-0.4,2.7
			c0.1-0.6,0.2-1.1,0.5-1.7c1.2-3-0.1-7.7-2.6-9.7c-1.9-1.5-3.3-2.6-5.6-3.2c-2.2-0.6-4.7-0.5-6.8,0.2c-2.3,0.7-4.3,2-6.4,2.9
			c0.8-0.3,1.6-0.7,2.4-1c-0.6,0.3-1.2,0.5-1.9,0.6c0.9-0.1,1.8-0.2,2.7-0.4c-0.4,0-0.7,0-1.1,0c0.9,0.1,1.8,0.2,2.7,0.4
			c-0.4-0.1-0.7-0.2-1.1-0.3c0.8,0.3,1.6,0.7,2.4,1c-0.6-0.2-1.1-0.6-1.6-0.9c0.7,0.5,1.4,1,2,1.6c-0.6-0.5-1.1-1-1.6-1.6
			c0.5,0.7,1,1.4,1.6,2c-1.1-1.4-1.8-2.9-2.5-4.5c-1.1-2.2-2.5-4.2-4.2-6c-3.2,5.6-6.5,11.1-9.7,16.7c0.6,0.1,1.1,0.3,1.6,0.5
			c-0.8-0.3-1.6-0.7-2.4-1c1,0.4,1.9,0.9,2.7,1.6c-0.7-0.5-1.4-1-2-1.6c0.8,0.7,1.6,1.4,2.2,2.2c-0.5-0.7-1-1.4-1.6-2
			c0.7,0.9,1.3,1.9,1.8,3c-0.3-0.8-0.7-1.6-1-2.4c0.4,1,0.7,2,0.8,3c-0.1-0.9-0.2-1.8-0.4-2.7c0.1,0.9,0.1,1.8,0,2.8
			c6.6-0.9,13.1-1.8,19.6-2.7c-1.1-3.1-2.4-6-4.4-8.6c-2.5-3.3-5-5.8-8.4-8.2c-2.9-2-7.2-1.7-10.1,0c-3.1,1.8-4.9,5.1-4.9,8.6
			c0,2.8,0.2,5.7-0.1,8.5c0.1-0.9,0.2-1.8,0.4-2.7c0,0.3-0.1,0.5-0.2,0.7c0.3-0.8,0.7-1.6,1-2.4c-0.1,0.2-0.2,0.4-0.3,0.6
			c0.5-0.7,1-1.4,1.6-2c-0.1,0.1-0.2,0.3-0.4,0.4c0.7-0.5,1.4-1,2-1.6c-0.1,0.1-0.3,0.2-0.5,0.2c0.8-0.3,1.6-0.7,2.4-1
			c-0.2,0.1-0.4,0.1-0.5,0.1c0.9-0.1,1.8-0.2,2.7-0.4c-0.3,0-0.6,0-0.9,0c0.9,0.1,1.8,0.2,2.7,0.4c-0.4-0.1-0.8-0.2-1.2-0.3
			c0.8,0.3,1.6,0.7,2.4,1c-0.4-0.2-0.7-0.4-1.1-0.6c0.7,0.5,1.4,1,2,1.6c-0.4-0.3-0.7-0.7-1-1.1c0.5,0.7,1,1.4,1.6,2
			c-0.6-0.9-1.1-1.8-1.7-2.7c-1.5-2.2-2.9-3.7-5.1-5.2c-3.9-2.8-9.8-3.2-13.9-0.6c-4.8,2.9-7.2,8.7-5.7,14.2
			c0.9,3.2,2.9,6.3,5.5,8.5c2.1,1.7,4.3,2.9,7.1,2.9c2.4,0,5.4-1.1,7.1-2.9c1.8-1.9,3.1-4.4,2.9-7.1
			C187.4,186.2,186.6,183.4,184.6,181.7L184.6,181.7z"/>
	</g>
</g>
<g>
	<g>
		<path class="st22" d="M200.8,204.4c5.2,0,10.2-4.6,10-10s-4.4-10-10-10c-5.2,0-10.2,4.6-10,10
			C191.1,199.8,195.2,204.4,200.8,204.4L200.8,204.4z"/>
	</g>
</g>
<g>
	<g>
		<path class="st22" d="M172.8,213.2c5.2,0,10.2-4.6,10-10s-4.4-10-10-10c-5.2,0-10.2,4.6-10,10
			C163.1,208.6,167.2,213.2,172.8,213.2L172.8,213.2z"/>
	</g>
</g>
<g>
	<g>
		<path class="st22" d="M213.9,202.6c5.2,0,10.2-4.6,10-10s-4.4-10-10-10c-5.2,0-10.2,4.6-10,10
			C204.2,198.1,208.4,202.6,213.9,202.6L213.9,202.6z"/>
	</g>
</g>
<g>
	<g>
		<path class="st22" d="M210.4,191.3c5.2,0,10.2-4.6,10-10s-4.4-10-10-10c-5.2,0-10.2,4.6-10,10
			C200.7,186.7,204.9,191.3,210.4,191.3L210.4,191.3z"/>
	</g>
</g>
<g>
	<g>
		<path class="st22" d="M30.9,78.8c1.4,0,2.8,0.1,4.2,0.1c-0.9-6.6-1.8-13.1-2.7-19.6c-3.2,0.8-6.5,1.6-9.7,2.4
			c-7,1.7-10.1,11.8-4.4,16.7c3,2.6,6.6,4.3,10.6,4s7.7-1.8,10.6-4.6c2.3-2.3,4.1-5.6,4.8-8.8c0.6-2.7,0.6-5.4,0.8-8.1
			c-0.1,0.9-0.2,1.8-0.4,2.7c0.1-0.5,0.2-1,0.4-1.5c-0.3,0.8-0.7,1.6-1,2.4c0.1-0.2,0.2-0.5,0.4-0.7c-0.5,0.7-1,1.3-1.6,2
			c0.2-0.3,0.4-0.5,0.7-0.7c-0.7,0.5-1.3,1-2,1.6c0.3-0.2,0.6-0.3,0.9-0.5c-0.8,0.3-1.6,0.7-2.4,1c0.4-0.2,0.9-0.3,1.3-0.3
			c-0.9,0.1-1.8,0.2-2.7,0.4c0.7-0.1,1.4-0.1,2.1,0c-0.9-0.1-1.8-0.2-2.7-0.4c0.8,0.1,1.6,0.4,2.4,0.7c-0.8-0.3-1.6-0.7-2.4-1
			c0.9,0.4,1.7,0.9,2.5,1.4c-0.7-0.5-1.3-1-2-1.6c0.8,0.6,1.4,1.3,2,2c-0.5-0.7-1-1.3-1.6-2c0.5,0.7,0.9,1.4,1.3,2.2
			c-0.3-0.8-0.7-1.6-1-2.4c0,0.1,0.1,0.2,0.1,0.3c0.7,1.6,1.3,3.2,2.6,4.4c1.6,1.6,3.6,2.5,5.7,2.8c4,0.5,7.8-1.3,10-4.8
			c2.6-4.2,4-9,5.1-13.7c-6.5-0.9-13.1-1.8-19.6-2.7c0.1,8.3-1.2,19.2,7.4,23.9c5.8,3.1,11.8,1,17.2-1.6c3.4-1.6,6.5-4,9.3-6.5
			c-5.2-4-10.5-8.1-15.7-12.1c-0.5,0.8-1,1.6-1.5,2.3c0.5-0.7,1-1.3,1.6-2c-1.7,2.2-3.8,4.1-6,5.8c0.7-0.5,1.3-1,2-1.6
			c-2.3,1.8-4.8,3.8-7.5,5c0.8-0.3,1.6-0.7,2.4-1c-0.5,0.2-1,0.4-1.6,0.5c0.9-0.1,1.8-0.2,2.7-0.4c-0.4,0.1-0.8,0.1-1.2,0
			c0.9,0.1,1.8,0.2,2.7,0.4c-0.5-0.1-1-0.2-1.4-0.4c0.8,0.3,1.6,0.7,2.4,1c-0.3-0.2-0.7-0.4-1-0.6c0.7,0.5,1.3,1,2,1.6
			c-0.6-0.5-1.2-1-1.6-1.6c0.5,0.7,1,1.3,1.6,2c-1-1.3-1.7-2.7-2.6-4.1c-1.7-2.5-3.6-4.8-6.3-6.3c-3.3-1.8-6.8-2.2-10.5-1.5
			c-3.6,0.6-6.5,3.1-8.4,6.1c-2.8,4.4-1.1,11.2,3.6,13.7c4.9,2.6,10.7,1.1,13.7-3.6c0-0.1,0.1-0.2,0.2-0.3c-0.5,0.7-1,1.3-1.6,2
			c0.2-0.2,0.4-0.4,0.6-0.6c-0.7,0.5-1.3,1-2,1.6c0.2-0.1,0.3-0.2,0.5-0.3c-0.8,0.3-1.6,0.7-2.4,1c0.4-0.2,0.8-0.2,1.2-0.3
			c-0.9,0.1-1.8,0.2-2.7,0.4c0.4,0,0.8,0,1.2,0c-0.9-0.1-1.8-0.2-2.7-0.4c0.4,0.1,0.8,0.2,1.2,0.4c-0.8-0.3-1.6-0.7-2.4-1
			c0.4,0.2,0.8,0.4,1.1,0.7c-0.7-0.5-1.3-1-2-1.6c0.5,0.4,0.9,0.9,1.3,1.4c-0.5-0.7-1-1.3-1.6-2c0.9,1.2,1.6,2.6,2.5,3.9
			c1.7,2.5,3.5,4.5,5.9,6.2c5.3,3.6,12.2,2.7,17.3-0.7c6.4-4.2,12.7-8.9,16.6-15.6c2.5-4.3,1.3-9.9-2.6-12.9
			c-4.1-3.1-9.4-2.6-13.1,0.8c-0.6,0.6-1.3,1.1-1.9,1.6c0.7-0.5,1.3-1,2-1.6c-2.1,1.6-4.4,3-6.9,4c0.8-0.3,1.6-0.7,2.4-1
			c-1.2,0.5-2.4,0.9-3.6,1.2c0.9-0.1,1.8-0.2,2.7-0.4c-0.4,0-0.8,0-1.2,0c0.9,0.1,1.8,0.2,2.7,0.4c-0.2,0-0.5-0.1-0.7-0.2
			c0.8,0.3,1.6,0.7,2.4,1c-0.2-0.1-0.4-0.2-0.5-0.3c0.7,0.5,1.3,1,2,1.6c-0.2-0.2-0.4-0.4-0.6-0.6c0.5,0.7,1,1.3,1.6,2
			c-0.2-0.3-0.4-0.7-0.6-1.1c0.3,0.8,0.7,1.6,1,2.4c-0.2-0.6-0.4-1.2-0.5-1.9c0.1,0.9,0.2,1.8,0.4,2.7c-0.5-3.7-0.2-7.6-0.2-11.4
			c0-5-3.8-9.2-8.7-9.8c-4.7-0.6-9.8,2.3-11,7.2c-0.7,2.8-1.4,5.6-2.5,8.3c0.3-0.8,0.7-1.6,1-2.4c-0.5,1-1,2.1-1.6,3
			c6.1,0.8,12.2,1.6,18.3,2.4c-1-2.3-1.7-3.9-3.2-5.9c-1.2-1.5-2.3-2.6-3.8-3.8c-3.4-2.6-7.2-3.9-11.5-4.3c-1.8-0.2-3.7,0.1-5.4,0.7
			c-3.2,1.1-5.9,3-7.7,5.9c-2.2,3.6-1.9,7.5-2.4,11.4c0.1-0.9,0.2-1.8,0.4-2.7c-0.2,1-0.4,2-0.8,3c0.3-0.8,0.7-1.6,1-2.4
			c-0.3,0.7-0.7,1.4-1.2,2c0.5-0.7,1-1.3,1.6-2c-0.3,0.4-0.6,0.7-1,1c0.7-0.5,1.4-1,2-1.6c-0.5,0.3-0.9,0.6-1.4,0.8
			c0.8-0.3,1.6-0.7,2.4-1c-0.5,0.2-1,0.3-1.6,0.4c0.9-0.1,1.8-0.2,2.7-0.4c-0.4,0-0.9,0-1.3,0c0.9,0.1,1.8,0.2,2.7,0.4
			c-0.4-0.1-0.8-0.2-1.2-0.3c0.8,0.3,1.6,0.7,2.4,1c-0.3-0.2-0.5-0.3-0.8-0.5c0.7,0.5,1.4,1,2,1.6c-0.1-0.1-0.2-0.1-0.2-0.2
			c-1.5,5.6-2.9,11.1-4.4,16.7c3.2-0.8,6.5-1.6,9.7-2.4c4.8-1.2,7.8-6.2,7.2-11c-0.7-5-4.8-8.5-9.8-8.7c-1.4,0-2.8-0.1-4.2-0.1
			c-5.2-0.1-10.2,4.7-10,10C21.2,74.4,25.3,78.7,30.9,78.8L30.9,78.8z"/>
	</g>
</g>
<g>
	<g>
		<path class="st22" d="M57.2,61.3c5.2,0,10.2-4.6,10-10c-0.2-5.4-4.4-10-10-10c-5.2,0-10.2,4.6-10,10
			C47.4,56.7,51.6,61.3,57.2,61.3L57.2,61.3z"/>
	</g>
</g>
<g>
	<g>
		<path class="st22" d="M52.8,62.2c5.2,0,10.2-4.6,10-10s-4.4-10-10-10c-5.2,0-10.2,4.6-10,10S47.2,62.2,52.8,62.2L52.8,62.2z"/>
	</g>
</g>
<g>
	<g>
		<path class="st22" d="M65.9,82.3c5.2,0,10.2-4.6,10-10s-4.4-10-10-10c-5.2,0-10.2,4.6-10,10C56.2,77.8,60.3,82.3,65.9,82.3
			L65.9,82.3z"/>
	</g>
</g>
<g>
	<g>
		<path class="st22" d="M60.7,70.1c5.2,0,10.2-4.6,10-10c-0.2-5.4-4.4-10-10-10c-5.2,0-10.2,4.6-10,10
			C50.9,65.5,55.1,70.1,60.7,70.1L60.7,70.1z"/>
	</g>
</g>
<rect x="186.7" y="-47.5" class="st21" width="246.2" height="11.5"/>
<g>
	<g>
		<path class="st22" d="M554.1,127.9c-1.7,0.2-3.8-1.1-3.5-3.1c0.3-1.9,2.3-2.7,4-2.3c2.8,0.7,5.8,0.7,7.4-2.2c1-2,0.5-4.4,0.9-6.3
			c0.1-0.7,0.3-1,0.9-1.3c1-0.4,2.2-0.3,3.3-0.2c2.4,0.2,4.7,0.5,7-0.4c1.2-0.5,2.2-1.2,3-2.3c0.9-1.4,0.9-2.8,1-4.3
			c0.1-0.8,0.2-0.9,0.7-1.2c0.8-0.3,1.5-0.2,2.4,0.1c2.5,1.1,4.2,3.8,6.4,5.5c2.6,1.9,5.3,2.4,8.4,1.7c0.5-0.1,1.2-0.1,1.6-0.3
			c0.2-0.1,0.3,0.1,0.1-0.1c0.3,0.3,0.2,1.1,0.2,1.4c0,0.9,0.1,1.7,0.2,2.6c0.4,2.9,2,5.5,3.5,8c1.3,2.1,2.6,4.2,3.1,6.6
			c0.3,1.7,0.2,3.8-1.2,4.9c-2,1.5-5.4,0.9-7.7,0.8c-1.7,0-3.3-0.1-5-0.1c-0.8,0-1.7,0-2.5,0c-0.7,0-1.5-0.2-2.2-0.1
			c0,0-0.1,0-0.2,0c-0.3-0.1-0.2,0,0.3,0.3c0,0-0.2-0.7-0.3-0.8c-0.3-0.8-0.6-1.5-1.2-2.1c-1.2-1.3-3-1.6-4.7-1.4
			c-3.2,0.5-4.6,3.6-7.3,4.9c-2.5,1.3-5.6,1.2-8.3,1.2c-1.2,0-6.7,0.2-5.8-2.3c0.5-1.3-0.5-2.7-1.8-3.1c-1.4-0.4-2.6,0.5-3.1,1.8
			c-1.3,3.6,1.5,6.9,4.8,8c1.6,0.5,3.4,0.6,5.1,0.6c1.6,0,3.2,0.1,4.8-0.1c3.4-0.3,6.7-1.2,9.3-3.4c0.9-0.8,1.7-2,2.8-2.5
			c-0.1,0.1,0.9-0.3,0.6-0.1c0.3-0.1,0.4,0.1,0.2,0c-0.2,0-0.3-0.7-0.1,0.1c0.1,0.3,0.2,0.6,0.3,1c1.5,3.9,6.3,3.1,9.7,3.2
			c3.7,0.1,7.5,0.4,11.1-0.1c3.2-0.5,5.9-2.6,6.9-5.8c0.9-2.6,0.5-5.7-0.5-8.2c-1.1-3.1-3.1-5.6-4.6-8.5c-0.6-1.2-1.1-2.4-1.3-3.7
			c-0.2-1.8,0.1-3.5-0.8-5.2c-0.8-1.5-2.3-2.5-4-2.6c-1.7-0.2-3.2,0.6-4.8,0.6c-2.8,0.1-5-3.2-6.9-4.9c-2.5-2.1-5.5-3.6-8.7-2.7
			c-1.2,0.3-2.4,1-3.3,2c-0.5,0.6-0.9,1.3-1.2,2.1c-0.3,1-0.1,2-0.3,3c-0.1,0.8-0.5,0.9-1.4,1.1c-1.1,0.2-2.4,0.1-3.5,0
			c-2.8-0.3-6.1-0.3-8.2,1.8c-1.2,1.2-1.7,2.8-1.9,4.5c-0.1,0.7-0.1,1.4-0.1,2.2c0,0.6,0,1.3-0.1,1.7c-0.1,0.3,0.1,0.2-0.2,0.3
			c0.1-0.1,0.1-0.2,0.2-0.2c-0.7,0.1-1.4-0.2-2.1-0.4c-1.9-0.4-3.6-0.3-5.4,0.5c-3.3,1.6-5.3,5.5-4.2,9.1c1,3.5,4.6,6.1,8.2,5.7
			c1.3-0.1,2.5-1.1,2.5-2.5C556.6,129.1,555.4,127.7,554.1,127.9L554.1,127.9z"/>
	</g>
</g>
<g>
	<g>
		<path class="st22" d="M567.3,130.4c5.2,0,10.2-4.6,10-10s-4.4-10-10-10c-5.2,0-10.2,4.6-10,10
			C557.6,125.9,561.7,130.4,567.3,130.4L567.3,130.4z"/>
	</g>
</g>
<g>
	<g>
		<path class="st22" d="M574.7,113c-0.6-0.5-1.2-1.1-1.7-1.8c0.5,0.7,1,1.3,1.6,2c-0.3-0.5-0.7-1-0.9-1.5c0.3,0.8,0.7,1.6,1,2.4
			c-0.2-0.4-0.3-0.8-0.4-1.2c0.1,0.9,0.2,1.8,0.4,2.7c0-0.2,0-0.4,0-0.6c-0.1,0.9-0.2,1.8-0.4,2.7c0-0.3,0.1-0.5,0.2-0.8
			c-0.3,0.8-0.7,1.6-1,2.4c0-0.1,0.1-0.2,0.2-0.2c-0.5,0.7-1,1.3-1.6,2c0.1-0.2,0.3-0.3,0.4-0.5c-0.7,0.5-1.3,1-2,1.6
			c0.2-0.1,0.3-0.3,0.5-0.3c-0.8,0.3-1.6,0.7-2.4,1c0.2-0.1,0.4-0.2,0.6-0.2c-0.9,0.1-1.8,0.2-2.7,0.4c0.3,0,0.6-0.1,0.9,0
			c-0.9-0.1-1.8-0.2-2.7-0.4c0.3,0.1,0.6,0.1,1,0.3c-0.8-0.3-1.6-0.7-2.4-1c0.4,0.2,0.8,0.4,1.2,0.7c-0.7-0.5-1.3-1-2-1.6
			c0.4,0.3,0.7,0.6,1,1c-0.5-0.7-1-1.3-1.6-2c0.6,0.9,1.2,1.8,1.8,2.7c1.5,2.2,2.9,3.8,5.1,5.3c3.1,2.2,7.5,2.9,11.2,1.8
			c2.9-0.8,5.4-2.7,7-5.3c1.4-2.3,1.8-4.5,2-7.2c0.1-2.6,0-5.1,0.1-7.7c-5,2.9-10,5.8-15,8.6c0.3,0.2,0.6,0.5,1,0.7
			c-0.7-0.5-1.3-1-2-1.6c1.5,1.1,2.7,2.4,3.9,3.9c-0.5-0.7-1-1.3-1.6-2c1.2,1.6,2.2,3.2,3,5.1c-0.3-0.8-0.7-1.6-1-2.4
			c0.2,0.4,0.3,0.7,0.4,1.1c0.9,2.4,2.2,4.7,4.6,6c2,1.1,4.1,1.5,6.4,1.2c2.1-0.3,4.3-1.1,5.7-2.8c1.9-2.1,2.6-4.3,2.9-7.1
			c0.5-4.5-1-9.8-3.7-13.4c-3.2-4.5-7.4-8-12.8-9.3c-4.2-1.1-9.2,0.7-11.3,4.6c-2.1,4-1.6,8.8,1.6,12.1c0.3,0.3,0.5,0.6,0.8,0.9
			c-0.5-0.7-1-1.3-1.6-2c1.3,1.7,2.1,3.7,3.1,5.6c1.6,3,4,5.6,6.8,7.4c3.5,2.3,7.8,2.9,11.8,1.9c2.5-0.6,4.7-2.1,7-3.1
			c-0.8,0.3-1.6,0.7-2.4,1c0.5-0.2,0.9-0.3,1.4-0.4c-0.9,0.1-1.8,0.2-2.7,0.4c0.3,0,0.5,0,0.8,0c-0.9-0.1-1.8-0.2-2.7-0.4
			c0.2,0,0.3,0.1,0.5,0.1c-0.8-0.3-1.6-0.7-2.4-1c0.2,0.1,0.3,0.2,0.5,0.3c-0.7-0.5-1.3-1-2-1.6c0.1,0.1,0.2,0.1,0.2,0.2
			c-0.9-3.2-1.7-6.5-2.6-9.7c-0.2,0.6-0.4,1.1-0.5,1.7c-0.2,1.3-0.5,2.7-0.4,4.1c0.2,2.9,0.8,5,2,7.6c0.8,1.7,2,3.2,3.3,4.4
			c0.8,0.8,1.7,1.4,2.5,2.2c-0.5-0.7-1-1.4-1.6-2c0.2,0.3,0.3,0.5,0.5,0.8c-0.3-0.8-0.7-1.6-1-2.4c0.1,0.2,0.1,0.4,0.2,0.6
			c-0.1-0.9-0.2-1.8-0.4-2.7c0,0.2,0,0.4,0,0.6c0.1-0.9,0.2-1.8,0.4-2.7c0,0.3-0.1,0.5-0.2,0.8c0.3-0.8,0.7-1.6,1-2.4
			c-0.1,0.2-0.3,0.5-0.4,0.7c0.5-0.7,1-1.3,1.6-2c-0.2,0.2-0.4,0.4-0.6,0.6c0.7-0.5,1.3-1,2-1.6c-0.4,0.3-0.9,0.6-1.3,0.8
			c0.8-0.3,1.6-0.7,2.4-1c-1,0.4-2,0.7-3.1,0.8c0.9-0.1,1.8-0.2,2.7-0.4c-2.2,0.3-4.5,0.5-6.7,0.2c0.9,0.1,1.8,0.2,2.7,0.4
			c-0.9-0.1-1.7-0.3-2.6-0.7c0.8,0.3,1.6,0.7,2.4,1c-0.6-0.3-1.1-0.6-1.7-0.9c0.7,0.5,1.3,1,2,1.6c-0.7-0.6-1.4-1.3-2.1-1.9
			c-2-1.7-3.6-2.8-6.1-3.6c-3.1-1.1-6.4-0.9-9.5-0.2c-4.5,1.1-7.9,4.1-12.1,5.9c0.8-0.3,1.6-0.7,2.4-1c-0.9,0.4-1.8,0.6-2.8,0.8
			c0.9-0.1,1.8-0.2,2.7-0.4c-0.4,0-0.8,0.1-1.2,0c2.4,5.7,4.7,11.4,7.1,17.1c2.3-2,4.2-5,5-7.9c1.4-5.1-0.6-10.8-5.2-13.5
			c-3.2-1.9-6.6-1.9-10.2-1.9c-2.4,0-4.8,0-7.2,0c-5.2,0-10.2,4.6-10,10s4.4,10,10,10c3.7,0,7.3-0.2,11,0c-0.9-0.1-1.8-0.2-2.7-0.4
			c0.3,0,0.5,0.1,0.8,0.2c-0.8-0.3-1.6-0.7-2.4-1c0.2,0.1,0.4,0.2,0.6,0.4c-0.7-0.5-1.3-1-2-1.6c0.1,0.1,0.3,0.2,0.4,0.4
			c-0.5-0.7-1-1.4-1.6-2c0,0.1,0.1,0.1,0.1,0.2c-0.3-0.8-0.7-1.6-1-2.4c0.1,0.2,0.1,0.3,0.2,0.5c-0.1-0.9-0.2-1.8-0.4-2.7
			c0,0.3,0,0.5,0,0.8c0.1-0.9,0.2-1.8,0.4-2.7c-0.1,0.3-0.2,0.6-0.3,0.9c0.3-0.8,0.7-1.6,1-2.4c-0.3,0.6-0.6,1.2-1,1.7
			c0.5-0.7,1-1.3,1.6-2c-0.4,0.4-0.7,0.8-1.2,1.2c-1.2,1-2.2,2.9-2.6,4.4c-0.6,2.2-0.4,4.5,0.5,6.5c1.6,3.7,5.1,6.1,9.1,6.1
			c3.8,0.1,7.5-1.2,10.8-3c2-1.1,3.9-2.5,6-3.4c-0.8,0.3-1.6,0.7-2.4,1c0.9-0.4,1.8-0.6,2.8-0.8c-0.9,0.1-1.8,0.2-2.7,0.4
			c0.7-0.1,1.3-0.1,2,0c-0.9-0.1-1.8-0.2-2.7-0.4c0.5,0.1,1,0.2,1.5,0.4c-0.8-0.3-1.6-0.7-2.4-1c0.5,0.2,0.9,0.5,1.4,0.8
			c-0.7-0.5-1.3-1-2-1.6c1.8,1.5,3.3,3.2,5.4,4.3c2.8,1.5,5.3,2.1,8.5,2.4c1.5,0.2,3,0.1,4.5,0c2.2-0.2,4.4-0.4,6.5-1
			c5.9-1.7,11-6.4,11.1-12.9c0.1-3.6-1.5-7-4-9.6c-1-1-2.1-1.7-3-2.8c0.5,0.7,1,1.3,1.6,2c-0.3-0.5-0.6-1-0.9-1.6
			c0.3,0.8,0.7,1.6,1,2.4c-0.2-0.6-0.4-1.1-0.5-1.7c0.1,0.9,0.2,1.8,0.4,2.7c-0.1-0.7-0.1-1.4,0-2.1c-0.1,0.9-0.2,1.8-0.4,2.7
			c0.1-0.6,0.2-1.2,0.5-1.7c1.2-3-0.1-7.7-2.6-9.7c-1.8-1.5-3.3-2.6-5.6-3.2c-2.2-0.6-4.7-0.5-6.8,0.2c-2.3,0.7-4.3,2-6.5,2.9
			c0.8-0.3,1.6-0.7,2.4-1c-0.6,0.3-1.2,0.5-1.9,0.6c0.9-0.1,1.8-0.2,2.7-0.4c-0.4,0-0.7,0-1.1,0c0.9,0.1,1.8,0.2,2.7,0.4
			c-0.4-0.1-0.7-0.2-1-0.3c0.8,0.3,1.6,0.7,2.4,1c-0.6-0.2-1.1-0.6-1.6-0.9c0.7,0.5,1.3,1,2,1.6c-0.6-0.5-1.2-1-1.7-1.6
			c0.5,0.7,1,1.3,1.6,2c-1-1.4-1.8-2.9-2.5-4.5c-1.1-2.2-2.5-4.2-4.2-6c-3.2,5.6-6.5,11.1-9.7,16.7c0.6,0.1,1.1,0.3,1.7,0.5
			c-0.8-0.3-1.6-0.7-2.4-1c1,0.4,1.8,0.9,2.7,1.6c-0.7-0.5-1.3-1-2-1.6c0.8,0.7,1.5,1.4,2.2,2.2c-0.5-0.7-1-1.3-1.6-2
			c0.7,0.9,1.3,1.9,1.8,3c-0.3-0.8-0.7-1.6-1-2.4c0.4,1,0.7,2,0.8,3c-0.1-0.9-0.2-1.8-0.4-2.7c0.1,0.9,0.1,1.8,0,2.8
			c6.5-0.9,13.1-1.8,19.6-2.7c-1.1-3.1-2.4-6-4.4-8.6c-2.5-3.3-5-5.8-8.4-8.2c-2.9-2-7.2-1.7-10.1,0c-3.1,1.8-4.9,5.1-5,8.6
			c0,2.8,0.2,5.7-0.1,8.5c0.1-0.9,0.2-1.8,0.4-2.7c0,0.3-0.1,0.5-0.2,0.7c0.3-0.8,0.7-1.6,1-2.4c-0.1,0.2-0.2,0.4-0.3,0.6
			c0.5-0.7,1-1.3,1.6-2c-0.1,0.1-0.2,0.3-0.4,0.4c0.7-0.5,1.3-1,2-1.6c-0.2,0.1-0.3,0.2-0.5,0.2c0.8-0.3,1.6-0.7,2.4-1
			c-0.2,0.1-0.3,0.1-0.5,0.1c0.9-0.1,1.8-0.2,2.7-0.4c-0.3,0-0.6,0-0.9,0c0.9,0.1,1.8,0.2,2.7,0.4c-0.4-0.1-0.8-0.2-1.2-0.3
			c0.8,0.3,1.6,0.7,2.4,1c-0.4-0.2-0.7-0.4-1-0.6c0.7,0.5,1.3,1,2,1.6c-0.4-0.3-0.7-0.7-1-1.1c0.5,0.7,1,1.3,1.6,2
			c-0.6-0.9-1.1-1.8-1.7-2.7c-1.5-2.2-2.9-3.7-5-5.2c-3.9-2.8-9.8-3.2-13.9-0.7c-4.8,2.9-7.2,8.7-5.7,14.2c0.9,3.2,2.9,6.3,5.5,8.5
			c2.1,1.7,4.3,2.9,7.1,2.9c2.5,0,5.4-1.1,7.1-2.9c1.8-1.9,3-4.4,2.9-7.1C577.5,117.5,576.7,114.7,574.7,113L574.7,113z"/>
	</g>
</g>
<g>
	<g>
		<path class="st22" d="M590.9,135.7c5.2,0,10.2-4.6,10-10c-0.2-5.4-4.4-10-10-10c-5.2,0-10.2,4.6-10,10
			C581.2,131.1,585.3,135.7,590.9,135.7L590.9,135.7z"/>
	</g>
</g>
<g>
	<g>
		<path class="st22" d="M604.1,133.9c5.2,0,10.2-4.6,10-10c-0.2-5.4-4.4-10-10-10c-5.2,0-10.2,4.6-10,10
			C594.3,129.4,598.5,133.9,604.1,133.9L604.1,133.9z"/>
	</g>
</g>
<g>
	<g>
		<path class="st22" d="M600.6,122.6c5.2,0,10.2-4.6,10-10s-4.4-10-10-10c-5.2,0-10.2,4.6-10,10S595,122.6,600.6,122.6L600.6,122.6z
			"/>
	</g>
</g>
<g>
	<g>
		<path class="st22" d="M757.2,32.9c-3.5-1.9-7.6-3.6-11.5-1.8c-3.1,1.4-5.3,5.1-4,8.5c0.8-1,1.6-2.1,2.4-3.2
			c-2.8,0.3-5-1.9-7.4-3.1c-2.4-1.2-5.4-2-8-0.9c-3,1.2-4.1,4.2-4,7.2c0,1.2,0.3,2.5,0.1,3.6c-0.2,1-0.6,1.2-1.5,1.6
			c-1.9,1-4.4,1.5-5.9,3.3c-2,2.3-2,5.7-0.3,8.2c1.8,2.8,4.9,4,8.1,4.3c3.1,0.4,6.5,0.7,9.5-0.7c2.1-1,3.8-3.2,5.7-3.9
			c0.7-0.3,1.1-0.1,1.6,0.4c0.6,0.6,1.1,1.7,1.6,2.6c1.1,2.2,2.5,4.1,4.8,5.2c2.2,1,4.8,1.2,7.1,0.6s4.4-2.1,5.7-4.1
			c0.7-1.1,1-2.3,1.3-3.6c0.2-1,0.3-2.4,1-3.2c0.6-0.6,2-0.4,2.9-0.5c1.5-0.1,2.8-0.4,4.1-1.2c2.2-1.4,3.8-3.7,4.3-6.3
			c0.5-3.2-0.7-6.3-3.3-8.2c-2.2-1.6-5.3-2.2-8-1.3c-1.7,0.5-2.9,1.5-4.1,2.7c-0.4,0.4-0.9,1-1.5,1.3c-0.3,0.1-1,0-0.3,0.3
			c0.2,0.1-0.1,0.2,0,0c0,0,0-0.4,0-0.6c0-0.6,0.1-1.2,0.1-1.8c0-1.8-0.6-3.2-2.1-4.2c-2.7-1.8-5.2,2.5-2.5,4.3
			c-0.8-0.5-0.2-0.6-0.3-0.3c0,0,0-0.8,0,0.2c0,0.5-0.1,1-0.1,1.5c-0.1,1.2,0.1,2.5,0.7,3.5c1.5,2.6,5,2.8,7.4,1.3
			c1.1-0.7,2-1.7,2.9-2.6c0.7-0.6,1.4-0.9,2-1c1.5-0.1,3.2,0.5,4,1.9c0.7,1.3,0.3,2.9-0.6,4c-1.5,1.8-3.5,1.3-5.7,1.7
			c-2.9,0.5-4.5,2.8-5.2,5.4c-0.3,1.1-0.5,2.2-0.8,3.3c-0.2,0.6-0.5,1.1-1.2,1.7c-1,0.8-2.7,1.2-4.2,1c-0.3,0-1.2-0.3-1.6-0.6
			c-0.7-0.4-1.1-1-1.6-1.9c-1.1-1.9-1.9-4-3.7-5.4c-2-1.6-4.6-1.8-7-0.6c-2,1-3.5,2.8-5.5,3.8c-1.1,0.5-2.3,0.5-3.5,0.4
			c-1.3,0-2.6-0.1-3.9-0.3c-1.8-0.3-4.3-1.3-4.2-3.4c0-0.6,0.3-0.9,0.7-1.1c0.9-0.6,1.7-0.8,2.7-1.2c2.5-1,4.8-2.5,5.5-5.3
			c0.3-1.4,0.2-2.8,0.1-4.2c-0.1-0.8-0.3-2.1,0.2-2.8c0.4-0.6,1.2-0.6,1.9-0.6c1.2,0.1,2.2,0.7,3.2,1.3c2.7,1.7,5.6,3.7,9,3.3
			c1.4-0.2,3.1-1.5,2.4-3.2c-0.5-1.2,0.4-2.4,1.8-2.8c2.1-0.7,4.6,0.8,6.4,1.8C757.5,38.8,760,34.4,757.2,32.9L757.2,32.9z"/>
	</g>
</g>
<g>
	<g>
		<path class="st22" d="M727.3,61.2c1.4,0,2.8,0.1,4.2,0.1c-0.9-6.5-1.8-13.1-2.7-19.6c-3.2,0.8-6.5,1.6-9.7,2.4
			c-7,1.7-10,11.8-4.4,16.7c3,2.6,6.6,4.3,10.6,4c4-0.3,7.7-1.8,10.6-4.6c2.3-2.3,4.1-5.6,4.8-8.8c0.6-2.7,0.6-5.4,0.8-8.1
			c-0.1,0.9-0.2,1.8-0.4,2.7c0.1-0.5,0.2-1,0.4-1.5c-0.3,0.8-0.7,1.6-1,2.4c0.1-0.2,0.2-0.5,0.4-0.7c-0.5,0.7-1,1.3-1.6,2
			c0.2-0.3,0.4-0.5,0.7-0.7c-0.7,0.5-1.3,1-2,1.6c0.3-0.2,0.6-0.3,0.9-0.5c-0.8,0.3-1.6,0.7-2.4,1c0.4-0.2,0.9-0.3,1.3-0.3
			c-0.9,0.1-1.8,0.2-2.7,0.4c0.7-0.1,1.4,0,2.1,0c-0.9-0.1-1.8-0.2-2.7-0.4c0.8,0.1,1.6,0.4,2.4,0.7c-0.8-0.3-1.6-0.7-2.4-1
			c0.9,0.4,1.7,0.9,2.5,1.4c-0.7-0.5-1.3-1-2-1.6c0.8,0.6,1.4,1.3,2,2c-0.5-0.7-1-1.3-1.6-2c0.5,0.7,0.9,1.4,1.3,2.2
			c-0.3-0.8-0.7-1.6-1-2.4c0,0.1,0.1,0.2,0.1,0.3c0.7,1.6,1.3,3.2,2.6,4.4c1.6,1.6,3.6,2.5,5.7,2.8c4,0.5,7.8-1.3,10-4.8
			c2.6-4.2,4-9,5.1-13.7c-6.5-0.9-13.1-1.8-19.6-2.7c0.1,8.3-1.2,19.2,7.4,23.9c5.8,3.1,11.8,1,17.2-1.6c3.4-1.6,6.5-4,9.3-6.5
			c-5.2-4-10.5-8.1-15.7-12.1c-0.5,0.8-1,1.6-1.5,2.3c0.5-0.7,1-1.3,1.6-2c-1.7,2.2-3.8,4.1-6,5.8c0.7-0.5,1.3-1,2-1.6
			c-2.3,1.8-4.8,3.8-7.5,5c0.8-0.3,1.6-0.7,2.4-1c-0.5,0.2-1,0.4-1.6,0.5c0.9-0.1,1.8-0.2,2.7-0.4c-0.4,0-0.8,0.1-1.2,0
			c0.9,0.1,1.8,0.2,2.7,0.4c-0.5-0.1-1-0.2-1.4-0.4c0.8,0.3,1.6,0.7,2.4,1c-0.3-0.2-0.7-0.4-1-0.6c0.7,0.5,1.3,1,2,1.6
			c-0.6-0.5-1.2-1-1.6-1.6c0.5,0.7,1,1.3,1.6,2c-1-1.3-1.7-2.7-2.6-4.1c-1.7-2.5-3.6-4.8-6.3-6.3c-3.3-1.8-6.8-2.2-10.5-1.5
			c-3.6,0.6-6.5,3.1-8.4,6.1c-2.8,4.4-1.1,11.2,3.6,13.7c4.9,2.6,10.7,1.1,13.7-3.6c0-0.1,0.1-0.2,0.2-0.3c-0.5,0.7-1,1.3-1.6,2
			c0.2-0.2,0.4-0.4,0.6-0.6c-0.7,0.5-1.3,1-2,1.6c0.2-0.1,0.3-0.2,0.5-0.3c-0.8,0.3-1.6,0.7-2.4,1c0.4-0.2,0.8-0.2,1.2-0.3
			c-0.9,0.1-1.8,0.2-2.7,0.4c0.4,0,0.8,0,1.2,0c-0.9-0.1-1.8-0.2-2.7-0.4c0.4,0.1,0.8,0.2,1.2,0.4c-0.8-0.3-1.6-0.7-2.4-1
			c0.4,0.2,0.8,0.4,1.1,0.7c-0.7-0.5-1.3-1-2-1.6c0.5,0.4,0.9,0.9,1.3,1.4c-0.5-0.7-1-1.3-1.6-2c0.9,1.2,1.6,2.6,2.5,3.9
			c1.7,2.5,3.5,4.5,5.9,6.2c5.3,3.6,12.2,2.7,17.3-0.7c6.4-4.2,12.7-8.9,16.6-15.6c2.5-4.3,1.3-9.9-2.6-12.9
			c-4-3.1-9.4-2.6-13.1,0.8c-0.6,0.6-1.3,1.1-1.9,1.6c0.7-0.5,1.3-1,2-1.6c-2.1,1.6-4.4,3-6.9,4c0.8-0.3,1.6-0.7,2.4-1
			c-1.2,0.5-2.4,0.9-3.6,1.2c0.9-0.1,1.8-0.2,2.7-0.4c-0.4,0-0.8,0-1.2,0c0.9,0.1,1.8,0.2,2.7,0.4c-0.2,0-0.5-0.1-0.7-0.2
			c0.8,0.3,1.6,0.7,2.4,1c-0.2-0.1-0.4-0.2-0.5-0.3c0.7,0.5,1.3,1,2,1.6c-0.2-0.2-0.4-0.4-0.6-0.6c0.5,0.7,1,1.3,1.6,2
			c-0.2-0.3-0.4-0.7-0.6-1.1c0.3,0.8,0.7,1.6,1,2.4c-0.2-0.6-0.4-1.2-0.5-1.9c0.1,0.9,0.2,1.8,0.4,2.7c-0.5-3.7-0.2-7.6-0.2-11.4
			c0-5-3.8-9.2-8.7-9.8c-4.7-0.6-9.8,2.3-11,7.2c-0.7,2.8-1.4,5.6-2.5,8.3c0.3-0.8,0.7-1.6,1-2.4c-0.5,1-1,2.1-1.6,3
			c6.1,0.8,12.2,1.6,18.3,2.4c-1-2.3-1.7-3.9-3.2-5.9c-1.2-1.5-2.3-2.6-3.8-3.8c-3.4-2.6-7.2-3.9-11.5-4.3c-1.8-0.2-3.7,0.1-5.4,0.7
			c-3.2,1.1-5.9,3-7.7,5.9c-2.2,3.6-1.8,7.5-2.3,11.4c0.1-0.9,0.2-1.8,0.4-2.7c-0.2,1-0.4,2-0.8,3c0.3-0.8,0.7-1.6,1-2.4
			c-0.3,0.7-0.7,1.4-1.2,2c0.5-0.7,1-1.3,1.6-2c-0.3,0.4-0.6,0.7-1,1c0.7-0.5,1.3-1,2-1.6c-0.5,0.3-0.9,0.6-1.4,0.8
			c0.8-0.3,1.6-0.7,2.4-1c-0.5,0.2-1,0.3-1.6,0.4c0.9-0.1,1.8-0.2,2.7-0.4c-0.4,0-0.8,0-1.3,0c0.9,0.1,1.8,0.2,2.7,0.4
			c-0.4-0.1-0.8-0.2-1.2-0.3c0.8,0.3,1.6,0.7,2.4,1c-0.3-0.2-0.5-0.3-0.8-0.5c0.7,0.5,1.3,1,2,1.6c-0.1-0.1-0.2-0.1-0.2-0.2
			c-1.5,5.6-2.9,11.1-4.4,16.7c3.2-0.8,6.5-1.6,9.7-2.4c4.8-1.2,7.8-6.2,7.2-11c-0.7-5-4.8-8.5-9.8-8.7c-1.4,0-2.8-0.1-4.2-0.1
			c-5.2-0.1-10.2,4.7-10,10C717.6,56.8,721.7,61.1,727.3,61.2L727.3,61.2z"/>
	</g>
</g>
<g>
	<g>
		<path class="st22" d="M753.6,43.7c5.2,0,10.2-4.6,10-10s-4.4-10-10-10c-5.2,0-10.2,4.6-10,10S748,43.7,753.6,43.7L753.6,43.7z"/>
	</g>
</g>
<g>
	<g>
		<path class="st22" d="M749.2,44.6c5.2,0,10.2-4.6,10-10s-4.4-10-10-10c-5.2,0-10.2,4.6-10,10C739.5,40,743.6,44.6,749.2,44.6
			L749.2,44.6z"/>
	</g>
</g>
<g>
	<g>
		<path class="st22" d="M762.3,64.7c5.2,0,10.2-4.6,10-10s-4.4-10-10-10c-5.2,0-10.2,4.6-10,10C752.6,60.1,756.7,64.7,762.3,64.7
			L762.3,64.7z"/>
	</g>
</g>
<g>
	<g>
		<path class="st22" d="M757.1,52.5c5.2,0,10.2-4.6,10-10s-4.4-10-10-10c-5.2,0-10.2,4.6-10,10S751.5,52.5,757.1,52.5L757.1,52.5z"
			/>
	</g>
</g>
<g>
	<g>
		<path class="st22" d="M258.7,67.5c-2.5-1.9-6.1-3.5-9-1.5c-2.5,1.7-3.7,5-2.9,7.9c0.6-1,1.2-2.1,1.8-3.1c-0.5,0.1-1.5-0.9-1.9-1.2
			c-0.9-0.8-1.8-1.6-2.8-2.1c-2.1-1.1-4.8-1.4-6.7,0.3c-1.9,1.6-2.2,4.2-2,6.6c0.1,1,0.2,2,0.1,3c-0.1,0.8-0.4,1-0.9,1.4
			c-1.7,1.2-3.6,1.8-4.6,3.7c-1.2,2.2-0.9,4.9,0.2,7.1c1.1,2.2,3.4,3.6,5.8,4.1c2.5,0.4,5.5,0.8,7.7-0.8c0.8-0.6,1.5-1.3,2.2-2
			c0.3-0.3,0.6-0.7,1-1c0.1-0.1,0.3-0.3,0.4-0.4c-0.2,0.1,0.2-0.3,0.1-0.1c0.1-0.1,0.5,0,0.1,0H247c-0.1,0.1,0-0.2,0.1,0.1
			c-0.1-0.2,0.1,0.2,0.1,0.2c0.5,0.8,0.8,1.7,1.1,2.6c0.8,2,1.8,3.9,3.8,4.9c1.7,0.9,3.7,1,5.5,0.3c2-0.8,3.5-2.2,4.4-4.1
			c0.5-1.1,0.7-2.2,0.9-3.3c0.1-0.8,0.2-2.1,0.6-2.7c0.3-0.4,1.1-0.2,1.8-0.3c1.2-0.2,2.3-0.7,3.2-1.5c1.6-1.4,2.5-3.5,2.8-5.6
			c0.4-2.6-0.3-5.3-2.1-7.2c-1.6-1.7-4.2-2.5-6.5-1.8c-1.2,0.4-2.2,1.2-3,2.2c-0.4,0.5-0.7,1-1.2,1.5c0,0.1-0.1,0.1-0.1,0.1
			c-0.4,0.3-0.4,0.3,0,0.1c0.2,0.2,1.1,0.5,1,0.6s0-0.4,0-0.2c0-0.2,0-0.6,0-0.8c0-0.5,0.1-1.1,0.1-1.6c0-1.3-0.3-2.6-1.3-3.6
			c-2.4-2.2-5.9,1.3-3.5,3.5c-0.2-0.2-0.1-0.7-0.1-0.1c0,0.4,0,0.8,0,1.3c0,0.9-0.1,1.9,0.2,2.8c0.6,2.4,3.1,3.6,5.4,2.8
			c1.1-0.4,1.9-1.2,2.6-2.1c0.5-0.7,1.1-1.5,1.6-1.8c-0.1,0.1,0.2,0,0.2,0s0.3,0,0.5,0.1c0.4,0.2,0.9,0.6,1.2,1.2
			c0.6,1.2,0.4,2.7-0.1,3.8c-0.2,0.5-0.7,1.1-0.9,1.2c-0.3,0.2-0.1,0.1-0.5,0.2c-0.7,0.1-1.3,0.1-2,0.2c-2.3,0.4-3.6,2.3-4.2,4.5
			c-0.4,1.6-0.4,3.5-1.2,4.9c-0.6,1-1.4,1.3-2.3,1.3c0.4,0-0.4-0.1-0.6-0.2c0.4,0.2-0.5-0.4-0.2-0.2c-0.5-0.4-0.8-1.1-1.1-1.8
			c-0.7-1.7-1.2-3.5-2.5-4.9c-1.5-1.6-3.7-1.9-5.6-1c-1.5,0.8-2.6,2.2-3.8,3.3c-1.1,1.1-3.2,0.8-4.8,0.4c-1.5-0.3-2.5-1.3-2.6-2.9
			c-0.1-1.4,1.2-1.7,2.4-2.4c1.9-1.1,3.4-2.7,3.7-5c0.2-1.2,0.2-2.4,0.1-3.6c-0.1-0.9-0.2-2,0.1-2.9c0.1-0.2,0.3-0.4,0.1-0.2
			c0,0.1-0.1,0-0.1,0c0.2-0.1,0.3,0,0.5,0c0.8,0.2,1.5,0.8,2.1,1.3c2.1,1.8,4.2,3.2,7.1,2.8c1.3-0.2,2.1-1.9,1.8-3.1
			c-0.2-0.9,0.1-2,0.8-2.4c0.9-0.5,2.9,1,3.7,1.6c1.1,0.8,2.8,0.2,3.4-0.9C260.4,69.7,259.8,68.3,258.7,67.5L258.7,67.5z"/>
	</g>
</g>
<g>
	<g>
		<path class="st22" d="M237.6,94.7c1,0,1.9,0.1,2.9,0.1c-0.9-6.6-1.8-13.1-2.7-19.6c-2.2,0.7-4.5,1.5-6.7,2.2c-3.4,1.1-6,3.5-7,7
			c-1,3.6,0.2,7,2.6,9.7c3,3.4,7.9,4.6,12.2,3.6c3.6-0.8,6.5-3.2,8.5-6.2c1.3-2,2.2-4.3,2.6-6.7c0.4-2.6,0.4-5.2,0.7-7.8
			c-0.1,0.9-0.2,1.8-0.4,2.7c0.1-0.4,0.2-0.8,0.3-1.2c-0.3,0.8-0.7,1.6-1,2.4c0.1-0.2,0.2-0.5,0.4-0.7c-0.5,0.7-1,1.3-1.6,2
			c0.1-0.2,0.3-0.3,0.4-0.5c-0.7,0.5-1.4,1-2,1.6c0.3-0.2,0.5-0.3,0.8-0.5c-0.8,0.3-1.6,0.7-2.4,1c0.2-0.1,0.4-0.1,0.6-0.2
			c-0.9,0.1-1.8,0.2-2.7,0.4c0.4-0.1,0.8-0.1,1.2,0c-0.9-0.1-1.8-0.2-2.7-0.4c0.4,0.1,0.8,0.2,1.2,0.3c-0.8-0.3-1.6-0.7-2.4-1
			c0.6,0.3,1.1,0.6,1.7,1c-0.7-0.5-1.4-1-2-1.6c0.5,0.4,1,0.9,1.4,1.5c-0.5-0.7-1-1.3-1.6-2c0.5,0.7,0.9,1.4,1.3,2.2
			c-0.3-0.8-0.7-1.6-1-2.4c0.1,0.4,0.3,0.7,0.4,1.1c1.2,3.8,4.3,6.6,8.3,7.2c1.8,0.2,3.5,0,5.2-0.7c1.8-0.8,3.9-2.2,4.8-4.1
			c2-4.2,3-8.3,3.8-12.8c-6.5-0.9-13.1-1.8-19.6-2.7c0,2.9,0,5.9,0.1,8.9c0.1,4.3,1,8.9,4.2,12.1c2.7,2.7,6.4,3.7,10.1,3.2
			c2.4-0.3,4.6-1.3,6.6-2.5c2.9-1.7,5.6-3.9,7.7-6.5c-5.2-4-10.5-8.1-15.7-12.1c-0.8,1.8-1.8,3.4-3,4.9c0.5-0.7,1-1.3,1.6-2
			c-1.9,2.4-4.3,4.7-6.7,6.7c0.7-0.5,1.4-1,2-1.6c-0.4,0.3-0.9,0.6-1.4,0.8c0.8-0.3,1.6-0.7,2.4-1c-0.2,0.1-0.5,0.2-0.7,0.2
			c0.9-0.1,1.8-0.2,2.7-0.4c-0.2,0-0.5,0.1-0.7,0c0.9,0.1,1.8,0.2,2.7,0.4c-0.2,0-0.4-0.1-0.6-0.2c0.8,0.3,1.6,0.7,2.4,1
			c-0.2-0.1-0.4-0.2-0.6-0.3c0.7,0.5,1.4,1,2,1.6c-0.4-0.3-0.7-0.6-1-1c0.5,0.7,1,1.3,1.6,2c-0.9-1.2-1.4-2.6-2.1-3.9
			c-1.1-2.3-2.6-4.3-4.7-5.9c-2.8-2.1-6-3-9.5-2.6c-3.7,0.5-7.3,2.7-9,6.1c-1.2,2.4-1.8,5-1,7.7c0.6,2.3,2.4,4.8,4.6,6
			c2.3,1.2,5.1,1.8,7.7,1c2.4-0.8,4.8-2.3,6-4.6c0.1-0.2,0.2-0.4,0.3-0.6c-0.5,0.7-1,1.3-1.6,2c0.1-0.2,0.2-0.3,0.4-0.4
			c-0.7,0.5-1.4,1-2,1.6c0.1-0.1,0.3-0.2,0.5-0.3c-0.8,0.3-1.6,0.7-2.4,1c0.2-0.1,0.3-0.1,0.5-0.1c-0.9,0.1-1.8,0.2-2.7,0.4
			c0.3,0,0.5,0,0.8,0c-0.9-0.1-1.8-0.2-2.7-0.4c0.2,0,0.4,0.1,0.5,0.2c-0.8-0.3-1.6-0.7-2.4-1c0.3,0.1,0.5,0.3,0.7,0.4
			c-0.7-0.5-1.4-1-2-1.6c0.3,0.2,0.5,0.5,0.7,0.7c-0.5-0.7-1-1.3-1.6-2c0.8,1.1,1.3,2.3,1.9,3.5c0.9,1.9,1.9,3.6,3.4,5.1
			c4.3,4.7,11.7,5.6,16.9,1.7c5.3-3.9,10.6-9.1,13.2-15.2c1.1-2.4,1.9-5,1-7.7c-0.7-2.1-1.8-3.8-3.6-5.2c-3.6-2.8-9.9-3.1-13.1,0.8
			c-1.1,1.3-2.3,2.5-3.7,3.6c0.7-0.5,1.4-1,2-1.6c-1.2,0.9-2.4,1.7-3.8,2.3c0.8-0.3,1.6-0.7,2.4-1c-0.4,0.2-0.7,0.3-1.1,0.4
			c0.9-0.1,1.8-0.2,2.7-0.4c-0.3,0.1-0.5,0.1-0.8,0c0.9,0.1,1.8,0.2,2.7,0.4c-0.1,0-0.2-0.1-0.4-0.1c0.8,0.3,1.6,0.7,2.4,1
			c-0.2-0.1-0.3-0.2-0.5-0.3c0.7,0.5,1.4,1,2,1.6c-0.1-0.1-0.3-0.2-0.4-0.4c0.5,0.7,1,1.3,1.6,2c-0.2-0.2-0.3-0.5-0.4-0.8
			c0.3,0.8,0.7,1.6,1,2.4c-0.2-0.6-0.4-1.3-0.5-2c0.1,0.9,0.2,1.8,0.4,2.7c-0.4-3.6-0.2-7.2-0.2-10.8c0-5-3.8-9.2-8.7-9.8
			c-2.1-0.3-4.5,0-6.4,1.2c-2.1,1.3-4.1,3.5-4.6,6c-0.6,3.3-1.2,6.6-2.5,9.7c0.3-0.8,0.7-1.6,1-2.4c-0.1,0.3-0.2,0.5-0.4,0.8
			c6.1,0.8,12.2,1.6,18.3,2.4c-2.3-7.2-8.1-13.3-15.9-13.5c-4.8-0.2-9.6,2.5-11.8,6.8c-1.8,3.5-1.5,7.2-1.9,11
			c0.1-0.9,0.2-1.8,0.4-2.7c-0.1,1.1-0.4,2.2-0.8,3.2c0.3-0.8,0.7-1.6,1-2.4c-0.3,0.6-0.6,1.1-0.9,1.7c0.5-0.7,1-1.3,1.6-2
			c-0.2,0.3-0.5,0.5-0.7,0.7c0.7-0.5,1.4-1,2-1.6c-0.3,0.2-0.5,0.4-0.8,0.5c0.8-0.3,1.6-0.7,2.4-1c-0.3,0.1-0.6,0.2-0.9,0.3
			c0.9-0.1,1.8-0.2,2.7-0.4c-0.3,0-0.6,0-0.9,0c0.9,0.1,1.8,0.2,2.7,0.4c-0.2,0-0.4-0.1-0.6-0.2c0.8,0.3,1.6,0.7,2.4,1
			c-0.2-0.1-0.4-0.2-0.5-0.3c0.7,0.5,1.4,1,2,1.6c-0.2-0.1-0.3-0.3-0.5-0.5c-1.5,5.6-2.9,11.1-4.4,16.7c2.2-0.7,4.5-1.5,6.7-2.2
			c4.8-1.6,7.8-5.9,7.2-11c-0.7-5-4.8-8.5-9.8-8.7c-1,0-1.9-0.1-2.9-0.1c-5.2-0.2-10.2,4.7-10,10C227.9,90.2,232,94.5,237.6,94.7
			L237.6,94.7z"/>
	</g>
</g>
<g>
	<g>
		<path class="st22" d="M255.8,78.4c5.2,0,10.2-4.6,10-10s-4.4-10-10-10c-5.2,0-10.2,4.6-10,10C246.1,73.9,250.2,78.4,255.8,78.4
			L255.8,78.4z"/>
	</g>
</g>
<g>
	<g>
		<path class="st22" d="M252.8,79.2c5.2,0,10.2-4.6,10-10s-4.4-10-10-10c-5.2,0-10.2,4.6-10,10C243,74.7,247.2,79.2,252.8,79.2
			L252.8,79.2z"/>
	</g>
</g>
<g>
	<g>
		<path class="st22" d="M261.9,97.9c5.2,0,10.2-4.6,10-10s-4.4-10-10-10c-5.2,0-10.2,4.6-10,10C252.1,93.3,256.3,97.9,261.9,97.9
			L261.9,97.9z"/>
	</g>
</g>
<g>
	<g>
		<path class="st22" d="M258.3,86.6c5.2,0,10.2-4.6,10-10s-4.4-10-10-10c-5.2,0-10.2,4.6-10,10C248.5,82,252.7,86.6,258.3,86.6
			L258.3,86.6z"/>
	</g>
</g>
<g>
	<g>
		<path class="st22" d="M709.4,231.8c-2.5-1.9-6.1-3.5-9-1.5c-2.5,1.7-3.7,5-2.9,7.9c0.6-1,1.2-2.1,1.8-3.1
			c-0.5,0.1-1.5-0.9-1.9-1.2c-0.9-0.8-1.8-1.6-2.8-2.1c-2.1-1.1-4.8-1.4-6.7,0.3c-1.9,1.6-2.2,4.2-2,6.6c0,1,0.2,2,0,3
			c-0.1,0.8-0.4,1-0.9,1.4c-1.7,1.1-3.5,1.8-4.6,3.7c-1.2,2.2-0.9,4.9,0.2,7.1c1.2,2.2,3.3,3.6,5.8,4.1c2.5,0.4,5.5,0.8,7.7-0.8
			c0.8-0.6,1.5-1.3,2.2-2c0.3-0.3,0.7-0.7,1-1c0.1-0.1,0.3-0.3,0.5-0.4c-0.2,0.1,0.2-0.3,0-0.1c0-0.1,0.5,0,0.1,0h-0.3
			c-0.1,0.1,0-0.2,0.1,0.1c-0.1-0.2,0.1,0.2,0.1,0.2c0.5,0.8,0.8,1.7,1.2,2.6c0.8,2,1.8,3.9,3.8,5c1.7,0.9,3.7,1,5.5,0.3
			c2-0.8,3.5-2.2,4.4-4.1c0.5-1.1,0.7-2.2,0.9-3.3c0.1-0.8,0.2-2.1,0.6-2.7c0.3-0.4,1.2-0.2,1.8-0.3c1.2-0.2,2.3-0.6,3.2-1.5
			c1.6-1.4,2.5-3.5,2.8-5.6c0.3-2.6-0.3-5.3-2.1-7.2c-1.7-1.7-4.2-2.5-6.5-1.8c-1.2,0.4-2.2,1.2-3,2.2c-0.4,0.5-0.7,1-1.2,1.5
			c0,0.1-0.1,0.1-0.1,0.1c-0.4,0.3-0.3,0.3,0,0.1c0.2,0.2,1.1,0.5,1,0.6s0-0.4,0-0.2c0-0.2,0-0.6,0-0.8c0-0.5,0.1-1.1,0.1-1.6
			c0-1.3-0.3-2.6-1.3-3.6c-2.4-2.2-5.9,1.3-3.5,3.5c-0.2-0.2-0.1-0.7-0.1-0.1c0,0.4,0,0.8,0,1.3c0,0.9,0,1.9,0.2,2.8
			c0.6,2.4,3.1,3.6,5.4,2.8c1.1-0.4,1.9-1.2,2.6-2.1c0.5-0.7,1.1-1.5,1.7-1.8c-0.1,0.1,0.2,0,0.2,0s0.3,0,0.5,0.1
			c0.4,0.2,0.9,0.6,1.2,1.2c0.6,1.2,0.4,2.7-0.1,3.8c-0.2,0.5-0.7,1.1-0.9,1.2c-0.3,0.2-0.1,0.1-0.5,0.1c-0.7,0.1-1.3,0.1-2,0.2
			c-2.3,0.4-3.6,2.4-4.2,4.5c-0.4,1.6-0.3,3.5-1.2,4.9c-0.6,1-1.4,1.3-2.3,1.3c0.4,0-0.4-0.1-0.6-0.2c0.4,0.2-0.5-0.4-0.2-0.2
			c-0.5-0.4-0.8-1.1-1.1-1.8c-0.7-1.7-1.2-3.5-2.5-4.9c-1.5-1.6-3.7-1.9-5.6-1c-1.5,0.8-2.6,2.2-3.8,3.3c-1.1,1.1-3.2,0.8-4.8,0.4
			c-1.5-0.4-2.5-1.3-2.5-2.9c-0.1-1.4,1.2-1.7,2.4-2.4c2-1.1,3.4-2.7,3.7-5c0.2-1.2,0.2-2.4,0.1-3.6c0-0.9-0.2-2,0.1-2.9
			c0.1-0.2,0.3-0.4,0.1-0.2c0,0.1-0.1,0-0.2,0c0.2-0.1,0.3,0,0.5,0c0.8,0.2,1.5,0.8,2.1,1.3c2.2,1.8,4.2,3.2,7.1,2.8
			c1.3-0.2,2.1-1.9,1.8-3.1c-0.2-0.9,0.1-2,0.8-2.4c0.9-0.5,2.9,1,3.7,1.6c1.1,0.8,2.8,0.2,3.4-0.9
			C711,233.9,710.5,232.6,709.4,231.8L709.4,231.8z"/>
	</g>
</g>
<g>
	<g>
		<path class="st22" d="M688.3,258.9c1,0,2,0.1,2.9,0.1c-0.9-6.6-1.8-13.1-2.7-19.6c-2.2,0.7-4.5,1.5-6.7,2.2c-3.4,1.1-6,3.5-7,7
			c-1,3.6,0.2,7,2.6,9.7c3,3.4,7.9,4.6,12.2,3.6c3.6-0.8,6.5-3.2,8.5-6.2c1.3-2,2.2-4.4,2.5-6.7c0.4-2.6,0.4-5.2,0.7-7.8
			c-0.1,0.9-0.2,1.8-0.4,2.7c0.1-0.4,0.2-0.8,0.3-1.2c-0.3,0.8-0.7,1.6-1,2.4c0.1-0.2,0.2-0.5,0.3-0.7c-0.5,0.7-1,1.4-1.6,2
			c0.1-0.2,0.3-0.4,0.5-0.5c-0.7,0.5-1.3,1-2,1.6c0.3-0.2,0.5-0.3,0.8-0.5c-0.8,0.3-1.6,0.7-2.4,1c0.2-0.1,0.4-0.1,0.6-0.2
			c-0.9,0.1-1.8,0.2-2.7,0.4c0.4-0.1,0.8-0.1,1.2,0c-0.9-0.1-1.8-0.2-2.7-0.4c0.4,0.1,0.8,0.2,1.2,0.3c-0.8-0.3-1.6-0.7-2.4-1
			c0.6,0.3,1.2,0.6,1.7,1c-0.7-0.5-1.3-1-2-1.6c0.5,0.4,1,0.9,1.5,1.5c-0.5-0.7-1-1.4-1.6-2c0.5,0.7,0.9,1.4,1.3,2.2
			c-0.3-0.8-0.7-1.6-1-2.4c0.2,0.4,0.3,0.7,0.4,1.1c1.2,3.8,4.3,6.6,8.3,7.2c1.8,0.2,3.5,0,5.2-0.7c1.8-0.8,3.9-2.2,4.8-4.1
			c2-4.2,3-8.3,3.8-12.8c-6.5-0.9-13.1-1.8-19.6-2.7c0,2.9,0,5.9,0.1,8.9c0.1,4.3,1,8.9,4.2,12.1c2.7,2.7,6.4,3.7,10.1,3.2
			c2.4-0.3,4.6-1.3,6.6-2.5c2.9-1.7,5.6-3.9,7.7-6.5c-5.2-4-10.5-8.1-15.7-12.1c-0.8,1.8-1.8,3.4-3,4.9c0.5-0.7,1-1.4,1.6-2
			c-2,2.4-4.3,4.7-6.7,6.7c0.7-0.5,1.3-1,2-1.6c-0.4,0.3-0.9,0.6-1.3,0.9c0.8-0.3,1.6-0.7,2.4-1c-0.2,0.1-0.5,0.2-0.7,0.2
			c0.9-0.1,1.8-0.2,2.7-0.4c-0.2,0-0.5,0.1-0.7,0c0.9,0.1,1.8,0.2,2.7,0.4c-0.2,0-0.4-0.1-0.6-0.2c0.8,0.3,1.6,0.7,2.4,1
			c-0.2-0.1-0.4-0.2-0.6-0.3c0.7,0.5,1.3,1,2,1.6c-0.4-0.3-0.7-0.6-1-1c0.5,0.7,1,1.4,1.6,2c-0.9-1.2-1.4-2.6-2.1-3.9
			c-1.1-2.3-2.6-4.4-4.7-5.9c-2.8-2.1-6-3-9.5-2.6c-3.7,0.5-7.3,2.7-9,6.1c-1.2,2.4-1.8,5-1,7.7c0.6,2.3,2.4,4.8,4.6,6
			c2.3,1.2,5.1,1.8,7.7,1c2.4-0.8,4.8-2.3,6-4.6c0.1-0.2,0.2-0.4,0.3-0.6c-0.5,0.7-1,1.4-1.6,2c0.1-0.1,0.2-0.3,0.4-0.4
			c-0.7,0.5-1.3,1-2,1.6c0.1-0.1,0.3-0.2,0.5-0.3c-0.8,0.3-1.6,0.7-2.4,1c0.2-0.1,0.3-0.1,0.5-0.1c-0.9,0.1-1.8,0.2-2.7,0.4
			c0.3,0,0.5,0,0.8,0c-0.9-0.1-1.8-0.2-2.7-0.4c0.2,0,0.4,0.1,0.5,0.1c-0.8-0.3-1.6-0.7-2.4-1c0.3,0.1,0.5,0.3,0.7,0.4
			c-0.7-0.5-1.3-1-2-1.6c0.3,0.2,0.5,0.5,0.7,0.7c-0.5-0.7-1-1.4-1.6-2c0.8,1.1,1.3,2.3,1.9,3.5c0.9,1.9,1.9,3.6,3.3,5.1
			c4.3,4.7,11.7,5.6,16.9,1.7c5.3-3.9,10.6-9.1,13.2-15.2c1.1-2.4,1.9-5,1-7.7c-0.7-2.1-1.8-3.8-3.6-5.2c-3.6-2.8-9.9-3.1-13.1,0.8
			c-1.1,1.3-2.3,2.5-3.7,3.6c0.7-0.5,1.3-1,2-1.6c-1.2,0.9-2.5,1.7-3.8,2.3c0.8-0.3,1.6-0.7,2.4-1c-0.4,0.2-0.7,0.3-1.2,0.4
			c0.9-0.1,1.8-0.2,2.7-0.4c-0.3,0.1-0.5,0.1-0.8,0c0.9,0.1,1.8,0.2,2.7,0.4c-0.1,0-0.2-0.1-0.4-0.1c0.8,0.3,1.6,0.7,2.4,1
			c-0.2-0.1-0.3-0.2-0.5-0.3c0.7,0.5,1.3,1,2,1.6c-0.1-0.1-0.3-0.2-0.4-0.4c0.5,0.7,1,1.4,1.6,2c-0.2-0.2-0.3-0.5-0.4-0.8
			c0.3,0.8,0.7,1.6,1,2.4c-0.2-0.6-0.4-1.3-0.5-2c0.1,0.9,0.2,1.8,0.4,2.7c-0.4-3.6-0.2-7.2-0.2-10.8c0-5-3.8-9.2-8.7-9.8
			c-2.1-0.3-4.5,0-6.4,1.2c-2.1,1.3-4.2,3.4-4.6,6c-0.6,3.3-1.2,6.6-2.5,9.7c0.3-0.8,0.7-1.6,1-2.4c-0.1,0.3-0.2,0.5-0.3,0.8
			c6.1,0.8,12.2,1.6,18.3,2.4c-2.3-7.1-8.1-13.3-16-13.5c-4.8-0.2-9.5,2.5-11.8,6.8c-1.8,3.5-1.5,7.2-1.9,11
			c0.1-0.9,0.2-1.8,0.4-2.7c-0.2,1.1-0.4,2.2-0.8,3.2c0.3-0.8,0.7-1.6,1-2.4c-0.3,0.6-0.5,1.1-0.9,1.7c0.5-0.7,1-1.4,1.6-2
			c-0.2,0.3-0.5,0.5-0.7,0.7c0.7-0.5,1.3-1,2-1.6c-0.3,0.2-0.5,0.4-0.8,0.5c0.8-0.3,1.6-0.7,2.4-1c-0.3,0.1-0.6,0.2-0.9,0.3
			c0.9-0.1,1.8-0.2,2.7-0.4c-0.3,0-0.6,0-0.9,0c0.9,0.1,1.8,0.2,2.7,0.4c-0.2,0-0.4-0.1-0.6-0.2c0.8,0.3,1.6,0.7,2.4,1
			c-0.2-0.1-0.4-0.2-0.5-0.3c0.7,0.5,1.3,1,2,1.6c-0.2-0.1-0.3-0.3-0.5-0.5c-1.5,5.6-2.9,11.1-4.4,16.7c2.2-0.7,4.5-1.5,6.7-2.2
			c4.8-1.6,7.8-5.9,7.2-11c-0.7-5-4.8-8.5-9.8-8.7c-1,0-2-0.1-2.9-0.1c-5.2-0.2-10.2,4.7-10,10C678.5,254.5,682.7,258.7,688.3,258.9
			L688.3,258.9z"/>
	</g>
</g>
<g>
	<g>
		<path class="st22" d="M706.5,242.7c5.2,0,10.2-4.6,10-10s-4.4-10-10-10c-5.2,0-10.2,4.6-10,10
			C696.7,238.1,700.9,242.7,706.5,242.7L706.5,242.7z"/>
	</g>
</g>
<g>
	<g>
		<path class="st22" d="M703.5,243.5c5.2,0,10.2-4.6,10-10s-4.4-10-10-10c-5.2,0-10.2,4.6-10,10S697.9,243.5,703.5,243.5
			L703.5,243.5z"/>
	</g>
</g>
<g>
	<g>
		<path class="st22" d="M712.6,262.1c5.2,0,10.2-4.6,10-10s-4.4-10-10-10c-5.2,0-10.2,4.6-10,10C702.8,257.6,707,262.1,712.6,262.1
			L712.6,262.1z"/>
	</g>
</g>
<g>
	<g>
		<path class="st22" d="M708.9,250.8c5.2,0,10.2-4.6,10-10s-4.4-10-10-10c-5.2,0-10.2,4.6-10,10
			C699.2,246.2,703.3,250.8,708.9,250.8L708.9,250.8z"/>
	</g>
</g>
<rect x="614" y="457.9" transform="matrix(2.707867e-03 -1 1 2.707867e-03 125.0539 1129.0846)" class="st15" width="29.3" height="87.8"/>
<line class="st23" x1="349.7" y1="739.7" x2="452.5" y2="739.7"/>
<line class="st23" x1="376.9" y1="706.6" x2="376.9" y2="773"/>
<line class="st23" x1="420.7" y1="706.6" x2="420.7" y2="772.8"/>
</svg>
