<?xml version="1.0" encoding="utf-8"?>
<!-- Generator: Adobe Illustrator 26.5.2, SVG Export Plug-In . SVG Version: 6.00 Build 0)  -->
<svg version="1.1" id="Layer_1" xmlns="http://www.w3.org/2000/svg" xmlns:xlink="http://www.w3.org/1999/xlink" x="0px" y="0px"
	 viewBox="0 0 595.28 841.89" style="enable-background:new 0 0 595.28 841.89;" xml:space="preserve">
<style type="text/css">
	.st0{fill:#FFFFFF;}
</style>
<g>
	<g>
		<path class="st0" d="M310.46,407.85c-3.48-1.91-7.63-3.57-11.5-1.77c-3.06,1.42-5.33,5.14-4.02,8.49c0.8-1.05,1.61-2.11,2.41-3.16
			c-2.85,0.34-5-1.92-7.37-3.14c-2.39-1.23-5.36-1.96-7.96-0.94c-3.02,1.19-4.12,4.15-3.99,7.2c0.05,1.15,0.34,2.46,0.1,3.59
			c-0.2,0.97-0.62,1.16-1.5,1.61c-1.91,0.97-4.38,1.49-5.94,3.3c-2.03,2.34-1.98,5.68-0.33,8.22c1.82,2.81,4.93,3.95,8.12,4.35
			c3.11,0.4,6.53,0.71,9.45-0.65c2.06-0.96,3.75-3.15,5.74-3.87c0.73-0.26,1.14-0.09,1.62,0.41c0.61,0.63,1.13,1.73,1.6,2.63
			c1.14,2.15,2.49,4.14,4.78,5.18c2.23,1.01,4.77,1.2,7.13,0.55c2.32-0.63,4.42-2.07,5.7-4.12c0.67-1.08,1.02-2.34,1.31-3.56
			c0.22-0.95,0.31-2.42,1.01-3.16c0.61-0.64,2.03-0.43,2.91-0.49c1.45-0.11,2.84-0.42,4.09-1.18c2.22-1.36,3.84-3.74,4.27-6.3
			c0.53-3.23-0.7-6.27-3.35-8.19c-2.21-1.6-5.33-2.17-7.95-1.34c-1.65,0.53-2.9,1.53-4.11,2.74c-0.44,0.44-0.89,1.05-1.48,1.29
			c-0.34,0.14-0.95-0.04-0.27,0.29c0.22,0.11-0.12,0.17,0.04-0.01c0.01-0.01-0.02-0.39-0.01-0.64c0.02-0.6,0.1-1.2,0.1-1.8
			c-0.01-1.77-0.63-3.18-2.12-4.19c-2.67-1.81-5.18,2.52-2.52,4.32c-0.75-0.51-0.16-0.56-0.33-0.28c-0.02,0.03-0.03-0.75-0.02,0.15
			c0,0.5-0.06,1-0.08,1.5c-0.06,1.21,0.07,2.45,0.67,3.52c1.47,2.62,5.04,2.76,7.37,1.29c1.1-0.7,1.95-1.69,2.89-2.57
			c0.66-0.61,1.36-0.91,2.03-0.97c1.51-0.13,3.25,0.53,3.97,1.91c0.67,1.26,0.34,2.87-0.59,4.05c-1.45,1.84-3.51,1.27-5.68,1.66
			c-2.86,0.51-4.5,2.75-5.23,5.41c-0.3,1.1-0.45,2.25-0.84,3.32c-0.24,0.64-0.55,1.11-1.23,1.66c-1.02,0.84-2.65,1.25-4.25,1.04
			c-0.31-0.04-1.2-0.34-1.61-0.58c-0.69-0.41-1.12-0.99-1.63-1.87c-1.09-1.89-1.91-3.97-3.67-5.36c-2.05-1.63-4.64-1.75-6.97-0.64
			c-2.01,0.96-3.46,2.84-5.48,3.75c-1.08,0.49-2.3,0.45-3.47,0.4c-1.3-0.05-2.64-0.09-3.92-0.34c-1.75-0.34-4.27-1.26-4.22-3.42
			c0.01-0.6,0.35-0.89,0.68-1.12c0.88-0.62,1.69-0.83,2.67-1.23c2.51-1.02,4.84-2.5,5.49-5.34c0.32-1.39,0.22-2.79,0.12-4.2
			c-0.06-0.82-0.3-2.11,0.16-2.83c0.37-0.58,1.15-0.64,1.9-0.56c1.17,0.12,2.25,0.66,3.24,1.26c2.74,1.66,5.57,3.7,8.96,3.29
			c1.43-0.17,3.07-1.49,2.41-3.16c-0.46-1.17,0.37-2.37,1.76-2.81c2.13-0.67,4.63,0.76,6.42,1.75
			C310.76,413.72,313.29,409.4,310.46,407.85L310.46,407.85z"/>
	</g>
</g>
<g>
	<g>
		<path class="st0" d="M280.59,436.18c1.41,0.04,2.81,0.08,4.22,0.12c-0.89-6.55-1.77-13.1-2.66-19.64
			c-3.22,0.79-6.45,1.58-9.67,2.37c-7.03,1.72-10.05,11.75-4.41,16.71c2.97,2.61,6.6,4.27,10.63,4c4-0.27,7.74-1.78,10.61-4.62
			c2.35-2.33,4.08-5.61,4.8-8.82c0.6-2.7,0.58-5.39,0.84-8.11c-0.12,0.89-0.24,1.77-0.36,2.66c0.07-0.5,0.18-0.97,0.36-1.45
			c-0.34,0.8-0.67,1.59-1.01,2.39c0.1-0.23,0.22-0.45,0.36-0.65c-0.52,0.67-1.04,1.35-1.56,2.02c0.22-0.28,0.43-0.5,0.71-0.72
			c-0.67,0.52-1.35,1.04-2.02,1.56c0.29-0.2,0.56-0.35,0.88-0.49c-0.8,0.34-1.59,0.67-2.39,1.01c0.44-0.16,0.88-0.27,1.34-0.34
			c-0.89,0.12-1.77,0.24-2.66,0.36c0.71-0.07,1.4-0.05,2.11,0.04c-0.89-0.12-1.77-0.24-2.66-0.36c0.83,0.14,1.61,0.36,2.4,0.67
			c-0.8-0.34-1.59-0.67-2.39-1.01c0.88,0.38,1.69,0.86,2.47,1.43c-0.67-0.52-1.35-1.04-2.02-1.56c0.75,0.6,1.42,1.26,2.02,2.01
			c-0.52-0.67-1.04-1.35-1.56-2.02c0.5,0.68,0.92,1.38,1.27,2.15c-0.34-0.8-0.67-1.59-1.01-2.39c0.05,0.11,0.09,0.22,0.14,0.33
			c0.67,1.61,1.31,3.15,2.57,4.41c1.56,1.56,3.58,2.46,5.74,2.75c4.02,0.54,7.8-1.34,9.96-4.77c2.62-4.15,3.96-8.95,5.09-13.68
			c-6.55-0.89-13.1-1.77-19.64-2.66c0.09,8.26-1.23,19.25,7.41,23.92c5.77,3.11,11.76,1.02,17.19-1.59
			c3.41-1.64,6.51-3.96,9.31-6.49c-5.24-4.04-10.47-8.08-15.71-12.12c-0.47,0.81-0.98,1.58-1.54,2.33c0.52-0.67,1.04-1.35,1.56-2.02
			c-1.73,2.23-3.81,4.11-6.03,5.84c0.67-0.52,1.35-1.04,2.02-1.56c-2.35,1.8-4.83,3.77-7.51,5.05c0.8-0.34,1.59-0.67,2.39-1.01
			c-0.52,0.22-1.03,0.38-1.58,0.5c0.89-0.12,1.77-0.24,2.66-0.36c-0.43,0.05-0.8,0.07-1.23,0.04c0.89,0.12,1.77,0.24,2.66,0.36
			c-0.51-0.08-0.96-0.2-1.43-0.4c0.8,0.34,1.59,0.67,2.39,1.01c-0.34-0.17-0.65-0.36-0.96-0.58c0.67,0.52,1.35,1.04,2.02,1.56
			c-0.62-0.48-1.15-1.02-1.64-1.63c0.52,0.67,1.04,1.35,1.56,2.02c-0.98-1.28-1.71-2.73-2.61-4.06c-1.69-2.49-3.62-4.79-6.29-6.27
			c-3.29-1.82-6.8-2.17-10.45-1.54c-3.58,0.61-6.52,3.08-8.42,6.07c-2.81,4.43-1.07,11.22,3.59,13.68
			c4.94,2.61,10.69,1.14,13.68-3.59c0.05-0.09,0.11-0.17,0.16-0.26c-0.52,0.67-1.04,1.35-1.56,2.02c0.2-0.24,0.38-0.43,0.62-0.62
			c-0.67,0.52-1.35,1.04-2.02,1.56c0.16-0.11,0.33-0.21,0.5-0.29c-0.8,0.34-1.59,0.67-2.39,1.01c0.38-0.15,0.75-0.25,1.15-0.31
			c-0.89,0.12-1.77,0.24-2.66,0.36c0.42-0.03,0.82-0.01,1.25,0.04c-0.89-0.12-1.77-0.24-2.66-0.36c0.42,0.08,0.82,0.2,1.21,0.36
			c-0.8-0.34-1.59-0.67-2.39-1.01c0.41,0.2,0.76,0.42,1.12,0.69c-0.67-0.52-1.35-1.04-2.02-1.56c0.49,0.41,0.91,0.86,1.31,1.36
			c-0.52-0.67-1.04-1.35-1.56-2.02c0.93,1.23,1.63,2.6,2.49,3.89c1.66,2.49,3.46,4.47,5.92,6.16c5.29,3.64,12.22,2.66,17.34-0.73
			c6.38-4.21,12.74-8.91,16.64-15.64c2.51-4.33,1.33-9.88-2.58-12.9c-4.05-3.13-9.39-2.59-13.13,0.78c-0.63,0.56-1.27,1.1-1.93,1.62
			c0.67-0.52,1.35-1.04,2.02-1.56c-2.13,1.62-4.43,2.95-6.89,3.99c0.8-0.34,1.59-0.67,2.39-1.01c-1.18,0.48-2.37,0.94-3.62,1.15
			c0.89-0.12,1.77-0.24,2.66-0.36c-0.44,0.04-0.81,0.04-1.25-0.02c0.89,0.12,1.77,0.24,2.66,0.36c-0.24-0.05-0.47-0.12-0.7-0.22
			c0.8,0.34,1.59,0.67,2.39,1.01c-0.18-0.08-0.36-0.19-0.52-0.31c0.67,0.52,1.35,1.04,2.02,1.56c-0.24-0.2-0.43-0.39-0.63-0.62
			c0.52,0.67,1.04,1.35,1.56,2.02c-0.24-0.34-0.43-0.68-0.6-1.07c0.34,0.8,0.67,1.59,1.01,2.39c-0.23-0.62-0.38-1.25-0.48-1.91
			c0.12,0.89,0.24,1.77,0.36,2.66c-0.46-3.73-0.2-7.63-0.24-11.38c-0.05-4.99-3.76-9.16-8.67-9.82c-4.73-0.64-9.82,2.3-10.97,7.16
			c-0.67,2.8-1.36,5.6-2.48,8.26c0.34-0.8,0.67-1.59,1.01-2.39c-0.46,1.05-0.99,2.06-1.6,3.03c6.09,0.8,12.18,1.59,18.28,2.39
			c-0.97-2.34-1.7-3.93-3.2-5.88c-1.17-1.52-2.29-2.64-3.81-3.81c-3.41-2.63-7.18-3.93-11.45-4.31c-1.77-0.16-3.74,0.11-5.42,0.66
			c-3.21,1.06-5.91,2.99-7.72,5.87c-2.25,3.57-1.85,7.47-2.35,11.43c0.12-0.89,0.24-1.77,0.36-2.66c-0.16,1.05-0.4,2.05-0.79,3.04
			c0.34-0.8,0.67-1.59,1.01-2.39c-0.32,0.72-0.69,1.37-1.17,2c0.52-0.67,1.04-1.35,1.56-2.02c-0.3,0.36-0.62,0.68-0.98,0.98
			c0.67-0.52,1.35-1.04,2.02-1.56c-0.46,0.34-0.92,0.61-1.44,0.84c0.8-0.34,1.59-0.67,2.39-1.01c-0.53,0.2-1.04,0.34-1.6,0.42
			c0.89-0.12,1.77-0.24,2.66-0.36c-0.44,0.04-0.85,0.04-1.29-0.01c0.89,0.12,1.77,0.24,2.66,0.36c-0.43-0.07-0.81-0.18-1.21-0.35
			c0.8,0.34,1.59,0.67,2.39,1.01c-0.29-0.15-0.55-0.31-0.81-0.5c0.67,0.52,1.35,1.04,2.02,1.56c-0.08-0.07-0.16-0.14-0.25-0.22
			c-1.47,5.57-2.94,11.14-4.41,16.71c3.22-0.79,6.45-1.58,9.67-2.37c4.84-1.19,7.8-6.22,7.16-10.97c-0.67-4.96-4.8-8.53-9.82-8.67
			c-1.41-0.04-2.81-0.08-4.22-0.12c-5.23-0.14-10.24,4.7-10,10C270.84,431.72,274.98,436.02,280.59,436.18L280.59,436.18z"/>
	</g>
</g>
<g>
	<g>
		<path class="st0" d="M306.83,418.65c5.23,0,10.24-4.6,10-10c-0.24-5.42-4.39-10-10-10c-5.23,0-10.24,4.6-10,10
			C297.08,414.07,301.23,418.65,306.83,418.65L306.83,418.65z"/>
	</g>
</g>
<g>
	<g>
		<path class="st0" d="M302.46,419.52c5.23,0,10.24-4.6,10-10c-0.24-5.42-4.39-10-10-10c-5.23,0-10.24,4.6-10,10
			C292.7,414.94,296.85,419.52,302.46,419.52L302.46,419.52z"/>
	</g>
</g>
<g>
	<g>
		<path class="st0" d="M315.58,439.68c5.23,0,10.24-4.6,10-10c-0.24-5.42-4.39-10-10-10c-5.23,0-10.24,4.6-10,10
			C305.83,435.1,309.98,439.68,315.58,439.68L315.58,439.68z"/>
	</g>
</g>
<g>
	<g>
		<path class="st0" d="M310.33,427.41c5.23,0,10.24-4.6,10-10c-0.24-5.42-4.39-10-10-10c-5.23,0-10.24,4.6-10,10
			C300.58,422.83,304.73,427.41,310.33,427.41L310.33,427.41z"/>
	</g>
</g>
</svg>
