<?xml version="1.0" encoding="utf-8"?>
<!-- Generator: Adobe Illustrator 26.5.2, SVG Export Plug-In . SVG Version: 6.00 Build 0)  -->
<svg version="1.1" id="Layer_1" xmlns="http://www.w3.org/2000/svg" xmlns:xlink="http://www.w3.org/1999/xlink" x="0px" y="0px"
	 viewBox="0 0 595.28 841.89" style="enable-background:new 0 0 595.28 841.89;" xml:space="preserve">
<style type="text/css">
	.st0{fill:#72716E;stroke:#000000;stroke-miterlimit:10;}
	.st1{fill:#72716E;stroke:#000000;stroke-width:2;stroke-miterlimit:10;}
	.st2{fill:none;stroke:#000000;stroke-width:2;stroke-miterlimit:10;}
</style>
<g>
	<g>
		<path d="M312.74,432.46c5.1,1.6,11.96,2.34,14.77-3.39c1.09-2.23,1.17-4.69,2.02-6.99c0.21-0.56,0.51-1.12,1.02-1.4
			c1.01-0.55,2.38-0.34,3.48-0.29c2.88,0.12,5.77-0.26,7.56-2.79c1.42-2.01,1.24-4.51,0.9-6.82c-0.13-0.89-0.36-2.1-0.44-2.74
			c-0.06-0.52-0.1-1.05-0.08-1.58c0.02-0.59-0.03-0.56,0.23-1.2c-0.15,0.37,0.24-0.36,0.23-0.35c-0.01,0.01,1.73-1.37,0.31-0.28
			c0.44-0.34,1.01-0.5,1.54-0.65c1.34-0.37,2.75-0.47,4.13-0.33c3.05,0.3,5.45,1.83,7.64,3.87c2.32,2.16,4.96,4.5,8.36,4.17
			c1.34-0.13,2.5-1.06,2.5-2.5c0-1.25-1.15-2.63-2.5-2.5c-2.33,0.22-4.04-2.01-5.64-3.46c-2.23-2.02-4.83-3.54-7.78-4.2
			c-5.52-1.24-13.39,0.07-13.99,6.87c-0.19,2.13,0.5,4.59,0.68,6.41c0.09,0.93,0.09,1.71-0.09,2.25c0.15-0.42-0.15,0.26-0.18,0.3
			c0.23-0.33-0.29,0.27-0.31,0.28c-0.21,0.13-0.71,0.22-0.98,0.25c-2.79,0.31-5.51-0.55-8.11,0.96c-2.19,1.28-3.21,3.62-3.77,5.99
			c-0.49,2.05-0.58,4.93-2.59,5.91c-2.26,1.1-5.35,0.07-7.6-0.63C310.99,426.67,309.68,431.5,312.74,432.46L312.74,432.46z"/>
	</g>
</g>
<g>
	<polygon class="st0" points="283.39,404.25 276.87,404.25 281.55,413.8 	"/>
	<path class="st1" d="M284.06,403.25c0,0,4.35-9.04,24.24-0.67c0,0,0.81,4.48,1.67,10.48c1.1,7.63,2.28,17.72,2,24.19
		c0,0-1,3.18-1.67,3.35h-28.42c0,0-3.85-8.54-0.33-26.8L284.06,403.25z"/>
	<path d="M314.83,410.28c0,0,9.53,3.68,2.84,14.24l-6.01,2.85l0.37,6.2c0,0,12.16-4.86,12.83-12.73c0,0,2.54-19.91-15.95-14.73
		l1.49,7.07C310.4,413.17,311.82,411.41,314.83,410.28z"/>
	<path class="st2" d="M299.11,411.12c0,0,2.34-3.18,5.18,0v21.44c0,0-2.17,3.18-5.18,0V411.12z"/>
	<polygon points="281.89,440.6 280.13,446.8 312.03,446.8 310.31,440.6 	"/>
</g>
<g>
	<g>
		<path d="M313.26,432.81c3.22,0,3.22-5,0-5C310.05,427.81,310.04,432.81,313.26,432.81L313.26,432.81z"/>
	</g>
</g>
</svg>
