<?xml version="1.0" encoding="UTF-8" standalone="no"?> <svg width="64" height="64" viewBox="0 0 64 64" fill="none" xmlns="http://www.w3.org/2000/svg">
<path d="M57.46 28.35C56.9396 28.2607 56.4061 28.2847 55.8958 28.4204C55.3856 28.5561 54.9106 28.8003 54.5034 29.1364C54.0961 29.4724 53.7662 29.8924 53.5361 30.3676C53.306 30.8428 53.1811 31.3621 53.17 31.89V36.43H50.62V22.43H54.17C54.4352 22.43 54.6896 22.3246 54.8771 22.1371C55.0646 21.9496 55.17 21.6952 55.17 21.43V16.3C55.17 16.0348 55.0646 15.7804 54.8771 15.5929C54.6896 15.4053 54.4352 15.3 54.17 15.3H50.62V10.73C50.62 10.4648 50.5146 10.2104 50.3271 10.0229C50.1396 9.83534 49.8852 9.72998 49.62 9.72998H47C46.7348 9.72998 46.4804 9.83534 46.2929 10.0229C46.1054 10.2104 46 10.4648 46 10.73V13.08H12.17V10.73C12.17 10.4648 12.0646 10.2104 11.8771 10.0229C11.6896 9.83534 11.4352 9.72998 11.17 9.72998H8.56C8.29478 9.72998 8.04043 9.83534 7.85289 10.0229C7.66536 10.2104 7.56 10.4648 7.56 10.73V15.3H4C3.73478 15.3 3.48043 15.4053 3.29289 15.5929C3.10536 15.7804 3 16.0348 3 16.3V21.41C3 21.6752 3.10536 21.9296 3.29289 22.1171C3.48043 22.3046 3.73478 22.41 4 22.41H7.56V41.59H4C3.73478 41.59 3.48043 41.6953 3.29289 41.8829C3.10536 42.0704 3 42.3248 3 42.59V47.7C3 47.9652 3.10536 48.2196 3.29289 48.4071C3.48043 48.5946 3.73478 48.7 4 48.7H7.56V53.27C7.56 53.5352 7.66536 53.7896 7.85289 53.9771C8.04043 54.1646 8.29478 54.27 8.56 54.27H11.17C11.4352 54.27 11.6896 54.1646 11.8771 53.9771C12.0646 53.7896 12.17 53.5352 12.17 53.27V50.92H46V53.27C46 53.5352 46.1054 53.7896 46.2929 53.9771C46.4804 54.1646 46.7348 54.27 47 54.27H49.62C49.8852 54.27 50.1396 54.1646 50.3271 53.9771C50.5146 53.7896 50.62 53.5352 50.62 53.27V48.7H54.17C54.4352 48.7 54.6896 48.5946 54.8771 48.4071C55.0646 48.2196 55.17 47.9652 55.17 47.7V46.14C55.8896 46.4552 56.6784 46.5792 57.46 46.5C58.392 46.5 59.2864 46.1326 59.9491 45.4773C60.6119 44.8221 60.9895 43.9319 61 43V31.89C60.9974 30.9519 60.6236 30.053 59.9602 29.3897C59.2969 28.7264 58.3981 28.3526 57.46 28.35V28.35ZM53.17 38.43V41.59H50.62V38.43H53.17ZM53.17 17.3V20.41H50.62V17.3H53.17ZM21.17 15.08H23.65V48.92H21.13L21.17 15.08ZM19.17 48.92H16.65V15.08H19.13L19.17 48.92ZM25.65 15.08H28.12V48.92H25.61L25.65 15.08ZM30.12 15.08H32.6V48.92H30.08L30.12 15.08ZM34.6 15.08H37V48.92H34.56L34.6 15.08ZM39.08 15.08H41.56V48.92H39L39.08 15.08ZM5 20.41V17.3H7.56V20.41H5ZM5 46.7V43.59H7.56V46.7H5ZM10.17 52.27H9.56V11.73H10.17V52.27ZM12.17 15.08H14.65V48.92H12.17V15.08ZM43.52 48.92V15.08H46V48.92H43.52ZM48.62 52.27H48V11.73H48.62V52.27ZM53.17 46.7H50.62V43.59H53.17V46.7ZM59 43C58.9974 43.4067 58.8339 43.7958 58.5454 44.0825C58.2569 44.3691 57.8667 44.53 57.46 44.53H56.71C56.3033 44.53 55.9131 44.3691 55.6246 44.0825C55.3361 43.7958 55.1726 43.4067 55.17 43V31.89C55.17 31.4815 55.3322 31.0898 55.6211 30.801C55.9099 30.5122 56.3016 30.35 56.71 30.35H57.46C57.8684 30.35 58.2601 30.5122 58.5489 30.801C58.8377 31.0898 59 31.4815 59 31.89V43Z" fill="black"/>
</svg>
