<?xml version="1.0" encoding="UTF-8"?>
<svg id="Layer_1" data-name="Layer 1" xmlns="http://www.w3.org/2000/svg" viewBox="0 0 118 105">
  <defs>
    <style>
      .cls-1, .cls-2 {
        fill: #72716e;
      }

      .cls-1, .cls-2, .cls-3 {
        stroke: #000;
        stroke-miterlimit: 10;
      }

      .cls-1, .cls-3 {
        stroke-width: 2px;
      }

      .cls-3 {
        fill: none;
      }
    </style>
  </defs>
  <path d="M54.74,65.46c5.1,1.6,11.96,2.34,14.77-3.39,1.09-2.23,1.17-4.69,2.02-6.99,.21-.56,.51-1.12,1.02-1.4,1.01-.55,2.38-.34,3.48-.29,2.88,.12,5.77-.26,7.56-2.79,1.42-2.01,1.24-4.51,.9-6.82-.13-.89-.36-2.1-.44-2.74-.06-.52-.1-1.05-.08-1.58,.02-.59-.03-.56,.23-1.2-.15,.37,.24-.36,.23-.35s1.73-1.37,.31-.28c.44-.34,1.01-.5,1.54-.65,1.34-.37,2.75-.47,4.13-.33,3.05,.3,5.45,1.83,7.64,3.87,2.32,2.16,4.96,4.5,8.36,4.17,1.34-.13,2.5-1.06,2.5-2.5,0-1.25-1.15-2.63-2.5-2.5-2.33,.22-4.04-2.01-5.64-3.46-2.23-2.02-4.83-3.54-7.78-4.2-5.52-1.24-13.39,.07-13.99,6.87-.19,2.13,.5,4.59,.68,6.41,.09,.93,.09,1.71-.09,2.25,.15-.42-.15,.26-.18,.3,.23-.33-.29,.27-.31,.28-.21,.13-.71,.22-.98,.25-2.79,.31-5.51-.55-8.11,.96-2.19,1.28-3.21,3.62-3.77,5.99-.49,2.05-.58,4.93-2.59,5.91-2.26,1.1-5.35,.07-7.6-.63-3.06-.95-4.37,3.88-1.31,4.84h0Z"/>
  <g>
    <polygon class="cls-2" points="25.39 37.25 18.87 37.25 23.55 46.8 25.39 37.25"/>
    <path class="cls-1" d="M26.06,36.25s4.35-9.04,24.24-.67c0,0,.81,4.48,1.67,10.48,1.1,7.63,2.28,17.72,2,24.19,0,0-1,3.18-1.67,3.35H23.88s-3.85-8.54-.33-26.8l2.51-10.55Z"/>
    <path d="M56.83,43.28s9.53,3.68,2.84,14.24l-6.01,2.85,.37,6.2s12.16-4.86,12.83-12.73c0,0,2.54-19.91-15.95-14.73l1.49,7.07s1.42-1.77,4.43-2.9Z"/>
    <path class="cls-3" d="M41.11,44.12s2.34-3.18,5.18,0v21.44s-2.17,3.18-5.18,0v-21.44Z"/>
    <polygon points="23.89 73.6 22.13 79.8 54.03 79.8 52.31 73.6 23.89 73.6"/>
  </g>
  <path d="M55.26,65.81c3.22,0,3.22-5,0-5s-3.22,5,0,5h0Z"/>
</svg>